<?xml version="1.0" encoding="UTF-8" standalone="no"?>
<!DOCTYPE svg PUBLIC "-//W3C//DTD SVG 1.1//EN"
 "http://www.w3.org/Graphics/SVG/1.1/DTD/svg11.dtd">
<!-- Generated by graphviz version 2.44.1 (20200629.0800)
 -->
<!-- Title: cpgschema Pages: 1 -->
<svg width="172pt" height="118pt"
 viewBox="0.00 0.00 172.00 118.00" xmlns="http://www.w3.org/2000/svg" xmlns:xlink="http://www.w3.org/1999/xlink">
<g id="graph0" class="graph" transform="scale(1 1) rotate(0) translate(4 114)">
<title>cpgschema</title>
<polygon fill="white" stroke="transparent" points="-4,4 -4,-114 168,-114 168,4 -4,4"/>
<!-- ARRAY_INITIALIZER -->
<g id="node1" class="node">
<title>ARRAY_INITIALIZER</title>
<polygon fill="none" stroke="black" points="0,-73.5 0,-109.5 164,-109.5 164,-73.5 0,-73.5"/>
<text text-anchor="start" x="8" y="-88.8" font-family="Times New Roman,serif" font-weight="bold" font-size="14.00">ARRAY_INITIALIZER</text>
</g>
<!-- AST_NODE -->
<g id="node2" class="node">
<title>AST_NODE</title>
<polygon fill="none" stroke="black" points="35,-0.5 35,-36.5 129,-36.5 129,-0.5 35,-0.5"/>
<text text-anchor="start" x="43" y="-20.3" font-family="Times New Roman,serif" font-weight="bold" font-size="14.00">AST_NODE</text>
<text text-anchor="start" x="52.5" y="-9.5" font-family="Times New Roman,serif" font-size="10.00">ORDER: int (1)</text>
</g>
<!-- ARRAY_INITIALIZER&#45;&gt;AST_NODE -->
<g id="edge1" class="edge">
<title>ARRAY_INITIALIZER&#45;&gt;AST_NODE</title>
<path fill="none" stroke="gray" d="M82,-73.46C82,-73.46 82,-46.59 82,-46.59"/>
<polygon fill="none" stroke="gray" points="85.5,-46.59 82,-36.59 78.5,-46.59 85.5,-46.59"/>
<text text-anchor="middle" x="79" y="-62.62" font-family="Times New Roman,serif" font-size="8.00">is</text>
</g>
</g>
</svg>
