<?xml version="1.0" encoding="UTF-8" standalone="no"?>
<!DOCTYPE svg PUBLIC "-//W3C//DTD SVG 1.1//EN"
 "http://www.w3.org/Graphics/SVG/1.1/DTD/svg11.dtd">
<!-- Generated by graphviz version 2.44.1 (20200629.0800)
 -->
<!-- Title: cpgschema Pages: 1 -->
<svg width="187pt" height="240pt"
 viewBox="0.00 0.00 187.00 240.00" xmlns="http://www.w3.org/2000/svg" xmlns:xlink="http://www.w3.org/1999/xlink">
<g id="graph0" class="graph" transform="scale(1 1) rotate(0) translate(4 236)">
<title>cpgschema</title>
<polygon fill="white" stroke="transparent" points="-4,4 -4,-236 183,-236 183,4 -4,4"/>
<!-- BINDING -->
<g id="node1" class="node">
<title>BINDING</title>
<polygon fill="none" stroke="black" points="34.5,-189.5 34.5,-231.5 144.5,-231.5 144.5,-189.5 34.5,-189.5"/>
<text text-anchor="start" x="57.5" y="-217.3" font-family="Times New Roman,serif" font-weight="bold" font-size="14.00">BINDING</text>
<text text-anchor="start" x="54.5" y="-206.5" font-family="Times New Roman,serif" font-size="10.00">NAME: string (1)</text>
<text text-anchor="start" x="42.5" y="-196.5" font-family="Times New Roman,serif" font-size="10.00">SIGNATURE: string (1)</text>
</g>
<!-- METHOD -->
<g id="node2" class="node">
<title>METHOD</title>
<polygon fill="none" stroke="black" points="0,-0.5 0,-152.5 179,-152.5 179,-0.5 0,-0.5"/>
<text text-anchor="start" x="56.5" y="-138.3" font-family="Times New Roman,serif" font-weight="bold" font-size="14.00">METHOD</text>
<text text-anchor="start" x="56.5" y="-127.5" font-family="Times New Roman,serif" font-size="10.00">CODE: string (1)</text>
<text text-anchor="start" x="54.5" y="-117.5" font-family="Times New Roman,serif" font-size="10.00">NAME: string (1)</text>
<text text-anchor="start" x="41" y="-107.5" font-family="Times New Roman,serif" font-size="10.00">FULL_NAME: string (1)</text>
<text text-anchor="start" x="33.5" y="-97.5" font-family="Times New Roman,serif" font-size="10.00">IS_EXTERNAL: boolean (1)</text>
<text text-anchor="start" x="42.5" y="-87.5" font-family="Times New Roman,serif" font-size="10.00">SIGNATURE: string (1)</text>
<text text-anchor="start" x="24.5" y="-77.5" font-family="Times New Roman,serif" font-size="10.00">AST_PARENT_TYPE: string (1)</text>
<text text-anchor="start" x="8" y="-67.5" font-family="Times New Roman,serif" font-size="10.00">AST_PARENT_FULL_NAME: string (1)</text>
<text text-anchor="start" x="39.5" y="-57.5" font-family="Times New Roman,serif" font-size="10.00">LINE_NUMBER: int (0:1)</text>
<text text-anchor="start" x="29" y="-47.5" font-family="Times New Roman,serif" font-size="10.00">COLUMN_NUMBER: int (0:1)</text>
<text text-anchor="start" x="27.5" y="-37.5" font-family="Times New Roman,serif" font-size="10.00">LINE_NUMBER_END: int (0:1)</text>
<text text-anchor="start" x="17" y="-27.5" font-family="Times New Roman,serif" font-size="10.00">COLUMN_NUMBER_END: int (0:1)</text>
<text text-anchor="start" x="60" y="-17.5" font-family="Times New Roman,serif" font-size="10.00">ORDER: int (1)</text>
<text text-anchor="start" x="45.5" y="-7.5" font-family="Times New Roman,serif" font-size="10.00">FILENAME: string (1)</text>
</g>
<!-- BINDING&#45;&gt;METHOD -->
<g id="edge1" class="edge">
<title>BINDING&#45;&gt;METHOD</title>
<path fill="none" stroke="black" d="M89.5,-189.27C89.5,-189.27 89.5,-162.51 89.5,-162.51"/>
<polygon fill="black" stroke="black" points="93,-162.51 89.5,-152.51 86,-162.51 93,-162.51"/>
<text text-anchor="middle" x="72" y="-178.49" font-family="Times New Roman,serif" font-size="8.00">REF (n:1)</text>
</g>
</g>
</svg>
