<?xml version="1.0" encoding="UTF-8" standalone="no"?>
<!DOCTYPE svg PUBLIC "-//W3C//DTD SVG 1.1//EN"
 "http://www.w3.org/Graphics/SVG/1.1/DTD/svg11.dtd">
<!-- Generated by graphviz version 2.44.1 (0)
 -->
<!-- Title: cpgschema Pages: 1 -->
<svg width="1884pt" height="202pt"
 viewBox="0.00 0.00 1884.49 202.03" xmlns="http://www.w3.org/2000/svg" xmlns:xlink="http://www.w3.org/1999/xlink">
<g id="graph0" class="graph" transform="scale(1 1) rotate(0) translate(4 198.03)">
<title>cpgschema</title>
<polygon fill="white" stroke="transparent" points="-4,4 -4,-198.03 1880.49,-198.03 1880.49,4 -4,4"/>
<!-- BLOCK -->
<g id="node1" class="node">
<title>BLOCK</title>
<polygon fill="none" stroke="black" points="628.75,-72.5 628.75,-164.5 838.75,-164.5 838.75,-72.5 628.75,-72.5"/>
<text text-anchor="start" x="704.75" y="-150.3" font-family="Times,serif" font-weight="bold" font-size="14.00">BLOCK</text>
<text text-anchor="start" x="717.75" y="-139.5" font-family="Times,serif" font-size="10.00">CODE</text>
<text text-anchor="start" x="713.75" y="-129.5" font-family="Times,serif" font-size="10.00">ORDER</text>
<text text-anchor="start" x="680.75" y="-119.5" font-family="Times,serif" font-size="10.00">ARGUMENT_INDEX</text>
<text text-anchor="start" x="682.75" y="-109.5" font-family="Times,serif" font-size="10.00">TYPE_FULL_NAME</text>
<text text-anchor="start" x="636.75" y="-99.5" font-family="Times,serif" font-size="10.00">DYNAMIC_TYPE_HINT_FULL_NAME</text>
<text text-anchor="start" x="692.25" y="-89.5" font-family="Times,serif" font-size="10.00">LINE_NUMBER</text>
<text text-anchor="start" x="680.75" y="-79.5" font-family="Times,serif" font-size="10.00">COLUMN_NUMBER</text>
</g>
<!-- BLOCK&#45;&gt;BLOCK -->
<g id="edge7" class="edge">
<title>BLOCK&#45;&gt;BLOCK</title>
<path fill="none" stroke="red" d="M768.75,-164.59C768.75,-171.84 768.75,-177 768.75,-177 768.75,-177 856.05,-177 856.05,-177 856.05,-177 856.05,-60 856.05,-60 856.05,-60 830.27,-60 830.27,-60 830.27,-60 830.27,-62.41 830.27,-62.41"/>
<polygon fill="red" stroke="red" points="826.77,-62.41 830.27,-72.41 833.77,-62.41 826.77,-62.41"/>
<text text-anchor="middle" x="875.55" y="-156.86" font-family="Times,serif" font-size="8.00">AST (1:n)</text>
</g>
<!-- BLOCK&#45;&gt;BLOCK -->
<g id="edge19" class="edge">
<title>BLOCK&#45;&gt;BLOCK</title>
<path fill="none" stroke="blue" d="M698.75,-164.74C698.75,-178.03 698.75,-189 698.75,-189 698.75,-189 873.34,-189 873.34,-189 873.34,-189 873.34,-48 873.34,-48 873.34,-48 821.8,-48 821.8,-48 821.8,-48 821.8,-62.26 821.8,-62.26"/>
<polygon fill="blue" stroke="blue" points="818.3,-62.26 821.8,-72.26 825.3,-62.26 818.3,-62.26"/>
<text text-anchor="middle" x="862.84" y="-187.63" font-family="Times,serif" font-size="8.00">CFG </text>
</g>
<!-- CALL -->
<g id="node2" class="node">
<title>CALL</title>
<ellipse fill="none" stroke="black" cx="35.75" cy="-18" rx="36" ry="18"/>
<text text-anchor="middle" x="35.75" y="-14.3" font-family="Times,serif" font-size="14.00">CALL</text>
</g>
<!-- BLOCK&#45;&gt;CALL -->
<g id="edge1" class="edge">
<title>BLOCK&#45;&gt;CALL</title>
<path fill="none" stroke="red" d="M628.61,-154C431,-154 23.83,-154 23.83,-154 23.83,-154 23.83,-45.22 23.83,-45.22"/>
<polygon fill="red" stroke="red" points="27.33,-45.22 23.83,-35.22 20.33,-45.22 27.33,-45.22"/>
<text text-anchor="middle" x="262.34" y="-156.6" font-family="Times,serif" font-size="8.00">AST </text>
</g>
<!-- BLOCK&#45;&gt;CALL -->
<g id="edge12" class="edge">
<title>BLOCK&#45;&gt;CALL</title>
<path fill="none" stroke="blue" d="M628.42,-144C436.1,-144 47.66,-144 47.66,-144 47.66,-144 47.66,-44.99 47.66,-44.99"/>
<polygon fill="blue" stroke="blue" points="51.16,-44.99 47.66,-34.99 44.16,-44.99 51.16,-44.99"/>
<text text-anchor="middle" x="278.04" y="-146.6" font-family="Times,serif" font-size="8.00">CFG </text>
</g>
<!-- IDENTIFIER -->
<g id="node3" class="node">
<title>IDENTIFIER</title>
<ellipse fill="none" stroke="black" cx="158.75" cy="-18" rx="68.79" ry="18"/>
<text text-anchor="middle" x="158.75" y="-14.3" font-family="Times,serif" font-size="14.00">IDENTIFIER</text>
</g>
<!-- BLOCK&#45;&gt;IDENTIFIER -->
<g id="edge2" class="edge">
<title>BLOCK&#45;&gt;IDENTIFIER</title>
<path fill="none" stroke="red" d="M628.56,-134C456.98,-134 135.78,-134 135.78,-134 135.78,-134 135.78,-45.12 135.78,-45.12"/>
<polygon fill="red" stroke="red" points="139.28,-45.12 135.78,-35.12 132.28,-45.12 139.28,-45.12"/>
<text text-anchor="middle" x="328.23" y="-136.6" font-family="Times,serif" font-size="8.00">AST </text>
</g>
<!-- BLOCK&#45;&gt;IDENTIFIER -->
<g id="edge13" class="edge">
<title>BLOCK&#45;&gt;IDENTIFIER</title>
<path fill="none" stroke="blue" d="M628.61,-123C468.45,-123 181.71,-123 181.71,-123 181.71,-123 181.71,-45.34 181.71,-45.34"/>
<polygon fill="blue" stroke="blue" points="185.21,-45.34 181.71,-35.34 178.21,-45.34 185.21,-45.34"/>
<text text-anchor="middle" x="355.83" y="-125.6" font-family="Times,serif" font-size="8.00">CFG </text>
</g>
<!-- LITERAL -->
<g id="node4" class="node">
<title>LITERAL</title>
<ellipse fill="none" stroke="black" cx="297.75" cy="-18" rx="51.99" ry="18"/>
<text text-anchor="middle" x="297.75" y="-14.3" font-family="Times,serif" font-size="14.00">LITERAL</text>
</g>
<!-- BLOCK&#45;&gt;LITERAL -->
<g id="edge3" class="edge">
<title>BLOCK&#45;&gt;LITERAL</title>
<path fill="none" stroke="red" d="M628.6,-113C494.69,-113 280.42,-113 280.42,-113 280.42,-113 280.42,-44.98 280.42,-44.98"/>
<polygon fill="red" stroke="red" points="283.92,-44.98 280.42,-34.98 276.92,-44.98 283.92,-44.98"/>
<text text-anchor="middle" x="411" y="-115.6" font-family="Times,serif" font-size="8.00">AST </text>
</g>
<!-- BLOCK&#45;&gt;LITERAL -->
<g id="edge15" class="edge">
<title>BLOCK&#45;&gt;LITERAL</title>
<path fill="none" stroke="blue" d="M628.64,-103C504.62,-103 315.08,-103 315.08,-103 315.08,-103 315.08,-45.2 315.08,-45.2"/>
<polygon fill="blue" stroke="blue" points="318.58,-45.2 315.08,-35.2 311.58,-45.2 318.58,-45.2"/>
<text text-anchor="middle" x="432.46" y="-105.6" font-family="Times,serif" font-size="8.00">CFG </text>
</g>
<!-- METHOD_REF -->
<g id="node5" class="node">
<title>METHOD_REF</title>
<ellipse fill="none" stroke="black" cx="446.75" cy="-18" rx="79.09" ry="18"/>
<text text-anchor="middle" x="446.75" y="-14.3" font-family="Times,serif" font-size="14.00">METHOD_REF</text>
</g>
<!-- BLOCK&#45;&gt;METHOD_REF -->
<g id="edge4" class="edge">
<title>BLOCK&#45;&gt;METHOD_REF</title>
<path fill="none" stroke="red" d="M628.51,-92C537.45,-92 420.32,-92 420.32,-92 420.32,-92 420.32,-45.16 420.32,-45.16"/>
<polygon fill="red" stroke="red" points="423.82,-45.16 420.32,-35.16 416.82,-45.16 423.82,-45.16"/>
<text text-anchor="middle" x="491.49" y="-94.6" font-family="Times,serif" font-size="8.00">AST </text>
</g>
<!-- BLOCK&#45;&gt;METHOD_REF -->
<g id="edge16" class="edge">
<title>BLOCK&#45;&gt;METHOD_REF</title>
<path fill="none" stroke="blue" d="M628.51,-82C556.2,-82 473.18,-82 473.18,-82 473.18,-82 473.18,-45.15 473.18,-45.15"/>
<polygon fill="blue" stroke="blue" points="476.68,-45.15 473.18,-35.15 469.68,-45.15 476.68,-45.15"/>
<text text-anchor="middle" x="521.92" y="-84.6" font-family="Times,serif" font-size="8.00">CFG </text>
</g>
<!-- TYPE_REF -->
<g id="node6" class="node">
<title>TYPE_REF</title>
<ellipse fill="none" stroke="black" cx="603.75" cy="-18" rx="59.59" ry="18"/>
<text text-anchor="middle" x="603.75" y="-14.3" font-family="Times,serif" font-size="14.00">TYPE_REF</text>
</g>
<!-- BLOCK&#45;&gt;TYPE_REF -->
<g id="edge5" class="edge">
<title>BLOCK&#45;&gt;TYPE_REF</title>
<path fill="none" stroke="red" d="M640.35,-72.37C640.35,-72.37 640.35,-42.47 640.35,-42.47"/>
<polygon fill="red" stroke="red" points="643.85,-42.47 640.35,-32.47 636.85,-42.47 643.85,-42.47"/>
<text text-anchor="middle" x="630.85" y="-60.02" font-family="Times,serif" font-size="8.00">AST </text>
</g>
<!-- BLOCK&#45;&gt;TYPE_REF -->
<g id="edge17" class="edge">
<title>BLOCK&#45;&gt;TYPE_REF</title>
<path fill="none" stroke="blue" d="M651.94,-72.37C651.94,-72.37 651.94,-39.04 651.94,-39.04"/>
<polygon fill="blue" stroke="blue" points="655.44,-39.04 651.94,-29.04 648.44,-39.04 655.44,-39.04"/>
<text text-anchor="middle" x="641.44" y="-49.3" font-family="Times,serif" font-size="8.00">CFG </text>
</g>
<!-- RETURN -->
<g id="node7" class="node">
<title>RETURN</title>
<ellipse fill="none" stroke="black" cx="733.75" cy="-18" rx="52.79" ry="18"/>
<text text-anchor="middle" x="733.75" y="-14.3" font-family="Times,serif" font-size="14.00">RETURN</text>
</g>
<!-- BLOCK&#45;&gt;RETURN -->
<g id="edge6" class="edge">
<title>BLOCK&#45;&gt;RETURN</title>
<path fill="none" stroke="red" d="M716.2,-72.37C716.2,-72.37 716.2,-45.28 716.2,-45.28"/>
<polygon fill="red" stroke="red" points="719.7,-45.28 716.2,-35.28 712.7,-45.28 719.7,-45.28"/>
<text text-anchor="middle" x="706.7" y="-61.42" font-family="Times,serif" font-size="8.00">AST </text>
</g>
<!-- BLOCK&#45;&gt;RETURN -->
<g id="edge18" class="edge">
<title>BLOCK&#45;&gt;RETURN</title>
<path fill="none" stroke="blue" d="M751.3,-72.37C751.3,-72.37 751.3,-45.28 751.3,-45.28"/>
<polygon fill="blue" stroke="blue" points="754.8,-45.28 751.3,-35.28 747.8,-45.28 754.8,-45.28"/>
<text text-anchor="middle" x="740.8" y="-61.42" font-family="Times,serif" font-size="8.00">CFG </text>
</g>
<!-- LOCAL -->
<g id="node8" class="node">
<title>LOCAL</title>
<ellipse fill="none" stroke="black" cx="847.75" cy="-18" rx="42.79" ry="18"/>
<text text-anchor="middle" x="847.75" y="-14.3" font-family="Times,serif" font-size="14.00">LOCAL</text>
</g>
<!-- BLOCK&#45;&gt;LOCAL -->
<g id="edge8" class="edge">
<title>BLOCK&#45;&gt;LOCAL</title>
<path fill="none" stroke="red" d="M813.32,-72.37C813.32,-72.37 813.32,-39.04 813.32,-39.04"/>
<polygon fill="red" stroke="red" points="816.82,-39.04 813.32,-29.04 809.82,-39.04 816.82,-39.04"/>
<text text-anchor="middle" x="803.82" y="-58.3" font-family="Times,serif" font-size="8.00">AST </text>
</g>
<!-- UNKNOWN -->
<g id="node9" class="node">
<title>UNKNOWN</title>
<ellipse fill="none" stroke="black" cx="974.75" cy="-18" rx="65.79" ry="18"/>
<text text-anchor="middle" x="974.75" y="-14.3" font-family="Times,serif" font-size="14.00">UNKNOWN</text>
</g>
<!-- BLOCK&#45;&gt;UNKNOWN -->
<g id="edge9" class="edge">
<title>BLOCK&#45;&gt;UNKNOWN</title>
<path fill="none" stroke="red" d="M838.78,-92C912,-92 996.63,-92 996.63,-92 996.63,-92 996.63,-45.16 996.63,-45.16"/>
<polygon fill="red" stroke="red" points="1000.13,-45.16 996.63,-35.16 993.13,-45.16 1000.13,-45.16"/>
<text text-anchor="middle" x="931.62" y="-94.6" font-family="Times,serif" font-size="8.00">AST </text>
</g>
<!-- BLOCK&#45;&gt;UNKNOWN -->
<g id="edge22" class="edge">
<title>BLOCK&#45;&gt;UNKNOWN</title>
<path fill="none" stroke="blue" d="M838.81,-82C895.05,-82 952.87,-82 952.87,-82 952.87,-82 952.87,-45.15 952.87,-45.15"/>
<polygon fill="blue" stroke="blue" points="956.37,-45.15 952.87,-35.15 949.37,-45.15 956.37,-45.15"/>
<text text-anchor="middle" x="903.76" y="-84.6" font-family="Times,serif" font-size="8.00">CFG </text>
</g>
<!-- JUMP_TARGET -->
<g id="node10" class="node">
<title>JUMP_TARGET</title>
<ellipse fill="none" stroke="black" cx="1138.75" cy="-18" rx="80.69" ry="18"/>
<text text-anchor="middle" x="1138.75" y="-14.3" font-family="Times,serif" font-size="14.00">JUMP_TARGET</text>
</g>
<!-- BLOCK&#45;&gt;JUMP_TARGET -->
<g id="edge10" class="edge">
<title>BLOCK&#45;&gt;JUMP_TARGET</title>
<path fill="none" stroke="red" d="M838.84,-113C966.67,-113 1165.61,-113 1165.61,-113 1165.61,-113 1165.61,-44.98 1165.61,-44.98"/>
<polygon fill="red" stroke="red" points="1169.11,-44.98 1165.61,-34.98 1162.11,-44.98 1169.11,-44.98"/>
<text text-anchor="middle" x="1026.73" y="-115.6" font-family="Times,serif" font-size="8.00">AST </text>
</g>
<!-- BLOCK&#45;&gt;JUMP_TARGET -->
<g id="edge20" class="edge">
<title>BLOCK&#45;&gt;JUMP_TARGET</title>
<path fill="none" stroke="blue" d="M838.83,-103C950.73,-103 1111.88,-103 1111.88,-103 1111.88,-103 1111.88,-45.2 1111.88,-45.2"/>
<polygon fill="blue" stroke="blue" points="1115.38,-45.2 1111.88,-35.2 1108.38,-45.2 1115.38,-45.2"/>
<text text-anchor="middle" x="993.75" y="-105.6" font-family="Times,serif" font-size="8.00">CFG </text>
</g>
<!-- CONTROL_STRUCTURE -->
<g id="node11" class="node">
<title>CONTROL_STRUCTURE</title>
<ellipse fill="none" stroke="black" cx="1361.75" cy="-18" rx="124.28" ry="18"/>
<text text-anchor="middle" x="1361.75" y="-14.3" font-family="Times,serif" font-size="14.00">CONTROL_STRUCTURE</text>
</g>
<!-- BLOCK&#45;&gt;CONTROL_STRUCTURE -->
<g id="edge11" class="edge">
<title>BLOCK&#45;&gt;CONTROL_STRUCTURE</title>
<path fill="none" stroke="red" d="M839.07,-134C1027.58,-134 1403.13,-134 1403.13,-134 1403.13,-134 1403.13,-45.12 1403.13,-45.12"/>
<polygon fill="red" stroke="red" points="1406.63,-45.12 1403.13,-35.12 1399.63,-45.12 1406.63,-45.12"/>
<text text-anchor="middle" x="1156.04" y="-136.6" font-family="Times,serif" font-size="8.00">AST </text>
</g>
<!-- BLOCK&#45;&gt;CONTROL_STRUCTURE -->
<g id="edge21" class="edge">
<title>BLOCK&#45;&gt;CONTROL_STRUCTURE</title>
<path fill="none" stroke="blue" d="M838.96,-123C1007.77,-123 1320.37,-123 1320.37,-123 1320.37,-123 1320.37,-45.34 1320.37,-45.34"/>
<polygon fill="blue" stroke="blue" points="1323.87,-45.34 1320.37,-35.34 1316.87,-45.34 1323.87,-45.34"/>
<text text-anchor="middle" x="1107.99" y="-125.6" font-family="Times,serif" font-size="8.00">CFG </text>
</g>
<!-- FIELD_IDENTIFIER -->
<g id="node12" class="node">
<title>FIELD_IDENTIFIER</title>
<ellipse fill="none" stroke="black" cx="1606.75" cy="-18" rx="102.88" ry="18"/>
<text text-anchor="middle" x="1606.75" y="-14.3" font-family="Times,serif" font-size="14.00">FIELD_IDENTIFIER</text>
</g>
<!-- BLOCK&#45;&gt;FIELD_IDENTIFIER -->
<g id="edge14" class="edge">
<title>BLOCK&#45;&gt;FIELD_IDENTIFIER</title>
<path fill="none" stroke="blue" d="M839.05,-144C1071.24,-144 1606.75,-144 1606.75,-144 1606.75,-144 1606.75,-46.05 1606.75,-46.05"/>
<polygon fill="blue" stroke="blue" points="1610.25,-46.05 1606.75,-36.05 1603.25,-46.05 1610.25,-46.05"/>
<text text-anchor="middle" x="1261.37" y="-146.6" font-family="Times,serif" font-size="8.00">CFG </text>
</g>
<!-- EXPRESSION -->
<g id="node13" class="node">
<title>EXPRESSION</title>
<ellipse fill="none" stroke="black" cx="1801.75" cy="-18" rx="74.99" ry="18"/>
<text text-anchor="middle" x="1801.75" y="-14.3" font-family="Times,serif" font-size="14.00">EXPRESSION</text>
</g>
<!-- BLOCK&#45;&gt;EXPRESSION -->
<g id="edge23" class="edge">
<title>BLOCK&#45;&gt;EXPRESSION</title>
<path fill="none" stroke="gray" d="M839.07,-154C1108.51,-154 1801.75,-154 1801.75,-154 1801.75,-154 1801.75,-46.06 1801.75,-46.06"/>
<polygon fill="none" stroke="gray" points="1805.25,-46.06 1801.75,-36.06 1798.25,-46.06 1805.25,-46.06"/>
<text text-anchor="middle" x="1370.88" y="-156.6" font-family="Times,serif" font-size="8.00">is</text>
</g>
</g>
</svg>
