<?xml version="1.0" encoding="UTF-8" standalone="no"?>
<!DOCTYPE svg PUBLIC "-//W3C//DTD SVG 1.1//EN"
 "http://www.w3.org/Graphics/SVG/1.1/DTD/svg11.dtd">
<!-- Generated by graphviz version 2.44.1 (20200629.0800)
 -->
<!-- Title: cpgschema Pages: 1 -->
<svg width="2556pt" height="304pt"
 viewBox="0.00 0.00 2556.00 304.00" xmlns="http://www.w3.org/2000/svg" xmlns:xlink="http://www.w3.org/1999/xlink">
<g id="graph0" class="graph" transform="scale(1 1) rotate(0) translate(4 300)">
<title>cpgschema</title>
<polygon fill="white" stroke="transparent" points="-4,4 -4,-300 2552,-300 2552,4 -4,4"/>
<!-- BLOCK -->
<g id="node1" class="node">
<title>BLOCK</title>
<polygon fill="none" stroke="black" points="1306,-179.5 1306,-271.5 1533,-271.5 1533,-179.5 1306,-179.5"/>
<text text-anchor="start" x="1393.5" y="-257.3" font-family="Times New Roman,serif" font-weight="bold" font-size="14.00">BLOCK</text>
<text text-anchor="start" x="1386.5" y="-246.5" font-family="Times New Roman,serif" font-size="10.00">CODE: string (1)</text>
<text text-anchor="start" x="1390" y="-236.5" font-family="Times New Roman,serif" font-size="10.00">ORDER: int (1)</text>
<text text-anchor="start" x="1362" y="-226.5" font-family="Times New Roman,serif" font-size="10.00">ARGUMENT_INDEX: int (1)</text>
<text text-anchor="start" x="1357" y="-216.5" font-family="Times New Roman,serif" font-size="10.00">TYPE_FULL_NAME: string (1)</text>
<text text-anchor="start" x="1314" y="-206.5" font-family="Times New Roman,serif" font-size="10.00">DYNAMIC_TYPE_HINT_FULL_NAME: string (0:n)</text>
<text text-anchor="start" x="1369.5" y="-196.5" font-family="Times New Roman,serif" font-size="10.00">LINE_NUMBER: int (0:1)</text>
<text text-anchor="start" x="1359" y="-186.5" font-family="Times New Roman,serif" font-size="10.00">COLUMN_NUMBER: int (0:1)</text>
</g>
<!-- BLOCK&#45;&gt;BLOCK -->
<g id="edge7" class="edge">
<title>BLOCK&#45;&gt;BLOCK</title>
<path fill="none" stroke="red" d="M1381.67,-271.74C1381.67,-285.03 1381.67,-296 1381.67,-296 1381.67,-296 1545,-296 1545,-296 1545,-296 1545,-155 1545,-155 1545,-155 1468.14,-155 1468.14,-155 1468.14,-155 1468.14,-169.26 1468.14,-169.26"/>
<polygon fill="red" stroke="red" points="1464.64,-169.26 1468.14,-179.26 1471.64,-169.26 1464.64,-169.26"/>
<text text-anchor="middle" x="1527" y="-276.34" font-family="Times New Roman,serif" font-size="8.00">AST (1:n)</text>
</g>
<!-- BLOCK&#45;&gt;BLOCK -->
<g id="edge19" class="edge">
<title>BLOCK&#45;&gt;BLOCK</title>
<path fill="none" stroke="blue" d="M1457.33,-271.59C1457.33,-278.84 1457.33,-284 1457.33,-284 1457.33,-284 1539,-284 1539,-284 1539,-284 1539,-167 1539,-167 1539,-167 1500.57,-167 1500.57,-167 1500.57,-167 1500.57,-169.41 1500.57,-169.41"/>
<polygon fill="blue" stroke="blue" points="1497.07,-169.41 1500.57,-179.41 1504.07,-169.41 1497.07,-169.41"/>
<text text-anchor="middle" x="1548" y="-254.72" font-family="Times New Roman,serif" font-size="8.00">CFG </text>
</g>
<!-- LITERAL -->
<g id="node2" class="node">
<title>LITERAL</title>
<polygon fill="none" stroke="black" points="0,-25.5 0,-117.5 227,-117.5 227,-25.5 0,-25.5"/>
<text text-anchor="start" x="81.5" y="-103.3" font-family="Times New Roman,serif" font-weight="bold" font-size="14.00">LITERAL</text>
<text text-anchor="start" x="80.5" y="-92.5" font-family="Times New Roman,serif" font-size="10.00">CODE: string (1)</text>
<text text-anchor="start" x="84" y="-82.5" font-family="Times New Roman,serif" font-size="10.00">ORDER: int (1)</text>
<text text-anchor="start" x="56" y="-72.5" font-family="Times New Roman,serif" font-size="10.00">ARGUMENT_INDEX: int (1)</text>
<text text-anchor="start" x="51" y="-62.5" font-family="Times New Roman,serif" font-size="10.00">TYPE_FULL_NAME: string (1)</text>
<text text-anchor="start" x="8" y="-52.5" font-family="Times New Roman,serif" font-size="10.00">DYNAMIC_TYPE_HINT_FULL_NAME: string (0:n)</text>
<text text-anchor="start" x="63.5" y="-42.5" font-family="Times New Roman,serif" font-size="10.00">LINE_NUMBER: int (0:1)</text>
<text text-anchor="start" x="53" y="-32.5" font-family="Times New Roman,serif" font-size="10.00">COLUMN_NUMBER: int (0:1)</text>
</g>
<!-- BLOCK&#45;&gt;LITERAL -->
<g id="edge3" class="edge">
<title>BLOCK&#45;&gt;LITERAL</title>
<path fill="none" stroke="red" d="M1305.84,-251C994.57,-251 151.33,-251 151.33,-251 151.33,-251 151.33,-127.73 151.33,-127.73"/>
<polygon fill="red" stroke="red" points="154.83,-127.73 151.33,-117.73 147.83,-127.73 154.83,-127.73"/>
<text text-anchor="middle" x="657.45" y="-253.6" font-family="Times New Roman,serif" font-size="8.00">AST </text>
</g>
<!-- BLOCK&#45;&gt;LITERAL -->
<g id="edge15" class="edge">
<title>BLOCK&#45;&gt;LITERAL</title>
<path fill="none" stroke="blue" d="M1305.79,-261C981.56,-261 75.67,-261 75.67,-261 75.67,-261 75.67,-127.86 75.67,-127.86"/>
<polygon fill="blue" stroke="blue" points="79.17,-127.86 75.67,-117.86 72.17,-127.86 79.17,-127.86"/>
<text text-anchor="middle" x="615.16" y="-263.6" font-family="Times New Roman,serif" font-size="8.00">CFG </text>
</g>
<!-- CALL -->
<g id="node3" class="node">
<title>CALL</title>
<polygon fill="none" stroke="black" points="245,-0.5 245,-142.5 472,-142.5 472,-0.5 245,-0.5"/>
<text text-anchor="start" x="339" y="-128.3" font-family="Times New Roman,serif" font-weight="bold" font-size="14.00">CALL</text>
<text text-anchor="start" x="325.5" y="-117.5" font-family="Times New Roman,serif" font-size="10.00">CODE: string (1)</text>
<text text-anchor="start" x="323.5" y="-107.5" font-family="Times New Roman,serif" font-size="10.00">NAME: string (1)</text>
<text text-anchor="start" x="329" y="-97.5" font-family="Times New Roman,serif" font-size="10.00">ORDER: int (1)</text>
<text text-anchor="start" x="270.5" y="-87.5" font-family="Times New Roman,serif" font-size="10.00">METHOD_INST_FULL_NAME: string (0:1)</text>
<text text-anchor="start" x="287" y="-77.5" font-family="Times New Roman,serif" font-size="10.00">METHOD_FULL_NAME: string (1)</text>
<text text-anchor="start" x="301" y="-67.5" font-family="Times New Roman,serif" font-size="10.00">ARGUMENT_INDEX: int (1)</text>
<text text-anchor="start" x="301" y="-57.5" font-family="Times New Roman,serif" font-size="10.00">DISPATCH_TYPE: string (1)</text>
<text text-anchor="start" x="311.5" y="-47.5" font-family="Times New Roman,serif" font-size="10.00">SIGNATURE: string (1)</text>
<text text-anchor="start" x="296" y="-37.5" font-family="Times New Roman,serif" font-size="10.00">TYPE_FULL_NAME: string (1)</text>
<text text-anchor="start" x="253" y="-27.5" font-family="Times New Roman,serif" font-size="10.00">DYNAMIC_TYPE_HINT_FULL_NAME: string (0:n)</text>
<text text-anchor="start" x="308.5" y="-17.5" font-family="Times New Roman,serif" font-size="10.00">LINE_NUMBER: int (0:1)</text>
<text text-anchor="start" x="298" y="-7.5" font-family="Times New Roman,serif" font-size="10.00">COLUMN_NUMBER: int (0:1)</text>
</g>
<!-- BLOCK&#45;&gt;CALL -->
<g id="edge1" class="edge">
<title>BLOCK&#45;&gt;CALL</title>
<path fill="none" stroke="red" d="M1370.86,-179.25C1370.86,-156.12 1370.86,-133 1370.86,-133 1370.86,-133 482.17,-133 482.17,-133"/>
<polygon fill="red" stroke="red" points="482.17,-129.5 472.17,-133 482.17,-136.5 482.17,-129.5"/>
<text text-anchor="middle" x="940.14" y="-126.6" font-family="Times New Roman,serif" font-size="8.00">AST </text>
</g>
<!-- BLOCK&#45;&gt;CALL -->
<g id="edge12" class="edge">
<title>BLOCK&#45;&gt;CALL</title>
<path fill="none" stroke="blue" d="M1338.43,-179.44C1338.43,-158.36 1338.43,-138 1338.43,-138 1338.43,-138 482.35,-138 482.35,-138"/>
<polygon fill="blue" stroke="blue" points="482.35,-134.5 472.35,-138 482.35,-141.5 482.35,-134.5"/>
<text text-anchor="middle" x="922.11" y="-140.6" font-family="Times New Roman,serif" font-size="8.00">CFG </text>
</g>
<!-- LOCAL -->
<g id="node4" class="node">
<title>LOCAL</title>
<polygon fill="none" stroke="black" points="490,-20.5 490,-122.5 717,-122.5 717,-20.5 490,-20.5"/>
<text text-anchor="start" x="578.5" y="-108.3" font-family="Times New Roman,serif" font-weight="bold" font-size="14.00">LOCAL</text>
<text text-anchor="start" x="570.5" y="-97.5" font-family="Times New Roman,serif" font-size="10.00">CODE: string (1)</text>
<text text-anchor="start" x="568.5" y="-87.5" font-family="Times New Roman,serif" font-size="10.00">NAME: string (1)</text>
<text text-anchor="start" x="552" y="-77.5" font-family="Times New Roman,serif" font-size="10.00">CLOSURE_BINDING_ID </text>
<text text-anchor="start" x="541" y="-67.5" font-family="Times New Roman,serif" font-size="10.00">TYPE_FULL_NAME: string (1)</text>
<text text-anchor="start" x="498" y="-57.5" font-family="Times New Roman,serif" font-size="10.00">DYNAMIC_TYPE_HINT_FULL_NAME: string (0:n)</text>
<text text-anchor="start" x="553.5" y="-47.5" font-family="Times New Roman,serif" font-size="10.00">LINE_NUMBER: int (0:1)</text>
<text text-anchor="start" x="543" y="-37.5" font-family="Times New Roman,serif" font-size="10.00">COLUMN_NUMBER: int (0:1)</text>
<text text-anchor="start" x="574" y="-27.5" font-family="Times New Roman,serif" font-size="10.00">ORDER: int (1)</text>
</g>
<!-- BLOCK&#45;&gt;LOCAL -->
<g id="edge8" class="edge">
<title>BLOCK&#45;&gt;LOCAL</title>
<path fill="none" stroke="red" d="M1305.61,-241C1081.21,-241 603.5,-241 603.5,-241 603.5,-241 603.5,-132.82 603.5,-132.82"/>
<polygon fill="red" stroke="red" points="607,-132.82 603.5,-122.82 600,-132.82 607,-132.82"/>
<text text-anchor="middle" x="890.96" y="-243.6" font-family="Times New Roman,serif" font-size="8.00">AST </text>
</g>
<!-- IDENTIFIER -->
<g id="node5" class="node">
<title>IDENTIFIER</title>
<polygon fill="none" stroke="black" points="735,-20.5 735,-122.5 962,-122.5 962,-20.5 735,-20.5"/>
<text text-anchor="start" x="805.5" y="-108.3" font-family="Times New Roman,serif" font-weight="bold" font-size="14.00">IDENTIFIER</text>
<text text-anchor="start" x="815.5" y="-97.5" font-family="Times New Roman,serif" font-size="10.00">CODE: string (1)</text>
<text text-anchor="start" x="813.5" y="-87.5" font-family="Times New Roman,serif" font-size="10.00">NAME: string (1)</text>
<text text-anchor="start" x="819" y="-77.5" font-family="Times New Roman,serif" font-size="10.00">ORDER: int (1)</text>
<text text-anchor="start" x="791" y="-67.5" font-family="Times New Roman,serif" font-size="10.00">ARGUMENT_INDEX: int (1)</text>
<text text-anchor="start" x="786" y="-57.5" font-family="Times New Roman,serif" font-size="10.00">TYPE_FULL_NAME: string (1)</text>
<text text-anchor="start" x="743" y="-47.5" font-family="Times New Roman,serif" font-size="10.00">DYNAMIC_TYPE_HINT_FULL_NAME: string (0:n)</text>
<text text-anchor="start" x="798.5" y="-37.5" font-family="Times New Roman,serif" font-size="10.00">LINE_NUMBER: int (0:1)</text>
<text text-anchor="start" x="788" y="-27.5" font-family="Times New Roman,serif" font-size="10.00">COLUMN_NUMBER: int (0:1)</text>
</g>
<!-- BLOCK&#45;&gt;IDENTIFIER -->
<g id="edge2" class="edge">
<title>BLOCK&#45;&gt;IDENTIFIER</title>
<path fill="none" stroke="red" d="M1305.7,-230C1129.48,-230 810.67,-230 810.67,-230 810.67,-230 810.67,-132.52 810.67,-132.52"/>
<polygon fill="red" stroke="red" points="814.17,-132.52 810.67,-122.52 807.17,-132.52 814.17,-132.52"/>
<text text-anchor="middle" x="999.94" y="-232.6" font-family="Times New Roman,serif" font-size="8.00">AST </text>
</g>
<!-- BLOCK&#45;&gt;IDENTIFIER -->
<g id="edge13" class="edge">
<title>BLOCK&#45;&gt;IDENTIFIER</title>
<path fill="none" stroke="blue" d="M1305.78,-220C1149.19,-220 886.33,-220 886.33,-220 886.33,-220 886.33,-132.61 886.33,-132.61"/>
<polygon fill="blue" stroke="blue" points="889.83,-132.61 886.33,-122.61 882.83,-132.61 889.83,-132.61"/>
<text text-anchor="middle" x="1043.36" y="-222.6" font-family="Times New Roman,serif" font-size="8.00">CFG </text>
</g>
<!-- FIELD_IDENTIFIER -->
<g id="node6" class="node">
<title>FIELD_IDENTIFIER</title>
<polygon fill="none" stroke="black" points="980,-30.5 980,-112.5 1133,-112.5 1133,-30.5 980,-30.5"/>
<text text-anchor="start" x="988" y="-98.3" font-family="Times New Roman,serif" font-weight="bold" font-size="14.00">FIELD_IDENTIFIER</text>
<text text-anchor="start" x="1023.5" y="-87.5" font-family="Times New Roman,serif" font-size="10.00">CODE: string (1)</text>
<text text-anchor="start" x="991.5" y="-77.5" font-family="Times New Roman,serif" font-size="10.00">CANONICAL_NAME: string (1)</text>
<text text-anchor="start" x="1027" y="-67.5" font-family="Times New Roman,serif" font-size="10.00">ORDER: int (1)</text>
<text text-anchor="start" x="999" y="-57.5" font-family="Times New Roman,serif" font-size="10.00">ARGUMENT_INDEX: int (1)</text>
<text text-anchor="start" x="1006.5" y="-47.5" font-family="Times New Roman,serif" font-size="10.00">LINE_NUMBER: int (0:1)</text>
<text text-anchor="start" x="996" y="-37.5" font-family="Times New Roman,serif" font-size="10.00">COLUMN_NUMBER: int (0:1)</text>
</g>
<!-- BLOCK&#45;&gt;FIELD_IDENTIFIER -->
<g id="edge14" class="edge">
<title>BLOCK&#45;&gt;FIELD_IDENTIFIER</title>
<path fill="none" stroke="blue" d="M1305.64,-210C1199.18,-210 1056.5,-210 1056.5,-210 1056.5,-210 1056.5,-122.68 1056.5,-122.68"/>
<polygon fill="blue" stroke="blue" points="1060,-122.68 1056.5,-112.68 1053,-122.68 1060,-122.68"/>
<text text-anchor="middle" x="1128.41" y="-212.6" font-family="Times New Roman,serif" font-size="8.00">CFG </text>
</g>
<!-- RETURN -->
<g id="node7" class="node">
<title>RETURN</title>
<polygon fill="none" stroke="black" points="1151,-35.5 1151,-107.5 1288,-107.5 1288,-35.5 1151,-35.5"/>
<text text-anchor="start" x="1189" y="-93.3" font-family="Times New Roman,serif" font-weight="bold" font-size="14.00">RETURN</text>
<text text-anchor="start" x="1169.5" y="-82.5" font-family="Times New Roman,serif" font-size="10.00">LINE_NUMBER: int (0:1)</text>
<text text-anchor="start" x="1159" y="-72.5" font-family="Times New Roman,serif" font-size="10.00">COLUMN_NUMBER: int (0:1)</text>
<text text-anchor="start" x="1190" y="-62.5" font-family="Times New Roman,serif" font-size="10.00">ORDER: int (1)</text>
<text text-anchor="start" x="1162" y="-52.5" font-family="Times New Roman,serif" font-size="10.00">ARGUMENT_INDEX: int (1)</text>
<text text-anchor="start" x="1186.5" y="-42.5" font-family="Times New Roman,serif" font-size="10.00">CODE: string (1)</text>
</g>
<!-- BLOCK&#45;&gt;RETURN -->
<g id="edge6" class="edge">
<title>BLOCK&#45;&gt;RETURN</title>
<path fill="none" stroke="red" d="M1305.79,-189C1271.29,-189 1242.33,-189 1242.33,-189 1242.33,-189 1242.33,-117.71 1242.33,-117.71"/>
<polygon fill="red" stroke="red" points="1245.83,-117.71 1242.33,-107.71 1238.83,-117.71 1245.83,-117.71"/>
<text text-anchor="middle" x="1232.83" y="-187.69" font-family="Times New Roman,serif" font-size="8.00">AST </text>
</g>
<!-- BLOCK&#45;&gt;RETURN -->
<g id="edge18" class="edge">
<title>BLOCK&#45;&gt;RETURN</title>
<path fill="none" stroke="blue" d="M1305.8,-199C1250.86,-199 1196.67,-199 1196.67,-199 1196.67,-199 1196.67,-117.7 1196.67,-117.7"/>
<polygon fill="blue" stroke="blue" points="1200.17,-117.7 1196.67,-107.7 1193.17,-117.7 1200.17,-117.7"/>
<text text-anchor="middle" x="1201.58" y="-201.6" font-family="Times New Roman,serif" font-size="8.00">CFG </text>
</g>
<!-- METHOD_REF -->
<g id="node8" class="node">
<title>METHOD_REF</title>
<polygon fill="none" stroke="black" points="1306,-15.5 1306,-127.5 1533,-127.5 1533,-15.5 1306,-15.5"/>
<text text-anchor="start" x="1368" y="-113.3" font-family="Times New Roman,serif" font-weight="bold" font-size="14.00">METHOD_REF</text>
<text text-anchor="start" x="1386.5" y="-102.5" font-family="Times New Roman,serif" font-size="10.00">CODE: string (1)</text>
<text text-anchor="start" x="1390" y="-92.5" font-family="Times New Roman,serif" font-size="10.00">ORDER: int (1)</text>
<text text-anchor="start" x="1362" y="-82.5" font-family="Times New Roman,serif" font-size="10.00">ARGUMENT_INDEX: int (1)</text>
<text text-anchor="start" x="1357" y="-72.5" font-family="Times New Roman,serif" font-size="10.00">TYPE_FULL_NAME: string (1)</text>
<text text-anchor="start" x="1314" y="-62.5" font-family="Times New Roman,serif" font-size="10.00">DYNAMIC_TYPE_HINT_FULL_NAME: string (0:n)</text>
<text text-anchor="start" x="1331.5" y="-52.5" font-family="Times New Roman,serif" font-size="10.00">METHOD_INST_FULL_NAME: string (0:1)</text>
<text text-anchor="start" x="1348" y="-42.5" font-family="Times New Roman,serif" font-size="10.00">METHOD_FULL_NAME: string (1)</text>
<text text-anchor="start" x="1369.5" y="-32.5" font-family="Times New Roman,serif" font-size="10.00">LINE_NUMBER: int (0:1)</text>
<text text-anchor="start" x="1359" y="-22.5" font-family="Times New Roman,serif" font-size="10.00">COLUMN_NUMBER: int (0:1)</text>
</g>
<!-- BLOCK&#45;&gt;METHOD_REF -->
<g id="edge4" class="edge">
<title>BLOCK&#45;&gt;METHOD_REF</title>
<path fill="none" stroke="red" d="M1403.29,-179.29C1403.29,-179.29 1403.29,-137.74 1403.29,-137.74"/>
<polygon fill="red" stroke="red" points="1406.79,-137.74 1403.29,-127.74 1399.79,-137.74 1406.79,-137.74"/>
<text text-anchor="middle" x="1393.79" y="-161.12" font-family="Times New Roman,serif" font-size="8.00">AST </text>
</g>
<!-- BLOCK&#45;&gt;METHOD_REF -->
<g id="edge16" class="edge">
<title>BLOCK&#45;&gt;METHOD_REF</title>
<path fill="none" stroke="blue" d="M1435.71,-179.29C1435.71,-179.29 1435.71,-137.74 1435.71,-137.74"/>
<polygon fill="blue" stroke="blue" points="1439.21,-137.74 1435.71,-127.74 1432.21,-137.74 1439.21,-137.74"/>
<text text-anchor="middle" x="1426.71" y="-161.12" font-family="Times New Roman,serif" font-size="8.00">CFG </text>
</g>
<!-- TYPE_REF -->
<g id="node9" class="node">
<title>TYPE_REF</title>
<polygon fill="none" stroke="black" points="1551,-25.5 1551,-117.5 1778,-117.5 1778,-25.5 1551,-25.5"/>
<text text-anchor="start" x="1626.5" y="-103.3" font-family="Times New Roman,serif" font-weight="bold" font-size="14.00">TYPE_REF</text>
<text text-anchor="start" x="1631.5" y="-92.5" font-family="Times New Roman,serif" font-size="10.00">CODE: string (1)</text>
<text text-anchor="start" x="1635" y="-82.5" font-family="Times New Roman,serif" font-size="10.00">ORDER: int (1)</text>
<text text-anchor="start" x="1607" y="-72.5" font-family="Times New Roman,serif" font-size="10.00">ARGUMENT_INDEX: int (1)</text>
<text text-anchor="start" x="1602" y="-62.5" font-family="Times New Roman,serif" font-size="10.00">TYPE_FULL_NAME: string (1)</text>
<text text-anchor="start" x="1559" y="-52.5" font-family="Times New Roman,serif" font-size="10.00">DYNAMIC_TYPE_HINT_FULL_NAME: string (0:n)</text>
<text text-anchor="start" x="1614.5" y="-42.5" font-family="Times New Roman,serif" font-size="10.00">LINE_NUMBER: int (0:1)</text>
<text text-anchor="start" x="1604" y="-32.5" font-family="Times New Roman,serif" font-size="10.00">COLUMN_NUMBER: int (0:1)</text>
</g>
<!-- BLOCK&#45;&gt;TYPE_REF -->
<g id="edge5" class="edge">
<title>BLOCK&#45;&gt;TYPE_REF</title>
<path fill="none" stroke="red" d="M1533.32,-197C1611.91,-197 1702.33,-197 1702.33,-197 1702.33,-197 1702.33,-127.52 1702.33,-127.52"/>
<polygon fill="red" stroke="red" points="1705.83,-127.52 1702.33,-117.52 1698.83,-127.52 1705.83,-127.52"/>
<text text-anchor="middle" x="1643.07" y="-199.6" font-family="Times New Roman,serif" font-size="8.00">AST </text>
</g>
<!-- BLOCK&#45;&gt;TYPE_REF -->
<g id="edge17" class="edge">
<title>BLOCK&#45;&gt;TYPE_REF</title>
<path fill="none" stroke="blue" d="M1533.08,-188C1581.34,-188 1626.67,-188 1626.67,-188 1626.67,-188 1626.67,-127.54 1626.67,-127.54"/>
<polygon fill="blue" stroke="blue" points="1630.17,-127.54 1626.67,-117.54 1623.17,-127.54 1630.17,-127.54"/>
<text text-anchor="middle" x="1601.1" y="-190.6" font-family="Times New Roman,serif" font-size="8.00">CFG </text>
</g>
<!-- CONTROL_STRUCTURE -->
<g id="node10" class="node">
<title>CONTROL_STRUCTURE</title>
<polygon fill="none" stroke="black" points="1796,-30.5 1796,-112.5 1981,-112.5 1981,-30.5 1796,-30.5"/>
<text text-anchor="start" x="1804" y="-98.3" font-family="Times New Roman,serif" font-weight="bold" font-size="14.00">CONTROL_STRUCTURE</text>
<text text-anchor="start" x="1855.5" y="-87.5" font-family="Times New Roman,serif" font-size="10.00">CODE: string (1)</text>
<text text-anchor="start" x="1828" y="-77.5" font-family="Times New Roman,serif" font-size="10.00">COLUMN_NUMBER: int (0:1)</text>
<text text-anchor="start" x="1838.5" y="-67.5" font-family="Times New Roman,serif" font-size="10.00">LINE_NUMBER: int (0:1)</text>
<text text-anchor="start" x="1859" y="-57.5" font-family="Times New Roman,serif" font-size="10.00">ORDER: int (1)</text>
<text text-anchor="start" x="1819.5" y="-47.5" font-family="Times New Roman,serif" font-size="10.00">PARSER_TYPE_NAME: string (1)</text>
<text text-anchor="start" x="1831" y="-37.5" font-family="Times New Roman,serif" font-size="10.00">ARGUMENT_INDEX: int (1)</text>
</g>
<!-- BLOCK&#45;&gt;CONTROL_STRUCTURE -->
<g id="edge11" class="edge">
<title>BLOCK&#45;&gt;CONTROL_STRUCTURE</title>
<path fill="none" stroke="red" d="M1533.23,-216C1680.73,-216 1919.33,-216 1919.33,-216 1919.33,-216 1919.33,-122.52 1919.33,-122.52"/>
<polygon fill="red" stroke="red" points="1922.83,-122.52 1919.33,-112.52 1915.83,-122.52 1922.83,-122.52"/>
<text text-anchor="middle" x="1763.52" y="-218.6" font-family="Times New Roman,serif" font-size="8.00">AST </text>
</g>
<!-- BLOCK&#45;&gt;CONTROL_STRUCTURE -->
<g id="edge21" class="edge">
<title>BLOCK&#45;&gt;CONTROL_STRUCTURE</title>
<path fill="none" stroke="blue" d="M1533.19,-206C1663.02,-206 1857.67,-206 1857.67,-206 1857.67,-206 1857.67,-122.59 1857.67,-122.59"/>
<polygon fill="blue" stroke="blue" points="1861.17,-122.59 1857.67,-112.59 1854.17,-122.59 1861.17,-122.59"/>
<text text-anchor="middle" x="1728.14" y="-208.6" font-family="Times New Roman,serif" font-size="8.00">CFG </text>
</g>
<!-- JUMP_TARGET -->
<g id="node11" class="node">
<title>JUMP_TARGET</title>
<polygon fill="none" stroke="black" points="1999.5,-20.5 1999.5,-122.5 2153.5,-122.5 2153.5,-20.5 1999.5,-20.5"/>
<text text-anchor="start" x="2022" y="-108.3" font-family="Times New Roman,serif" font-weight="bold" font-size="14.00">JUMP_TARGET</text>
<text text-anchor="start" x="2043.5" y="-97.5" font-family="Times New Roman,serif" font-size="10.00">CODE: string (1)</text>
<text text-anchor="start" x="2041.5" y="-87.5" font-family="Times New Roman,serif" font-size="10.00">NAME: string (1)</text>
<text text-anchor="start" x="2016" y="-77.5" font-family="Times New Roman,serif" font-size="10.00">COLUMN_NUMBER: int (0:1)</text>
<text text-anchor="start" x="2026.5" y="-67.5" font-family="Times New Roman,serif" font-size="10.00">LINE_NUMBER: int (0:1)</text>
<text text-anchor="start" x="2047" y="-57.5" font-family="Times New Roman,serif" font-size="10.00">ORDER: int (1)</text>
<text text-anchor="start" x="2007.5" y="-47.5" font-family="Times New Roman,serif" font-size="10.00">PARSER_TYPE_NAME: string (1)</text>
<text text-anchor="start" x="2019" y="-37.5" font-family="Times New Roman,serif" font-size="10.00">ARGUMENT_INDEX: int (1)</text>
<text text-anchor="start" x="2034.5" y="-27.5" font-family="Times New Roman,serif" font-size="10.00">INTERNAL_FLAGS </text>
</g>
<!-- BLOCK&#45;&gt;JUMP_TARGET -->
<g id="edge10" class="edge">
<title>BLOCK&#45;&gt;JUMP_TARGET</title>
<path fill="none" stroke="red" d="M1533.38,-234C1727.61,-234 2102.17,-234 2102.17,-234 2102.17,-234 2102.17,-132.92 2102.17,-132.92"/>
<polygon fill="red" stroke="red" points="2105.67,-132.92 2102.17,-122.92 2098.67,-132.92 2105.67,-132.92"/>
<text text-anchor="middle" x="1858.81" y="-236.6" font-family="Times New Roman,serif" font-size="8.00">AST </text>
</g>
<!-- BLOCK&#45;&gt;JUMP_TARGET -->
<g id="edge20" class="edge">
<title>BLOCK&#45;&gt;JUMP_TARGET</title>
<path fill="none" stroke="blue" d="M1533.1,-225C1714.86,-225 2050.83,-225 2050.83,-225 2050.83,-225 2050.83,-132.61 2050.83,-132.61"/>
<polygon fill="blue" stroke="blue" points="2054.33,-132.61 2050.83,-122.61 2047.33,-132.61 2054.33,-132.61"/>
<text text-anchor="middle" x="1829.16" y="-227.6" font-family="Times New Roman,serif" font-size="8.00">CFG </text>
</g>
<!-- UNKNOWN -->
<g id="node12" class="node">
<title>UNKNOWN</title>
<polygon fill="none" stroke="black" points="2172,-20.5 2172,-122.5 2399,-122.5 2399,-20.5 2172,-20.5"/>
<text text-anchor="start" x="2246.5" y="-108.3" font-family="Times New Roman,serif" font-weight="bold" font-size="14.00">UNKNOWN</text>
<text text-anchor="start" x="2252.5" y="-97.5" font-family="Times New Roman,serif" font-size="10.00">CODE: string (1)</text>
<text text-anchor="start" x="2216.5" y="-87.5" font-family="Times New Roman,serif" font-size="10.00">PARSER_TYPE_NAME: string (1)</text>
<text text-anchor="start" x="2256" y="-77.5" font-family="Times New Roman,serif" font-size="10.00">ORDER: int (1)</text>
<text text-anchor="start" x="2228" y="-67.5" font-family="Times New Roman,serif" font-size="10.00">ARGUMENT_INDEX: int (1)</text>
<text text-anchor="start" x="2223" y="-57.5" font-family="Times New Roman,serif" font-size="10.00">TYPE_FULL_NAME: string (1)</text>
<text text-anchor="start" x="2180" y="-47.5" font-family="Times New Roman,serif" font-size="10.00">DYNAMIC_TYPE_HINT_FULL_NAME: string (0:n)</text>
<text text-anchor="start" x="2235.5" y="-37.5" font-family="Times New Roman,serif" font-size="10.00">LINE_NUMBER: int (0:1)</text>
<text text-anchor="start" x="2225" y="-27.5" font-family="Times New Roman,serif" font-size="10.00">COLUMN_NUMBER: int (0:1)</text>
</g>
<!-- BLOCK&#45;&gt;UNKNOWN -->
<g id="edge9" class="edge">
<title>BLOCK&#45;&gt;UNKNOWN</title>
<path fill="none" stroke="red" d="M1533.35,-244C1760.35,-244 2247.67,-244 2247.67,-244 2247.67,-244 2247.67,-132.79 2247.67,-132.79"/>
<polygon fill="red" stroke="red" points="2251.17,-132.79 2247.67,-122.79 2244.17,-132.79 2251.17,-132.79"/>
<text text-anchor="middle" x="1936.61" y="-246.6" font-family="Times New Roman,serif" font-size="8.00">AST </text>
</g>
<!-- BLOCK&#45;&gt;UNKNOWN -->
<g id="edge22" class="edge">
<title>BLOCK&#45;&gt;UNKNOWN</title>
<path fill="none" stroke="blue" d="M1533.06,-253C1775.81,-253 2323.33,-253 2323.33,-253 2323.33,-253 2323.33,-132.54 2323.33,-132.54"/>
<polygon fill="blue" stroke="blue" points="2326.83,-132.54 2323.33,-122.54 2319.83,-132.54 2326.83,-132.54"/>
<text text-anchor="middle" x="1979.42" y="-255.6" font-family="Times New Roman,serif" font-size="8.00">CFG </text>
</g>
<!-- EXPRESSION -->
<g id="node13" class="node">
<title>EXPRESSION</title>
<polygon fill="none" stroke="black" points="2417,-45.5 2417,-97.5 2548,-97.5 2548,-45.5 2417,-45.5"/>
<text text-anchor="start" x="2436" y="-83.3" font-family="Times New Roman,serif" font-weight="bold" font-size="14.00">EXPRESSION</text>
<text text-anchor="start" x="2449.5" y="-72.5" font-family="Times New Roman,serif" font-size="10.00">CODE: string (1)</text>
<text text-anchor="start" x="2453" y="-62.5" font-family="Times New Roman,serif" font-size="10.00">ORDER: int (1)</text>
<text text-anchor="start" x="2425" y="-52.5" font-family="Times New Roman,serif" font-size="10.00">ARGUMENT_INDEX: int (1)</text>
</g>
<!-- BLOCK&#45;&gt;EXPRESSION -->
<g id="edge23" class="edge">
<title>BLOCK&#45;&gt;EXPRESSION</title>
<path fill="none" stroke="gray" d="M1533.01,-262C1807.07,-262 2482.5,-262 2482.5,-262 2482.5,-262 2482.5,-107.59 2482.5,-107.59"/>
<polygon fill="none" stroke="gray" points="2486,-107.59 2482.5,-97.59 2479,-107.59 2486,-107.59"/>
<text text-anchor="middle" x="2081.96" y="-264.6" font-family="Times New Roman,serif" font-size="8.00">is</text>
</g>
</g>
</svg>
