<?xml version="1.0" encoding="UTF-8" standalone="no"?>
<!DOCTYPE svg PUBLIC "-//W3C//DTD SVG 1.1//EN"
 "http://www.w3.org/Graphics/SVG/1.1/DTD/svg11.dtd">
<!-- Generated by graphviz version 2.44.1 (20200629.0800)
 -->
<!-- Title: cpgschema Pages: 1 -->
<svg width="2440pt" height="328pt"
 viewBox="0.00 0.00 2439.50 328.00" xmlns="http://www.w3.org/2000/svg" xmlns:xlink="http://www.w3.org/1999/xlink">
<g id="graph0" class="graph" transform="scale(1 1) rotate(0) translate(4 324)">
<title>cpgschema</title>
<polygon fill="white" stroke="transparent" points="-4,4 -4,-324 2435.5,-324 2435.5,4 -4,4"/>
<!-- CALL -->
<g id="node1" class="node">
<title>CALL</title>
<polygon fill="none" stroke="black" points="1061,-149.5 1061,-291.5 1288,-291.5 1288,-149.5 1061,-149.5"/>
<text text-anchor="start" x="1155" y="-277.3" font-family="Times New Roman,serif" font-weight="bold" font-size="14.00">CALL</text>
<text text-anchor="start" x="1141.5" y="-266.5" font-family="Times New Roman,serif" font-size="10.00">CODE: string (1)</text>
<text text-anchor="start" x="1139.5" y="-256.5" font-family="Times New Roman,serif" font-size="10.00">NAME: string (1)</text>
<text text-anchor="start" x="1145" y="-246.5" font-family="Times New Roman,serif" font-size="10.00">ORDER: int (1)</text>
<text text-anchor="start" x="1086.5" y="-236.5" font-family="Times New Roman,serif" font-size="10.00">METHOD_INST_FULL_NAME: string (0:1)</text>
<text text-anchor="start" x="1103" y="-226.5" font-family="Times New Roman,serif" font-size="10.00">METHOD_FULL_NAME: string (1)</text>
<text text-anchor="start" x="1117" y="-216.5" font-family="Times New Roman,serif" font-size="10.00">ARGUMENT_INDEX: int (1)</text>
<text text-anchor="start" x="1117" y="-206.5" font-family="Times New Roman,serif" font-size="10.00">DISPATCH_TYPE: string (1)</text>
<text text-anchor="start" x="1127.5" y="-196.5" font-family="Times New Roman,serif" font-size="10.00">SIGNATURE: string (1)</text>
<text text-anchor="start" x="1112" y="-186.5" font-family="Times New Roman,serif" font-size="10.00">TYPE_FULL_NAME: string (1)</text>
<text text-anchor="start" x="1069" y="-176.5" font-family="Times New Roman,serif" font-size="10.00">DYNAMIC_TYPE_HINT_FULL_NAME: string (0:n)</text>
<text text-anchor="start" x="1124.5" y="-166.5" font-family="Times New Roman,serif" font-size="10.00">LINE_NUMBER: int (0:1)</text>
<text text-anchor="start" x="1114" y="-156.5" font-family="Times New Roman,serif" font-size="10.00">COLUMN_NUMBER: int (0:1)</text>
</g>
<!-- CALL&#45;&gt;CALL -->
<g id="edge1" class="edge">
<title>CALL&#45;&gt;CALL</title>
<path fill="none" stroke="blue" d="M1242.6,-291.75C1242.6,-307.7 1242.6,-320 1242.6,-320 1242.6,-320 1046.6,-320 1046.6,-320 1046.6,-320 1046.6,-120 1046.6,-120 1046.6,-120 1161.89,-120 1161.89,-120 1161.89,-120 1161.89,-139.34 1161.89,-139.34"/>
<polygon fill="blue" stroke="blue" points="1158.39,-139.34 1161.89,-149.34 1165.39,-139.34 1158.39,-139.34"/>
<text text-anchor="middle" x="1037.6" y="-267.41" font-family="Times New Roman,serif" font-size="8.00">CFG </text>
</g>
<!-- CALL&#45;&gt;CALL -->
<g id="edge12" class="edge">
<title>CALL&#45;&gt;CALL</title>
<path fill="none" stroke="red" d="M1106.4,-291.76C1106.4,-296.24 1106.4,-299 1106.4,-299 1106.4,-299 1057.4,-299 1057.4,-299 1057.4,-299 1057.4,-141 1057.4,-141 1057.4,-141 1086.22,-141 1086.22,-141 1086.22,-141 1086.22,-141.82 1086.22,-141.82"/>
<polygon fill="red" stroke="red" points="1082.72,-139.21 1086.22,-149.21 1089.72,-139.21 1082.72,-139.21"/>
<text text-anchor="middle" x="1047.9" y="-235.9" font-family="Times New Roman,serif" font-size="8.00">AST </text>
</g>
<!-- CALL&#45;&gt;CALL -->
<g id="edge21" class="edge">
<title>CALL&#45;&gt;CALL</title>
<path fill="none" stroke="black" d="M1151.8,-291.88C1151.8,-300.32 1151.8,-306 1151.8,-306 1151.8,-306 1053.8,-306 1053.8,-306 1053.8,-306 1053.8,-134 1053.8,-134 1053.8,-134 1111.44,-134 1111.44,-134 1111.44,-134 1111.44,-139.46 1111.44,-139.46"/>
<polygon fill="black" stroke="black" points="1107.94,-139.46 1111.44,-149.46 1114.94,-139.46 1107.94,-139.46"/>
<text text-anchor="middle" x="1016.3" y="-247.1" font-family="Times New Roman,serif" font-size="8.00">RECEIVER (0&#45;1:0&#45;1)</text>
</g>
<!-- CALL&#45;&gt;CALL -->
<g id="edge29" class="edge">
<title>CALL&#45;&gt;CALL</title>
<path fill="none" stroke="black" d="M1197.2,-291.55C1197.2,-303.97 1197.2,-313 1197.2,-313 1197.2,-313 1050.2,-313 1050.2,-313 1050.2,-313 1050.2,-127 1050.2,-127 1050.2,-127 1136.67,-127 1136.67,-127 1136.67,-127 1136.67,-139.16 1136.67,-139.16"/>
<polygon fill="black" stroke="black" points="1133.17,-139.16 1136.67,-149.16 1140.17,-139.16 1133.17,-139.16"/>
<text text-anchor="middle" x="1012.7" y="-257.51" font-family="Times New Roman,serif" font-size="8.00">ARGUMENT (0&#45;1:n)</text>
</g>
<!-- LITERAL -->
<g id="node2" class="node">
<title>LITERAL</title>
<polygon fill="none" stroke="black" points="0,-10.5 0,-102.5 227,-102.5 227,-10.5 0,-10.5"/>
<text text-anchor="start" x="81.5" y="-88.3" font-family="Times New Roman,serif" font-weight="bold" font-size="14.00">LITERAL</text>
<text text-anchor="start" x="80.5" y="-77.5" font-family="Times New Roman,serif" font-size="10.00">CODE: string (1)</text>
<text text-anchor="start" x="84" y="-67.5" font-family="Times New Roman,serif" font-size="10.00">ORDER: int (1)</text>
<text text-anchor="start" x="56" y="-57.5" font-family="Times New Roman,serif" font-size="10.00">ARGUMENT_INDEX: int (1)</text>
<text text-anchor="start" x="51" y="-47.5" font-family="Times New Roman,serif" font-size="10.00">TYPE_FULL_NAME: string (1)</text>
<text text-anchor="start" x="8" y="-37.5" font-family="Times New Roman,serif" font-size="10.00">DYNAMIC_TYPE_HINT_FULL_NAME: string (0:n)</text>
<text text-anchor="start" x="63.5" y="-27.5" font-family="Times New Roman,serif" font-size="10.00">LINE_NUMBER: int (0:1)</text>
<text text-anchor="start" x="53" y="-17.5" font-family="Times New Roman,serif" font-size="10.00">COLUMN_NUMBER: int (0:1)</text>
</g>
<!-- CALL&#45;&gt;LITERAL -->
<g id="edge4" class="edge">
<title>CALL&#45;&gt;LITERAL</title>
<path fill="none" stroke="blue" d="M1060.6,-260C799.8,-260 181.6,-260 181.6,-260 181.6,-260 181.6,-112.68 181.6,-112.68"/>
<polygon fill="blue" stroke="blue" points="185.1,-112.68 181.6,-102.68 178.1,-112.68 185.1,-112.68"/>
<text text-anchor="middle" x="538.44" y="-262.6" font-family="Times New Roman,serif" font-size="8.00">CFG </text>
</g>
<!-- CALL&#45;&gt;LITERAL -->
<g id="edge15" class="edge">
<title>CALL&#45;&gt;LITERAL</title>
<path fill="none" stroke="red" d="M1060.91,-268C791.5,-268 136.2,-268 136.2,-268 136.2,-268 136.2,-112.65 136.2,-112.65"/>
<polygon fill="red" stroke="red" points="139.7,-112.65 136.2,-102.65 132.7,-112.65 139.7,-112.65"/>
<text text-anchor="middle" x="511.38" y="-270.6" font-family="Times New Roman,serif" font-size="8.00">AST </text>
</g>
<!-- CALL&#45;&gt;LITERAL -->
<g id="edge23" class="edge">
<title>CALL&#45;&gt;LITERAL</title>
<path fill="none" stroke="black" d="M1060.81,-284C774.3,-284 45.4,-284 45.4,-284 45.4,-284 45.4,-112.54 45.4,-112.54"/>
<polygon fill="black" stroke="black" points="48.9,-112.54 45.4,-102.54 41.9,-112.54 48.9,-112.54"/>
<text text-anchor="middle" x="429.87" y="-286.6" font-family="Times New Roman,serif" font-size="8.00">RECEIVER (0&#45;1:0&#45;1)</text>
</g>
<!-- CALL&#45;&gt;LITERAL -->
<g id="edge32" class="edge">
<title>CALL&#45;&gt;LITERAL</title>
<path fill="none" stroke="black" d="M1060.83,-276C782.76,-276 90.8,-276 90.8,-276 90.8,-276 90.8,-112.51 90.8,-112.51"/>
<polygon fill="black" stroke="black" points="94.3,-112.51 90.8,-102.51 87.3,-112.51 94.3,-112.51"/>
<text text-anchor="middle" x="456.57" y="-269.6" font-family="Times New Roman,serif" font-size="8.00">ARGUMENT (0&#45;1:n)</text>
</g>
<!-- IDENTIFIER -->
<g id="node3" class="node">
<title>IDENTIFIER</title>
<polygon fill="none" stroke="black" points="245,-5.5 245,-107.5 472,-107.5 472,-5.5 245,-5.5"/>
<text text-anchor="start" x="315.5" y="-93.3" font-family="Times New Roman,serif" font-weight="bold" font-size="14.00">IDENTIFIER</text>
<text text-anchor="start" x="325.5" y="-82.5" font-family="Times New Roman,serif" font-size="10.00">CODE: string (1)</text>
<text text-anchor="start" x="323.5" y="-72.5" font-family="Times New Roman,serif" font-size="10.00">NAME: string (1)</text>
<text text-anchor="start" x="329" y="-62.5" font-family="Times New Roman,serif" font-size="10.00">ORDER: int (1)</text>
<text text-anchor="start" x="301" y="-52.5" font-family="Times New Roman,serif" font-size="10.00">ARGUMENT_INDEX: int (1)</text>
<text text-anchor="start" x="296" y="-42.5" font-family="Times New Roman,serif" font-size="10.00">TYPE_FULL_NAME: string (1)</text>
<text text-anchor="start" x="253" y="-32.5" font-family="Times New Roman,serif" font-size="10.00">DYNAMIC_TYPE_HINT_FULL_NAME: string (0:n)</text>
<text text-anchor="start" x="308.5" y="-22.5" font-family="Times New Roman,serif" font-size="10.00">LINE_NUMBER: int (0:1)</text>
<text text-anchor="start" x="298" y="-12.5" font-family="Times New Roman,serif" font-size="10.00">COLUMN_NUMBER: int (0:1)</text>
</g>
<!-- CALL&#45;&gt;IDENTIFIER -->
<g id="edge2" class="edge">
<title>CALL&#45;&gt;IDENTIFIER</title>
<path fill="none" stroke="blue" d="M1060.95,-244C831.83,-244 335.8,-244 335.8,-244 335.8,-244 335.8,-117.74 335.8,-117.74"/>
<polygon fill="blue" stroke="blue" points="339.3,-117.74 335.8,-107.74 332.3,-117.74 339.3,-117.74"/>
<text text-anchor="middle" x="626.24" y="-246.6" font-family="Times New Roman,serif" font-size="8.00">CFG </text>
</g>
<!-- CALL&#45;&gt;IDENTIFIER -->
<g id="edge13" class="edge">
<title>CALL&#45;&gt;IDENTIFIER</title>
<path fill="none" stroke="red" d="M1060.84,-236C841.48,-236 381.2,-236 381.2,-236 381.2,-236 381.2,-117.94 381.2,-117.94"/>
<polygon fill="red" stroke="red" points="384.7,-117.94 381.2,-107.94 377.7,-117.94 384.7,-117.94"/>
<text text-anchor="middle" x="652.49" y="-238.6" font-family="Times New Roman,serif" font-size="8.00">AST </text>
</g>
<!-- CALL&#45;&gt;IDENTIFIER -->
<g id="edge22" class="edge">
<title>CALL&#45;&gt;IDENTIFIER</title>
<path fill="none" stroke="black" d="M1060.73,-252C821.95,-252 290.4,-252 290.4,-252 290.4,-252 290.4,-117.61 290.4,-117.61"/>
<polygon fill="black" stroke="black" points="293.9,-117.61 290.4,-107.61 286.9,-117.61 293.9,-117.61"/>
<text text-anchor="middle" x="570.87" y="-245.6" font-family="Times New Roman,serif" font-size="8.00">RECEIVER (0&#45;1:0&#45;1)</text>
</g>
<!-- CALL&#45;&gt;IDENTIFIER -->
<g id="edge30" class="edge">
<title>CALL&#45;&gt;IDENTIFIER</title>
<path fill="none" stroke="black" d="M1060.91,-228C851.69,-228 426.6,-228 426.6,-228 426.6,-228 426.6,-117.96 426.6,-117.96"/>
<polygon fill="black" stroke="black" points="430.1,-117.96 426.6,-107.96 423.1,-117.96 430.1,-117.96"/>
<text text-anchor="middle" x="651.23" y="-221.6" font-family="Times New Roman,serif" font-size="8.00">ARGUMENT (0&#45;1:n)</text>
</g>
<!-- FIELD_IDENTIFIER -->
<g id="node4" class="node">
<title>FIELD_IDENTIFIER</title>
<polygon fill="none" stroke="black" points="490,-15.5 490,-97.5 643,-97.5 643,-15.5 490,-15.5"/>
<text text-anchor="start" x="498" y="-83.3" font-family="Times New Roman,serif" font-weight="bold" font-size="14.00">FIELD_IDENTIFIER</text>
<text text-anchor="start" x="533.5" y="-72.5" font-family="Times New Roman,serif" font-size="10.00">CODE: string (1)</text>
<text text-anchor="start" x="501.5" y="-62.5" font-family="Times New Roman,serif" font-size="10.00">CANONICAL_NAME: string (1)</text>
<text text-anchor="start" x="537" y="-52.5" font-family="Times New Roman,serif" font-size="10.00">ORDER: int (1)</text>
<text text-anchor="start" x="509" y="-42.5" font-family="Times New Roman,serif" font-size="10.00">ARGUMENT_INDEX: int (1)</text>
<text text-anchor="start" x="516.5" y="-32.5" font-family="Times New Roman,serif" font-size="10.00">LINE_NUMBER: int (0:1)</text>
<text text-anchor="start" x="506" y="-22.5" font-family="Times New Roman,serif" font-size="10.00">COLUMN_NUMBER: int (0:1)</text>
</g>
<!-- CALL&#45;&gt;FIELD_IDENTIFIER -->
<g id="edge3" class="edge">
<title>CALL&#45;&gt;FIELD_IDENTIFIER</title>
<path fill="none" stroke="blue" d="M1060.85,-212C884.88,-212 566.5,-212 566.5,-212 566.5,-212 566.5,-107.76 566.5,-107.76"/>
<polygon fill="blue" stroke="blue" points="570,-107.76 566.5,-97.76 563,-107.76 570,-107.76"/>
<text text-anchor="middle" x="752.56" y="-214.6" font-family="Times New Roman,serif" font-size="8.00">CFG </text>
</g>
<!-- CALL&#45;&gt;FIELD_IDENTIFIER -->
<g id="edge14" class="edge">
<title>CALL&#45;&gt;FIELD_IDENTIFIER</title>
<path fill="none" stroke="red" d="M1060.91,-204C894.7,-204 604.75,-204 604.75,-204 604.75,-204 604.75,-107.59 604.75,-107.59"/>
<polygon fill="red" stroke="red" points="608.25,-107.59 604.75,-97.59 601.25,-107.59 608.25,-107.59"/>
<text text-anchor="middle" x="766.63" y="-197.6" font-family="Times New Roman,serif" font-size="8.00">AST (1:n)</text>
</g>
<!-- CALL&#45;&gt;FIELD_IDENTIFIER -->
<g id="edge31" class="edge">
<title>CALL&#45;&gt;FIELD_IDENTIFIER</title>
<path fill="none" stroke="black" d="M1060.82,-220C875.39,-220 528.25,-220 528.25,-220 528.25,-220 528.25,-107.76 528.25,-107.76"/>
<polygon fill="black" stroke="black" points="531.75,-107.76 528.25,-97.76 524.75,-107.76 531.75,-107.76"/>
<text text-anchor="middle" x="704.91" y="-213.6" font-family="Times New Roman,serif" font-size="8.00">ARGUMENT (1:n)</text>
</g>
<!-- RETURN -->
<g id="node5" class="node">
<title>RETURN</title>
<polygon fill="none" stroke="black" points="661,-20.5 661,-92.5 798,-92.5 798,-20.5 661,-20.5"/>
<text text-anchor="start" x="699" y="-78.3" font-family="Times New Roman,serif" font-weight="bold" font-size="14.00">RETURN</text>
<text text-anchor="start" x="679.5" y="-67.5" font-family="Times New Roman,serif" font-size="10.00">LINE_NUMBER: int (0:1)</text>
<text text-anchor="start" x="669" y="-57.5" font-family="Times New Roman,serif" font-size="10.00">COLUMN_NUMBER: int (0:1)</text>
<text text-anchor="start" x="700" y="-47.5" font-family="Times New Roman,serif" font-size="10.00">ORDER: int (1)</text>
<text text-anchor="start" x="672" y="-37.5" font-family="Times New Roman,serif" font-size="10.00">ARGUMENT_INDEX: int (1)</text>
<text text-anchor="start" x="696.5" y="-27.5" font-family="Times New Roman,serif" font-size="10.00">CODE: string (1)</text>
</g>
<!-- CALL&#45;&gt;RETURN -->
<g id="edge7" class="edge">
<title>CALL&#45;&gt;RETURN</title>
<path fill="none" stroke="blue" d="M1060.95,-196C922.48,-196 706.67,-196 706.67,-196 706.67,-196 706.67,-102.79 706.67,-102.79"/>
<polygon fill="blue" stroke="blue" points="710.17,-102.79 706.67,-92.79 703.17,-102.79 710.17,-102.79"/>
<text text-anchor="middle" x="828.2" y="-198.6" font-family="Times New Roman,serif" font-size="8.00">CFG </text>
</g>
<!-- CALL&#45;&gt;RETURN -->
<g id="edge18" class="edge">
<title>CALL&#45;&gt;RETURN</title>
<path fill="none" stroke="red" d="M1060.81,-188C935.77,-188 752.33,-188 752.33,-188 752.33,-188 752.33,-102.78 752.33,-102.78"/>
<polygon fill="red" stroke="red" points="755.83,-102.78 752.33,-92.78 748.83,-102.78 755.83,-102.78"/>
<text text-anchor="middle" x="854.46" y="-190.6" font-family="Times New Roman,serif" font-size="8.00">AST </text>
</g>
<!-- BLOCK -->
<g id="node6" class="node">
<title>BLOCK</title>
<polygon fill="none" stroke="black" points="816,-10.5 816,-102.5 1043,-102.5 1043,-10.5 816,-10.5"/>
<text text-anchor="start" x="903.5" y="-88.3" font-family="Times New Roman,serif" font-weight="bold" font-size="14.00">BLOCK</text>
<text text-anchor="start" x="896.5" y="-77.5" font-family="Times New Roman,serif" font-size="10.00">CODE: string (1)</text>
<text text-anchor="start" x="900" y="-67.5" font-family="Times New Roman,serif" font-size="10.00">ORDER: int (1)</text>
<text text-anchor="start" x="872" y="-57.5" font-family="Times New Roman,serif" font-size="10.00">ARGUMENT_INDEX: int (1)</text>
<text text-anchor="start" x="867" y="-47.5" font-family="Times New Roman,serif" font-size="10.00">TYPE_FULL_NAME: string (1)</text>
<text text-anchor="start" x="824" y="-37.5" font-family="Times New Roman,serif" font-size="10.00">DYNAMIC_TYPE_HINT_FULL_NAME: string (0:n)</text>
<text text-anchor="start" x="879.5" y="-27.5" font-family="Times New Roman,serif" font-size="10.00">LINE_NUMBER: int (0:1)</text>
<text text-anchor="start" x="869" y="-17.5" font-family="Times New Roman,serif" font-size="10.00">COLUMN_NUMBER: int (0:1)</text>
</g>
<!-- CALL&#45;&gt;BLOCK -->
<g id="edge8" class="edge">
<title>CALL&#45;&gt;BLOCK</title>
<path fill="none" stroke="blue" d="M1060.97,-156C1026.52,-156 997.6,-156 997.6,-156 997.6,-156 997.6,-112.75 997.6,-112.75"/>
<polygon fill="blue" stroke="blue" points="1001.1,-112.75 997.6,-102.75 994.1,-112.75 1001.1,-112.75"/>
<text text-anchor="middle" x="998.66" y="-158.6" font-family="Times New Roman,serif" font-size="8.00">CFG </text>
</g>
<!-- CALL&#45;&gt;BLOCK -->
<g id="edge19" class="edge">
<title>CALL&#45;&gt;BLOCK</title>
<path fill="none" stroke="red" d="M1060.75,-164C1006.05,-164 952.2,-164 952.2,-164 952.2,-164 952.2,-112.71 952.2,-112.71"/>
<polygon fill="red" stroke="red" points="955.7,-112.71 952.2,-102.71 948.7,-112.71 955.7,-112.71"/>
<text text-anchor="middle" x="971.33" y="-166.6" font-family="Times New Roman,serif" font-size="8.00">AST </text>
</g>
<!-- CALL&#45;&gt;BLOCK -->
<g id="edge26" class="edge">
<title>CALL&#45;&gt;BLOCK</title>
<path fill="none" stroke="black" d="M1060.97,-172C988.01,-172 906.8,-172 906.8,-172 906.8,-172 906.8,-112.81 906.8,-112.81"/>
<polygon fill="black" stroke="black" points="910.3,-112.81 906.8,-102.81 903.3,-112.81 910.3,-112.81"/>
<text text-anchor="middle" x="916.79" y="-165.6" font-family="Times New Roman,serif" font-size="8.00">RECEIVER (0&#45;1:0&#45;1)</text>
</g>
<!-- CALL&#45;&gt;BLOCK -->
<g id="edge35" class="edge">
<title>CALL&#45;&gt;BLOCK</title>
<path fill="none" stroke="black" d="M1060.58,-180C971.05,-180 861.4,-180 861.4,-180 861.4,-180 861.4,-112.84 861.4,-112.84"/>
<polygon fill="black" stroke="black" points="864.9,-112.84 861.4,-102.84 857.9,-112.84 864.9,-112.84"/>
<text text-anchor="middle" x="964.91" y="-182.6" font-family="Times New Roman,serif" font-size="8.00">ARGUMENT (0&#45;1:n)</text>
</g>
<!-- METHOD_REF -->
<g id="node7" class="node">
<title>METHOD_REF</title>
<polygon fill="none" stroke="black" points="1061,-0.5 1061,-112.5 1288,-112.5 1288,-0.5 1061,-0.5"/>
<text text-anchor="start" x="1123" y="-98.3" font-family="Times New Roman,serif" font-weight="bold" font-size="14.00">METHOD_REF</text>
<text text-anchor="start" x="1141.5" y="-87.5" font-family="Times New Roman,serif" font-size="10.00">CODE: string (1)</text>
<text text-anchor="start" x="1145" y="-77.5" font-family="Times New Roman,serif" font-size="10.00">ORDER: int (1)</text>
<text text-anchor="start" x="1117" y="-67.5" font-family="Times New Roman,serif" font-size="10.00">ARGUMENT_INDEX: int (1)</text>
<text text-anchor="start" x="1112" y="-57.5" font-family="Times New Roman,serif" font-size="10.00">TYPE_FULL_NAME: string (1)</text>
<text text-anchor="start" x="1069" y="-47.5" font-family="Times New Roman,serif" font-size="10.00">DYNAMIC_TYPE_HINT_FULL_NAME: string (0:n)</text>
<text text-anchor="start" x="1086.5" y="-37.5" font-family="Times New Roman,serif" font-size="10.00">METHOD_INST_FULL_NAME: string (0:1)</text>
<text text-anchor="start" x="1103" y="-27.5" font-family="Times New Roman,serif" font-size="10.00">METHOD_FULL_NAME: string (1)</text>
<text text-anchor="start" x="1124.5" y="-17.5" font-family="Times New Roman,serif" font-size="10.00">LINE_NUMBER: int (0:1)</text>
<text text-anchor="start" x="1114" y="-7.5" font-family="Times New Roman,serif" font-size="10.00">COLUMN_NUMBER: int (0:1)</text>
</g>
<!-- CALL&#45;&gt;METHOD_REF -->
<g id="edge5" class="edge">
<title>CALL&#45;&gt;METHOD_REF</title>
<path fill="none" stroke="blue" d="M1237.56,-149.04C1237.56,-149.04 1237.56,-122.93 1237.56,-122.93"/>
<polygon fill="blue" stroke="blue" points="1241.06,-122.93 1237.56,-112.93 1234.06,-122.93 1241.06,-122.93"/>
<text text-anchor="middle" x="1228.56" y="-138.59" font-family="Times New Roman,serif" font-size="8.00">CFG </text>
</g>
<!-- CALL&#45;&gt;METHOD_REF -->
<g id="edge16" class="edge">
<title>CALL&#45;&gt;METHOD_REF</title>
<path fill="none" stroke="red" d="M1187.11,-149.04C1187.11,-149.04 1187.11,-122.93 1187.11,-122.93"/>
<polygon fill="red" stroke="red" points="1190.61,-122.93 1187.11,-112.93 1183.61,-122.93 1190.61,-122.93"/>
<text text-anchor="middle" x="1177.61" y="-138.59" font-family="Times New Roman,serif" font-size="8.00">AST </text>
</g>
<!-- CALL&#45;&gt;METHOD_REF -->
<g id="edge24" class="edge">
<title>CALL&#45;&gt;METHOD_REF</title>
<path fill="none" stroke="black" d="M1212.33,-149.04C1212.33,-149.04 1212.33,-122.93 1212.33,-122.93"/>
<polygon fill="black" stroke="black" points="1215.83,-122.93 1212.33,-112.93 1208.83,-122.93 1215.83,-122.93"/>
<text text-anchor="middle" x="1174.83" y="-129.59" font-family="Times New Roman,serif" font-size="8.00">RECEIVER (0&#45;1:0&#45;1)</text>
</g>
<!-- CALL&#45;&gt;METHOD_REF -->
<g id="edge33" class="edge">
<title>CALL&#45;&gt;METHOD_REF</title>
<path fill="none" stroke="black" d="M1262.78,-149.04C1262.78,-149.04 1262.78,-122.93 1262.78,-122.93"/>
<polygon fill="black" stroke="black" points="1266.28,-122.93 1262.78,-112.93 1259.28,-122.93 1266.28,-122.93"/>
<text text-anchor="middle" x="1300.28" y="-138.59" font-family="Times New Roman,serif" font-size="8.00">ARGUMENT (0&#45;1:n)</text>
</g>
<!-- TYPE_REF -->
<g id="node8" class="node">
<title>TYPE_REF</title>
<polygon fill="none" stroke="black" points="1306,-10.5 1306,-102.5 1533,-102.5 1533,-10.5 1306,-10.5"/>
<text text-anchor="start" x="1381.5" y="-88.3" font-family="Times New Roman,serif" font-weight="bold" font-size="14.00">TYPE_REF</text>
<text text-anchor="start" x="1386.5" y="-77.5" font-family="Times New Roman,serif" font-size="10.00">CODE: string (1)</text>
<text text-anchor="start" x="1390" y="-67.5" font-family="Times New Roman,serif" font-size="10.00">ORDER: int (1)</text>
<text text-anchor="start" x="1362" y="-57.5" font-family="Times New Roman,serif" font-size="10.00">ARGUMENT_INDEX: int (1)</text>
<text text-anchor="start" x="1357" y="-47.5" font-family="Times New Roman,serif" font-size="10.00">TYPE_FULL_NAME: string (1)</text>
<text text-anchor="start" x="1314" y="-37.5" font-family="Times New Roman,serif" font-size="10.00">DYNAMIC_TYPE_HINT_FULL_NAME: string (0:n)</text>
<text text-anchor="start" x="1369.5" y="-27.5" font-family="Times New Roman,serif" font-size="10.00">LINE_NUMBER: int (0:1)</text>
<text text-anchor="start" x="1359" y="-17.5" font-family="Times New Roman,serif" font-size="10.00">COLUMN_NUMBER: int (0:1)</text>
</g>
<!-- CALL&#45;&gt;TYPE_REF -->
<g id="edge6" class="edge">
<title>CALL&#45;&gt;TYPE_REF</title>
<path fill="none" stroke="blue" d="M1288.03,-157C1322.48,-157 1351.4,-157 1351.4,-157 1351.4,-157 1351.4,-112.63 1351.4,-112.63"/>
<polygon fill="blue" stroke="blue" points="1354.9,-112.63 1351.4,-102.63 1347.9,-112.63 1354.9,-112.63"/>
<text text-anchor="middle" x="1332.9" y="-159.6" font-family="Times New Roman,serif" font-size="8.00">CFG </text>
</g>
<!-- CALL&#45;&gt;TYPE_REF -->
<g id="edge17" class="edge">
<title>CALL&#45;&gt;TYPE_REF</title>
<path fill="none" stroke="red" d="M1288.25,-166C1342.95,-166 1396.8,-166 1396.8,-166 1396.8,-166 1396.8,-112.62 1396.8,-112.62"/>
<polygon fill="red" stroke="red" points="1400.3,-112.62 1396.8,-102.62 1393.3,-112.62 1400.3,-112.62"/>
<text text-anchor="middle" x="1359.72" y="-168.6" font-family="Times New Roman,serif" font-size="8.00">AST </text>
</g>
<!-- CALL&#45;&gt;TYPE_REF -->
<g id="edge25" class="edge">
<title>CALL&#45;&gt;TYPE_REF</title>
<path fill="none" stroke="black" d="M1288.42,-184C1377.95,-184 1487.6,-184 1487.6,-184 1487.6,-184 1487.6,-112.53 1487.6,-112.53"/>
<polygon fill="black" stroke="black" points="1491.1,-112.53 1487.6,-102.53 1484.1,-112.53 1491.1,-112.53"/>
<text text-anchor="middle" x="1402.25" y="-186.6" font-family="Times New Roman,serif" font-size="8.00">RECEIVER </text>
</g>
<!-- CALL&#45;&gt;TYPE_REF -->
<g id="edge34" class="edge">
<title>CALL&#45;&gt;TYPE_REF</title>
<path fill="none" stroke="black" d="M1288.03,-175C1360.99,-175 1442.2,-175 1442.2,-175 1442.2,-175 1442.2,-112.65 1442.2,-112.65"/>
<polygon fill="black" stroke="black" points="1445.7,-112.65 1442.2,-102.65 1438.7,-112.65 1445.7,-112.65"/>
<text text-anchor="middle" x="1371.29" y="-177.6" font-family="Times New Roman,serif" font-size="8.00">ARGUMENT </text>
</g>
<!-- CONTROL_STRUCTURE -->
<g id="node9" class="node">
<title>CONTROL_STRUCTURE</title>
<polygon fill="none" stroke="black" points="1551,-15.5 1551,-97.5 1736,-97.5 1736,-15.5 1551,-15.5"/>
<text text-anchor="start" x="1559" y="-83.3" font-family="Times New Roman,serif" font-weight="bold" font-size="14.00">CONTROL_STRUCTURE</text>
<text text-anchor="start" x="1610.5" y="-72.5" font-family="Times New Roman,serif" font-size="10.00">CODE: string (1)</text>
<text text-anchor="start" x="1583" y="-62.5" font-family="Times New Roman,serif" font-size="10.00">COLUMN_NUMBER: int (0:1)</text>
<text text-anchor="start" x="1593.5" y="-52.5" font-family="Times New Roman,serif" font-size="10.00">LINE_NUMBER: int (0:1)</text>
<text text-anchor="start" x="1614" y="-42.5" font-family="Times New Roman,serif" font-size="10.00">ORDER: int (1)</text>
<text text-anchor="start" x="1574.5" y="-32.5" font-family="Times New Roman,serif" font-size="10.00">PARSER_TYPE_NAME: string (1)</text>
<text text-anchor="start" x="1586" y="-22.5" font-family="Times New Roman,serif" font-size="10.00">ARGUMENT_INDEX: int (1)</text>
</g>
<!-- CALL&#45;&gt;CONTROL_STRUCTURE -->
<g id="edge10" class="edge">
<title>CALL&#45;&gt;CONTROL_STRUCTURE</title>
<path fill="none" stroke="blue" d="M1288.18,-202C1421.64,-202 1625,-202 1625,-202 1625,-202 1625,-107.81 1625,-107.81"/>
<polygon fill="blue" stroke="blue" points="1628.5,-107.81 1625,-97.81 1621.5,-107.81 1628.5,-107.81"/>
<text text-anchor="middle" x="1494.69" y="-204.6" font-family="Times New Roman,serif" font-size="8.00">CFG </text>
</g>
<!-- CALL&#45;&gt;CONTROL_STRUCTURE -->
<g id="edge20" class="edge">
<title>CALL&#45;&gt;CONTROL_STRUCTURE</title>
<path fill="none" stroke="red" d="M1288.31,-220C1442.57,-220 1699,-220 1699,-220 1699,-220 1699,-107.76 1699,-107.76"/>
<polygon fill="red" stroke="red" points="1702.5,-107.76 1699,-97.76 1695.5,-107.76 1702.5,-107.76"/>
<text text-anchor="middle" x="1540.28" y="-222.6" font-family="Times New Roman,serif" font-size="8.00">AST </text>
</g>
<!-- CALL&#45;&gt;CONTROL_STRUCTURE -->
<g id="edge27" class="edge">
<title>CALL&#45;&gt;CONTROL_STRUCTURE</title>
<path fill="none" stroke="black" d="M1288.18,-211C1432.23,-211 1662,-211 1662,-211 1662,-211 1662,-107.9 1662,-107.9"/>
<polygon fill="black" stroke="black" points="1665.5,-107.9 1662,-97.9 1658.5,-107.9 1665.5,-107.9"/>
<text text-anchor="middle" x="1505.14" y="-213.6" font-family="Times New Roman,serif" font-size="8.00">RECEIVER </text>
</g>
<!-- CALL&#45;&gt;CONTROL_STRUCTURE -->
<g id="edge37" class="edge">
<title>CALL&#45;&gt;CONTROL_STRUCTURE</title>
<path fill="none" stroke="black" d="M1288.04,-193C1410.45,-193 1588,-193 1588,-193 1588,-193 1588,-107.82 1588,-107.82"/>
<polygon fill="black" stroke="black" points="1591.5,-107.82 1588,-97.82 1584.5,-107.82 1591.5,-107.82"/>
<text text-anchor="middle" x="1455.61" y="-195.6" font-family="Times New Roman,serif" font-size="8.00">ARGUMENT </text>
</g>
<!-- JUMP_TARGET -->
<g id="node10" class="node">
<title>JUMP_TARGET</title>
<polygon fill="none" stroke="black" points="1754.5,-5.5 1754.5,-107.5 1908.5,-107.5 1908.5,-5.5 1754.5,-5.5"/>
<text text-anchor="start" x="1777" y="-93.3" font-family="Times New Roman,serif" font-weight="bold" font-size="14.00">JUMP_TARGET</text>
<text text-anchor="start" x="1798.5" y="-82.5" font-family="Times New Roman,serif" font-size="10.00">CODE: string (1)</text>
<text text-anchor="start" x="1796.5" y="-72.5" font-family="Times New Roman,serif" font-size="10.00">NAME: string (1)</text>
<text text-anchor="start" x="1771" y="-62.5" font-family="Times New Roman,serif" font-size="10.00">COLUMN_NUMBER: int (0:1)</text>
<text text-anchor="start" x="1781.5" y="-52.5" font-family="Times New Roman,serif" font-size="10.00">LINE_NUMBER: int (0:1)</text>
<text text-anchor="start" x="1802" y="-42.5" font-family="Times New Roman,serif" font-size="10.00">ORDER: int (1)</text>
<text text-anchor="start" x="1762.5" y="-32.5" font-family="Times New Roman,serif" font-size="10.00">PARSER_TYPE_NAME: string (1)</text>
<text text-anchor="start" x="1774" y="-22.5" font-family="Times New Roman,serif" font-size="10.00">ARGUMENT_INDEX: int (1)</text>
<text text-anchor="start" x="1789.5" y="-12.5" font-family="Times New Roman,serif" font-size="10.00">INTERNAL_FLAGS </text>
</g>
<!-- CALL&#45;&gt;JUMP_TARGET -->
<g id="edge9" class="edge">
<title>CALL&#45;&gt;JUMP_TARGET</title>
<path fill="none" stroke="blue" d="M1288.38,-238C1482.61,-238 1857.17,-238 1857.17,-238 1857.17,-238 1857.17,-117.54 1857.17,-117.54"/>
<polygon fill="blue" stroke="blue" points="1860.67,-117.54 1857.17,-107.54 1853.67,-117.54 1860.67,-117.54"/>
<text text-anchor="middle" x="1624" y="-240.6" font-family="Times New Roman,serif" font-size="8.00">CFG </text>
</g>
<!-- CALL&#45;&gt;JUMP_TARGET -->
<g id="edge36" class="edge">
<title>CALL&#45;&gt;JUMP_TARGET</title>
<path fill="none" stroke="black" d="M1288.1,-229C1469.86,-229 1805.83,-229 1805.83,-229 1805.83,-229 1805.83,-117.79 1805.83,-117.79"/>
<polygon fill="black" stroke="black" points="1809.33,-117.79 1805.83,-107.79 1802.33,-117.79 1809.33,-117.79"/>
<text text-anchor="middle" x="1577.57" y="-231.6" font-family="Times New Roman,serif" font-size="8.00">ARGUMENT </text>
</g>
<!-- UNKNOWN -->
<g id="node11" class="node">
<title>UNKNOWN</title>
<polygon fill="none" stroke="black" points="1927,-5.5 1927,-107.5 2154,-107.5 2154,-5.5 1927,-5.5"/>
<text text-anchor="start" x="2001.5" y="-93.3" font-family="Times New Roman,serif" font-weight="bold" font-size="14.00">UNKNOWN</text>
<text text-anchor="start" x="2007.5" y="-82.5" font-family="Times New Roman,serif" font-size="10.00">CODE: string (1)</text>
<text text-anchor="start" x="1971.5" y="-72.5" font-family="Times New Roman,serif" font-size="10.00">PARSER_TYPE_NAME: string (1)</text>
<text text-anchor="start" x="2011" y="-62.5" font-family="Times New Roman,serif" font-size="10.00">ORDER: int (1)</text>
<text text-anchor="start" x="1983" y="-52.5" font-family="Times New Roman,serif" font-size="10.00">ARGUMENT_INDEX: int (1)</text>
<text text-anchor="start" x="1978" y="-42.5" font-family="Times New Roman,serif" font-size="10.00">TYPE_FULL_NAME: string (1)</text>
<text text-anchor="start" x="1935" y="-32.5" font-family="Times New Roman,serif" font-size="10.00">DYNAMIC_TYPE_HINT_FULL_NAME: string (0:n)</text>
<text text-anchor="start" x="1990.5" y="-22.5" font-family="Times New Roman,serif" font-size="10.00">LINE_NUMBER: int (0:1)</text>
<text text-anchor="start" x="1980" y="-12.5" font-family="Times New Roman,serif" font-size="10.00">COLUMN_NUMBER: int (0:1)</text>
</g>
<!-- CALL&#45;&gt;UNKNOWN -->
<g id="edge11" class="edge">
<title>CALL&#45;&gt;UNKNOWN</title>
<path fill="none" stroke="blue" d="M1288.11,-265C1534.75,-265 2097.25,-265 2097.25,-265 2097.25,-265 2097.25,-117.5 2097.25,-117.5"/>
<polygon fill="blue" stroke="blue" points="2100.75,-117.5 2097.25,-107.5 2093.75,-117.5 2100.75,-117.5"/>
<text text-anchor="middle" x="1757.43" y="-267.6" font-family="Times New Roman,serif" font-size="8.00">CFG </text>
</g>
<!-- CALL&#45;&gt;UNKNOWN -->
<g id="edge28" class="edge">
<title>CALL&#45;&gt;UNKNOWN</title>
<path fill="none" stroke="black" d="M1288.16,-256C1523.11,-256 2040.5,-256 2040.5,-256 2040.5,-256 2040.5,-117.62 2040.5,-117.62"/>
<polygon fill="black" stroke="black" points="2044,-117.62 2040.5,-107.62 2037,-117.62 2044,-117.62"/>
<text text-anchor="middle" x="1712.02" y="-258.6" font-family="Times New Roman,serif" font-size="8.00">RECEIVER </text>
</g>
<!-- CALL&#45;&gt;UNKNOWN -->
<g id="edge38" class="edge">
<title>CALL&#45;&gt;UNKNOWN</title>
<path fill="none" stroke="black" d="M1288.3,-247C1511.2,-247 1983.75,-247 1983.75,-247 1983.75,-247 1983.75,-117.55 1983.75,-117.55"/>
<polygon fill="black" stroke="black" points="1987.25,-117.55 1983.75,-107.55 1980.25,-117.55 1987.25,-117.55"/>
<text text-anchor="middle" x="1675.75" y="-249.6" font-family="Times New Roman,serif" font-size="8.00">ARGUMENT </text>
</g>
<!-- EXPRESSION -->
<g id="node12" class="node">
<title>EXPRESSION</title>
<polygon fill="none" stroke="black" points="2172,-30.5 2172,-82.5 2303,-82.5 2303,-30.5 2172,-30.5"/>
<text text-anchor="start" x="2191" y="-68.3" font-family="Times New Roman,serif" font-weight="bold" font-size="14.00">EXPRESSION</text>
<text text-anchor="start" x="2204.5" y="-57.5" font-family="Times New Roman,serif" font-size="10.00">CODE: string (1)</text>
<text text-anchor="start" x="2208" y="-47.5" font-family="Times New Roman,serif" font-size="10.00">ORDER: int (1)</text>
<text text-anchor="start" x="2180" y="-37.5" font-family="Times New Roman,serif" font-size="10.00">ARGUMENT_INDEX: int (1)</text>
</g>
<!-- CALL&#45;&gt;EXPRESSION -->
<g id="edge39" class="edge">
<title>CALL&#45;&gt;EXPRESSION</title>
<path fill="none" stroke="gray" d="M1288.01,-274C1562.07,-274 2237.5,-274 2237.5,-274 2237.5,-274 2237.5,-92.74 2237.5,-92.74"/>
<polygon fill="none" stroke="gray" points="2241,-92.74 2237.5,-82.74 2234,-92.74 2241,-92.74"/>
<text text-anchor="middle" x="1850.39" y="-276.6" font-family="Times New Roman,serif" font-size="8.00">is</text>
</g>
<!-- CALL_REPR -->
<g id="node13" class="node">
<title>CALL_REPR</title>
<polygon fill="none" stroke="black" points="2321.5,-30.5 2321.5,-82.5 2431.5,-82.5 2431.5,-30.5 2321.5,-30.5"/>
<text text-anchor="start" x="2333.5" y="-68.3" font-family="Times New Roman,serif" font-weight="bold" font-size="14.00">CALL_REPR</text>
<text text-anchor="start" x="2343.5" y="-57.5" font-family="Times New Roman,serif" font-size="10.00">CODE: string (1)</text>
<text text-anchor="start" x="2341.5" y="-47.5" font-family="Times New Roman,serif" font-size="10.00">NAME: string (1)</text>
<text text-anchor="start" x="2329.5" y="-37.5" font-family="Times New Roman,serif" font-size="10.00">SIGNATURE: string (1)</text>
</g>
<!-- CALL&#45;&gt;CALL_REPR -->
<g id="edge40" class="edge">
<title>CALL&#45;&gt;CALL_REPR</title>
<path fill="none" stroke="gray" d="M1288.12,-283C1587.75,-283 2376.5,-283 2376.5,-283 2376.5,-283 2376.5,-92.93 2376.5,-92.93"/>
<polygon fill="none" stroke="gray" points="2380,-92.93 2376.5,-82.93 2373,-92.93 2380,-92.93"/>
<text text-anchor="middle" x="1924.35" y="-285.6" font-family="Times New Roman,serif" font-size="8.00">is</text>
</g>
</g>
</svg>
