<?xml version="1.0" encoding="UTF-8" standalone="no"?>
<!DOCTYPE svg PUBLIC "-//W3C//DTD SVG 1.1//EN"
 "http://www.w3.org/Graphics/SVG/1.1/DTD/svg11.dtd">
<!-- Generated by graphviz version 2.44.1 (0)
 -->
<!-- Title: cpgschema Pages: 1 -->
<svg width="1950pt" height="251pt"
 viewBox="0.00 0.00 1949.84 251.00" xmlns="http://www.w3.org/2000/svg" xmlns:xlink="http://www.w3.org/1999/xlink">
<g id="graph0" class="graph" transform="scale(1 1) rotate(0) translate(4 247)">
<title>cpgschema</title>
<polygon fill="white" stroke="transparent" points="-4,4 -4,-247 1945.84,-247 1945.84,4 -4,4"/>
<!-- CALL -->
<g id="node1" class="node">
<title>CALL</title>
<polygon fill="none" stroke="black" points="632.89,-72.5 632.89,-214.5 842.89,-214.5 842.89,-72.5 632.89,-72.5"/>
<text text-anchor="start" x="716.89" y="-200.3" font-family="Times,serif" font-weight="bold" font-size="14.00">CALL</text>
<text text-anchor="start" x="721.89" y="-189.5" font-family="Times,serif" font-size="10.00">CODE</text>
<text text-anchor="start" x="720.39" y="-179.5" font-family="Times,serif" font-size="10.00">NAME</text>
<text text-anchor="start" x="717.89" y="-169.5" font-family="Times,serif" font-size="10.00">ORDER</text>
<text text-anchor="start" x="659.89" y="-159.5" font-family="Times,serif" font-size="10.00">METHOD_INST_FULL_NAME</text>
<text text-anchor="start" x="675.89" y="-149.5" font-family="Times,serif" font-size="10.00">METHOD_FULL_NAME</text>
<text text-anchor="start" x="684.89" y="-139.5" font-family="Times,serif" font-size="10.00">ARGUMENT_INDEX</text>
<text text-anchor="start" x="693.89" y="-129.5" font-family="Times,serif" font-size="10.00">DISPATCH_TYPE</text>
<text text-anchor="start" x="705.39" y="-119.5" font-family="Times,serif" font-size="10.00">SIGNATURE</text>
<text text-anchor="start" x="686.89" y="-109.5" font-family="Times,serif" font-size="10.00">TYPE_FULL_NAME</text>
<text text-anchor="start" x="640.89" y="-99.5" font-family="Times,serif" font-size="10.00">DYNAMIC_TYPE_HINT_FULL_NAME</text>
<text text-anchor="start" x="696.39" y="-89.5" font-family="Times,serif" font-size="10.00">LINE_NUMBER</text>
<text text-anchor="start" x="684.89" y="-79.5" font-family="Times,serif" font-size="10.00">COLUMN_NUMBER</text>
</g>
<!-- CALL&#45;&gt;CALL -->
<g id="edge1" class="edge">
<title>CALL&#45;&gt;CALL</title>
<path fill="none" stroke="blue" d="M800.89,-214.76C800.89,-219.24 800.89,-222 800.89,-222 800.89,-222 858.42,-222 858.42,-222 858.42,-222 858.42,-64 858.42,-64 858.42,-64 838.94,-64 838.94,-64 838.94,-64 838.94,-64.82 838.94,-64.82"/>
<polygon fill="blue" stroke="blue" points="835.44,-62.21 838.94,-72.21 842.44,-62.21 835.44,-62.21"/>
<text text-anchor="middle" x="868.92" y="-167.84" font-family="Times,serif" font-size="8.00">CFG </text>
</g>
<!-- CALL&#45;&gt;CALL -->
<g id="edge12" class="edge">
<title>CALL&#45;&gt;CALL</title>
<path fill="none" stroke="red" d="M758.89,-214.88C758.89,-223.32 758.89,-229 758.89,-229 758.89,-229 873.95,-229 873.95,-229 873.95,-229 873.95,-57 873.95,-57 873.95,-57 835,-57 835,-57 835,-57 835,-62.46 835,-62.46"/>
<polygon fill="red" stroke="red" points="831.5,-62.46 835,-72.46 838.5,-62.46 831.5,-62.46"/>
<text text-anchor="middle" x="864.45" y="-187.98" font-family="Times,serif" font-size="8.00">AST </text>
</g>
<!-- CALL&#45;&gt;CALL -->
<g id="edge21" class="edge">
<title>CALL&#45;&gt;CALL</title>
<path fill="none" stroke="black" d="M716.89,-214.55C716.89,-226.97 716.89,-236 716.89,-236 716.89,-236 889.48,-236 889.48,-236 889.48,-236 889.48,-50 889.48,-50 889.48,-50 831.05,-50 831.05,-50 831.05,-50 831.05,-62.16 831.05,-62.16"/>
<polygon fill="black" stroke="black" points="827.55,-62.16 831.05,-72.16 834.55,-62.16 827.55,-62.16"/>
<text text-anchor="middle" x="931.48" y="-207.32" font-family="Times,serif" font-size="8.00">RECEIVER (0&#45;1:0&#45;1)</text>
</g>
<!-- CALL&#45;&gt;CALL -->
<g id="edge29" class="edge">
<title>CALL&#45;&gt;CALL</title>
<path fill="none" stroke="black" d="M674.89,-214.75C674.89,-230.7 674.89,-243 674.89,-243 674.89,-243 905.01,-243 905.01,-243 905.01,-243 905.01,-43 905.01,-43 905.01,-43 827.1,-43 827.1,-43 827.1,-43 827.1,-62.34 827.1,-62.34"/>
<polygon fill="black" stroke="black" points="823.6,-62.34 827.1,-72.34 830.6,-62.34 823.6,-62.34"/>
<text text-anchor="middle" x="864.01" y="-226.16" font-family="Times,serif" font-size="8.00">ARGUMENT (0&#45;1:n)</text>
</g>
<!-- IDENTIFIER -->
<g id="node2" class="node">
<title>IDENTIFIER</title>
<ellipse fill="none" stroke="black" cx="68.89" cy="-18" rx="68.79" ry="18"/>
<text text-anchor="middle" x="68.89" y="-14.3" font-family="Times,serif" font-size="14.00">IDENTIFIER</text>
</g>
<!-- CALL&#45;&gt;IDENTIFIER -->
<g id="edge2" class="edge">
<title>CALL&#45;&gt;IDENTIFIER</title>
<path fill="none" stroke="blue" d="M632.7,-203C434.96,-203 27.56,-203 27.56,-203 27.56,-203 27.56,-42.52 27.56,-42.52"/>
<polygon fill="blue" stroke="blue" points="31.06,-42.52 27.56,-32.52 24.06,-42.52 31.06,-42.52"/>
<text text-anchor="middle" x="239.39" y="-205.6" font-family="Times,serif" font-size="8.00">CFG </text>
</g>
<!-- CALL&#45;&gt;IDENTIFIER -->
<g id="edge13" class="edge">
<title>CALL&#45;&gt;IDENTIFIER</title>
<path fill="none" stroke="red" d="M632.71,-191C441.18,-191 55.12,-191 55.12,-191 55.12,-191 55.12,-45.86 55.12,-45.86"/>
<polygon fill="red" stroke="red" points="58.62,-45.86 55.12,-35.86 51.62,-45.86 58.62,-45.86"/>
<text text-anchor="middle" x="261.84" y="-193.6" font-family="Times,serif" font-size="8.00">AST </text>
</g>
<!-- CALL&#45;&gt;IDENTIFIER -->
<g id="edge22" class="edge">
<title>CALL&#45;&gt;IDENTIFIER</title>
<path fill="none" stroke="black" d="M632.62,-179C447.41,-179 82.67,-179 82.67,-179 82.67,-179 82.67,-45.84 82.67,-45.84"/>
<polygon fill="black" stroke="black" points="86.17,-45.84 82.67,-35.84 79.17,-45.85 86.17,-45.84"/>
<text text-anchor="middle" x="249.07" y="-181.6" font-family="Times,serif" font-size="8.00">RECEIVER (0&#45;1:0&#45;1)</text>
</g>
<!-- CALL&#45;&gt;IDENTIFIER -->
<g id="edge30" class="edge">
<title>CALL&#45;&gt;IDENTIFIER</title>
<path fill="none" stroke="black" d="M632.84,-167C454.16,-167 110.23,-167 110.23,-167 110.23,-167 110.23,-42.56 110.23,-42.56"/>
<polygon fill="black" stroke="black" points="113.73,-42.56 110.23,-32.56 106.73,-42.56 113.73,-42.56"/>
<text text-anchor="middle" x="268.31" y="-169.6" font-family="Times,serif" font-size="8.00">ARGUMENT (0&#45;1:n)</text>
</g>
<!-- FIELD_IDENTIFIER -->
<g id="node3" class="node">
<title>FIELD_IDENTIFIER</title>
<ellipse fill="none" stroke="black" cx="258.89" cy="-18" rx="102.88" ry="18"/>
<text text-anchor="middle" x="258.89" y="-14.3" font-family="Times,serif" font-size="14.00">FIELD_IDENTIFIER</text>
</g>
<!-- CALL&#45;&gt;FIELD_IDENTIFIER -->
<g id="edge3" class="edge">
<title>CALL&#45;&gt;FIELD_IDENTIFIER</title>
<path fill="none" stroke="blue" d="M632.8,-155C478.19,-155 207.55,-155 207.55,-155 207.55,-155 207.55,-43.72 207.55,-43.72"/>
<polygon fill="blue" stroke="blue" points="211.05,-43.72 207.55,-33.72 204.05,-43.72 211.05,-43.72"/>
<text text-anchor="middle" x="354.03" y="-157.6" font-family="Times,serif" font-size="8.00">CFG </text>
</g>
<!-- CALL&#45;&gt;FIELD_IDENTIFIER -->
<g id="edge14" class="edge">
<title>CALL&#45;&gt;FIELD_IDENTIFIER</title>
<path fill="none" stroke="red" d="M632.78,-143C491.77,-143 258.89,-143 258.89,-143 258.89,-143 258.89,-46.18 258.89,-46.18"/>
<polygon fill="red" stroke="red" points="262.39,-46.18 258.89,-36.18 255.39,-46.18 262.39,-46.18"/>
<text text-anchor="middle" x="377.92" y="-145.6" font-family="Times,serif" font-size="8.00">AST (1:n)</text>
</g>
<!-- CALL&#45;&gt;FIELD_IDENTIFIER -->
<g id="edge31" class="edge">
<title>CALL&#45;&gt;FIELD_IDENTIFIER</title>
<path fill="none" stroke="black" d="M632.73,-131C506.11,-131 310.24,-131 310.24,-131 310.24,-131 310.24,-43.71 310.24,-43.71"/>
<polygon fill="black" stroke="black" points="313.74,-43.71 310.24,-33.71 306.74,-43.71 313.74,-43.71"/>
<text text-anchor="middle" x="390.84" y="-133.6" font-family="Times,serif" font-size="8.00">ARGUMENT (1:n)</text>
</g>
<!-- LITERAL -->
<g id="node4" class="node">
<title>LITERAL</title>
<ellipse fill="none" stroke="black" cx="431.89" cy="-18" rx="51.99" ry="18"/>
<text text-anchor="middle" x="431.89" y="-14.3" font-family="Times,serif" font-size="14.00">LITERAL</text>
</g>
<!-- CALL&#45;&gt;LITERAL -->
<g id="edge4" class="edge">
<title>CALL&#45;&gt;LITERAL</title>
<path fill="none" stroke="blue" d="M632.59,-119C533.65,-119 400.7,-119 400.7,-119 400.7,-119 400.7,-42.47 400.7,-42.47"/>
<polygon fill="blue" stroke="blue" points="404.2,-42.47 400.7,-32.47 397.2,-42.47 404.2,-42.47"/>
<text text-anchor="middle" x="467.88" y="-121.6" font-family="Times,serif" font-size="8.00">CFG </text>
</g>
<!-- CALL&#45;&gt;LITERAL -->
<g id="edge15" class="edge">
<title>CALL&#45;&gt;LITERAL</title>
<path fill="none" stroke="red" d="M632.54,-107C540.5,-107 421.49,-107 421.49,-107 421.49,-107 421.49,-46.01 421.49,-46.01"/>
<polygon fill="red" stroke="red" points="424.99,-46.01 421.49,-36.01 417.99,-46.01 424.99,-46.01"/>
<text text-anchor="middle" x="487.02" y="-109.6" font-family="Times,serif" font-size="8.00">AST </text>
</g>
<!-- CALL&#45;&gt;LITERAL -->
<g id="edge23" class="edge">
<title>CALL&#45;&gt;LITERAL</title>
<path fill="none" stroke="black" d="M632.84,-95C547.88,-95 442.29,-95 442.29,-95 442.29,-95 442.29,-45.86 442.29,-45.86"/>
<polygon fill="black" stroke="black" points="445.79,-45.86 442.29,-35.86 438.79,-45.86 445.79,-45.86"/>
<text text-anchor="middle" x="471" y="-97.6" font-family="Times,serif" font-size="8.00">RECEIVER (0&#45;1:0&#45;1)</text>
</g>
<!-- CALL&#45;&gt;LITERAL -->
<g id="edge32" class="edge">
<title>CALL&#45;&gt;LITERAL</title>
<path fill="none" stroke="black" d="M632.83,-83C555.25,-83 463.09,-83 463.09,-83 463.09,-83 463.09,-42.43 463.09,-42.43"/>
<polygon fill="black" stroke="black" points="466.59,-42.43 463.09,-32.43 459.59,-42.43 466.59,-42.43"/>
<text text-anchor="middle" x="486.67" y="-85.6" font-family="Times,serif" font-size="8.00">ARGUMENT (0&#45;1:n)</text>
</g>
<!-- METHOD_REF -->
<g id="node5" class="node">
<title>METHOD_REF</title>
<ellipse fill="none" stroke="black" cx="580.89" cy="-18" rx="79.09" ry="18"/>
<text text-anchor="middle" x="580.89" y="-14.3" font-family="Times,serif" font-size="14.00">METHOD_REF</text>
</g>
<!-- CALL&#45;&gt;METHOD_REF -->
<g id="edge5" class="edge">
<title>CALL&#45;&gt;METHOD_REF</title>
<path fill="none" stroke="blue" d="M638.35,-72.32C638.35,-72.32 638.35,-40.52 638.35,-40.52"/>
<polygon fill="blue" stroke="blue" points="641.85,-40.52 638.35,-30.52 634.85,-40.52 641.85,-40.52"/>
<text text-anchor="middle" x="627.85" y="-59.02" font-family="Times,serif" font-size="8.00">CFG </text>
</g>
<!-- CALL&#45;&gt;METHOD_REF -->
<g id="edge16" class="edge">
<title>CALL&#45;&gt;METHOD_REF</title>
<path fill="none" stroke="red" d="M643.81,-72.32C643.81,-72.32 643.81,-39.28 643.81,-39.28"/>
<polygon fill="red" stroke="red" points="647.31,-39.28 643.81,-29.28 640.31,-39.28 647.31,-39.28"/>
<text text-anchor="middle" x="634.31" y="-49.4" font-family="Times,serif" font-size="8.00">AST </text>
</g>
<!-- CALL&#45;&gt;METHOD_REF -->
<g id="edge24" class="edge">
<title>CALL&#45;&gt;METHOD_REF</title>
<path fill="none" stroke="black" d="M649.27,-72.32C649.27,-72.32 649.27,-37.34 649.27,-37.34"/>
<polygon fill="black" stroke="black" points="652.77,-37.34 649.27,-27.34 645.77,-37.34 652.77,-37.34"/>
<text text-anchor="middle" x="691.27" y="-57.43" font-family="Times,serif" font-size="8.00">RECEIVER (0&#45;1:0&#45;1)</text>
</g>
<!-- CALL&#45;&gt;METHOD_REF -->
<g id="edge33" class="edge">
<title>CALL&#45;&gt;METHOD_REF</title>
<path fill="none" stroke="black" d="M654.73,-72.32C654.73,-72.32 654.73,-34.57 654.73,-34.57"/>
<polygon fill="black" stroke="black" points="658.23,-34.57 654.73,-24.57 651.23,-34.57 658.23,-34.57"/>
<text text-anchor="middle" x="695.73" y="-47.04" font-family="Times,serif" font-size="8.00">ARGUMENT (0&#45;1:n)</text>
</g>
<!-- TYPE_REF -->
<g id="node6" class="node">
<title>TYPE_REF</title>
<ellipse fill="none" stroke="black" cx="737.89" cy="-18" rx="59.59" ry="18"/>
<text text-anchor="middle" x="737.89" y="-14.3" font-family="Times,serif" font-size="14.00">TYPE_REF</text>
</g>
<!-- CALL&#45;&gt;TYPE_REF -->
<g id="edge6" class="edge">
<title>CALL&#45;&gt;TYPE_REF</title>
<path fill="none" stroke="blue" d="M702.02,-72.32C702.02,-72.32 702.02,-42.7 702.02,-42.7"/>
<polygon fill="blue" stroke="blue" points="705.52,-42.7 702.02,-32.7 698.52,-42.7 705.52,-42.7"/>
<text text-anchor="middle" x="691.52" y="-60.11" font-family="Times,serif" font-size="8.00">CFG </text>
</g>
<!-- CALL&#45;&gt;TYPE_REF -->
<g id="edge17" class="edge">
<title>CALL&#45;&gt;TYPE_REF</title>
<path fill="none" stroke="red" d="M725.93,-72.32C725.93,-72.32 725.93,-45.97 725.93,-45.97"/>
<polygon fill="red" stroke="red" points="729.44,-45.97 725.93,-35.97 722.44,-45.97 729.44,-45.97"/>
<text text-anchor="middle" x="735.43" y="-61.74" font-family="Times,serif" font-size="8.00">AST </text>
</g>
<!-- CALL&#45;&gt;TYPE_REF -->
<g id="edge25" class="edge">
<title>CALL&#45;&gt;TYPE_REF</title>
<path fill="none" stroke="black" d="M749.85,-72.32C749.85,-72.32 749.85,-45.97 749.85,-45.97"/>
<polygon fill="black" stroke="black" points="753.35,-45.97 749.85,-35.97 746.35,-45.97 753.35,-45.97"/>
<text text-anchor="middle" x="773.85" y="-61.74" font-family="Times,serif" font-size="8.00">RECEIVER </text>
</g>
<!-- CALL&#45;&gt;TYPE_REF -->
<g id="edge34" class="edge">
<title>CALL&#45;&gt;TYPE_REF</title>
<path fill="none" stroke="black" d="M773.77,-72.32C773.77,-72.32 773.77,-42.7 773.77,-42.7"/>
<polygon fill="black" stroke="black" points="777.27,-42.7 773.77,-32.7 770.27,-42.7 777.27,-42.7"/>
<text text-anchor="middle" x="787.52" y="-51.11" font-family="Times,serif" font-size="8.00">ARGUMENT </text>
</g>
<!-- RETURN -->
<g id="node7" class="node">
<title>RETURN</title>
<ellipse fill="none" stroke="black" cx="867.89" cy="-18" rx="52.79" ry="18"/>
<text text-anchor="middle" x="867.89" y="-14.3" font-family="Times,serif" font-size="14.00">RETURN</text>
</g>
<!-- CALL&#45;&gt;RETURN -->
<g id="edge7" class="edge">
<title>CALL&#45;&gt;RETURN</title>
<path fill="none" stroke="blue" d="M819.2,-72.32C819.2,-72.32 819.2,-34.89 819.2,-34.89"/>
<polygon fill="blue" stroke="blue" points="822.7,-34.89 819.2,-24.89 815.7,-34.89 822.7,-34.89"/>
<text text-anchor="middle" x="829.7" y="-47.2" font-family="Times,serif" font-size="8.00">CFG </text>
</g>
<!-- CALL&#45;&gt;RETURN -->
<g id="edge18" class="edge">
<title>CALL&#45;&gt;RETURN</title>
<path fill="none" stroke="red" d="M823.15,-72.32C823.15,-72.32 823.15,-37.72 823.15,-37.72"/>
<polygon fill="red" stroke="red" points="826.65,-37.72 823.15,-27.72 819.65,-37.72 826.65,-37.72"/>
<text text-anchor="middle" x="832.65" y="-57.62" font-family="Times,serif" font-size="8.00">AST </text>
</g>
<!-- BLOCK -->
<g id="node8" class="node">
<title>BLOCK</title>
<ellipse fill="none" stroke="black" cx="982.89" cy="-18" rx="44.39" ry="18"/>
<text text-anchor="middle" x="982.89" y="-14.3" font-family="Times,serif" font-size="14.00">BLOCK</text>
</g>
<!-- CALL&#45;&gt;BLOCK -->
<g id="edge8" class="edge">
<title>CALL&#45;&gt;BLOCK</title>
<path fill="none" stroke="blue" d="M843.26,-107C919.58,-107 1009.41,-107 1009.41,-107 1009.41,-107 1009.41,-42.7 1009.41,-42.7"/>
<polygon fill="blue" stroke="blue" points="1012.91,-42.7 1009.41,-32.7 1005.91,-42.7 1012.91,-42.7"/>
<text text-anchor="middle" x="947.99" y="-109.6" font-family="Times,serif" font-size="8.00">CFG </text>
</g>
<!-- CALL&#45;&gt;BLOCK -->
<g id="edge19" class="edge">
<title>CALL&#45;&gt;BLOCK</title>
<path fill="none" stroke="red" d="M842.97,-98C912.81,-98 991.73,-98 991.73,-98 991.73,-98 991.73,-45.75 991.73,-45.75"/>
<polygon fill="red" stroke="red" points="995.23,-45.75 991.73,-35.75 988.23,-45.75 995.23,-45.75"/>
<text text-anchor="middle" x="933.98" y="-100.6" font-family="Times,serif" font-size="8.00">AST </text>
</g>
<!-- CALL&#45;&gt;BLOCK -->
<g id="edge26" class="edge">
<title>CALL&#45;&gt;BLOCK</title>
<path fill="none" stroke="black" d="M843.2,-89C906.17,-89 974.05,-89 974.05,-89 974.05,-89 974.05,-45.92 974.05,-45.92"/>
<polygon fill="black" stroke="black" points="977.55,-45.92 974.05,-35.92 970.55,-45.92 977.55,-45.92"/>
<text text-anchor="middle" x="888.17" y="-82.6" font-family="Times,serif" font-size="8.00">RECEIVER (0&#45;1:0&#45;1)</text>
</g>
<!-- CALL&#45;&gt;BLOCK -->
<g id="edge35" class="edge">
<title>CALL&#45;&gt;BLOCK</title>
<path fill="none" stroke="black" d="M842.98,-80C898.95,-80 956.38,-80 956.38,-80 956.38,-80 956.38,-42.69 956.38,-42.69"/>
<polygon fill="black" stroke="black" points="959.88,-42.69 956.38,-32.69 952.88,-42.69 959.88,-42.69"/>
<text text-anchor="middle" x="959.33" y="-73.6" font-family="Times,serif" font-size="8.00">ARGUMENT (0&#45;1:n)</text>
</g>
<!-- JUMP_TARGET -->
<g id="node9" class="node">
<title>JUMP_TARGET</title>
<ellipse fill="none" stroke="black" cx="1125.89" cy="-18" rx="80.69" ry="18"/>
<text text-anchor="middle" x="1125.89" y="-14.3" font-family="Times,serif" font-size="14.00">JUMP_TARGET</text>
</g>
<!-- CALL&#45;&gt;JUMP_TARGET -->
<g id="edge9" class="edge">
<title>CALL&#45;&gt;JUMP_TARGET</title>
<path fill="none" stroke="blue" d="M843.12,-125C966.03,-125 1152.76,-125 1152.76,-125 1152.76,-125 1152.76,-45.19 1152.76,-45.19"/>
<polygon fill="blue" stroke="blue" points="1156.26,-45.19 1152.76,-35.19 1149.26,-45.19 1156.26,-45.19"/>
<text text-anchor="middle" x="1027.34" y="-127.6" font-family="Times,serif" font-size="8.00">CFG </text>
</g>
<!-- CALL&#45;&gt;JUMP_TARGET -->
<g id="edge36" class="edge">
<title>CALL&#45;&gt;JUMP_TARGET</title>
<path fill="none" stroke="black" d="M843.32,-116C949.91,-116 1099.03,-116 1099.03,-116 1099.03,-116 1099.03,-45.07 1099.03,-45.07"/>
<polygon fill="black" stroke="black" points="1102.53,-45.07 1099.03,-35.07 1095.53,-45.07 1102.53,-45.07"/>
<text text-anchor="middle" x="979.14" y="-118.6" font-family="Times,serif" font-size="8.00">ARGUMENT </text>
</g>
<!-- CONTROL_STRUCTURE -->
<g id="node10" class="node">
<title>CONTROL_STRUCTURE</title>
<ellipse fill="none" stroke="black" cx="1348.89" cy="-18" rx="124.28" ry="18"/>
<text text-anchor="middle" x="1348.89" y="-14.3" font-family="Times,serif" font-size="14.00">CONTROL_STRUCTURE</text>
</g>
<!-- CALL&#45;&gt;CONTROL_STRUCTURE -->
<g id="edge10" class="edge">
<title>CALL&#45;&gt;CONTROL_STRUCTURE</title>
<path fill="none" stroke="blue" d="M843.12,-161C1035.28,-161 1423.38,-161 1423.38,-161 1423.38,-161 1423.38,-42.5 1423.38,-42.5"/>
<polygon fill="blue" stroke="blue" points="1426.88,-42.5 1423.38,-32.5 1419.88,-42.5 1426.88,-42.5"/>
<text text-anchor="middle" x="1182" y="-163.6" font-family="Times,serif" font-size="8.00">CFG </text>
</g>
<!-- CALL&#45;&gt;CONTROL_STRUCTURE -->
<g id="edge20" class="edge">
<title>CALL&#45;&gt;CONTROL_STRUCTURE</title>
<path fill="none" stroke="red" d="M843.24,-152C1023.94,-152 1373.72,-152 1373.72,-152 1373.72,-152 1373.72,-45.79 1373.72,-45.79"/>
<polygon fill="red" stroke="red" points="1377.22,-45.79 1373.72,-35.79 1370.22,-45.79 1377.22,-45.79"/>
<text text-anchor="middle" x="1152.09" y="-154.6" font-family="Times,serif" font-size="8.00">AST </text>
</g>
<!-- CALL&#45;&gt;CONTROL_STRUCTURE -->
<g id="edge27" class="edge">
<title>CALL&#45;&gt;CONTROL_STRUCTURE</title>
<path fill="none" stroke="black" d="M843.03,-143C1011.71,-143 1324.07,-143 1324.07,-143 1324.07,-143 1324.07,-45.64 1324.07,-45.64"/>
<polygon fill="black" stroke="black" points="1327.57,-45.64 1324.07,-35.64 1320.57,-45.64 1327.57,-45.64"/>
<text text-anchor="middle" x="1108.22" y="-145.6" font-family="Times,serif" font-size="8.00">RECEIVER </text>
</g>
<!-- CALL&#45;&gt;CONTROL_STRUCTURE -->
<g id="edge37" class="edge">
<title>CALL&#45;&gt;CONTROL_STRUCTURE</title>
<path fill="none" stroke="black" d="M842.93,-134C999.12,-134 1274.41,-134 1274.41,-134 1274.41,-134 1274.41,-42.69 1274.41,-42.69"/>
<polygon fill="black" stroke="black" points="1277.91,-42.69 1274.41,-32.69 1270.91,-42.69 1277.91,-42.69"/>
<text text-anchor="middle" x="1076.83" y="-136.6" font-family="Times,serif" font-size="8.00">ARGUMENT </text>
</g>
<!-- UNKNOWN -->
<g id="node11" class="node">
<title>UNKNOWN</title>
<ellipse fill="none" stroke="black" cx="1556.89" cy="-18" rx="65.79" ry="18"/>
<text text-anchor="middle" x="1556.89" y="-14.3" font-family="Times,serif" font-size="14.00">UNKNOWN</text>
</g>
<!-- CALL&#45;&gt;UNKNOWN -->
<g id="edge11" class="edge">
<title>CALL&#45;&gt;UNKNOWN</title>
<path fill="none" stroke="blue" d="M843.2,-188C1071.1,-188 1589.72,-188 1589.72,-188 1589.72,-188 1589.72,-43.69 1589.72,-43.69"/>
<polygon fill="blue" stroke="blue" points="1593.22,-43.69 1589.72,-33.69 1586.22,-43.69 1593.22,-43.69"/>
<text text-anchor="middle" x="1278.11" y="-190.6" font-family="Times,serif" font-size="8.00">CFG </text>
</g>
<!-- CALL&#45;&gt;UNKNOWN -->
<g id="edge28" class="edge">
<title>CALL&#45;&gt;UNKNOWN</title>
<path fill="none" stroke="black" d="M843.29,-179C1064.49,-179 1556.89,-179 1556.89,-179 1556.89,-179 1556.89,-46.16 1556.89,-46.16"/>
<polygon fill="black" stroke="black" points="1560.39,-46.16 1556.89,-36.16 1553.39,-46.16 1560.39,-46.16"/>
<text text-anchor="middle" x="1242.51" y="-181.6" font-family="Times,serif" font-size="8.00">RECEIVER </text>
</g>
<!-- CALL&#45;&gt;UNKNOWN -->
<g id="edge38" class="edge">
<title>CALL&#45;&gt;UNKNOWN</title>
<path fill="none" stroke="black" d="M843.11,-170C1057.33,-170 1524.07,-170 1524.07,-170 1524.07,-170 1524.07,-43.69 1524.07,-43.69"/>
<polygon fill="black" stroke="black" points="1527.57,-43.69 1524.07,-33.69 1520.57,-43.69 1527.57,-43.69"/>
<text text-anchor="middle" x="1219.24" y="-172.6" font-family="Times,serif" font-size="8.00">ARGUMENT </text>
</g>
<!-- EXPRESSION -->
<g id="node12" class="node">
<title>EXPRESSION</title>
<ellipse fill="none" stroke="black" cx="1714.89" cy="-18" rx="74.99" ry="18"/>
<text text-anchor="middle" x="1714.89" y="-14.3" font-family="Times,serif" font-size="14.00">EXPRESSION</text>
</g>
<!-- CALL&#45;&gt;EXPRESSION -->
<g id="edge39" class="edge">
<title>CALL&#45;&gt;EXPRESSION</title>
<path fill="none" stroke="gray" d="M842.91,-197C1095.25,-197 1714.89,-197 1714.89,-197 1714.89,-197 1714.89,-46.15 1714.89,-46.15"/>
<polygon fill="none" stroke="gray" points="1718.39,-46.15 1714.89,-36.15 1711.39,-46.15 1718.39,-46.15"/>
<text text-anchor="middle" x="1350.83" y="-199.6" font-family="Times,serif" font-size="8.00">is</text>
</g>
<!-- CALL_REPR -->
<g id="node13" class="node">
<title>CALL_REPR</title>
<ellipse fill="none" stroke="black" cx="1874.89" cy="-18" rx="66.89" ry="18"/>
<text text-anchor="middle" x="1874.89" y="-14.3" font-family="Times,serif" font-size="14.00">CALL_REPR</text>
</g>
<!-- CALL&#45;&gt;CALL_REPR -->
<g id="edge40" class="edge">
<title>CALL&#45;&gt;CALL_REPR</title>
<path fill="none" stroke="gray" d="M843.08,-206C1124.75,-206 1874.89,-206 1874.89,-206 1874.89,-206 1874.89,-46.03 1874.89,-46.03"/>
<polygon fill="none" stroke="gray" points="1878.39,-46.03 1874.89,-36.03 1871.39,-46.03 1878.39,-46.03"/>
<text text-anchor="middle" x="1435.47" y="-208.6" font-family="Times,serif" font-size="8.00">is</text>
</g>
</g>
</svg>
