<?xml version="1.0" encoding="UTF-8" standalone="no"?>
<!DOCTYPE svg PUBLIC "-//W3C//DTD SVG 1.1//EN"
 "http://www.w3.org/Graphics/SVG/1.1/DTD/svg11.dtd">
<!-- Generated by graphviz version 2.44.1 (20200629.0800)
 -->
<!-- Title: cpgschema Pages: 1 -->
<svg width="145pt" height="160pt"
 viewBox="0.00 0.00 145.00 160.00" xmlns="http://www.w3.org/2000/svg" xmlns:xlink="http://www.w3.org/1999/xlink">
<g id="graph0" class="graph" transform="scale(1 1) rotate(0) translate(4 156)">
<title>cpgschema</title>
<polygon fill="white" stroke="transparent" points="-4,4 -4,-156 141,-156 141,4 -4,4"/>
<!-- CALL_REPR -->
<g id="node1" class="node">
<title>CALL_REPR</title>
<polygon fill="none" stroke="black" points="13.5,-99.5 13.5,-151.5 123.5,-151.5 123.5,-99.5 13.5,-99.5"/>
<text text-anchor="start" x="25.5" y="-137.3" font-family="Times New Roman,serif" font-weight="bold" font-size="14.00">CALL_REPR</text>
<text text-anchor="start" x="35.5" y="-126.5" font-family="Times New Roman,serif" font-size="10.00">CODE: string (1)</text>
<text text-anchor="start" x="33.5" y="-116.5" font-family="Times New Roman,serif" font-size="10.00">NAME: string (1)</text>
<text text-anchor="start" x="21.5" y="-106.5" font-family="Times New Roman,serif" font-size="10.00">SIGNATURE: string (1)</text>
</g>
<!-- CFG_NODE -->
<g id="node2" class="node">
<title>CFG_NODE</title>
<polygon fill="none" stroke="black" points="0,-0.5 0,-62.5 137,-62.5 137,-0.5 0,-0.5"/>
<text text-anchor="start" x="28" y="-48.3" font-family="Times New Roman,serif" font-weight="bold" font-size="14.00">CFG_NODE</text>
<text text-anchor="start" x="18.5" y="-37.5" font-family="Times New Roman,serif" font-size="10.00">LINE_NUMBER: int (0:1)</text>
<text text-anchor="start" x="8" y="-27.5" font-family="Times New Roman,serif" font-size="10.00">COLUMN_NUMBER: int (0:1)</text>
<text text-anchor="start" x="26.5" y="-17.5" font-family="Times New Roman,serif" font-size="10.00">INTERNAL_FLAGS </text>
<text text-anchor="start" x="35.5" y="-7.5" font-family="Times New Roman,serif" font-size="10.00">CODE: string (1)</text>
</g>
<!-- CALL_REPR&#45;&gt;CFG_NODE -->
<g id="edge1" class="edge">
<title>CALL_REPR&#45;&gt;CFG_NODE</title>
<path fill="none" stroke="gray" d="M68.5,-99.32C68.5,-99.32 68.5,-72.54 68.5,-72.54"/>
<polygon fill="none" stroke="gray" points="72,-72.54 68.5,-62.54 65,-72.54 72,-72.54"/>
<text text-anchor="middle" x="65.5" y="-88.53" font-family="Times New Roman,serif" font-size="8.00">is</text>
</g>
</g>
</svg>
