<?xml version="1.0" encoding="UTF-8" standalone="no"?>
<!DOCTYPE svg PUBLIC "-//W3C//DTD SVG 1.1//EN"
 "http://www.w3.org/Graphics/SVG/1.1/DTD/svg11.dtd">
<!-- Generated by graphviz version 2.44.1 (0)
 -->
<!-- Title: cpgschema Pages: 1 -->
<svg width="346pt" height="143pt"
 viewBox="0.00 0.00 345.89 143.00" xmlns="http://www.w3.org/2000/svg" xmlns:xlink="http://www.w3.org/1999/xlink">
<g id="graph0" class="graph" transform="scale(1 1) rotate(0) translate(4 139)">
<title>cpgschema</title>
<polygon fill="white" stroke="transparent" points="-4,4 -4,-139 341.89,-139 341.89,4 -4,4"/>
<!-- CFG_NODE -->
<g id="node1" class="node">
<title>CFG_NODE</title>
<polygon fill="none" stroke="black" points="124.84,-72.5 124.84,-134.5 246.84,-134.5 246.84,-72.5 124.84,-72.5"/>
<text text-anchor="start" x="141.84" y="-120.3" font-family="Times,serif" font-weight="bold" font-size="14.00">CFG_NODE</text>
<text text-anchor="start" x="144.34" y="-109.5" font-family="Times,serif" font-size="10.00">LINE_NUMBER</text>
<text text-anchor="start" x="132.84" y="-99.5" font-family="Times,serif" font-size="10.00">COLUMN_NUMBER</text>
<text text-anchor="start" x="135.84" y="-89.5" font-family="Times,serif" font-size="10.00">INTERNAL_FLAGS</text>
<text text-anchor="start" x="169.84" y="-79.5" font-family="Times,serif" font-size="10.00">CODE</text>
</g>
<!-- WITHIN_METHOD -->
<g id="node2" class="node">
<title>WITHIN_METHOD</title>
<ellipse fill="none" stroke="black" cx="96.84" cy="-18" rx="96.68" ry="18"/>
<text text-anchor="middle" x="96.84" y="-14.3" font-family="Times,serif" font-size="14.00">WITHIN_METHOD</text>
</g>
<!-- CFG_NODE&#45;&gt;WITHIN_METHOD -->
<g id="edge1" class="edge">
<title>CFG_NODE&#45;&gt;WITHIN_METHOD</title>
<path fill="none" stroke="gray" d="M159.26,-72.15C159.26,-72.15 159.26,-42.14 159.26,-42.14"/>
<polygon fill="none" stroke="gray" points="162.76,-42.14 159.26,-32.14 155.76,-42.14 162.76,-42.14"/>
<text text-anchor="middle" x="155.76" y="-59.75" font-family="Times,serif" font-size="8.00">is</text>
</g>
<!-- AST_NODE -->
<g id="node3" class="node">
<title>AST_NODE</title>
<ellipse fill="none" stroke="black" cx="274.84" cy="-18" rx="63.09" ry="18"/>
<text text-anchor="middle" x="274.84" y="-14.3" font-family="Times,serif" font-size="14.00">AST_NODE</text>
</g>
<!-- CFG_NODE&#45;&gt;AST_NODE -->
<g id="edge2" class="edge">
<title>CFG_NODE&#45;&gt;AST_NODE</title>
<path fill="none" stroke="gray" d="M229.32,-72.15C229.32,-72.15 229.32,-40.81 229.32,-40.81"/>
<polygon fill="none" stroke="gray" points="232.82,-40.81 229.32,-30.81 225.82,-40.81 232.82,-40.81"/>
<text text-anchor="middle" x="225.82" y="-59.08" font-family="Times,serif" font-size="8.00">is</text>
</g>
</g>
</svg>
