<?xml version="1.0" encoding="UTF-8" standalone="no"?>
<!DOCTYPE svg PUBLIC "-//W3C//DTD SVG 1.1//EN"
 "http://www.w3.org/Graphics/SVG/1.1/DTD/svg11.dtd">
<!-- Generated by graphviz version 2.44.1 (20200629.0800)
 -->
<!-- Title: cpgschema Pages: 1 -->
<svg width="266pt" height="144pt"
 viewBox="0.00 0.00 265.50 144.00" xmlns="http://www.w3.org/2000/svg" xmlns:xlink="http://www.w3.org/1999/xlink">
<g id="graph0" class="graph" transform="scale(1 1) rotate(0) translate(4 140)">
<title>cpgschema</title>
<polygon fill="white" stroke="transparent" points="-4,4 -4,-140 261.5,-140 261.5,4 -4,4"/>
<!-- CFG_NODE -->
<g id="node1" class="node">
<title>CFG_NODE</title>
<polygon fill="none" stroke="black" points="73,-73.5 73,-135.5 210,-135.5 210,-73.5 73,-73.5"/>
<text text-anchor="start" x="101" y="-121.3" font-family="Times New Roman,serif" font-weight="bold" font-size="14.00">CFG_NODE</text>
<text text-anchor="start" x="91.5" y="-110.5" font-family="Times New Roman,serif" font-size="10.00">LINE_NUMBER: int (0:1)</text>
<text text-anchor="start" x="81" y="-100.5" font-family="Times New Roman,serif" font-size="10.00">COLUMN_NUMBER: int (0:1)</text>
<text text-anchor="start" x="99.5" y="-90.5" font-family="Times New Roman,serif" font-size="10.00">INTERNAL_FLAGS </text>
<text text-anchor="start" x="108.5" y="-80.5" font-family="Times New Roman,serif" font-size="10.00">CODE: string (1)</text>
</g>
<!-- WITHIN_METHOD -->
<g id="node2" class="node">
<title>WITHIN_METHOD</title>
<polygon fill="none" stroke="black" points="0,-0.5 0,-36.5 145,-36.5 145,-0.5 0,-0.5"/>
<text text-anchor="start" x="8" y="-15.8" font-family="Times New Roman,serif" font-weight="bold" font-size="14.00">WITHIN_METHOD</text>
</g>
<!-- CFG_NODE&#45;&gt;WITHIN_METHOD -->
<g id="edge1" class="edge">
<title>CFG_NODE&#45;&gt;WITHIN_METHOD</title>
<path fill="none" stroke="gray" d="M109,-73.45C109,-73.45 109,-46.74 109,-46.74"/>
<polygon fill="none" stroke="gray" points="112.5,-46.74 109,-36.74 105.5,-46.74 112.5,-46.74"/>
<text text-anchor="middle" x="106" y="-62.7" font-family="Times New Roman,serif" font-size="8.00">is</text>
</g>
<!-- AST_NODE -->
<g id="node3" class="node">
<title>AST_NODE</title>
<polygon fill="none" stroke="black" points="163.5,-0.5 163.5,-36.5 257.5,-36.5 257.5,-0.5 163.5,-0.5"/>
<text text-anchor="start" x="171.5" y="-20.3" font-family="Times New Roman,serif" font-weight="bold" font-size="14.00">AST_NODE</text>
<text text-anchor="start" x="181" y="-9.5" font-family="Times New Roman,serif" font-size="10.00">ORDER: int (1)</text>
</g>
<!-- CFG_NODE&#45;&gt;AST_NODE -->
<g id="edge2" class="edge">
<title>CFG_NODE&#45;&gt;AST_NODE</title>
<path fill="none" stroke="gray" d="M186.75,-73.45C186.75,-73.45 186.75,-46.74 186.75,-46.74"/>
<polygon fill="none" stroke="gray" points="190.25,-46.74 186.75,-36.74 183.25,-46.74 190.25,-46.74"/>
<text text-anchor="middle" x="183.75" y="-62.7" font-family="Times New Roman,serif" font-size="8.00">is</text>
</g>
</g>
</svg>
