<?xml version="1.0" encoding="UTF-8" standalone="no"?>
<!DOCTYPE svg PUBLIC "-//W3C//DTD SVG 1.1//EN"
 "http://www.w3.org/Graphics/SVG/1.1/DTD/svg11.dtd">
<!-- Generated by graphviz version 2.44.1 (0)
 -->
<!-- Title: cpgschema Pages: 1 -->
<svg width="2097pt" height="200pt"
 viewBox="0.00 0.00 2096.74 200.00" xmlns="http://www.w3.org/2000/svg" xmlns:xlink="http://www.w3.org/1999/xlink">
<g id="graph0" class="graph" transform="scale(1 1) rotate(0) translate(4 196)">
<title>cpgschema</title>
<polygon fill="white" stroke="transparent" points="-4,4 -4,-196 2092.74,-196 2092.74,4 -4,4"/>
<!-- CONTROL_STRUCTURE -->
<g id="node1" class="node">
<title>CONTROL_STRUCTURE</title>
<polygon fill="none" stroke="black" points="910,-72.5 910,-154.5 1114,-154.5 1114,-72.5 910,-72.5"/>
<text text-anchor="start" x="918" y="-140.3" font-family="Times,serif" font-weight="bold" font-size="14.00">CONTROL_STRUCTURE</text>
<text text-anchor="start" x="996" y="-129.5" font-family="Times,serif" font-size="10.00">CODE</text>
<text text-anchor="start" x="959" y="-119.5" font-family="Times,serif" font-size="10.00">COLUMN_NUMBER</text>
<text text-anchor="start" x="970.5" y="-109.5" font-family="Times,serif" font-size="10.00">LINE_NUMBER</text>
<text text-anchor="start" x="992" y="-99.5" font-family="Times,serif" font-size="10.00">ORDER</text>
<text text-anchor="start" x="954" y="-89.5" font-family="Times,serif" font-size="10.00">PARSER_TYPE_NAME</text>
<text text-anchor="start" x="959" y="-79.5" font-family="Times,serif" font-size="10.00">ARGUMENT_INDEX</text>
</g>
<!-- CONTROL_STRUCTURE&#45;&gt;CONTROL_STRUCTURE -->
<g id="edge11" class="edge">
<title>CONTROL_STRUCTURE&#45;&gt;CONTROL_STRUCTURE</title>
<path fill="none" stroke="red" d="M950.8,-154.84C950.8,-159.16 950.8,-162 950.8,-162 950.8,-162 896.87,-162 896.87,-162 896.87,-162 896.87,-64 896.87,-64 896.87,-64 914.95,-64 914.95,-64 914.95,-64 914.95,-64.82 914.95,-64.82"/>
<polygon fill="red" stroke="red" points="911.45,-62.17 914.95,-72.17 918.45,-62.17 911.45,-62.17"/>
<text text-anchor="middle" x="887.37" y="-136.69" font-family="Times,serif" font-size="8.00">AST </text>
</g>
<!-- CONTROL_STRUCTURE&#45;&gt;CONTROL_STRUCTURE -->
<g id="edge21" class="edge">
<title>CONTROL_STRUCTURE&#45;&gt;CONTROL_STRUCTURE</title>
<path fill="none" stroke="black" d="M991.6,-154.71C991.6,-162.88 991.6,-169 991.6,-169 991.6,-169 883.74,-169 883.74,-169 883.74,-169 883.74,-57 883.74,-57 883.74,-57 919.91,-57 919.91,-57 919.91,-57 919.91,-62.44 919.91,-62.44"/>
<polygon fill="black" stroke="black" points="916.41,-62.44 919.91,-72.44 923.41,-62.44 916.41,-62.44"/>
<text text-anchor="middle" x="856.74" y="-155.87" font-family="Times,serif" font-size="8.00">CONDITION </text>
</g>
<!-- CONTROL_STRUCTURE&#45;&gt;CONTROL_STRUCTURE -->
<g id="edge24" class="edge">
<title>CONTROL_STRUCTURE&#45;&gt;CONTROL_STRUCTURE</title>
<path fill="none" stroke="black" d="M1032.4,-154.84C1032.4,-166.46 1032.4,-176 1032.4,-176 1032.4,-176 870.61,-176 870.61,-176 870.61,-176 870.61,-50 870.61,-50 870.61,-50 924.86,-50 924.86,-50 924.86,-50 924.86,-62.21 924.86,-62.21"/>
<polygon fill="black" stroke="black" points="921.36,-62.21 924.86,-72.21 928.36,-62.21 921.36,-62.21"/>
<text text-anchor="middle" x="843.61" y="-173.84" font-family="Times,serif" font-size="8.00">CONDITION </text>
</g>
<!-- CONTROL_STRUCTURE&#45;&gt;CONTROL_STRUCTURE -->
<g id="edge35" class="edge">
<title>CONTROL_STRUCTURE&#45;&gt;CONTROL_STRUCTURE</title>
<path fill="none" stroke="blue" d="M1073.2,-154.73C1073.2,-169.7 1073.2,-183 1073.2,-183 1073.2,-183 857.48,-183 857.48,-183 857.48,-183 857.48,-43 857.48,-43 857.48,-43 929.82,-43 929.82,-43 929.82,-43 929.82,-62.49 929.82,-62.49"/>
<polygon fill="blue" stroke="blue" points="926.32,-62.49 929.82,-72.49 933.32,-62.49 926.32,-62.49"/>
<text text-anchor="middle" x="853.06" y="-185.6" font-family="Times,serif" font-size="8.00">CFG </text>
</g>
<!-- LITERAL -->
<g id="node2" class="node">
<title>LITERAL</title>
<ellipse fill="none" stroke="black" cx="52" cy="-18" rx="51.99" ry="18"/>
<text text-anchor="middle" x="52" y="-14.3" font-family="Times,serif" font-size="14.00">LITERAL</text>
</g>
<!-- CONTROL_STRUCTURE&#45;&gt;LITERAL -->
<g id="edge1" class="edge">
<title>CONTROL_STRUCTURE&#45;&gt;LITERAL</title>
<path fill="none" stroke="red" d="M909.73,-149C657.5,-149 26,-149 26,-149 26,-149 26,-43.8 26,-43.8"/>
<polygon fill="red" stroke="red" points="29.5,-43.8 26,-33.8 22.5,-43.8 29.5,-43.8"/>
<text text-anchor="middle" x="395.76" y="-151.6" font-family="Times,serif" font-size="8.00">AST (1:n)</text>
</g>
<!-- CONTROL_STRUCTURE&#45;&gt;LITERAL -->
<g id="edge14" class="edge">
<title>CONTROL_STRUCTURE&#45;&gt;LITERAL</title>
<path fill="none" stroke="black" d="M909.71,-143C662.35,-143 52,-143 52,-143 52,-143 52,-46.18 52,-46.18"/>
<polygon fill="black" stroke="black" points="55.5,-46.18 52,-36.18 48.5,-46.18 55.5,-46.18"/>
<text text-anchor="middle" x="405.44" y="-136.6" font-family="Times,serif" font-size="8.00">CONDITION </text>
</g>
<!-- CONTROL_STRUCTURE&#45;&gt;LITERAL -->
<g id="edge29" class="edge">
<title>CONTROL_STRUCTURE&#45;&gt;LITERAL</title>
<path fill="none" stroke="blue" d="M909.82,-137C667.47,-137 77.99,-137 77.99,-137 77.99,-137 77.99,-44.05 77.99,-44.05"/>
<polygon fill="blue" stroke="blue" points="81.49,-44.05 77.99,-34.05 74.49,-44.05 81.49,-44.05"/>
<text text-anchor="middle" x="457.93" y="-139.6" font-family="Times,serif" font-size="8.00">CFG </text>
</g>
<!-- MODIFIER -->
<g id="node3" class="node">
<title>MODIFIER</title>
<ellipse fill="none" stroke="black" cx="184" cy="-18" rx="61.99" ry="18"/>
<text text-anchor="middle" x="184" y="-14.3" font-family="Times,serif" font-size="14.00">MODIFIER</text>
</g>
<!-- CONTROL_STRUCTURE&#45;&gt;MODIFIER -->
<g id="edge2" class="edge">
<title>CONTROL_STRUCTURE&#45;&gt;MODIFIER</title>
<path fill="none" stroke="red" d="M909.64,-131C688.1,-131 184,-131 184,-131 184,-131 184,-46.16 184,-46.16"/>
<polygon fill="red" stroke="red" points="187.5,-46.16 184,-36.16 180.5,-46.16 187.5,-46.16"/>
<text text-anchor="middle" x="494.89" y="-133.6" font-family="Times,serif" font-size="8.00">AST </text>
</g>
<!-- ARRAY_INITIALIZER -->
<g id="node4" class="node">
<title>ARRAY_INITIALIZER</title>
<ellipse fill="none" stroke="black" cx="370" cy="-18" rx="106.68" ry="18"/>
<text text-anchor="middle" x="370" y="-14.3" font-family="Times,serif" font-size="14.00">ARRAY_INITIALIZER</text>
</g>
<!-- CONTROL_STRUCTURE&#45;&gt;ARRAY_INITIALIZER -->
<g id="edge3" class="edge">
<title>CONTROL_STRUCTURE&#45;&gt;ARRAY_INITIALIZER</title>
<path fill="none" stroke="red" d="M909.83,-125C720.55,-125 334.47,-125 334.47,-125 334.47,-125 334.47,-45.19 334.47,-45.19"/>
<polygon fill="red" stroke="red" points="337.97,-45.19 334.47,-35.19 330.97,-45.19 337.97,-45.19"/>
<text text-anchor="middle" x="572.74" y="-127.6" font-family="Times,serif" font-size="8.00">AST </text>
</g>
<!-- CONTROL_STRUCTURE&#45;&gt;ARRAY_INITIALIZER -->
<g id="edge25" class="edge">
<title>CONTROL_STRUCTURE&#45;&gt;ARRAY_INITIALIZER</title>
<path fill="none" stroke="black" d="M909.8,-119C736.96,-119 405.53,-119 405.53,-119 405.53,-119 405.53,-45.13 405.53,-45.13"/>
<polygon fill="black" stroke="black" points="409.03,-45.13 405.53,-35.13 402.03,-45.13 409.03,-45.13"/>
<text text-anchor="middle" x="593.73" y="-112.6" font-family="Times,serif" font-size="8.00">CONDITION </text>
</g>
<!-- CALL -->
<g id="node5" class="node">
<title>CALL</title>
<ellipse fill="none" stroke="black" cx="530" cy="-18" rx="36" ry="18"/>
<text text-anchor="middle" x="530" y="-14.3" font-family="Times,serif" font-size="14.00">CALL</text>
</g>
<!-- CONTROL_STRUCTURE&#45;&gt;CALL -->
<g id="edge4" class="edge">
<title>CONTROL_STRUCTURE&#45;&gt;CALL</title>
<path fill="none" stroke="red" d="M909.93,-113C763.73,-113 512.12,-113 512.12,-113 512.12,-113 512.12,-43.69 512.12,-43.69"/>
<polygon fill="red" stroke="red" points="515.62,-43.69 512.12,-33.69 508.62,-43.69 515.62,-43.69"/>
<text text-anchor="middle" x="656.87" y="-115.6" font-family="Times,serif" font-size="8.00">AST (1:n)</text>
</g>
<!-- CONTROL_STRUCTURE&#45;&gt;CALL -->
<g id="edge15" class="edge">
<title>CONTROL_STRUCTURE&#45;&gt;CALL</title>
<path fill="none" stroke="black" d="M909.78,-107C768.29,-107 530,-107 530,-107 530,-107 530,-46.01 530,-46.01"/>
<polygon fill="black" stroke="black" points="533.5,-46.01 530,-36.01 526.5,-46.01 533.5,-46.01"/>
<text text-anchor="middle" x="662.39" y="-100.6" font-family="Times,serif" font-size="8.00">CONDITION </text>
</g>
<!-- CONTROL_STRUCTURE&#45;&gt;CALL -->
<g id="edge26" class="edge">
<title>CONTROL_STRUCTURE&#45;&gt;CALL</title>
<path fill="none" stroke="blue" d="M909.85,-101C773.2,-101 547.87,-101 547.87,-101 547.87,-101 547.87,-43.61 547.87,-43.61"/>
<polygon fill="blue" stroke="blue" points="551.37,-43.61 547.87,-33.61 544.37,-43.61 551.37,-43.61"/>
<text text-anchor="middle" x="710.67" y="-103.6" font-family="Times,serif" font-size="8.00">CFG </text>
</g>
<!-- LOCAL -->
<g id="node6" class="node">
<title>LOCAL</title>
<ellipse fill="none" stroke="black" cx="627" cy="-18" rx="42.79" ry="18"/>
<text text-anchor="middle" x="627" y="-14.3" font-family="Times,serif" font-size="14.00">LOCAL</text>
</g>
<!-- CONTROL_STRUCTURE&#45;&gt;LOCAL -->
<g id="edge5" class="edge">
<title>CONTROL_STRUCTURE&#45;&gt;LOCAL</title>
<path fill="none" stroke="red" d="M909.83,-95C795.78,-95 627,-95 627,-95 627,-95 627,-46.25 627,-46.25"/>
<polygon fill="red" stroke="red" points="630.5,-46.25 627,-36.25 623.5,-46.25 630.5,-46.25"/>
<text text-anchor="middle" x="734.54" y="-97.6" font-family="Times,serif" font-size="8.00">AST </text>
</g>
<!-- IDENTIFIER -->
<g id="node7" class="node">
<title>IDENTIFIER</title>
<ellipse fill="none" stroke="black" cx="757" cy="-18" rx="68.79" ry="18"/>
<text text-anchor="middle" x="757" y="-14.3" font-family="Times,serif" font-size="14.00">IDENTIFIER</text>
</g>
<!-- CONTROL_STRUCTURE&#45;&gt;IDENTIFIER -->
<g id="edge6" class="edge">
<title>CONTROL_STRUCTURE&#45;&gt;IDENTIFIER</title>
<path fill="none" stroke="red" d="M909.95,-89C826.61,-89 722.55,-89 722.55,-89 722.55,-89 722.55,-43.76 722.55,-43.76"/>
<polygon fill="red" stroke="red" points="726.05,-43.76 722.55,-33.76 719.05,-43.76 726.05,-43.76"/>
<text text-anchor="middle" x="770.13" y="-91.6" font-family="Times,serif" font-size="8.00">AST (0&#45;1:n)</text>
</g>
<!-- CONTROL_STRUCTURE&#45;&gt;IDENTIFIER -->
<g id="edge16" class="edge">
<title>CONTROL_STRUCTURE&#45;&gt;IDENTIFIER</title>
<path fill="none" stroke="black" d="M909.75,-83C838.8,-83 757,-83 757,-83 757,-83 757,-46.11 757,-46.11"/>
<polygon fill="black" stroke="black" points="760.5,-46.11 757,-36.11 753.5,-46.11 760.5,-46.11"/>
<text text-anchor="middle" x="787.92" y="-76.6" font-family="Times,serif" font-size="8.00">CONDITION </text>
</g>
<!-- CONTROL_STRUCTURE&#45;&gt;IDENTIFIER -->
<g id="edge27" class="edge">
<title>CONTROL_STRUCTURE&#45;&gt;IDENTIFIER</title>
<path fill="none" stroke="blue" d="M909.79,-77C852.1,-77 791.44,-77 791.44,-77 791.44,-77 791.44,-43.81 791.44,-43.81"/>
<polygon fill="blue" stroke="blue" points="794.94,-43.81 791.44,-33.81 787.94,-43.81 794.94,-43.81"/>
<text text-anchor="middle" x="844.52" y="-79.6" font-family="Times,serif" font-size="8.00">CFG </text>
</g>
<!-- RETURN -->
<g id="node8" class="node">
<title>RETURN</title>
<ellipse fill="none" stroke="black" cx="897" cy="-18" rx="52.79" ry="18"/>
<text text-anchor="middle" x="897" y="-14.3" font-family="Times,serif" font-size="14.00">RETURN</text>
</g>
<!-- CONTROL_STRUCTURE&#45;&gt;RETURN -->
<g id="edge7" class="edge">
<title>CONTROL_STRUCTURE&#45;&gt;RETURN</title>
<path fill="none" stroke="red" d="M934.77,-72.45C934.77,-72.45 934.77,-40.9 934.77,-40.9"/>
<polygon fill="red" stroke="red" points="938.27,-40.9 934.77,-30.9 931.27,-40.9 938.27,-40.9"/>
<text text-anchor="middle" x="911.27" y="-59.27" font-family="Times,serif" font-size="8.00">AST (0&#45;1:n)</text>
</g>
<!-- CONTROL_STRUCTURE&#45;&gt;RETURN -->
<g id="edge17" class="edge">
<title>CONTROL_STRUCTURE&#45;&gt;RETURN</title>
<path fill="none" stroke="black" d="M939.73,-72.45C939.73,-72.45 939.73,-38.8 939.73,-38.8"/>
<polygon fill="black" stroke="black" points="943.23,-38.8 939.73,-28.8 936.23,-38.8 943.23,-38.8"/>
<text text-anchor="middle" x="912.73" y="-49.22" font-family="Times,serif" font-size="8.00">CONDITION </text>
</g>
<!-- CONTROL_STRUCTURE&#45;&gt;RETURN -->
<g id="edge30" class="edge">
<title>CONTROL_STRUCTURE&#45;&gt;RETURN</title>
<path fill="none" stroke="blue" d="M944.69,-72.45C944.69,-72.45 944.69,-35.76 944.69,-35.76"/>
<polygon fill="blue" stroke="blue" points="948.19,-35.76 944.69,-25.76 941.19,-35.76 948.19,-35.76"/>
<text text-anchor="middle" x="955.19" y="-56.7" font-family="Times,serif" font-size="8.00">CFG </text>
</g>
<!-- BLOCK -->
<g id="node9" class="node">
<title>BLOCK</title>
<ellipse fill="none" stroke="black" cx="1012" cy="-18" rx="44.39" ry="18"/>
<text text-anchor="middle" x="1012" y="-14.3" font-family="Times,serif" font-size="14.00">BLOCK</text>
</g>
<!-- CONTROL_STRUCTURE&#45;&gt;BLOCK -->
<g id="edge8" class="edge">
<title>CONTROL_STRUCTURE&#45;&gt;BLOCK</title>
<path fill="none" stroke="red" d="M989.9,-72.45C989.9,-72.45 989.9,-43.61 989.9,-43.61"/>
<polygon fill="red" stroke="red" points="993.4,-43.61 989.9,-33.61 986.4,-43.61 993.4,-43.61"/>
<text text-anchor="middle" x="1013.4" y="-51.63" font-family="Times,serif" font-size="8.00">AST (0&#45;1:n)</text>
</g>
<!-- CONTROL_STRUCTURE&#45;&gt;BLOCK -->
<g id="edge18" class="edge">
<title>CONTROL_STRUCTURE&#45;&gt;BLOCK</title>
<path fill="none" stroke="black" d="M1012,-72.45C1012,-72.45 1012,-46 1012,-46"/>
<polygon fill="black" stroke="black" points="1015.5,-46 1012,-36 1008.5,-46 1015.5,-46"/>
<text text-anchor="middle" x="1039" y="-61.83" font-family="Times,serif" font-size="8.00">CONDITION </text>
</g>
<!-- CONTROL_STRUCTURE&#45;&gt;BLOCK -->
<g id="edge33" class="edge">
<title>CONTROL_STRUCTURE&#45;&gt;BLOCK</title>
<path fill="none" stroke="blue" d="M1034.09,-72.45C1034.09,-72.45 1034.09,-43.61 1034.09,-43.61"/>
<polygon fill="blue" stroke="blue" points="1037.59,-43.61 1034.09,-33.61 1030.59,-43.61 1037.59,-43.61"/>
<text text-anchor="middle" x="1044.59" y="-51.63" font-family="Times,serif" font-size="8.00">CFG </text>
</g>
<!-- JUMP_TARGET -->
<g id="node10" class="node">
<title>JUMP_TARGET</title>
<ellipse fill="none" stroke="black" cx="1155" cy="-18" rx="80.69" ry="18"/>
<text text-anchor="middle" x="1155" y="-14.3" font-family="Times,serif" font-size="14.00">JUMP_TARGET</text>
</g>
<!-- CONTROL_STRUCTURE&#45;&gt;JUMP_TARGET -->
<g id="edge9" class="edge">
<title>CONTROL_STRUCTURE&#45;&gt;JUMP_TARGET</title>
<path fill="none" stroke="red" d="M1084.3,-72.45C1084.3,-72.45 1084.3,-36.86 1084.3,-36.86"/>
<polygon fill="red" stroke="red" points="1087.8,-36.86 1084.3,-26.86 1080.8,-36.86 1087.8,-36.86"/>
<text text-anchor="middle" x="1074.8" y="-48.25" font-family="Times,serif" font-size="8.00">AST </text>
</g>
<!-- CONTROL_STRUCTURE&#45;&gt;JUMP_TARGET -->
<g id="edge22" class="edge">
<title>CONTROL_STRUCTURE&#45;&gt;JUMP_TARGET</title>
<path fill="none" stroke="black" d="M1094.2,-72.45C1094.2,-72.45 1094.2,-40.05 1094.2,-40.05"/>
<polygon fill="black" stroke="black" points="1097.7,-40.05 1094.2,-30.05 1090.7,-40.05 1097.7,-40.05"/>
<text text-anchor="middle" x="1121.2" y="-49.85" font-family="Times,serif" font-size="8.00">CONDITION </text>
</g>
<!-- CONTROL_STRUCTURE&#45;&gt;JUMP_TARGET -->
<g id="edge34" class="edge">
<title>CONTROL_STRUCTURE&#45;&gt;JUMP_TARGET</title>
<path fill="none" stroke="blue" d="M1104.1,-72.45C1104.1,-72.45 1104.1,-42.23 1104.1,-42.23"/>
<polygon fill="blue" stroke="blue" points="1107.6,-42.23 1104.1,-32.23 1100.6,-42.23 1107.6,-42.23"/>
<text text-anchor="middle" x="1093.6" y="-59.94" font-family="Times,serif" font-size="8.00">CFG </text>
</g>
<!-- UNKNOWN -->
<g id="node11" class="node">
<title>UNKNOWN</title>
<ellipse fill="none" stroke="black" cx="1319" cy="-18" rx="65.79" ry="18"/>
<text text-anchor="middle" x="1319" y="-14.3" font-family="Times,serif" font-size="14.00">UNKNOWN</text>
</g>
<!-- CONTROL_STRUCTURE&#45;&gt;UNKNOWN -->
<g id="edge10" class="edge">
<title>CONTROL_STRUCTURE&#45;&gt;UNKNOWN</title>
<path fill="none" stroke="red" d="M1114.41,-92C1214.47,-92 1351.82,-92 1351.82,-92 1351.82,-92 1351.82,-43.69 1351.82,-43.69"/>
<polygon fill="red" stroke="red" points="1355.32,-43.69 1351.82,-33.69 1348.32,-43.69 1355.32,-43.69"/>
<text text-anchor="middle" x="1247.77" y="-94.6" font-family="Times,serif" font-size="8.00">AST </text>
</g>
<!-- CONTROL_STRUCTURE&#45;&gt;UNKNOWN -->
<g id="edge23" class="edge">
<title>CONTROL_STRUCTURE&#45;&gt;UNKNOWN</title>
<path fill="none" stroke="black" d="M1114.22,-85C1203.53,-85 1319,-85 1319,-85 1319,-85 1319,-46.31 1319,-46.31"/>
<polygon fill="black" stroke="black" points="1322.5,-46.31 1319,-36.31 1315.5,-46.31 1322.5,-46.31"/>
<text text-anchor="middle" x="1208.95" y="-87.6" font-family="Times,serif" font-size="8.00">CONDITION </text>
</g>
<!-- CONTROL_STRUCTURE&#45;&gt;UNKNOWN -->
<g id="edge36" class="edge">
<title>CONTROL_STRUCTURE&#45;&gt;UNKNOWN</title>
<path fill="none" stroke="blue" d="M1114.09,-78C1192.04,-78 1286.17,-78 1286.17,-78 1286.17,-78 1286.17,-43.76 1286.17,-43.76"/>
<polygon fill="blue" stroke="blue" points="1289.67,-43.76 1286.17,-33.76 1282.67,-43.76 1289.67,-43.76"/>
<text text-anchor="middle" x="1206.75" y="-71.6" font-family="Times,serif" font-size="8.00">CFG </text>
</g>
<!-- METHOD_REF -->
<g id="node12" class="node">
<title>METHOD_REF</title>
<ellipse fill="none" stroke="black" cx="1482" cy="-18" rx="79.09" ry="18"/>
<text text-anchor="middle" x="1482" y="-14.3" font-family="Times,serif" font-size="14.00">METHOD_REF</text>
</g>
<!-- CONTROL_STRUCTURE&#45;&gt;METHOD_REF -->
<g id="edge12" class="edge">
<title>CONTROL_STRUCTURE&#45;&gt;METHOD_REF</title>
<path fill="none" stroke="red" d="M1114.21,-113C1262.99,-113 1521.64,-113 1521.64,-113 1521.64,-113 1521.64,-43.69 1521.64,-43.69"/>
<polygon fill="red" stroke="red" points="1525.14,-43.69 1521.64,-33.69 1518.14,-43.69 1525.14,-43.69"/>
<text text-anchor="middle" x="1333.08" y="-115.6" font-family="Times,serif" font-size="8.00">AST (1:n)</text>
</g>
<!-- CONTROL_STRUCTURE&#45;&gt;METHOD_REF -->
<g id="edge19" class="edge">
<title>CONTROL_STRUCTURE&#45;&gt;METHOD_REF</title>
<path fill="none" stroke="black" d="M1114.27,-106C1252.53,-106 1482,-106 1482,-106 1482,-106 1482,-46.23 1482,-46.23"/>
<polygon fill="black" stroke="black" points="1485.5,-46.23 1482,-36.23 1478.5,-46.23 1485.5,-46.23"/>
<text text-anchor="middle" x="1355.01" y="-99.6" font-family="Times,serif" font-size="8.00">CONDITION </text>
</g>
<!-- CONTROL_STRUCTURE&#45;&gt;METHOD_REF -->
<g id="edge31" class="edge">
<title>CONTROL_STRUCTURE&#45;&gt;METHOD_REF</title>
<path fill="none" stroke="blue" d="M1114.26,-99C1241.53,-99 1442.35,-99 1442.35,-99 1442.35,-99 1442.35,-43.62 1442.35,-43.62"/>
<polygon fill="blue" stroke="blue" points="1445.85,-43.62 1442.35,-33.62 1438.85,-43.62 1445.85,-43.62"/>
<text text-anchor="middle" x="1295.49" y="-101.6" font-family="Times,serif" font-size="8.00">CFG </text>
</g>
<!-- TYPE_REF -->
<g id="node13" class="node">
<title>TYPE_REF</title>
<ellipse fill="none" stroke="black" cx="1639" cy="-18" rx="59.59" ry="18"/>
<text text-anchor="middle" x="1639" y="-14.3" font-family="Times,serif" font-size="14.00">TYPE_REF</text>
</g>
<!-- CONTROL_STRUCTURE&#45;&gt;TYPE_REF -->
<g id="edge13" class="edge">
<title>CONTROL_STRUCTURE&#45;&gt;TYPE_REF</title>
<path fill="none" stroke="red" d="M1114.27,-134C1298.91,-134 1668.89,-134 1668.89,-134 1668.89,-134 1668.89,-43.64 1668.89,-43.64"/>
<polygon fill="red" stroke="red" points="1672.39,-43.64 1668.89,-33.64 1665.39,-43.64 1672.39,-43.64"/>
<text text-anchor="middle" x="1427.26" y="-136.6" font-family="Times,serif" font-size="8.00">AST </text>
</g>
<!-- CONTROL_STRUCTURE&#45;&gt;TYPE_REF -->
<g id="edge20" class="edge">
<title>CONTROL_STRUCTURE&#45;&gt;TYPE_REF</title>
<path fill="none" stroke="black" d="M1114.13,-127C1291.8,-127 1639,-127 1639,-127 1639,-127 1639,-46.49 1639,-46.49"/>
<polygon fill="black" stroke="black" points="1642.5,-46.49 1639,-36.49 1635.5,-46.49 1642.5,-46.49"/>
<text text-anchor="middle" x="1389.82" y="-129.6" font-family="Times,serif" font-size="8.00">CONDITION </text>
</g>
<!-- CONTROL_STRUCTURE&#45;&gt;TYPE_REF -->
<g id="edge32" class="edge">
<title>CONTROL_STRUCTURE&#45;&gt;TYPE_REF</title>
<path fill="none" stroke="blue" d="M1114.3,-120C1284.93,-120 1609.1,-120 1609.1,-120 1609.1,-120 1609.1,-43.94 1609.1,-43.94"/>
<polygon fill="blue" stroke="blue" points="1612.6,-43.94 1609.1,-33.94 1605.6,-43.94 1612.6,-43.94"/>
<text text-anchor="middle" x="1389.23" y="-113.6" font-family="Times,serif" font-size="8.00">CFG </text>
</g>
<!-- FIELD_IDENTIFIER -->
<g id="node14" class="node">
<title>FIELD_IDENTIFIER</title>
<ellipse fill="none" stroke="black" cx="1819" cy="-18" rx="102.88" ry="18"/>
<text text-anchor="middle" x="1819" y="-14.3" font-family="Times,serif" font-size="14.00">FIELD_IDENTIFIER</text>
</g>
<!-- CONTROL_STRUCTURE&#45;&gt;FIELD_IDENTIFIER -->
<g id="edge28" class="edge">
<title>CONTROL_STRUCTURE&#45;&gt;FIELD_IDENTIFIER</title>
<path fill="none" stroke="blue" d="M1114.2,-141C1331.35,-141 1819,-141 1819,-141 1819,-141 1819,-46.15 1819,-46.15"/>
<polygon fill="blue" stroke="blue" points="1822.5,-46.15 1819,-36.15 1815.5,-46.15 1822.5,-46.15"/>
<text text-anchor="middle" x="1503.52" y="-143.6" font-family="Times,serif" font-size="8.00">CFG </text>
</g>
<!-- EXPRESSION -->
<g id="node15" class="node">
<title>EXPRESSION</title>
<ellipse fill="none" stroke="black" cx="2014" cy="-18" rx="74.99" ry="18"/>
<text text-anchor="middle" x="2014" y="-14.3" font-family="Times,serif" font-size="14.00">EXPRESSION</text>
</g>
<!-- CONTROL_STRUCTURE&#45;&gt;EXPRESSION -->
<g id="edge37" class="edge">
<title>CONTROL_STRUCTURE&#45;&gt;EXPRESSION</title>
<path fill="none" stroke="gray" d="M1114.05,-148C1369.11,-148 2014,-148 2014,-148 2014,-148 2014,-46.08 2014,-46.08"/>
<polygon fill="none" stroke="gray" points="2017.5,-46.08 2014,-36.08 2010.5,-46.08 2017.5,-46.08"/>
<text text-anchor="middle" x="1611.49" y="-150.6" font-family="Times,serif" font-size="8.00">is</text>
</g>
</g>
</svg>
