<?xml version="1.0" encoding="UTF-8" standalone="no"?>
<!DOCTYPE svg PUBLIC "-//W3C//DTD SVG 1.1//EN"
 "http://www.w3.org/Graphics/SVG/1.1/DTD/svg11.dtd">
<!-- Generated by graphviz version 2.44.1 (20200629.0800)
 -->
<!-- Title: cpgschema Pages: 1 -->
<svg width="2930pt" height="298pt"
 viewBox="0.00 0.00 2929.50 298.00" xmlns="http://www.w3.org/2000/svg" xmlns:xlink="http://www.w3.org/1999/xlink">
<g id="graph0" class="graph" transform="scale(1 1) rotate(0) translate(4 294)">
<title>cpgschema</title>
<polygon fill="white" stroke="transparent" points="-4,4 -4,-294 2925.5,-294 2925.5,4 -4,4"/>
<!-- CONTROL_STRUCTURE -->
<g id="node1" class="node">
<title>CONTROL_STRUCTURE</title>
<polygon fill="none" stroke="black" points="1475.5,-179.5 1475.5,-261.5 1660.5,-261.5 1660.5,-179.5 1475.5,-179.5"/>
<text text-anchor="start" x="1483.5" y="-247.3" font-family="Times New Roman,serif" font-weight="bold" font-size="14.00">CONTROL_STRUCTURE</text>
<text text-anchor="start" x="1535" y="-236.5" font-family="Times New Roman,serif" font-size="10.00">CODE: string (1)</text>
<text text-anchor="start" x="1507.5" y="-226.5" font-family="Times New Roman,serif" font-size="10.00">COLUMN_NUMBER: int (0:1)</text>
<text text-anchor="start" x="1518" y="-216.5" font-family="Times New Roman,serif" font-size="10.00">LINE_NUMBER: int (0:1)</text>
<text text-anchor="start" x="1538.5" y="-206.5" font-family="Times New Roman,serif" font-size="10.00">ORDER: int (1)</text>
<text text-anchor="start" x="1499" y="-196.5" font-family="Times New Roman,serif" font-size="10.00">PARSER_TYPE_NAME: string (1)</text>
<text text-anchor="start" x="1510.5" y="-186.5" font-family="Times New Roman,serif" font-size="10.00">ARGUMENT_INDEX: int (1)</text>
</g>
<!-- CONTROL_STRUCTURE&#45;&gt;CONTROL_STRUCTURE -->
<g id="edge11" class="edge">
<title>CONTROL_STRUCTURE&#45;&gt;CONTROL_STRUCTURE</title>
<path fill="none" stroke="red" d="M1512.5,-261.73C1512.5,-276.7 1512.5,-290 1512.5,-290 1512.5,-290 1677.3,-290 1677.3,-290 1677.3,-290 1677.3,-150 1677.3,-150 1677.3,-150 1593.23,-150 1593.23,-150 1593.23,-150 1593.23,-169.49 1593.23,-169.49"/>
<polygon fill="red" stroke="red" points="1589.73,-169.49 1593.23,-179.49 1596.73,-169.49 1589.73,-169.49"/>
<text text-anchor="middle" x="1667.8" y="-267.35" font-family="Times New Roman,serif" font-size="8.00">AST </text>
</g>
<!-- CONTROL_STRUCTURE&#45;&gt;CONTROL_STRUCTURE -->
<g id="edge21" class="edge">
<title>CONTROL_STRUCTURE&#45;&gt;CONTROL_STRUCTURE</title>
<path fill="none" stroke="black" d="M1623.5,-261.84C1623.5,-266.16 1623.5,-269 1623.5,-269 1623.5,-269 1664.7,-269 1664.7,-269 1664.7,-269 1664.7,-171 1664.7,-171 1664.7,-171 1643.68,-171 1643.68,-171 1643.68,-171 1643.68,-171.82 1643.68,-171.82"/>
<polygon fill="black" stroke="black" points="1640.18,-169.17 1643.68,-179.17 1647.18,-169.17 1640.18,-169.17"/>
<text text-anchor="middle" x="1689.7" y="-235.86" font-family="Times New Roman,serif" font-size="8.00">CONDITION </text>
</g>
<!-- CONTROL_STRUCTURE&#45;&gt;CONTROL_STRUCTURE -->
<g id="edge24" class="edge">
<title>CONTROL_STRUCTURE&#45;&gt;CONTROL_STRUCTURE</title>
<path fill="none" stroke="black" d="M1586.5,-261.71C1586.5,-269.88 1586.5,-276 1586.5,-276 1586.5,-276 1668.9,-276 1668.9,-276 1668.9,-276 1668.9,-164 1668.9,-164 1668.9,-164 1626.86,-164 1626.86,-164 1626.86,-164 1626.86,-169.44 1626.86,-169.44"/>
<polygon fill="black" stroke="black" points="1623.36,-169.44 1626.86,-179.44 1630.36,-169.44 1623.36,-169.44"/>
<text text-anchor="middle" x="1693.9" y="-247.21" font-family="Times New Roman,serif" font-size="8.00">CONDITION </text>
</g>
<!-- CONTROL_STRUCTURE&#45;&gt;CONTROL_STRUCTURE -->
<g id="edge35" class="edge">
<title>CONTROL_STRUCTURE&#45;&gt;CONTROL_STRUCTURE</title>
<path fill="none" stroke="blue" d="M1549.5,-261.84C1549.5,-273.46 1549.5,-283 1549.5,-283 1549.5,-283 1673.1,-283 1673.1,-283 1673.1,-283 1673.1,-157 1673.1,-157 1673.1,-157 1610.05,-157 1610.05,-157 1610.05,-157 1610.05,-169.21 1610.05,-169.21"/>
<polygon fill="blue" stroke="blue" points="1606.55,-169.21 1610.05,-179.21 1613.55,-169.21 1606.55,-169.21"/>
<text text-anchor="middle" x="1682.1" y="-257.35" font-family="Times New Roman,serif" font-size="8.00">CFG </text>
</g>
<!-- MODIFIER -->
<g id="node2" class="node">
<title>MODIFIER</title>
<polygon fill="none" stroke="black" points="0,-50.5 0,-92.5 130,-92.5 130,-50.5 0,-50.5"/>
<text text-anchor="start" x="27" y="-78.3" font-family="Times New Roman,serif" font-weight="bold" font-size="14.00">MODIFIER</text>
<text text-anchor="start" x="8" y="-67.5" font-family="Times New Roman,serif" font-size="10.00">MODIFIER_TYPE: string (1)</text>
<text text-anchor="start" x="35.5" y="-57.5" font-family="Times New Roman,serif" font-size="10.00">ORDER: int (1)</text>
</g>
<!-- CONTROL_STRUCTURE&#45;&gt;MODIFIER -->
<g id="edge2" class="edge">
<title>CONTROL_STRUCTURE&#45;&gt;MODIFIER</title>
<path fill="none" stroke="red" d="M1475.4,-255C1148.05,-255 65,-255 65,-255 65,-255 65,-102.55 65,-102.55"/>
<polygon fill="red" stroke="red" points="68.5,-102.55 65,-92.55 61.5,-102.55 68.5,-102.55"/>
<text text-anchor="middle" x="684.47" y="-257.6" font-family="Times New Roman,serif" font-size="8.00">AST </text>
</g>
<!-- LITERAL -->
<g id="node3" class="node">
<title>LITERAL</title>
<polygon fill="none" stroke="black" points="148.5,-25.5 148.5,-117.5 375.5,-117.5 375.5,-25.5 148.5,-25.5"/>
<text text-anchor="start" x="230" y="-103.3" font-family="Times New Roman,serif" font-weight="bold" font-size="14.00">LITERAL</text>
<text text-anchor="start" x="229" y="-92.5" font-family="Times New Roman,serif" font-size="10.00">CODE: string (1)</text>
<text text-anchor="start" x="232.5" y="-82.5" font-family="Times New Roman,serif" font-size="10.00">ORDER: int (1)</text>
<text text-anchor="start" x="204.5" y="-72.5" font-family="Times New Roman,serif" font-size="10.00">ARGUMENT_INDEX: int (1)</text>
<text text-anchor="start" x="199.5" y="-62.5" font-family="Times New Roman,serif" font-size="10.00">TYPE_FULL_NAME: string (1)</text>
<text text-anchor="start" x="156.5" y="-52.5" font-family="Times New Roman,serif" font-size="10.00">DYNAMIC_TYPE_HINT_FULL_NAME: string (0:n)</text>
<text text-anchor="start" x="212" y="-42.5" font-family="Times New Roman,serif" font-size="10.00">LINE_NUMBER: int (0:1)</text>
<text text-anchor="start" x="201.5" y="-32.5" font-family="Times New Roman,serif" font-size="10.00">COLUMN_NUMBER: int (0:1)</text>
</g>
<!-- CONTROL_STRUCTURE&#45;&gt;LITERAL -->
<g id="edge1" class="edge">
<title>CONTROL_STRUCTURE&#45;&gt;LITERAL</title>
<path fill="none" stroke="red" d="M1475.38,-236C1186.12,-236 318.75,-236 318.75,-236 318.75,-236 318.75,-127.76 318.75,-127.76"/>
<polygon fill="red" stroke="red" points="322.25,-127.76 318.75,-117.76 315.25,-127.76 322.25,-127.76"/>
<text text-anchor="middle" x="824.94" y="-229.6" font-family="Times New Roman,serif" font-size="8.00">AST (1:n)</text>
</g>
<!-- CONTROL_STRUCTURE&#45;&gt;LITERAL -->
<g id="edge14" class="edge">
<title>CONTROL_STRUCTURE&#45;&gt;LITERAL</title>
<path fill="none" stroke="black" d="M1475.38,-242C1177.29,-242 262,-242 262,-242 262,-242 262,-127.64 262,-127.64"/>
<polygon fill="black" stroke="black" points="265.5,-127.64 262,-117.64 258.5,-127.64 265.5,-127.64"/>
<text text-anchor="middle" x="836.51" y="-244.6" font-family="Times New Roman,serif" font-size="8.00">CONDITION </text>
</g>
<!-- CONTROL_STRUCTURE&#45;&gt;LITERAL -->
<g id="edge29" class="edge">
<title>CONTROL_STRUCTURE&#45;&gt;LITERAL</title>
<path fill="none" stroke="blue" d="M1475.4,-249C1168.69,-249 205.25,-249 205.25,-249 205.25,-249 205.25,-127.67 205.25,-127.67"/>
<polygon fill="blue" stroke="blue" points="208.75,-127.67 205.25,-117.67 201.75,-127.67 208.75,-127.67"/>
<text text-anchor="middle" x="770.66" y="-251.6" font-family="Times New Roman,serif" font-size="8.00">CFG </text>
</g>
<!-- CALL -->
<g id="node4" class="node">
<title>CALL</title>
<polygon fill="none" stroke="black" points="393.5,-0.5 393.5,-142.5 620.5,-142.5 620.5,-0.5 393.5,-0.5"/>
<text text-anchor="start" x="487.5" y="-128.3" font-family="Times New Roman,serif" font-weight="bold" font-size="14.00">CALL</text>
<text text-anchor="start" x="474" y="-117.5" font-family="Times New Roman,serif" font-size="10.00">CODE: string (1)</text>
<text text-anchor="start" x="472" y="-107.5" font-family="Times New Roman,serif" font-size="10.00">NAME: string (1)</text>
<text text-anchor="start" x="477.5" y="-97.5" font-family="Times New Roman,serif" font-size="10.00">ORDER: int (1)</text>
<text text-anchor="start" x="419" y="-87.5" font-family="Times New Roman,serif" font-size="10.00">METHOD_INST_FULL_NAME: string (0:1)</text>
<text text-anchor="start" x="435.5" y="-77.5" font-family="Times New Roman,serif" font-size="10.00">METHOD_FULL_NAME: string (1)</text>
<text text-anchor="start" x="449.5" y="-67.5" font-family="Times New Roman,serif" font-size="10.00">ARGUMENT_INDEX: int (1)</text>
<text text-anchor="start" x="449.5" y="-57.5" font-family="Times New Roman,serif" font-size="10.00">DISPATCH_TYPE: string (1)</text>
<text text-anchor="start" x="460" y="-47.5" font-family="Times New Roman,serif" font-size="10.00">SIGNATURE: string (1)</text>
<text text-anchor="start" x="444.5" y="-37.5" font-family="Times New Roman,serif" font-size="10.00">TYPE_FULL_NAME: string (1)</text>
<text text-anchor="start" x="401.5" y="-27.5" font-family="Times New Roman,serif" font-size="10.00">DYNAMIC_TYPE_HINT_FULL_NAME: string (0:n)</text>
<text text-anchor="start" x="457" y="-17.5" font-family="Times New Roman,serif" font-size="10.00">LINE_NUMBER: int (0:1)</text>
<text text-anchor="start" x="446.5" y="-7.5" font-family="Times New Roman,serif" font-size="10.00">COLUMN_NUMBER: int (0:1)</text>
</g>
<!-- CONTROL_STRUCTURE&#45;&gt;CALL -->
<g id="edge4" class="edge">
<title>CONTROL_STRUCTURE&#45;&gt;CALL</title>
<path fill="none" stroke="red" d="M1509.14,-179.25C1509.14,-157.39 1509.14,-135 1509.14,-135 1509.14,-135 630.98,-135 630.98,-135"/>
<polygon fill="red" stroke="red" points="630.98,-131.5 620.98,-135 630.98,-138.5 630.98,-131.5"/>
<text text-anchor="middle" x="1074.19" y="-128.6" font-family="Times New Roman,serif" font-size="8.00">AST (1:n)</text>
</g>
<!-- CONTROL_STRUCTURE&#45;&gt;CALL -->
<g id="edge15" class="edge">
<title>CONTROL_STRUCTURE&#45;&gt;CALL</title>
<path fill="none" stroke="black" d="M1492.32,-179.27C1492.32,-159.06 1492.32,-139 1492.32,-139 1492.32,-139 630.51,-139 630.51,-139"/>
<polygon fill="black" stroke="black" points="630.51,-135.5 620.51,-139 630.51,-142.5 630.51,-135.5"/>
<text text-anchor="middle" x="1056.55" y="-141.6" font-family="Times New Roman,serif" font-size="8.00">CONDITION </text>
</g>
<!-- CONTROL_STRUCTURE&#45;&gt;CALL -->
<g id="edge26" class="edge">
<title>CONTROL_STRUCTURE&#45;&gt;CALL</title>
<path fill="none" stroke="blue" d="M1525.95,-179.42C1525.95,-155.89 1525.95,-131 1525.95,-131 1525.95,-131 630.92,-131 630.92,-131"/>
<polygon fill="blue" stroke="blue" points="630.92,-127.5 620.92,-131 630.92,-134.5 630.92,-127.5"/>
<text text-anchor="middle" x="1111.65" y="-133.6" font-family="Times New Roman,serif" font-size="8.00">CFG </text>
</g>
<!-- LOCAL -->
<g id="node5" class="node">
<title>LOCAL</title>
<polygon fill="none" stroke="black" points="638.5,-20.5 638.5,-122.5 865.5,-122.5 865.5,-20.5 638.5,-20.5"/>
<text text-anchor="start" x="727" y="-108.3" font-family="Times New Roman,serif" font-weight="bold" font-size="14.00">LOCAL</text>
<text text-anchor="start" x="719" y="-97.5" font-family="Times New Roman,serif" font-size="10.00">CODE: string (1)</text>
<text text-anchor="start" x="717" y="-87.5" font-family="Times New Roman,serif" font-size="10.00">NAME: string (1)</text>
<text text-anchor="start" x="700.5" y="-77.5" font-family="Times New Roman,serif" font-size="10.00">CLOSURE_BINDING_ID </text>
<text text-anchor="start" x="689.5" y="-67.5" font-family="Times New Roman,serif" font-size="10.00">TYPE_FULL_NAME: string (1)</text>
<text text-anchor="start" x="646.5" y="-57.5" font-family="Times New Roman,serif" font-size="10.00">DYNAMIC_TYPE_HINT_FULL_NAME: string (0:n)</text>
<text text-anchor="start" x="702" y="-47.5" font-family="Times New Roman,serif" font-size="10.00">LINE_NUMBER: int (0:1)</text>
<text text-anchor="start" x="691.5" y="-37.5" font-family="Times New Roman,serif" font-size="10.00">COLUMN_NUMBER: int (0:1)</text>
<text text-anchor="start" x="722.5" y="-27.5" font-family="Times New Roman,serif" font-size="10.00">ORDER: int (1)</text>
</g>
<!-- CONTROL_STRUCTURE&#45;&gt;LOCAL -->
<g id="edge5" class="edge">
<title>CONTROL_STRUCTURE&#45;&gt;LOCAL</title>
<path fill="none" stroke="red" d="M1475.19,-230C1261.32,-230 752,-230 752,-230 752,-230 752,-132.52 752,-132.52"/>
<polygon fill="red" stroke="red" points="755.5,-132.52 752,-122.52 748.5,-132.52 755.5,-132.52"/>
<text text-anchor="middle" x="1055.36" y="-232.6" font-family="Times New Roman,serif" font-size="8.00">AST </text>
</g>
<!-- IDENTIFIER -->
<g id="node6" class="node">
<title>IDENTIFIER</title>
<polygon fill="none" stroke="black" points="883.5,-20.5 883.5,-122.5 1110.5,-122.5 1110.5,-20.5 883.5,-20.5"/>
<text text-anchor="start" x="954" y="-108.3" font-family="Times New Roman,serif" font-weight="bold" font-size="14.00">IDENTIFIER</text>
<text text-anchor="start" x="964" y="-97.5" font-family="Times New Roman,serif" font-size="10.00">CODE: string (1)</text>
<text text-anchor="start" x="962" y="-87.5" font-family="Times New Roman,serif" font-size="10.00">NAME: string (1)</text>
<text text-anchor="start" x="967.5" y="-77.5" font-family="Times New Roman,serif" font-size="10.00">ORDER: int (1)</text>
<text text-anchor="start" x="939.5" y="-67.5" font-family="Times New Roman,serif" font-size="10.00">ARGUMENT_INDEX: int (1)</text>
<text text-anchor="start" x="934.5" y="-57.5" font-family="Times New Roman,serif" font-size="10.00">TYPE_FULL_NAME: string (1)</text>
<text text-anchor="start" x="891.5" y="-47.5" font-family="Times New Roman,serif" font-size="10.00">DYNAMIC_TYPE_HINT_FULL_NAME: string (0:n)</text>
<text text-anchor="start" x="947" y="-37.5" font-family="Times New Roman,serif" font-size="10.00">LINE_NUMBER: int (0:1)</text>
<text text-anchor="start" x="936.5" y="-27.5" font-family="Times New Roman,serif" font-size="10.00">COLUMN_NUMBER: int (0:1)</text>
</g>
<!-- CONTROL_STRUCTURE&#45;&gt;IDENTIFIER -->
<g id="edge6" class="edge">
<title>CONTROL_STRUCTURE&#45;&gt;IDENTIFIER</title>
<path fill="none" stroke="red" d="M1475.47,-210C1327.41,-210 1053.75,-210 1053.75,-210 1053.75,-210 1053.75,-132.68 1053.75,-132.68"/>
<polygon fill="red" stroke="red" points="1057.25,-132.68 1053.75,-122.68 1050.25,-132.68 1057.25,-132.68"/>
<text text-anchor="middle" x="1204.45" y="-203.6" font-family="Times New Roman,serif" font-size="8.00">AST (0&#45;1:n)</text>
</g>
<!-- CONTROL_STRUCTURE&#45;&gt;IDENTIFIER -->
<g id="edge16" class="edge">
<title>CONTROL_STRUCTURE&#45;&gt;IDENTIFIER</title>
<path fill="none" stroke="black" d="M1475.31,-217C1313.6,-217 997,-217 997,-217 997,-217 997,-132.8 997,-132.8"/>
<polygon fill="black" stroke="black" points="1000.5,-132.8 997,-122.8 993.5,-132.8 1000.5,-132.8"/>
<text text-anchor="middle" x="1219.05" y="-219.6" font-family="Times New Roman,serif" font-size="8.00">CONDITION </text>
</g>
<!-- CONTROL_STRUCTURE&#45;&gt;IDENTIFIER -->
<g id="edge27" class="edge">
<title>CONTROL_STRUCTURE&#45;&gt;IDENTIFIER</title>
<path fill="none" stroke="blue" d="M1475.37,-223C1300.75,-223 940.25,-223 940.25,-223 940.25,-223 940.25,-132.79 940.25,-132.79"/>
<polygon fill="blue" stroke="blue" points="943.75,-132.79 940.25,-122.79 936.75,-132.79 943.75,-132.79"/>
<text text-anchor="middle" x="1153.71" y="-225.6" font-family="Times New Roman,serif" font-size="8.00">CFG </text>
</g>
<!-- FIELD_IDENTIFIER -->
<g id="node7" class="node">
<title>FIELD_IDENTIFIER</title>
<polygon fill="none" stroke="black" points="1128.5,-30.5 1128.5,-112.5 1281.5,-112.5 1281.5,-30.5 1128.5,-30.5"/>
<text text-anchor="start" x="1136.5" y="-98.3" font-family="Times New Roman,serif" font-weight="bold" font-size="14.00">FIELD_IDENTIFIER</text>
<text text-anchor="start" x="1172" y="-87.5" font-family="Times New Roman,serif" font-size="10.00">CODE: string (1)</text>
<text text-anchor="start" x="1140" y="-77.5" font-family="Times New Roman,serif" font-size="10.00">CANONICAL_NAME: string (1)</text>
<text text-anchor="start" x="1175.5" y="-67.5" font-family="Times New Roman,serif" font-size="10.00">ORDER: int (1)</text>
<text text-anchor="start" x="1147.5" y="-57.5" font-family="Times New Roman,serif" font-size="10.00">ARGUMENT_INDEX: int (1)</text>
<text text-anchor="start" x="1155" y="-47.5" font-family="Times New Roman,serif" font-size="10.00">LINE_NUMBER: int (0:1)</text>
<text text-anchor="start" x="1144.5" y="-37.5" font-family="Times New Roman,serif" font-size="10.00">COLUMN_NUMBER: int (0:1)</text>
</g>
<!-- CONTROL_STRUCTURE&#45;&gt;FIELD_IDENTIFIER -->
<g id="edge28" class="edge">
<title>CONTROL_STRUCTURE&#45;&gt;FIELD_IDENTIFIER</title>
<path fill="none" stroke="blue" d="M1475.46,-204C1367.91,-204 1205,-204 1205,-204 1205,-204 1205,-122.7 1205,-122.7"/>
<polygon fill="blue" stroke="blue" points="1208.5,-122.7 1205,-112.7 1201.5,-122.7 1208.5,-122.7"/>
<text text-anchor="middle" x="1290.58" y="-206.6" font-family="Times New Roman,serif" font-size="8.00">CFG </text>
</g>
<!-- RETURN -->
<g id="node8" class="node">
<title>RETURN</title>
<polygon fill="none" stroke="black" points="1299.5,-35.5 1299.5,-107.5 1436.5,-107.5 1436.5,-35.5 1299.5,-35.5"/>
<text text-anchor="start" x="1337.5" y="-93.3" font-family="Times New Roman,serif" font-weight="bold" font-size="14.00">RETURN</text>
<text text-anchor="start" x="1318" y="-82.5" font-family="Times New Roman,serif" font-size="10.00">LINE_NUMBER: int (0:1)</text>
<text text-anchor="start" x="1307.5" y="-72.5" font-family="Times New Roman,serif" font-size="10.00">COLUMN_NUMBER: int (0:1)</text>
<text text-anchor="start" x="1338.5" y="-62.5" font-family="Times New Roman,serif" font-size="10.00">ORDER: int (1)</text>
<text text-anchor="start" x="1310.5" y="-52.5" font-family="Times New Roman,serif" font-size="10.00">ARGUMENT_INDEX: int (1)</text>
<text text-anchor="start" x="1335" y="-42.5" font-family="Times New Roman,serif" font-size="10.00">CODE: string (1)</text>
</g>
<!-- CONTROL_STRUCTURE&#45;&gt;RETURN -->
<g id="edge7" class="edge">
<title>CONTROL_STRUCTURE&#45;&gt;RETURN</title>
<path fill="none" stroke="red" d="M1475.43,-185C1437.47,-185 1402.25,-185 1402.25,-185 1402.25,-185 1402.25,-117.72 1402.25,-117.72"/>
<polygon fill="red" stroke="red" points="1405.75,-117.72 1402.25,-107.72 1398.75,-117.72 1405.75,-117.72"/>
<text text-anchor="middle" x="1383.7" y="-178.6" font-family="Times New Roman,serif" font-size="8.00">AST (0&#45;1:n)</text>
</g>
<!-- CONTROL_STRUCTURE&#45;&gt;RETURN -->
<g id="edge17" class="edge">
<title>CONTROL_STRUCTURE&#45;&gt;RETURN</title>
<path fill="none" stroke="black" d="M1475.32,-191C1423,-191 1368,-191 1368,-191 1368,-191 1368,-117.68 1368,-117.68"/>
<polygon fill="black" stroke="black" points="1371.5,-117.68 1368,-107.68 1364.5,-117.68 1371.5,-117.68"/>
<text text-anchor="middle" x="1410" y="-193.6" font-family="Times New Roman,serif" font-size="8.00">CONDITION </text>
</g>
<!-- CONTROL_STRUCTURE&#45;&gt;RETURN -->
<g id="edge30" class="edge">
<title>CONTROL_STRUCTURE&#45;&gt;RETURN</title>
<path fill="none" stroke="blue" d="M1475.42,-198C1409.94,-198 1333.75,-198 1333.75,-198 1333.75,-198 1333.75,-117.75 1333.75,-117.75"/>
<polygon fill="blue" stroke="blue" points="1337.25,-117.75 1333.75,-107.75 1330.25,-117.75 1337.25,-117.75"/>
<text text-anchor="middle" x="1355.46" y="-200.6" font-family="Times New Roman,serif" font-size="8.00">CFG </text>
</g>
<!-- BLOCK -->
<g id="node9" class="node">
<title>BLOCK</title>
<polygon fill="none" stroke="black" points="1454.5,-25.5 1454.5,-117.5 1681.5,-117.5 1681.5,-25.5 1454.5,-25.5"/>
<text text-anchor="start" x="1542" y="-103.3" font-family="Times New Roman,serif" font-weight="bold" font-size="14.00">BLOCK</text>
<text text-anchor="start" x="1535" y="-92.5" font-family="Times New Roman,serif" font-size="10.00">CODE: string (1)</text>
<text text-anchor="start" x="1538.5" y="-82.5" font-family="Times New Roman,serif" font-size="10.00">ORDER: int (1)</text>
<text text-anchor="start" x="1510.5" y="-72.5" font-family="Times New Roman,serif" font-size="10.00">ARGUMENT_INDEX: int (1)</text>
<text text-anchor="start" x="1505.5" y="-62.5" font-family="Times New Roman,serif" font-size="10.00">TYPE_FULL_NAME: string (1)</text>
<text text-anchor="start" x="1462.5" y="-52.5" font-family="Times New Roman,serif" font-size="10.00">DYNAMIC_TYPE_HINT_FULL_NAME: string (0:n)</text>
<text text-anchor="start" x="1518" y="-42.5" font-family="Times New Roman,serif" font-size="10.00">LINE_NUMBER: int (0:1)</text>
<text text-anchor="start" x="1507.5" y="-32.5" font-family="Times New Roman,serif" font-size="10.00">COLUMN_NUMBER: int (0:1)</text>
</g>
<!-- CONTROL_STRUCTURE&#45;&gt;BLOCK -->
<g id="edge8" class="edge">
<title>CONTROL_STRUCTURE&#45;&gt;BLOCK</title>
<path fill="none" stroke="red" d="M1559.59,-179.39C1559.59,-179.39 1559.59,-127.72 1559.59,-127.72"/>
<polygon fill="red" stroke="red" points="1563.09,-127.72 1559.59,-117.72 1556.09,-127.72 1563.09,-127.72"/>
<text text-anchor="middle" x="1538.09" y="-156.16" font-family="Times New Roman,serif" font-size="8.00">AST (0&#45;1:n)</text>
</g>
<!-- CONTROL_STRUCTURE&#45;&gt;BLOCK -->
<g id="edge18" class="edge">
<title>CONTROL_STRUCTURE&#45;&gt;BLOCK</title>
<path fill="none" stroke="black" d="M1542.77,-179.39C1542.77,-179.39 1542.77,-127.72 1542.77,-127.72"/>
<polygon fill="black" stroke="black" points="1546.27,-127.72 1542.77,-117.72 1539.27,-127.72 1546.27,-127.72"/>
<text text-anchor="middle" x="1517.77" y="-147.16" font-family="Times New Roman,serif" font-size="8.00">CONDITION </text>
</g>
<!-- CONTROL_STRUCTURE&#45;&gt;BLOCK -->
<g id="edge33" class="edge">
<title>CONTROL_STRUCTURE&#45;&gt;BLOCK</title>
<path fill="none" stroke="blue" d="M1576.41,-179.39C1576.41,-179.39 1576.41,-127.72 1576.41,-127.72"/>
<polygon fill="blue" stroke="blue" points="1579.91,-127.72 1576.41,-117.72 1572.91,-127.72 1579.91,-127.72"/>
<text text-anchor="middle" x="1567.41" y="-147.16" font-family="Times New Roman,serif" font-size="8.00">CFG </text>
</g>
<!-- ARRAY_INITIALIZER -->
<g id="node10" class="node">
<title>ARRAY_INITIALIZER</title>
<polygon fill="none" stroke="black" points="1700,-53.5 1700,-89.5 1864,-89.5 1864,-53.5 1700,-53.5"/>
<text text-anchor="start" x="1708" y="-68.8" font-family="Times New Roman,serif" font-weight="bold" font-size="14.00">ARRAY_INITIALIZER</text>
</g>
<!-- CONTROL_STRUCTURE&#45;&gt;ARRAY_INITIALIZER -->
<g id="edge3" class="edge">
<title>CONTROL_STRUCTURE&#45;&gt;ARRAY_INITIALIZER</title>
<path fill="none" stroke="red" d="M1660.51,-184C1707.45,-184 1754.67,-184 1754.67,-184 1754.67,-184 1754.67,-99.58 1754.67,-99.58"/>
<polygon fill="red" stroke="red" points="1758.17,-99.58 1754.67,-89.58 1751.17,-99.58 1758.17,-99.58"/>
<text text-anchor="middle" x="1740.3" y="-186.6" font-family="Times New Roman,serif" font-size="8.00">AST </text>
</g>
<!-- CONTROL_STRUCTURE&#45;&gt;ARRAY_INITIALIZER -->
<g id="edge25" class="edge">
<title>CONTROL_STRUCTURE&#45;&gt;ARRAY_INITIALIZER</title>
<path fill="none" stroke="black" d="M1660.62,-189C1728.67,-189 1809.33,-189 1809.33,-189 1809.33,-189 1809.33,-99.6 1809.33,-99.6"/>
<polygon fill="black" stroke="black" points="1812.83,-99.6 1809.33,-89.6 1805.83,-99.6 1812.83,-99.6"/>
<text text-anchor="middle" x="1804.67" y="-182.6" font-family="Times New Roman,serif" font-size="8.00">CONDITION </text>
</g>
<!-- METHOD_REF -->
<g id="node11" class="node">
<title>METHOD_REF</title>
<polygon fill="none" stroke="black" points="1882.5,-15.5 1882.5,-127.5 2109.5,-127.5 2109.5,-15.5 1882.5,-15.5"/>
<text text-anchor="start" x="1944.5" y="-113.3" font-family="Times New Roman,serif" font-weight="bold" font-size="14.00">METHOD_REF</text>
<text text-anchor="start" x="1963" y="-102.5" font-family="Times New Roman,serif" font-size="10.00">CODE: string (1)</text>
<text text-anchor="start" x="1966.5" y="-92.5" font-family="Times New Roman,serif" font-size="10.00">ORDER: int (1)</text>
<text text-anchor="start" x="1938.5" y="-82.5" font-family="Times New Roman,serif" font-size="10.00">ARGUMENT_INDEX: int (1)</text>
<text text-anchor="start" x="1933.5" y="-72.5" font-family="Times New Roman,serif" font-size="10.00">TYPE_FULL_NAME: string (1)</text>
<text text-anchor="start" x="1890.5" y="-62.5" font-family="Times New Roman,serif" font-size="10.00">DYNAMIC_TYPE_HINT_FULL_NAME: string (0:n)</text>
<text text-anchor="start" x="1908" y="-52.5" font-family="Times New Roman,serif" font-size="10.00">METHOD_INST_FULL_NAME: string (0:1)</text>
<text text-anchor="start" x="1924.5" y="-42.5" font-family="Times New Roman,serif" font-size="10.00">METHOD_FULL_NAME: string (1)</text>
<text text-anchor="start" x="1946" y="-32.5" font-family="Times New Roman,serif" font-size="10.00">LINE_NUMBER: int (0:1)</text>
<text text-anchor="start" x="1935.5" y="-22.5" font-family="Times New Roman,serif" font-size="10.00">COLUMN_NUMBER: int (0:1)</text>
</g>
<!-- CONTROL_STRUCTURE&#45;&gt;METHOD_REF -->
<g id="edge12" class="edge">
<title>CONTROL_STRUCTURE&#45;&gt;METHOD_REF</title>
<path fill="none" stroke="red" d="M1660.6,-204C1801.31,-204 2052.75,-204 2052.75,-204 2052.75,-204 2052.75,-137.69 2052.75,-137.69"/>
<polygon fill="red" stroke="red" points="2056.25,-137.69 2052.75,-127.69 2049.25,-137.69 2056.25,-137.69"/>
<text text-anchor="middle" x="1871.83" y="-206.6" font-family="Times New Roman,serif" font-size="8.00">AST (1:n)</text>
</g>
<!-- CONTROL_STRUCTURE&#45;&gt;METHOD_REF -->
<g id="edge19" class="edge">
<title>CONTROL_STRUCTURE&#45;&gt;METHOD_REF</title>
<path fill="none" stroke="black" d="M1660.61,-199C1786.46,-199 1996,-199 1996,-199 1996,-199 1996,-137.79 1996,-137.79"/>
<polygon fill="black" stroke="black" points="1999.5,-137.79 1996,-127.79 1992.5,-137.79 1999.5,-137.79"/>
<text text-anchor="middle" x="1883.91" y="-192.6" font-family="Times New Roman,serif" font-size="8.00">CONDITION </text>
</g>
<!-- CONTROL_STRUCTURE&#45;&gt;METHOD_REF -->
<g id="edge31" class="edge">
<title>CONTROL_STRUCTURE&#45;&gt;METHOD_REF</title>
<path fill="none" stroke="blue" d="M1660.72,-194C1770.69,-194 1939.25,-194 1939.25,-194 1939.25,-194 1939.25,-137.73 1939.25,-137.73"/>
<polygon fill="blue" stroke="blue" points="1942.75,-137.73 1939.25,-127.73 1935.75,-137.73 1942.75,-137.73"/>
<text text-anchor="middle" x="1819.12" y="-196.6" font-family="Times New Roman,serif" font-size="8.00">CFG </text>
</g>
<!-- TYPE_REF -->
<g id="node12" class="node">
<title>TYPE_REF</title>
<polygon fill="none" stroke="black" points="2127.5,-25.5 2127.5,-117.5 2354.5,-117.5 2354.5,-25.5 2127.5,-25.5"/>
<text text-anchor="start" x="2203" y="-103.3" font-family="Times New Roman,serif" font-weight="bold" font-size="14.00">TYPE_REF</text>
<text text-anchor="start" x="2208" y="-92.5" font-family="Times New Roman,serif" font-size="10.00">CODE: string (1)</text>
<text text-anchor="start" x="2211.5" y="-82.5" font-family="Times New Roman,serif" font-size="10.00">ORDER: int (1)</text>
<text text-anchor="start" x="2183.5" y="-72.5" font-family="Times New Roman,serif" font-size="10.00">ARGUMENT_INDEX: int (1)</text>
<text text-anchor="start" x="2178.5" y="-62.5" font-family="Times New Roman,serif" font-size="10.00">TYPE_FULL_NAME: string (1)</text>
<text text-anchor="start" x="2135.5" y="-52.5" font-family="Times New Roman,serif" font-size="10.00">DYNAMIC_TYPE_HINT_FULL_NAME: string (0:n)</text>
<text text-anchor="start" x="2191" y="-42.5" font-family="Times New Roman,serif" font-size="10.00">LINE_NUMBER: int (0:1)</text>
<text text-anchor="start" x="2180.5" y="-32.5" font-family="Times New Roman,serif" font-size="10.00">COLUMN_NUMBER: int (0:1)</text>
</g>
<!-- CONTROL_STRUCTURE&#45;&gt;TYPE_REF -->
<g id="edge13" class="edge">
<title>CONTROL_STRUCTURE&#45;&gt;TYPE_REF</title>
<path fill="none" stroke="red" d="M1660.52,-215C1844.99,-215 2241,-215 2241,-215 2241,-215 2241,-127.69 2241,-127.69"/>
<polygon fill="red" stroke="red" points="2244.5,-127.69 2241,-117.69 2237.5,-127.69 2244.5,-127.69"/>
<text text-anchor="middle" x="1984.91" y="-217.6" font-family="Times New Roman,serif" font-size="8.00">AST </text>
</g>
<!-- CONTROL_STRUCTURE&#45;&gt;TYPE_REF -->
<g id="edge20" class="edge">
<title>CONTROL_STRUCTURE&#45;&gt;TYPE_REF</title>
<path fill="none" stroke="black" d="M1660.79,-220C1857.34,-220 2297.75,-220 2297.75,-220 2297.75,-220 2297.75,-127.67 2297.75,-127.67"/>
<polygon fill="black" stroke="black" points="2301.25,-127.67 2297.75,-117.67 2294.25,-127.67 2301.25,-127.67"/>
<text text-anchor="middle" x="2050.44" y="-222.6" font-family="Times New Roman,serif" font-size="8.00">CONDITION </text>
</g>
<!-- CONTROL_STRUCTURE&#45;&gt;TYPE_REF -->
<g id="edge32" class="edge">
<title>CONTROL_STRUCTURE&#45;&gt;TYPE_REF</title>
<path fill="none" stroke="blue" d="M1660.59,-210C1832.63,-210 2184.25,-210 2184.25,-210 2184.25,-210 2184.25,-127.62 2184.25,-127.62"/>
<polygon fill="blue" stroke="blue" points="2187.75,-127.62 2184.25,-117.62 2180.75,-127.62 2187.75,-127.62"/>
<text text-anchor="middle" x="1954.61" y="-212.6" font-family="Times New Roman,serif" font-size="8.00">CFG </text>
</g>
<!-- JUMP_TARGET -->
<g id="node13" class="node">
<title>JUMP_TARGET</title>
<polygon fill="none" stroke="black" points="2373,-20.5 2373,-122.5 2527,-122.5 2527,-20.5 2373,-20.5"/>
<text text-anchor="start" x="2395.5" y="-108.3" font-family="Times New Roman,serif" font-weight="bold" font-size="14.00">JUMP_TARGET</text>
<text text-anchor="start" x="2417" y="-97.5" font-family="Times New Roman,serif" font-size="10.00">CODE: string (1)</text>
<text text-anchor="start" x="2415" y="-87.5" font-family="Times New Roman,serif" font-size="10.00">NAME: string (1)</text>
<text text-anchor="start" x="2389.5" y="-77.5" font-family="Times New Roman,serif" font-size="10.00">COLUMN_NUMBER: int (0:1)</text>
<text text-anchor="start" x="2400" y="-67.5" font-family="Times New Roman,serif" font-size="10.00">LINE_NUMBER: int (0:1)</text>
<text text-anchor="start" x="2420.5" y="-57.5" font-family="Times New Roman,serif" font-size="10.00">ORDER: int (1)</text>
<text text-anchor="start" x="2381" y="-47.5" font-family="Times New Roman,serif" font-size="10.00">PARSER_TYPE_NAME: string (1)</text>
<text text-anchor="start" x="2392.5" y="-37.5" font-family="Times New Roman,serif" font-size="10.00">ARGUMENT_INDEX: int (1)</text>
<text text-anchor="start" x="2408" y="-27.5" font-family="Times New Roman,serif" font-size="10.00">INTERNAL_FLAGS </text>
</g>
<!-- CONTROL_STRUCTURE&#45;&gt;JUMP_TARGET -->
<g id="edge9" class="edge">
<title>CONTROL_STRUCTURE&#45;&gt;JUMP_TARGET</title>
<path fill="none" stroke="red" d="M1660.68,-225C1879.8,-225 2411.5,-225 2411.5,-225 2411.5,-225 2411.5,-132.61 2411.5,-132.61"/>
<polygon fill="red" stroke="red" points="2415,-132.61 2411.5,-122.61 2408,-132.61 2415,-132.61"/>
<text text-anchor="middle" x="2091.78" y="-227.6" font-family="Times New Roman,serif" font-size="8.00">AST </text>
</g>
<!-- CONTROL_STRUCTURE&#45;&gt;JUMP_TARGET -->
<g id="edge22" class="edge">
<title>CONTROL_STRUCTURE&#45;&gt;JUMP_TARGET</title>
<path fill="none" stroke="black" d="M1660.72,-230C1887.17,-230 2450,-230 2450,-230 2450,-230 2450,-132.52 2450,-132.52"/>
<polygon fill="black" stroke="black" points="2453.5,-132.52 2450,-122.52 2446.5,-132.52 2453.5,-132.52"/>
<text text-anchor="middle" x="2129.1" y="-223.6" font-family="Times New Roman,serif" font-size="8.00">CONDITION </text>
</g>
<!-- CONTROL_STRUCTURE&#45;&gt;JUMP_TARGET -->
<g id="edge34" class="edge">
<title>CONTROL_STRUCTURE&#45;&gt;JUMP_TARGET</title>
<path fill="none" stroke="blue" d="M1660.9,-236C1894.62,-236 2488.5,-236 2488.5,-236 2488.5,-236 2488.5,-132.65 2488.5,-132.65"/>
<polygon fill="blue" stroke="blue" points="2492,-132.65 2488.5,-122.65 2485,-132.65 2492,-132.65"/>
<text text-anchor="middle" x="2117.38" y="-238.6" font-family="Times New Roman,serif" font-size="8.00">CFG </text>
</g>
<!-- UNKNOWN -->
<g id="node14" class="node">
<title>UNKNOWN</title>
<polygon fill="none" stroke="black" points="2545.5,-20.5 2545.5,-122.5 2772.5,-122.5 2772.5,-20.5 2545.5,-20.5"/>
<text text-anchor="start" x="2620" y="-108.3" font-family="Times New Roman,serif" font-weight="bold" font-size="14.00">UNKNOWN</text>
<text text-anchor="start" x="2626" y="-97.5" font-family="Times New Roman,serif" font-size="10.00">CODE: string (1)</text>
<text text-anchor="start" x="2590" y="-87.5" font-family="Times New Roman,serif" font-size="10.00">PARSER_TYPE_NAME: string (1)</text>
<text text-anchor="start" x="2629.5" y="-77.5" font-family="Times New Roman,serif" font-size="10.00">ORDER: int (1)</text>
<text text-anchor="start" x="2601.5" y="-67.5" font-family="Times New Roman,serif" font-size="10.00">ARGUMENT_INDEX: int (1)</text>
<text text-anchor="start" x="2596.5" y="-57.5" font-family="Times New Roman,serif" font-size="10.00">TYPE_FULL_NAME: string (1)</text>
<text text-anchor="start" x="2553.5" y="-47.5" font-family="Times New Roman,serif" font-size="10.00">DYNAMIC_TYPE_HINT_FULL_NAME: string (0:n)</text>
<text text-anchor="start" x="2609" y="-37.5" font-family="Times New Roman,serif" font-size="10.00">LINE_NUMBER: int (0:1)</text>
<text text-anchor="start" x="2598.5" y="-27.5" font-family="Times New Roman,serif" font-size="10.00">COLUMN_NUMBER: int (0:1)</text>
</g>
<!-- CONTROL_STRUCTURE&#45;&gt;UNKNOWN -->
<g id="edge10" class="edge">
<title>CONTROL_STRUCTURE&#45;&gt;UNKNOWN</title>
<path fill="none" stroke="red" d="M1660.69,-241C1914.55,-241 2602.25,-241 2602.25,-241 2602.25,-241 2602.25,-132.82 2602.25,-132.82"/>
<polygon fill="red" stroke="red" points="2605.75,-132.82 2602.25,-122.82 2598.75,-132.82 2605.75,-132.82"/>
<text text-anchor="middle" x="2176.06" y="-243.6" font-family="Times New Roman,serif" font-size="8.00">AST </text>
</g>
<!-- CONTROL_STRUCTURE&#45;&gt;UNKNOWN -->
<g id="edge23" class="edge">
<title>CONTROL_STRUCTURE&#45;&gt;UNKNOWN</title>
<path fill="none" stroke="black" d="M1660.55,-246C1923.98,-246 2659,-246 2659,-246 2659,-246 2659,-132.91 2659,-132.91"/>
<polygon fill="black" stroke="black" points="2662.5,-132.91 2659,-122.91 2655.5,-132.91 2662.5,-132.91"/>
<text text-anchor="middle" x="2241.32" y="-239.6" font-family="Times New Roman,serif" font-size="8.00">CONDITION </text>
</g>
<!-- CONTROL_STRUCTURE&#45;&gt;UNKNOWN -->
<g id="edge36" class="edge">
<title>CONTROL_STRUCTURE&#45;&gt;UNKNOWN</title>
<path fill="none" stroke="blue" d="M1660.95,-251C1934.19,-251 2715.75,-251 2715.75,-251 2715.75,-251 2715.75,-132.94 2715.75,-132.94"/>
<polygon fill="blue" stroke="blue" points="2719.25,-132.94 2715.75,-122.94 2712.25,-132.94 2719.25,-132.94"/>
<text text-anchor="middle" x="2238.38" y="-253.6" font-family="Times New Roman,serif" font-size="8.00">CFG </text>
</g>
<!-- EXPRESSION -->
<g id="node15" class="node">
<title>EXPRESSION</title>
<polygon fill="none" stroke="black" points="2790.5,-45.5 2790.5,-97.5 2921.5,-97.5 2921.5,-45.5 2790.5,-45.5"/>
<text text-anchor="start" x="2809.5" y="-83.3" font-family="Times New Roman,serif" font-weight="bold" font-size="14.00">EXPRESSION</text>
<text text-anchor="start" x="2823" y="-72.5" font-family="Times New Roman,serif" font-size="10.00">CODE: string (1)</text>
<text text-anchor="start" x="2826.5" y="-62.5" font-family="Times New Roman,serif" font-size="10.00">ORDER: int (1)</text>
<text text-anchor="start" x="2798.5" y="-52.5" font-family="Times New Roman,serif" font-size="10.00">ARGUMENT_INDEX: int (1)</text>
</g>
<!-- CONTROL_STRUCTURE&#45;&gt;EXPRESSION -->
<g id="edge37" class="edge">
<title>CONTROL_STRUCTURE&#45;&gt;EXPRESSION</title>
<path fill="none" stroke="gray" d="M1660.63,-256C1955.96,-256 2856,-256 2856,-256 2856,-256 2856,-107.54 2856,-107.54"/>
<polygon fill="none" stroke="gray" points="2859.5,-107.54 2856,-97.54 2852.5,-107.54 2859.5,-107.54"/>
<text text-anchor="middle" x="2329.54" y="-258.6" font-family="Times New Roman,serif" font-size="8.00">is</text>
</g>
</g>
</svg>
