<?xml version="1.0" encoding="UTF-8" standalone="no"?>
<!DOCTYPE svg PUBLIC "-//W3C//DTD SVG 1.1//EN"
 "http://www.w3.org/Graphics/SVG/1.1/DTD/svg11.dtd">
<!-- Generated by graphviz version 2.44.1 (20200629.0800)
 -->
<!-- Title: cpgschema Pages: 1 -->
<svg width="424pt" height="160pt"
 viewBox="0.00 0.00 423.50 160.00" xmlns="http://www.w3.org/2000/svg" xmlns:xlink="http://www.w3.org/1999/xlink">
<g id="graph0" class="graph" transform="scale(1 1) rotate(0) translate(4 156)">
<title>cpgschema</title>
<polygon fill="white" stroke="transparent" points="-4,4 -4,-156 419.5,-156 419.5,4 -4,4"/>
<!-- EXPRESSION -->
<g id="node1" class="node">
<title>EXPRESSION</title>
<polygon fill="none" stroke="black" points="164,-99.5 164,-151.5 295,-151.5 295,-99.5 164,-99.5"/>
<text text-anchor="start" x="183" y="-137.3" font-family="Times New Roman,serif" font-weight="bold" font-size="14.00">EXPRESSION</text>
<text text-anchor="start" x="196.5" y="-126.5" font-family="Times New Roman,serif" font-size="10.00">CODE: string (1)</text>
<text text-anchor="start" x="200" y="-116.5" font-family="Times New Roman,serif" font-size="10.00">ORDER: int (1)</text>
<text text-anchor="start" x="172" y="-106.5" font-family="Times New Roman,serif" font-size="10.00">ARGUMENT_INDEX: int (1)</text>
</g>
<!-- CFG_NODE -->
<g id="node2" class="node">
<title>CFG_NODE</title>
<polygon fill="none" stroke="black" points="0,-0.5 0,-62.5 137,-62.5 137,-0.5 0,-0.5"/>
<text text-anchor="start" x="28" y="-48.3" font-family="Times New Roman,serif" font-weight="bold" font-size="14.00">CFG_NODE</text>
<text text-anchor="start" x="18.5" y="-37.5" font-family="Times New Roman,serif" font-size="10.00">LINE_NUMBER: int (0:1)</text>
<text text-anchor="start" x="8" y="-27.5" font-family="Times New Roman,serif" font-size="10.00">COLUMN_NUMBER: int (0:1)</text>
<text text-anchor="start" x="26.5" y="-17.5" font-family="Times New Roman,serif" font-size="10.00">INTERNAL_FLAGS </text>
<text text-anchor="start" x="35.5" y="-7.5" font-family="Times New Roman,serif" font-size="10.00">CODE: string (1)</text>
</g>
<!-- EXPRESSION&#45;&gt;CFG_NODE -->
<g id="edge2" class="edge">
<title>EXPRESSION&#45;&gt;CFG_NODE</title>
<path fill="none" stroke="gray" d="M207.67,-99.23C207.67,-79.54 207.67,-56 207.67,-56 207.67,-56 147.27,-56 147.27,-56"/>
<polygon fill="none" stroke="gray" points="147.27,-52.5 137.27,-56 147.27,-59.5 147.27,-52.5"/>
<text text-anchor="middle" x="196.08" y="-58.6" font-family="Times New Roman,serif" font-size="8.00">is</text>
</g>
<!-- TRACKING_POINT -->
<g id="node3" class="node">
<title>TRACKING_POINT</title>
<polygon fill="none" stroke="black" points="155.5,-13.5 155.5,-49.5 303.5,-49.5 303.5,-13.5 155.5,-13.5"/>
<text text-anchor="start" x="163.5" y="-28.8" font-family="Times New Roman,serif" font-weight="bold" font-size="14.00">TRACKING_POINT</text>
</g>
<!-- EXPRESSION&#45;&gt;TRACKING_POINT -->
<g id="edge1" class="edge">
<title>EXPRESSION&#45;&gt;TRACKING_POINT</title>
<path fill="none" stroke="gray" d="M251.33,-99.32C251.33,-99.32 251.33,-59.52 251.33,-59.52"/>
<polygon fill="none" stroke="gray" points="254.83,-59.52 251.33,-49.52 247.83,-59.52 254.83,-59.52"/>
<text text-anchor="middle" x="248.33" y="-82.02" font-family="Times New Roman,serif" font-size="8.00">is</text>
</g>
<!-- AST_NODE -->
<g id="node4" class="node">
<title>AST_NODE</title>
<polygon fill="none" stroke="black" points="321.5,-13.5 321.5,-49.5 415.5,-49.5 415.5,-13.5 321.5,-13.5"/>
<text text-anchor="start" x="329.5" y="-33.3" font-family="Times New Roman,serif" font-weight="bold" font-size="14.00">AST_NODE</text>
<text text-anchor="start" x="339" y="-22.5" font-family="Times New Roman,serif" font-size="10.00">ORDER: int (1)</text>
</g>
<!-- EXPRESSION&#45;&gt;AST_NODE -->
<g id="edge3" class="edge">
<title>EXPRESSION&#45;&gt;AST_NODE</title>
<path fill="none" stroke="gray" d="M295.34,-125C331.26,-125 368.5,-125 368.5,-125 368.5,-125 368.5,-59.53 368.5,-59.53"/>
<polygon fill="none" stroke="gray" points="372,-59.53 368.5,-49.53 365,-59.53 372,-59.53"/>
<text text-anchor="middle" x="361.65" y="-127.6" font-family="Times New Roman,serif" font-size="8.00">is</text>
</g>
</g>
</svg>
