<?xml version="1.0" encoding="UTF-8" standalone="no"?>
<!DOCTYPE svg PUBLIC "-//W3C//DTD SVG 1.1//EN"
 "http://www.w3.org/Graphics/SVG/1.1/DTD/svg11.dtd">
<!-- Generated by graphviz version 2.44.1 (0)
 -->
<!-- Title: cpgschema Pages: 1 -->
<svg width="494pt" height="133pt"
 viewBox="0.00 0.00 493.89 133.00" xmlns="http://www.w3.org/2000/svg" xmlns:xlink="http://www.w3.org/1999/xlink">
<g id="graph0" class="graph" transform="scale(1 1) rotate(0) translate(4 129)">
<title>cpgschema</title>
<polygon fill="white" stroke="transparent" points="-4,4 -4,-129 489.89,-129 489.89,4 -4,4"/>
<!-- EXPRESSION -->
<g id="node1" class="node">
<title>EXPRESSION</title>
<polygon fill="none" stroke="black" points="215.84,-72.5 215.84,-124.5 337.84,-124.5 337.84,-72.5 215.84,-72.5"/>
<text text-anchor="start" x="223.84" y="-110.3" font-family="Times,serif" font-weight="bold" font-size="14.00">EXPRESSION</text>
<text text-anchor="start" x="260.84" y="-99.5" font-family="Times,serif" font-size="10.00">CODE</text>
<text text-anchor="start" x="256.84" y="-89.5" font-family="Times,serif" font-size="10.00">ORDER</text>
<text text-anchor="start" x="223.84" y="-79.5" font-family="Times,serif" font-size="10.00">ARGUMENT_INDEX</text>
</g>
<!-- TRACKING_POINT -->
<g id="node2" class="node">
<title>TRACKING_POINT</title>
<ellipse fill="none" stroke="black" cx="96.84" cy="-18" rx="96.68" ry="18"/>
<text text-anchor="middle" x="96.84" y="-14.3" font-family="Times,serif" font-size="14.00">TRACKING_POINT</text>
</g>
<!-- EXPRESSION&#45;&gt;TRACKING_POINT -->
<g id="edge1" class="edge">
<title>EXPRESSION&#45;&gt;TRACKING_POINT</title>
<path fill="none" stroke="gray" d="M215.65,-98C163.47,-98 96.84,-98 96.84,-98 96.84,-98 96.84,-46.15 96.84,-46.15"/>
<polygon fill="none" stroke="gray" points="100.34,-46.15 96.84,-36.15 93.34,-46.15 100.34,-46.15"/>
<text text-anchor="middle" x="126.82" y="-100.6" font-family="Times,serif" font-size="8.00">is</text>
</g>
<!-- CFG_NODE -->
<g id="node3" class="node">
<title>CFG_NODE</title>
<ellipse fill="none" stroke="black" cx="276.84" cy="-18" rx="64.99" ry="18"/>
<text text-anchor="middle" x="276.84" y="-14.3" font-family="Times,serif" font-size="14.00">CFG_NODE</text>
</g>
<!-- EXPRESSION&#45;&gt;CFG_NODE -->
<g id="edge2" class="edge">
<title>EXPRESSION&#45;&gt;CFG_NODE</title>
<path fill="none" stroke="gray" d="M276.84,-72.14C276.84,-72.14 276.84,-46.27 276.84,-46.27"/>
<polygon fill="none" stroke="gray" points="280.34,-46.27 276.84,-36.27 273.34,-46.27 280.34,-46.27"/>
<text text-anchor="middle" x="273.34" y="-61.8" font-family="Times,serif" font-size="8.00">is</text>
</g>
<!-- AST_NODE -->
<g id="node4" class="node">
<title>AST_NODE</title>
<ellipse fill="none" stroke="black" cx="422.84" cy="-18" rx="63.09" ry="18"/>
<text text-anchor="middle" x="422.84" y="-14.3" font-family="Times,serif" font-size="14.00">AST_NODE</text>
</g>
<!-- EXPRESSION&#45;&gt;AST_NODE -->
<g id="edge3" class="edge">
<title>EXPRESSION&#45;&gt;AST_NODE</title>
<path fill="none" stroke="gray" d="M337.91,-98C377.92,-98 422.84,-98 422.84,-98 422.84,-98 422.84,-46.15 422.84,-46.15"/>
<polygon fill="none" stroke="gray" points="426.34,-46.15 422.84,-36.15 419.34,-46.15 426.34,-46.15"/>
<text text-anchor="middle" x="402.8" y="-100.6" font-family="Times,serif" font-size="8.00">is</text>
</g>
</g>
</svg>
