<?xml version="1.0" encoding="UTF-8" standalone="no"?>
<!DOCTYPE svg PUBLIC "-//W3C//DTD SVG 1.1//EN"
 "http://www.w3.org/Graphics/SVG/1.1/DTD/svg11.dtd">
<!-- Generated by graphviz version 2.44.1 (0)
 -->
<!-- Title: cpgschema Pages: 1 -->
<svg width="1663pt" height="181pt"
 viewBox="0.00 0.00 1663.49 181.00" xmlns="http://www.w3.org/2000/svg" xmlns:xlink="http://www.w3.org/1999/xlink">
<g id="graph0" class="graph" transform="scale(1 1) rotate(0) translate(4 177)">
<title>cpgschema</title>
<polygon fill="white" stroke="transparent" points="-4,4 -4,-177 1659.49,-177 1659.49,4 -4,4"/>
<!-- FIELD_IDENTIFIER -->
<g id="node1" class="node">
<title>FIELD_IDENTIFIER</title>
<polygon fill="none" stroke="black" points="648.75,-72.5 648.75,-154.5 818.75,-154.5 818.75,-72.5 648.75,-72.5"/>
<text text-anchor="start" x="656.75" y="-140.3" font-family="Times,serif" font-weight="bold" font-size="14.00">FIELD_IDENTIFIER</text>
<text text-anchor="start" x="717.75" y="-129.5" font-family="Times,serif" font-size="10.00">CODE</text>
<text text-anchor="start" x="680.25" y="-119.5" font-family="Times,serif" font-size="10.00">CANONICAL_NAME</text>
<text text-anchor="start" x="713.75" y="-109.5" font-family="Times,serif" font-size="10.00">ORDER</text>
<text text-anchor="start" x="680.75" y="-99.5" font-family="Times,serif" font-size="10.00">ARGUMENT_INDEX</text>
<text text-anchor="start" x="692.25" y="-89.5" font-family="Times,serif" font-size="10.00">LINE_NUMBER</text>
<text text-anchor="start" x="680.75" y="-79.5" font-family="Times,serif" font-size="10.00">COLUMN_NUMBER</text>
</g>
<!-- FIELD_IDENTIFIER&#45;&gt;FIELD_IDENTIFIER -->
<g id="edge3" class="edge">
<title>FIELD_IDENTIFIER&#45;&gt;FIELD_IDENTIFIER</title>
<path fill="none" stroke="blue" d="M733.75,-154.82C733.75,-164.98 733.75,-173 733.75,-173 733.75,-173 855.84,-173 855.84,-173 855.84,-173 855.84,-54 855.84,-54 855.84,-54 814.01,-54 814.01,-54 814.01,-54 814.01,-62.18 814.01,-62.18"/>
<polygon fill="blue" stroke="blue" points="810.51,-62.18 814.01,-72.18 817.51,-62.18 810.51,-62.18"/>
<text text-anchor="middle" x="845.34" y="-161.23" font-family="Times,serif" font-size="8.00">CFG </text>
</g>
<!-- CALL -->
<g id="node2" class="node">
<title>CALL</title>
<ellipse fill="none" stroke="black" cx="35.75" cy="-18" rx="36" ry="18"/>
<text text-anchor="middle" x="35.75" y="-14.3" font-family="Times,serif" font-size="14.00">CALL</text>
</g>
<!-- FIELD_IDENTIFIER&#45;&gt;CALL -->
<g id="edge1" class="edge">
<title>FIELD_IDENTIFIER&#45;&gt;CALL</title>
<path fill="none" stroke="blue" d="M648.51,-138C462.3,-138 35.75,-138 35.75,-138 35.75,-138 35.75,-46.23 35.75,-46.23"/>
<polygon fill="blue" stroke="blue" points="39.25,-46.23 35.75,-36.23 32.25,-46.23 39.25,-46.23"/>
<text text-anchor="middle" x="271.74" y="-140.6" font-family="Times,serif" font-size="8.00">CFG (0&#45;1:1)</text>
</g>
<!-- IDENTIFIER -->
<g id="node3" class="node">
<title>IDENTIFIER</title>
<ellipse fill="none" stroke="black" cx="158.75" cy="-18" rx="68.79" ry="18"/>
<text text-anchor="middle" x="158.75" y="-14.3" font-family="Times,serif" font-size="14.00">IDENTIFIER</text>
</g>
<!-- FIELD_IDENTIFIER&#45;&gt;IDENTIFIER -->
<g id="edge2" class="edge">
<title>FIELD_IDENTIFIER&#45;&gt;IDENTIFIER</title>
<path fill="none" stroke="blue" d="M648.59,-121C488.53,-121 158.75,-121 158.75,-121 158.75,-121 158.75,-46.41 158.75,-46.41"/>
<polygon fill="blue" stroke="blue" points="162.25,-46.41 158.75,-36.41 155.25,-46.41 162.25,-46.41"/>
<text text-anchor="middle" x="355.88" y="-123.6" font-family="Times,serif" font-size="8.00">CFG </text>
</g>
<!-- LITERAL -->
<g id="node4" class="node">
<title>LITERAL</title>
<ellipse fill="none" stroke="black" cx="297.75" cy="-18" rx="51.99" ry="18"/>
<text text-anchor="middle" x="297.75" y="-14.3" font-family="Times,serif" font-size="14.00">LITERAL</text>
</g>
<!-- FIELD_IDENTIFIER&#45;&gt;LITERAL -->
<g id="edge4" class="edge">
<title>FIELD_IDENTIFIER&#45;&gt;LITERAL</title>
<path fill="none" stroke="blue" d="M648.65,-105C521.76,-105 297.75,-105 297.75,-105 297.75,-105 297.75,-46.03 297.75,-46.03"/>
<polygon fill="blue" stroke="blue" points="301.25,-46.03 297.75,-36.03 294.25,-46.03 301.25,-46.03"/>
<text text-anchor="middle" x="433.21" y="-107.6" font-family="Times,serif" font-size="8.00">CFG </text>
</g>
<!-- METHOD_REF -->
<g id="node5" class="node">
<title>METHOD_REF</title>
<ellipse fill="none" stroke="black" cx="446.75" cy="-18" rx="79.09" ry="18"/>
<text text-anchor="middle" x="446.75" y="-14.3" font-family="Times,serif" font-size="14.00">METHOD_REF</text>
</g>
<!-- FIELD_IDENTIFIER&#45;&gt;METHOD_REF -->
<g id="edge5" class="edge">
<title>FIELD_IDENTIFIER&#45;&gt;METHOD_REF</title>
<path fill="none" stroke="blue" d="M648.41,-88C563.81,-88 446.75,-88 446.75,-88 446.75,-88 446.75,-46.03 446.75,-46.03"/>
<polygon fill="blue" stroke="blue" points="450.25,-46.03 446.75,-36.03 443.25,-46.03 450.25,-46.03"/>
<text text-anchor="middle" x="516.09" y="-90.6" font-family="Times,serif" font-size="8.00">CFG </text>
</g>
<!-- TYPE_REF -->
<g id="node6" class="node">
<title>TYPE_REF</title>
<ellipse fill="none" stroke="black" cx="603.75" cy="-18" rx="59.59" ry="18"/>
<text text-anchor="middle" x="603.75" y="-14.3" font-family="Times,serif" font-size="14.00">TYPE_REF</text>
</g>
<!-- FIELD_IDENTIFIER&#45;&gt;TYPE_REF -->
<g id="edge6" class="edge">
<title>FIELD_IDENTIFIER&#45;&gt;TYPE_REF</title>
<path fill="none" stroke="blue" d="M656.14,-72.45C656.14,-72.45 656.14,-36.86 656.14,-36.86"/>
<polygon fill="blue" stroke="blue" points="659.64,-36.86 656.14,-26.86 652.64,-36.86 659.64,-36.86"/>
<text text-anchor="middle" x="645.64" y="-57.25" font-family="Times,serif" font-size="8.00">CFG </text>
</g>
<!-- RETURN -->
<g id="node7" class="node">
<title>RETURN</title>
<ellipse fill="none" stroke="black" cx="733.75" cy="-18" rx="52.79" ry="18"/>
<text text-anchor="middle" x="733.75" y="-14.3" font-family="Times,serif" font-size="14.00">RETURN</text>
</g>
<!-- FIELD_IDENTIFIER&#45;&gt;RETURN -->
<g id="edge7" class="edge">
<title>FIELD_IDENTIFIER&#45;&gt;RETURN</title>
<path fill="none" stroke="blue" d="M733.75,-72.45C733.75,-72.45 733.75,-46 733.75,-46"/>
<polygon fill="blue" stroke="blue" points="737.25,-46 733.75,-36 730.25,-46 737.25,-46"/>
<text text-anchor="middle" x="723.25" y="-61.83" font-family="Times,serif" font-size="8.00">CFG </text>
</g>
<!-- BLOCK -->
<g id="node8" class="node">
<title>BLOCK</title>
<ellipse fill="none" stroke="black" cx="848.75" cy="-18" rx="44.39" ry="18"/>
<text text-anchor="middle" x="848.75" y="-14.3" font-family="Times,serif" font-size="14.00">BLOCK</text>
</g>
<!-- FIELD_IDENTIFIER&#45;&gt;BLOCK -->
<g id="edge8" class="edge">
<title>FIELD_IDENTIFIER&#45;&gt;BLOCK</title>
<path fill="none" stroke="blue" d="M809.28,-72.45C809.28,-72.45 809.28,-36.12 809.28,-36.12"/>
<polygon fill="blue" stroke="blue" points="812.78,-36.12 809.28,-26.12 805.78,-36.12 812.78,-36.12"/>
<text text-anchor="middle" x="798.78" y="-56.88" font-family="Times,serif" font-size="8.00">CFG </text>
</g>
<!-- JUMP_TARGET -->
<g id="node9" class="node">
<title>JUMP_TARGET</title>
<ellipse fill="none" stroke="black" cx="991.75" cy="-18" rx="80.69" ry="18"/>
<text text-anchor="middle" x="991.75" y="-14.3" font-family="Times,serif" font-size="14.00">JUMP_TARGET</text>
</g>
<!-- FIELD_IDENTIFIER&#45;&gt;JUMP_TARGET -->
<g id="edge9" class="edge">
<title>FIELD_IDENTIFIER&#45;&gt;JUMP_TARGET</title>
<path fill="none" stroke="blue" d="M818.94,-88C894.09,-88 991.75,-88 991.75,-88 991.75,-88 991.75,-46.03 991.75,-46.03"/>
<polygon fill="blue" stroke="blue" points="995.25,-46.03 991.75,-36.03 988.25,-46.03 995.25,-46.03"/>
<text text-anchor="middle" x="915.83" y="-90.6" font-family="Times,serif" font-size="8.00">CFG </text>
</g>
<!-- CONTROL_STRUCTURE -->
<g id="node10" class="node">
<title>CONTROL_STRUCTURE</title>
<ellipse fill="none" stroke="black" cx="1214.75" cy="-18" rx="124.28" ry="18"/>
<text text-anchor="middle" x="1214.75" y="-14.3" font-family="Times,serif" font-size="14.00">CONTROL_STRUCTURE</text>
</g>
<!-- FIELD_IDENTIFIER&#45;&gt;CONTROL_STRUCTURE -->
<g id="edge10" class="edge">
<title>FIELD_IDENTIFIER&#45;&gt;CONTROL_STRUCTURE</title>
<path fill="none" stroke="blue" d="M818.91,-105C957.06,-105 1214.75,-105 1214.75,-105 1214.75,-105 1214.75,-46.03 1214.75,-46.03"/>
<polygon fill="blue" stroke="blue" points="1218.25,-46.03 1214.75,-36.03 1211.25,-46.03 1218.25,-46.03"/>
<text text-anchor="middle" x="1035.81" y="-107.6" font-family="Times,serif" font-size="8.00">CFG </text>
</g>
<!-- UNKNOWN -->
<g id="node11" class="node">
<title>UNKNOWN</title>
<ellipse fill="none" stroke="black" cx="1422.75" cy="-18" rx="65.79" ry="18"/>
<text text-anchor="middle" x="1422.75" y="-14.3" font-family="Times,serif" font-size="14.00">UNKNOWN</text>
</g>
<!-- FIELD_IDENTIFIER&#45;&gt;UNKNOWN -->
<g id="edge11" class="edge">
<title>FIELD_IDENTIFIER&#45;&gt;UNKNOWN</title>
<path fill="none" stroke="blue" d="M818.92,-121C1003.27,-121 1422.75,-121 1422.75,-121 1422.75,-121 1422.75,-46.41 1422.75,-46.41"/>
<polygon fill="blue" stroke="blue" points="1426.25,-46.41 1422.75,-36.41 1419.25,-46.41 1426.25,-46.41"/>
<text text-anchor="middle" x="1147.63" y="-123.6" font-family="Times,serif" font-size="8.00">CFG </text>
</g>
<!-- EXPRESSION -->
<g id="node12" class="node">
<title>EXPRESSION</title>
<ellipse fill="none" stroke="black" cx="1580.75" cy="-18" rx="74.99" ry="18"/>
<text text-anchor="middle" x="1580.75" y="-14.3" font-family="Times,serif" font-size="14.00">EXPRESSION</text>
</g>
<!-- FIELD_IDENTIFIER&#45;&gt;EXPRESSION -->
<g id="edge12" class="edge">
<title>FIELD_IDENTIFIER&#45;&gt;EXPRESSION</title>
<path fill="none" stroke="gray" d="M818.84,-138C1033.63,-138 1580.75,-138 1580.75,-138 1580.75,-138 1580.75,-46.23 1580.75,-46.23"/>
<polygon fill="none" stroke="gray" points="1584.25,-46.23 1580.75,-36.23 1577.25,-46.23 1584.25,-46.23"/>
<text text-anchor="middle" x="1242.18" y="-140.6" font-family="Times,serif" font-size="8.00">is</text>
</g>
</g>
</svg>
