<?xml version="1.0" encoding="UTF-8" standalone="no"?>
<!DOCTYPE svg PUBLIC "-//W3C//DTD SVG 1.1//EN"
 "http://www.w3.org/Graphics/SVG/1.1/DTD/svg11.dtd">
<!-- Generated by graphviz version 2.44.1 (20200629.0800)
 -->
<!-- Title: cpgschema Pages: 1 -->
<svg width="2385pt" height="288pt"
 viewBox="0.00 0.00 2385.00 288.00" xmlns="http://www.w3.org/2000/svg" xmlns:xlink="http://www.w3.org/1999/xlink">
<g id="graph0" class="graph" transform="scale(1 1) rotate(0) translate(4 284)">
<title>cpgschema</title>
<polygon fill="white" stroke="transparent" points="-4,4 -4,-284 2381,-284 2381,4 -4,4"/>
<!-- FIELD_IDENTIFIER -->
<g id="node1" class="node">
<title>FIELD_IDENTIFIER</title>
<polygon fill="none" stroke="black" points="1172,-179.5 1172,-261.5 1325,-261.5 1325,-179.5 1172,-179.5"/>
<text text-anchor="start" x="1180" y="-247.3" font-family="Times New Roman,serif" font-weight="bold" font-size="14.00">FIELD_IDENTIFIER</text>
<text text-anchor="start" x="1215.5" y="-236.5" font-family="Times New Roman,serif" font-size="10.00">CODE: string (1)</text>
<text text-anchor="start" x="1183.5" y="-226.5" font-family="Times New Roman,serif" font-size="10.00">CANONICAL_NAME: string (1)</text>
<text text-anchor="start" x="1219" y="-216.5" font-family="Times New Roman,serif" font-size="10.00">ORDER: int (1)</text>
<text text-anchor="start" x="1191" y="-206.5" font-family="Times New Roman,serif" font-size="10.00">ARGUMENT_INDEX: int (1)</text>
<text text-anchor="start" x="1198.5" y="-196.5" font-family="Times New Roman,serif" font-size="10.00">LINE_NUMBER: int (0:1)</text>
<text text-anchor="start" x="1188" y="-186.5" font-family="Times New Roman,serif" font-size="10.00">COLUMN_NUMBER: int (0:1)</text>
</g>
<!-- FIELD_IDENTIFIER&#45;&gt;FIELD_IDENTIFIER -->
<g id="edge3" class="edge">
<title>FIELD_IDENTIFIER&#45;&gt;FIELD_IDENTIFIER</title>
<path fill="none" stroke="blue" d="M1248.5,-261.82C1248.5,-271.98 1248.5,-280 1248.5,-280 1248.5,-280 1153.5,-280 1153.5,-280 1153.5,-280 1153.5,-161 1153.5,-161 1153.5,-161 1286.75,-161 1286.75,-161 1286.75,-161 1286.75,-169.18 1286.75,-169.18"/>
<polygon fill="blue" stroke="blue" points="1283.25,-169.18 1286.75,-179.18 1290.25,-169.18 1283.25,-169.18"/>
<text text-anchor="middle" x="1144.5" y="-208.97" font-family="Times New Roman,serif" font-size="8.00">CFG </text>
</g>
<!-- LITERAL -->
<g id="node2" class="node">
<title>LITERAL</title>
<polygon fill="none" stroke="black" points="0,-25.5 0,-117.5 227,-117.5 227,-25.5 0,-25.5"/>
<text text-anchor="start" x="81.5" y="-103.3" font-family="Times New Roman,serif" font-weight="bold" font-size="14.00">LITERAL</text>
<text text-anchor="start" x="80.5" y="-92.5" font-family="Times New Roman,serif" font-size="10.00">CODE: string (1)</text>
<text text-anchor="start" x="84" y="-82.5" font-family="Times New Roman,serif" font-size="10.00">ORDER: int (1)</text>
<text text-anchor="start" x="56" y="-72.5" font-family="Times New Roman,serif" font-size="10.00">ARGUMENT_INDEX: int (1)</text>
<text text-anchor="start" x="51" y="-62.5" font-family="Times New Roman,serif" font-size="10.00">TYPE_FULL_NAME: string (1)</text>
<text text-anchor="start" x="8" y="-52.5" font-family="Times New Roman,serif" font-size="10.00">DYNAMIC_TYPE_HINT_FULL_NAME: string (0:n)</text>
<text text-anchor="start" x="63.5" y="-42.5" font-family="Times New Roman,serif" font-size="10.00">LINE_NUMBER: int (0:1)</text>
<text text-anchor="start" x="53" y="-32.5" font-family="Times New Roman,serif" font-size="10.00">COLUMN_NUMBER: int (0:1)</text>
</g>
<!-- FIELD_IDENTIFIER&#45;&gt;LITERAL -->
<g id="edge4" class="edge">
<title>FIELD_IDENTIFIER&#45;&gt;LITERAL</title>
<path fill="none" stroke="blue" d="M1171.82,-245C916.85,-245 113.5,-245 113.5,-245 113.5,-245 113.5,-127.54 113.5,-127.54"/>
<polygon fill="blue" stroke="blue" points="117,-127.54 113.5,-117.54 110,-127.54 117,-127.54"/>
<text text-anchor="middle" x="574.93" y="-247.6" font-family="Times New Roman,serif" font-size="8.00">CFG </text>
</g>
<!-- CALL -->
<g id="node3" class="node">
<title>CALL</title>
<polygon fill="none" stroke="black" points="245,-0.5 245,-142.5 472,-142.5 472,-0.5 245,-0.5"/>
<text text-anchor="start" x="339" y="-128.3" font-family="Times New Roman,serif" font-weight="bold" font-size="14.00">CALL</text>
<text text-anchor="start" x="325.5" y="-117.5" font-family="Times New Roman,serif" font-size="10.00">CODE: string (1)</text>
<text text-anchor="start" x="323.5" y="-107.5" font-family="Times New Roman,serif" font-size="10.00">NAME: string (1)</text>
<text text-anchor="start" x="329" y="-97.5" font-family="Times New Roman,serif" font-size="10.00">ORDER: int (1)</text>
<text text-anchor="start" x="270.5" y="-87.5" font-family="Times New Roman,serif" font-size="10.00">METHOD_INST_FULL_NAME: string (0:1)</text>
<text text-anchor="start" x="287" y="-77.5" font-family="Times New Roman,serif" font-size="10.00">METHOD_FULL_NAME: string (1)</text>
<text text-anchor="start" x="301" y="-67.5" font-family="Times New Roman,serif" font-size="10.00">ARGUMENT_INDEX: int (1)</text>
<text text-anchor="start" x="301" y="-57.5" font-family="Times New Roman,serif" font-size="10.00">DISPATCH_TYPE: string (1)</text>
<text text-anchor="start" x="311.5" y="-47.5" font-family="Times New Roman,serif" font-size="10.00">SIGNATURE: string (1)</text>
<text text-anchor="start" x="296" y="-37.5" font-family="Times New Roman,serif" font-size="10.00">TYPE_FULL_NAME: string (1)</text>
<text text-anchor="start" x="253" y="-27.5" font-family="Times New Roman,serif" font-size="10.00">DYNAMIC_TYPE_HINT_FULL_NAME: string (0:n)</text>
<text text-anchor="start" x="308.5" y="-17.5" font-family="Times New Roman,serif" font-size="10.00">LINE_NUMBER: int (0:1)</text>
<text text-anchor="start" x="298" y="-7.5" font-family="Times New Roman,serif" font-size="10.00">COLUMN_NUMBER: int (0:1)</text>
</g>
<!-- FIELD_IDENTIFIER&#45;&gt;CALL -->
<g id="edge1" class="edge">
<title>FIELD_IDENTIFIER&#45;&gt;CALL</title>
<path fill="none" stroke="blue" d="M1210.25,-179.25C1210.25,-157.39 1210.25,-135 1210.25,-135 1210.25,-135 482.05,-135 482.05,-135"/>
<polygon fill="blue" stroke="blue" points="482.05,-131.5 472.05,-135 482.05,-138.5 482.05,-131.5"/>
<text text-anchor="middle" x="846.77" y="-137.6" font-family="Times New Roman,serif" font-size="8.00">CFG (0&#45;1:1)</text>
</g>
<!-- IDENTIFIER -->
<g id="node4" class="node">
<title>IDENTIFIER</title>
<polygon fill="none" stroke="black" points="490,-20.5 490,-122.5 717,-122.5 717,-20.5 490,-20.5"/>
<text text-anchor="start" x="560.5" y="-108.3" font-family="Times New Roman,serif" font-weight="bold" font-size="14.00">IDENTIFIER</text>
<text text-anchor="start" x="570.5" y="-97.5" font-family="Times New Roman,serif" font-size="10.00">CODE: string (1)</text>
<text text-anchor="start" x="568.5" y="-87.5" font-family="Times New Roman,serif" font-size="10.00">NAME: string (1)</text>
<text text-anchor="start" x="574" y="-77.5" font-family="Times New Roman,serif" font-size="10.00">ORDER: int (1)</text>
<text text-anchor="start" x="546" y="-67.5" font-family="Times New Roman,serif" font-size="10.00">ARGUMENT_INDEX: int (1)</text>
<text text-anchor="start" x="541" y="-57.5" font-family="Times New Roman,serif" font-size="10.00">TYPE_FULL_NAME: string (1)</text>
<text text-anchor="start" x="498" y="-47.5" font-family="Times New Roman,serif" font-size="10.00">DYNAMIC_TYPE_HINT_FULL_NAME: string (0:n)</text>
<text text-anchor="start" x="553.5" y="-37.5" font-family="Times New Roman,serif" font-size="10.00">LINE_NUMBER: int (0:1)</text>
<text text-anchor="start" x="543" y="-27.5" font-family="Times New Roman,serif" font-size="10.00">COLUMN_NUMBER: int (0:1)</text>
</g>
<!-- FIELD_IDENTIFIER&#45;&gt;IDENTIFIER -->
<g id="edge2" class="edge">
<title>FIELD_IDENTIFIER&#45;&gt;IDENTIFIER</title>
<path fill="none" stroke="blue" d="M1171.98,-228C1001.12,-228 603.5,-228 603.5,-228 603.5,-228 603.5,-132.74 603.5,-132.74"/>
<polygon fill="blue" stroke="blue" points="607,-132.74 603.5,-122.74 600,-132.74 607,-132.74"/>
<text text-anchor="middle" x="831.11" y="-230.6" font-family="Times New Roman,serif" font-size="8.00">CFG </text>
</g>
<!-- RETURN -->
<g id="node5" class="node">
<title>RETURN</title>
<polygon fill="none" stroke="black" points="735,-35.5 735,-107.5 872,-107.5 872,-35.5 735,-35.5"/>
<text text-anchor="start" x="773" y="-93.3" font-family="Times New Roman,serif" font-weight="bold" font-size="14.00">RETURN</text>
<text text-anchor="start" x="753.5" y="-82.5" font-family="Times New Roman,serif" font-size="10.00">LINE_NUMBER: int (0:1)</text>
<text text-anchor="start" x="743" y="-72.5" font-family="Times New Roman,serif" font-size="10.00">COLUMN_NUMBER: int (0:1)</text>
<text text-anchor="start" x="774" y="-62.5" font-family="Times New Roman,serif" font-size="10.00">ORDER: int (1)</text>
<text text-anchor="start" x="746" y="-52.5" font-family="Times New Roman,serif" font-size="10.00">ARGUMENT_INDEX: int (1)</text>
<text text-anchor="start" x="770.5" y="-42.5" font-family="Times New Roman,serif" font-size="10.00">CODE: string (1)</text>
</g>
<!-- FIELD_IDENTIFIER&#45;&gt;RETURN -->
<g id="edge7" class="edge">
<title>FIELD_IDENTIFIER&#45;&gt;RETURN</title>
<path fill="none" stroke="blue" d="M1171.75,-212C1044.45,-212 803.5,-212 803.5,-212 803.5,-212 803.5,-117.68 803.5,-117.68"/>
<polygon fill="blue" stroke="blue" points="807,-117.68 803.5,-107.68 800,-117.68 807,-117.68"/>
<text text-anchor="middle" x="931.47" y="-214.6" font-family="Times New Roman,serif" font-size="8.00">CFG </text>
</g>
<!-- BLOCK -->
<g id="node6" class="node">
<title>BLOCK</title>
<polygon fill="none" stroke="black" points="890,-25.5 890,-117.5 1117,-117.5 1117,-25.5 890,-25.5"/>
<text text-anchor="start" x="977.5" y="-103.3" font-family="Times New Roman,serif" font-weight="bold" font-size="14.00">BLOCK</text>
<text text-anchor="start" x="970.5" y="-92.5" font-family="Times New Roman,serif" font-size="10.00">CODE: string (1)</text>
<text text-anchor="start" x="974" y="-82.5" font-family="Times New Roman,serif" font-size="10.00">ORDER: int (1)</text>
<text text-anchor="start" x="946" y="-72.5" font-family="Times New Roman,serif" font-size="10.00">ARGUMENT_INDEX: int (1)</text>
<text text-anchor="start" x="941" y="-62.5" font-family="Times New Roman,serif" font-size="10.00">TYPE_FULL_NAME: string (1)</text>
<text text-anchor="start" x="898" y="-52.5" font-family="Times New Roman,serif" font-size="10.00">DYNAMIC_TYPE_HINT_FULL_NAME: string (0:n)</text>
<text text-anchor="start" x="953.5" y="-42.5" font-family="Times New Roman,serif" font-size="10.00">LINE_NUMBER: int (0:1)</text>
<text text-anchor="start" x="943" y="-32.5" font-family="Times New Roman,serif" font-size="10.00">COLUMN_NUMBER: int (0:1)</text>
</g>
<!-- FIELD_IDENTIFIER&#45;&gt;BLOCK -->
<g id="edge8" class="edge">
<title>FIELD_IDENTIFIER&#45;&gt;BLOCK</title>
<path fill="none" stroke="blue" d="M1171.99,-195C1100.1,-195 1003.5,-195 1003.5,-195 1003.5,-195 1003.5,-127.84 1003.5,-127.84"/>
<polygon fill="blue" stroke="blue" points="1007,-127.84 1003.5,-117.84 1000,-127.84 1007,-127.84"/>
<text text-anchor="middle" x="1045.16" y="-197.6" font-family="Times New Roman,serif" font-size="8.00">CFG </text>
</g>
<!-- METHOD_REF -->
<g id="node7" class="node">
<title>METHOD_REF</title>
<polygon fill="none" stroke="black" points="1135,-15.5 1135,-127.5 1362,-127.5 1362,-15.5 1135,-15.5"/>
<text text-anchor="start" x="1197" y="-113.3" font-family="Times New Roman,serif" font-weight="bold" font-size="14.00">METHOD_REF</text>
<text text-anchor="start" x="1215.5" y="-102.5" font-family="Times New Roman,serif" font-size="10.00">CODE: string (1)</text>
<text text-anchor="start" x="1219" y="-92.5" font-family="Times New Roman,serif" font-size="10.00">ORDER: int (1)</text>
<text text-anchor="start" x="1191" y="-82.5" font-family="Times New Roman,serif" font-size="10.00">ARGUMENT_INDEX: int (1)</text>
<text text-anchor="start" x="1186" y="-72.5" font-family="Times New Roman,serif" font-size="10.00">TYPE_FULL_NAME: string (1)</text>
<text text-anchor="start" x="1143" y="-62.5" font-family="Times New Roman,serif" font-size="10.00">DYNAMIC_TYPE_HINT_FULL_NAME: string (0:n)</text>
<text text-anchor="start" x="1160.5" y="-52.5" font-family="Times New Roman,serif" font-size="10.00">METHOD_INST_FULL_NAME: string (0:1)</text>
<text text-anchor="start" x="1177" y="-42.5" font-family="Times New Roman,serif" font-size="10.00">METHOD_FULL_NAME: string (1)</text>
<text text-anchor="start" x="1198.5" y="-32.5" font-family="Times New Roman,serif" font-size="10.00">LINE_NUMBER: int (0:1)</text>
<text text-anchor="start" x="1188" y="-22.5" font-family="Times New Roman,serif" font-size="10.00">COLUMN_NUMBER: int (0:1)</text>
</g>
<!-- FIELD_IDENTIFIER&#45;&gt;METHOD_REF -->
<g id="edge5" class="edge">
<title>FIELD_IDENTIFIER&#45;&gt;METHOD_REF</title>
<path fill="none" stroke="blue" d="M1248.5,-179.39C1248.5,-179.39 1248.5,-137.53 1248.5,-137.53"/>
<polygon fill="blue" stroke="blue" points="1252,-137.53 1248.5,-127.53 1245,-137.53 1252,-137.53"/>
<text text-anchor="middle" x="1239.5" y="-161.06" font-family="Times New Roman,serif" font-size="8.00">CFG </text>
</g>
<!-- TYPE_REF -->
<g id="node8" class="node">
<title>TYPE_REF</title>
<polygon fill="none" stroke="black" points="1380,-25.5 1380,-117.5 1607,-117.5 1607,-25.5 1380,-25.5"/>
<text text-anchor="start" x="1455.5" y="-103.3" font-family="Times New Roman,serif" font-weight="bold" font-size="14.00">TYPE_REF</text>
<text text-anchor="start" x="1460.5" y="-92.5" font-family="Times New Roman,serif" font-size="10.00">CODE: string (1)</text>
<text text-anchor="start" x="1464" y="-82.5" font-family="Times New Roman,serif" font-size="10.00">ORDER: int (1)</text>
<text text-anchor="start" x="1436" y="-72.5" font-family="Times New Roman,serif" font-size="10.00">ARGUMENT_INDEX: int (1)</text>
<text text-anchor="start" x="1431" y="-62.5" font-family="Times New Roman,serif" font-size="10.00">TYPE_FULL_NAME: string (1)</text>
<text text-anchor="start" x="1388" y="-52.5" font-family="Times New Roman,serif" font-size="10.00">DYNAMIC_TYPE_HINT_FULL_NAME: string (0:n)</text>
<text text-anchor="start" x="1443.5" y="-42.5" font-family="Times New Roman,serif" font-size="10.00">LINE_NUMBER: int (0:1)</text>
<text text-anchor="start" x="1433" y="-32.5" font-family="Times New Roman,serif" font-size="10.00">COLUMN_NUMBER: int (0:1)</text>
</g>
<!-- FIELD_IDENTIFIER&#45;&gt;TYPE_REF -->
<g id="edge6" class="edge">
<title>FIELD_IDENTIFIER&#45;&gt;TYPE_REF</title>
<path fill="none" stroke="blue" d="M1325.01,-192C1396.9,-192 1493.5,-192 1493.5,-192 1493.5,-192 1493.5,-127.74 1493.5,-127.74"/>
<polygon fill="blue" stroke="blue" points="1497,-127.74 1493.5,-117.74 1490,-127.74 1497,-127.74"/>
<text text-anchor="middle" x="1432.38" y="-194.6" font-family="Times New Roman,serif" font-size="8.00">CFG </text>
</g>
<!-- CONTROL_STRUCTURE -->
<g id="node9" class="node">
<title>CONTROL_STRUCTURE</title>
<polygon fill="none" stroke="black" points="1625,-30.5 1625,-112.5 1810,-112.5 1810,-30.5 1625,-30.5"/>
<text text-anchor="start" x="1633" y="-98.3" font-family="Times New Roman,serif" font-weight="bold" font-size="14.00">CONTROL_STRUCTURE</text>
<text text-anchor="start" x="1684.5" y="-87.5" font-family="Times New Roman,serif" font-size="10.00">CODE: string (1)</text>
<text text-anchor="start" x="1657" y="-77.5" font-family="Times New Roman,serif" font-size="10.00">COLUMN_NUMBER: int (0:1)</text>
<text text-anchor="start" x="1667.5" y="-67.5" font-family="Times New Roman,serif" font-size="10.00">LINE_NUMBER: int (0:1)</text>
<text text-anchor="start" x="1688" y="-57.5" font-family="Times New Roman,serif" font-size="10.00">ORDER: int (1)</text>
<text text-anchor="start" x="1648.5" y="-47.5" font-family="Times New Roman,serif" font-size="10.00">PARSER_TYPE_NAME: string (1)</text>
<text text-anchor="start" x="1660" y="-37.5" font-family="Times New Roman,serif" font-size="10.00">ARGUMENT_INDEX: int (1)</text>
</g>
<!-- FIELD_IDENTIFIER&#45;&gt;CONTROL_STRUCTURE -->
<g id="edge10" class="edge">
<title>FIELD_IDENTIFIER&#45;&gt;CONTROL_STRUCTURE</title>
<path fill="none" stroke="blue" d="M1325.16,-206C1458.13,-206 1717.5,-206 1717.5,-206 1717.5,-206 1717.5,-122.59 1717.5,-122.59"/>
<polygon fill="blue" stroke="blue" points="1721,-122.59 1717.5,-112.59 1714,-122.59 1721,-122.59"/>
<text text-anchor="middle" x="1554.04" y="-208.6" font-family="Times New Roman,serif" font-size="8.00">CFG </text>
</g>
<!-- JUMP_TARGET -->
<g id="node10" class="node">
<title>JUMP_TARGET</title>
<polygon fill="none" stroke="black" points="1828.5,-20.5 1828.5,-122.5 1982.5,-122.5 1982.5,-20.5 1828.5,-20.5"/>
<text text-anchor="start" x="1851" y="-108.3" font-family="Times New Roman,serif" font-weight="bold" font-size="14.00">JUMP_TARGET</text>
<text text-anchor="start" x="1872.5" y="-97.5" font-family="Times New Roman,serif" font-size="10.00">CODE: string (1)</text>
<text text-anchor="start" x="1870.5" y="-87.5" font-family="Times New Roman,serif" font-size="10.00">NAME: string (1)</text>
<text text-anchor="start" x="1845" y="-77.5" font-family="Times New Roman,serif" font-size="10.00">COLUMN_NUMBER: int (0:1)</text>
<text text-anchor="start" x="1855.5" y="-67.5" font-family="Times New Roman,serif" font-size="10.00">LINE_NUMBER: int (0:1)</text>
<text text-anchor="start" x="1876" y="-57.5" font-family="Times New Roman,serif" font-size="10.00">ORDER: int (1)</text>
<text text-anchor="start" x="1836.5" y="-47.5" font-family="Times New Roman,serif" font-size="10.00">PARSER_TYPE_NAME: string (1)</text>
<text text-anchor="start" x="1848" y="-37.5" font-family="Times New Roman,serif" font-size="10.00">ARGUMENT_INDEX: int (1)</text>
<text text-anchor="start" x="1863.5" y="-27.5" font-family="Times New Roman,serif" font-size="10.00">INTERNAL_FLAGS </text>
</g>
<!-- FIELD_IDENTIFIER&#45;&gt;JUMP_TARGET -->
<g id="edge9" class="edge">
<title>FIELD_IDENTIFIER&#45;&gt;JUMP_TARGET</title>
<path fill="none" stroke="blue" d="M1325.15,-220C1498.46,-220 1905.5,-220 1905.5,-220 1905.5,-220 1905.5,-132.61 1905.5,-132.61"/>
<polygon fill="blue" stroke="blue" points="1909,-132.61 1905.5,-122.61 1902,-132.61 1909,-132.61"/>
<text text-anchor="middle" x="1650.02" y="-222.6" font-family="Times New Roman,serif" font-size="8.00">CFG </text>
</g>
<!-- UNKNOWN -->
<g id="node11" class="node">
<title>UNKNOWN</title>
<polygon fill="none" stroke="black" points="2001,-20.5 2001,-122.5 2228,-122.5 2228,-20.5 2001,-20.5"/>
<text text-anchor="start" x="2075.5" y="-108.3" font-family="Times New Roman,serif" font-weight="bold" font-size="14.00">UNKNOWN</text>
<text text-anchor="start" x="2081.5" y="-97.5" font-family="Times New Roman,serif" font-size="10.00">CODE: string (1)</text>
<text text-anchor="start" x="2045.5" y="-87.5" font-family="Times New Roman,serif" font-size="10.00">PARSER_TYPE_NAME: string (1)</text>
<text text-anchor="start" x="2085" y="-77.5" font-family="Times New Roman,serif" font-size="10.00">ORDER: int (1)</text>
<text text-anchor="start" x="2057" y="-67.5" font-family="Times New Roman,serif" font-size="10.00">ARGUMENT_INDEX: int (1)</text>
<text text-anchor="start" x="2052" y="-57.5" font-family="Times New Roman,serif" font-size="10.00">TYPE_FULL_NAME: string (1)</text>
<text text-anchor="start" x="2009" y="-47.5" font-family="Times New Roman,serif" font-size="10.00">DYNAMIC_TYPE_HINT_FULL_NAME: string (0:n)</text>
<text text-anchor="start" x="2064.5" y="-37.5" font-family="Times New Roman,serif" font-size="10.00">LINE_NUMBER: int (0:1)</text>
<text text-anchor="start" x="2054" y="-27.5" font-family="Times New Roman,serif" font-size="10.00">COLUMN_NUMBER: int (0:1)</text>
</g>
<!-- FIELD_IDENTIFIER&#45;&gt;UNKNOWN -->
<g id="edge11" class="edge">
<title>FIELD_IDENTIFIER&#45;&gt;UNKNOWN</title>
<path fill="none" stroke="blue" d="M1325.35,-234C1537.29,-234 2114.5,-234 2114.5,-234 2114.5,-234 2114.5,-132.92 2114.5,-132.92"/>
<polygon fill="blue" stroke="blue" points="2118,-132.92 2114.5,-122.92 2111,-132.92 2118,-132.92"/>
<text text-anchor="middle" x="1761.47" y="-236.6" font-family="Times New Roman,serif" font-size="8.00">CFG </text>
</g>
<!-- EXPRESSION -->
<g id="node12" class="node">
<title>EXPRESSION</title>
<polygon fill="none" stroke="black" points="2246,-45.5 2246,-97.5 2377,-97.5 2377,-45.5 2246,-45.5"/>
<text text-anchor="start" x="2265" y="-83.3" font-family="Times New Roman,serif" font-weight="bold" font-size="14.00">EXPRESSION</text>
<text text-anchor="start" x="2278.5" y="-72.5" font-family="Times New Roman,serif" font-size="10.00">CODE: string (1)</text>
<text text-anchor="start" x="2282" y="-62.5" font-family="Times New Roman,serif" font-size="10.00">ORDER: int (1)</text>
<text text-anchor="start" x="2254" y="-52.5" font-family="Times New Roman,serif" font-size="10.00">ARGUMENT_INDEX: int (1)</text>
</g>
<!-- FIELD_IDENTIFIER&#45;&gt;EXPRESSION -->
<g id="edge12" class="edge">
<title>FIELD_IDENTIFIER&#45;&gt;EXPRESSION</title>
<path fill="none" stroke="gray" d="M1325.38,-248C1569.55,-248 2311.5,-248 2311.5,-248 2311.5,-248 2311.5,-107.54 2311.5,-107.54"/>
<polygon fill="none" stroke="gray" points="2315,-107.54 2311.5,-97.54 2308,-107.54 2315,-107.54"/>
<text text-anchor="middle" x="1885.67" y="-250.6" font-family="Times New Roman,serif" font-size="8.00">is</text>
</g>
</g>
</svg>
