<?xml version="1.0" encoding="UTF-8" standalone="no"?>
<!DOCTYPE svg PUBLIC "-//W3C//DTD SVG 1.1//EN"
 "http://www.w3.org/Graphics/SVG/1.1/DTD/svg11.dtd">
<!-- Generated by graphviz version 2.44.1 (0)
 -->
<!-- Title: cpgschema Pages: 1 -->
<svg width="374pt" height="133pt"
 viewBox="0.00 0.00 373.53 133.00" xmlns="http://www.w3.org/2000/svg" xmlns:xlink="http://www.w3.org/1999/xlink">
<g id="graph0" class="graph" transform="scale(1 1) rotate(0) translate(4 129)">
<title>cpgschema</title>
<polygon fill="white" stroke="transparent" points="-4,4 -4,-129 369.53,-129 369.53,4 -4,4"/>
<!-- FILE -->
<g id="node1" class="node">
<title>FILE</title>
<polygon fill="none" stroke="black" points="178.49,-72.5 178.49,-124.5 234.49,-124.5 234.49,-72.5 178.49,-72.5"/>
<text text-anchor="start" x="187.99" y="-110.3" font-family="Times,serif" font-weight="bold" font-size="14.00">FILE</text>
<text text-anchor="start" x="188.99" y="-99.5" font-family="Times,serif" font-size="10.00">NAME</text>
<text text-anchor="start" x="186.49" y="-89.5" font-family="Times,serif" font-size="10.00">ORDER</text>
<text text-anchor="start" x="189.99" y="-79.5" font-family="Times,serif" font-size="10.00">HASH</text>
</g>
<!-- NAMESPACE_BLOCK -->
<g id="node2" class="node">
<title>NAMESPACE_BLOCK</title>
<ellipse fill="none" stroke="black" cx="110.49" cy="-18" rx="110.48" ry="18"/>
<text text-anchor="middle" x="110.49" y="-14.3" font-family="Times,serif" font-size="14.00">NAMESPACE_BLOCK</text>
</g>
<!-- FILE&#45;&gt;NAMESPACE_BLOCK -->
<g id="edge1" class="edge">
<title>FILE&#45;&gt;NAMESPACE_BLOCK</title>
<path fill="none" stroke="red" d="M199.74,-72.14C199.74,-72.14 199.74,-38.94 199.74,-38.94"/>
<polygon fill="red" stroke="red" points="203.24,-38.94 199.74,-28.94 196.24,-38.94 203.24,-38.94"/>
<text text-anchor="middle" x="176.24" y="-58.14" font-family="Times,serif" font-size="8.00">AST (0&#45;1:n)</text>
</g>
<!-- AST_NODE -->
<g id="node3" class="node">
<title>AST_NODE</title>
<ellipse fill="none" stroke="black" cx="302.49" cy="-18" rx="63.09" ry="18"/>
<text text-anchor="middle" x="302.49" y="-14.3" font-family="Times,serif" font-size="14.00">AST_NODE</text>
</g>
<!-- FILE&#45;&gt;AST_NODE -->
<g id="edge2" class="edge">
<title>FILE&#45;&gt;AST_NODE</title>
<path fill="none" stroke="gray" d="M227.74,-72.14C227.74,-48.66 227.74,-18 227.74,-18 227.74,-18 229.42,-18 229.42,-18"/>
<polygon fill="none" stroke="gray" points="229.42,-21.5 239.42,-18 229.42,-14.5 229.42,-21.5"/>
<text text-anchor="middle" x="224.24" y="-46.83" font-family="Times,serif" font-size="8.00">is</text>
</g>
</g>
</svg>
