<?xml version="1.0" encoding="UTF-8" standalone="no"?>
<!DOCTYPE svg PUBLIC "-//W3C//DTD SVG 1.1//EN"
 "http://www.w3.org/Graphics/SVG/1.1/DTD/svg11.dtd">
<!-- Generated by graphviz version 2.44.1 (20200629.0800)
 -->
<!-- Title: cpgschema Pages: 1 -->
<svg width="286pt" height="160pt"
 viewBox="0.00 0.00 286.00 160.00" xmlns="http://www.w3.org/2000/svg" xmlns:xlink="http://www.w3.org/1999/xlink">
<g id="graph0" class="graph" transform="scale(1 1) rotate(0) translate(4 156)">
<title>cpgschema</title>
<polygon fill="white" stroke="transparent" points="-4,4 -4,-156 282,-156 282,4 -4,4"/>
<!-- FILE -->
<g id="node1" class="node">
<title>FILE</title>
<polygon fill="none" stroke="black" points="112,-99.5 112,-151.5 202,-151.5 202,-99.5 112,-99.5"/>
<text text-anchor="start" x="140" y="-137.3" font-family="Times New Roman,serif" font-weight="bold" font-size="14.00">FILE</text>
<text text-anchor="start" x="122" y="-126.5" font-family="Times New Roman,serif" font-size="10.00">NAME: string (1)</text>
<text text-anchor="start" x="127.5" y="-116.5" font-family="Times New Roman,serif" font-size="10.00">ORDER: int (1)</text>
<text text-anchor="start" x="120" y="-106.5" font-family="Times New Roman,serif" font-size="10.00">HASH: string (0:1)</text>
</g>
<!-- NAMESPACE_BLOCK -->
<g id="node2" class="node">
<title>NAMESPACE_BLOCK</title>
<polygon fill="none" stroke="black" points="0,-0.5 0,-62.5 166,-62.5 166,-0.5 0,-0.5"/>
<text text-anchor="start" x="8" y="-48.3" font-family="Times New Roman,serif" font-weight="bold" font-size="14.00">NAMESPACE_BLOCK</text>
<text text-anchor="start" x="48" y="-37.5" font-family="Times New Roman,serif" font-size="10.00">NAME: string (1)</text>
<text text-anchor="start" x="34.5" y="-27.5" font-family="Times New Roman,serif" font-size="10.00">FULL_NAME: string (1)</text>
<text text-anchor="start" x="53.5" y="-17.5" font-family="Times New Roman,serif" font-size="10.00">ORDER: int (1)</text>
<text text-anchor="start" x="39" y="-7.5" font-family="Times New Roman,serif" font-size="10.00">FILENAME: string (1)</text>
</g>
<!-- FILE&#45;&gt;NAMESPACE_BLOCK -->
<g id="edge1" class="edge">
<title>FILE&#45;&gt;NAMESPACE_BLOCK</title>
<path fill="none" stroke="red" d="M139,-99.32C139,-99.32 139,-72.54 139,-72.54"/>
<polygon fill="red" stroke="red" points="142.5,-72.54 139,-62.54 135.5,-72.54 142.5,-72.54"/>
<text text-anchor="middle" x="117.5" y="-88.53" font-family="Times New Roman,serif" font-size="8.00">AST (0&#45;1:n)</text>
</g>
<!-- AST_NODE -->
<g id="node3" class="node">
<title>AST_NODE</title>
<polygon fill="none" stroke="black" points="184,-13.5 184,-49.5 278,-49.5 278,-13.5 184,-13.5"/>
<text text-anchor="start" x="192" y="-33.3" font-family="Times New Roman,serif" font-weight="bold" font-size="14.00">AST_NODE</text>
<text text-anchor="start" x="201.5" y="-22.5" font-family="Times New Roman,serif" font-size="10.00">ORDER: int (1)</text>
</g>
<!-- FILE&#45;&gt;AST_NODE -->
<g id="edge2" class="edge">
<title>FILE&#45;&gt;AST_NODE</title>
<path fill="none" stroke="gray" d="M193,-99.32C193,-99.32 193,-59.52 193,-59.52"/>
<polygon fill="none" stroke="gray" points="196.5,-59.52 193,-49.52 189.5,-59.52 196.5,-59.52"/>
<text text-anchor="middle" x="190" y="-82.02" font-family="Times New Roman,serif" font-size="8.00">is</text>
</g>
</g>
</svg>
