<?xml version="1.0" encoding="UTF-8" standalone="no"?>
<!DOCTYPE svg PUBLIC "-//W3C//DTD SVG 1.1//EN"
 "http://www.w3.org/Graphics/SVG/1.1/DTD/svg11.dtd">
<!-- Generated by graphviz version 2.44.1 (0)
 -->
<!-- Title: cpgschema Pages: 1 -->
<svg width="2504pt" height="201pt"
 viewBox="0.00 0.00 2504.09 201.00" xmlns="http://www.w3.org/2000/svg" xmlns:xlink="http://www.w3.org/1999/xlink">
<g id="graph0" class="graph" transform="scale(1 1) rotate(0) translate(4 197)">
<title>cpgschema</title>
<polygon fill="white" stroke="transparent" points="-4,4 -4,-197 2500.09,-197 2500.09,4 -4,4"/>
<!-- IDENTIFIER -->
<g id="node1" class="node">
<title>IDENTIFIER</title>
<polygon fill="none" stroke="black" points="1138.9,-72.5 1138.9,-174.5 1348.9,-174.5 1348.9,-72.5 1138.9,-72.5"/>
<text text-anchor="start" x="1194.4" y="-160.3" font-family="Times,serif" font-weight="bold" font-size="14.00">IDENTIFIER</text>
<text text-anchor="start" x="1227.9" y="-149.5" font-family="Times,serif" font-size="10.00">CODE</text>
<text text-anchor="start" x="1226.4" y="-139.5" font-family="Times,serif" font-size="10.00">NAME</text>
<text text-anchor="start" x="1223.9" y="-129.5" font-family="Times,serif" font-size="10.00">ORDER</text>
<text text-anchor="start" x="1190.9" y="-119.5" font-family="Times,serif" font-size="10.00">ARGUMENT_INDEX</text>
<text text-anchor="start" x="1192.9" y="-109.5" font-family="Times,serif" font-size="10.00">TYPE_FULL_NAME</text>
<text text-anchor="start" x="1146.9" y="-99.5" font-family="Times,serif" font-size="10.00">DYNAMIC_TYPE_HINT_FULL_NAME</text>
<text text-anchor="start" x="1202.4" y="-89.5" font-family="Times,serif" font-size="10.00">LINE_NUMBER</text>
<text text-anchor="start" x="1190.9" y="-79.5" font-family="Times,serif" font-size="10.00">COLUMN_NUMBER</text>
</g>
<!-- IDENTIFIER&#45;&gt;IDENTIFIER -->
<g id="edge4" class="edge">
<title>IDENTIFIER&#45;&gt;IDENTIFIER</title>
<path fill="none" stroke="blue" d="M1243.9,-174.74C1243.9,-185.16 1243.9,-193 1243.9,-193 1243.9,-193 1356.07,-193 1356.07,-193 1356.07,-193 1356.07,-54 1356.07,-54 1356.07,-54 1277.69,-54 1277.69,-54 1277.69,-54 1277.69,-62.26 1277.69,-62.26"/>
<polygon fill="blue" stroke="blue" points="1274.19,-62.26 1277.69,-72.26 1281.19,-62.26 1274.19,-62.26"/>
<text text-anchor="middle" x="1366.57" y="-148" font-family="Times,serif" font-size="8.00">CFG </text>
</g>
<!-- LOCAL -->
<g id="node2" class="node">
<title>LOCAL</title>
<ellipse fill="none" stroke="black" cx="42.9" cy="-18" rx="42.79" ry="18"/>
<text text-anchor="middle" x="42.9" y="-14.3" font-family="Times,serif" font-size="14.00">LOCAL</text>
</g>
<!-- IDENTIFIER&#45;&gt;LOCAL -->
<g id="edge1" class="edge">
<title>IDENTIFIER&#45;&gt;LOCAL</title>
<path fill="none" stroke="black" d="M1138.89,-162C846.26,-162 42.9,-162 42.9,-162 42.9,-162 42.9,-46.24 42.9,-46.24"/>
<polygon fill="black" stroke="black" points="46.4,-46.24 42.9,-36.24 39.4,-46.24 46.4,-46.24"/>
<text text-anchor="middle" x="509.01" y="-164.6" font-family="Times,serif" font-size="8.00">REF (n:0&#45;1)</text>
</g>
<!-- METHOD_PARAMETER_IN -->
<g id="node3" class="node">
<title>METHOD_PARAMETER_IN</title>
<ellipse fill="none" stroke="black" cx="239.9" cy="-18" rx="135.68" ry="18"/>
<text text-anchor="middle" x="239.9" y="-14.3" font-family="Times,serif" font-size="14.00">METHOD_PARAMETER_IN</text>
</g>
<!-- IDENTIFIER&#45;&gt;METHOD_PARAMETER_IN -->
<g id="edge2" class="edge">
<title>IDENTIFIER&#45;&gt;METHOD_PARAMETER_IN</title>
<path fill="none" stroke="black" d="M1138.82,-149C881.36,-149 239.9,-149 239.9,-149 239.9,-149 239.9,-46.21 239.9,-46.21"/>
<polygon fill="black" stroke="black" points="243.4,-46.21 239.9,-36.21 236.4,-46.22 243.4,-46.21"/>
<text text-anchor="middle" x="613.97" y="-151.6" font-family="Times,serif" font-size="8.00">REF (n:0&#45;1)</text>
</g>
<!-- CALL -->
<g id="node4" class="node">
<title>CALL</title>
<ellipse fill="none" stroke="black" cx="429.9" cy="-18" rx="36" ry="18"/>
<text text-anchor="middle" x="429.9" y="-14.3" font-family="Times,serif" font-size="14.00">CALL</text>
</g>
<!-- IDENTIFIER&#45;&gt;CALL -->
<g id="edge3" class="edge">
<title>IDENTIFIER&#45;&gt;CALL</title>
<path fill="none" stroke="blue" d="M1138.73,-136C918.68,-136 429.9,-136 429.9,-136 429.9,-136 429.9,-46.18 429.9,-46.18"/>
<polygon fill="blue" stroke="blue" points="433.4,-46.18 429.9,-36.18 426.4,-46.18 433.4,-46.18"/>
<text text-anchor="middle" x="728.9" y="-138.6" font-family="Times,serif" font-size="8.00">CFG </text>
</g>
<!-- FIELD_IDENTIFIER -->
<g id="node5" class="node">
<title>FIELD_IDENTIFIER</title>
<ellipse fill="none" stroke="black" cx="585.9" cy="-18" rx="102.88" ry="18"/>
<text text-anchor="middle" x="585.9" y="-14.3" font-family="Times,serif" font-size="14.00">FIELD_IDENTIFIER</text>
</g>
<!-- IDENTIFIER&#45;&gt;FIELD_IDENTIFIER -->
<g id="edge5" class="edge">
<title>IDENTIFIER&#45;&gt;FIELD_IDENTIFIER</title>
<path fill="none" stroke="blue" d="M1138.54,-123C952.66,-123 585.9,-123 585.9,-123 585.9,-123 585.9,-46.29 585.9,-46.29"/>
<polygon fill="blue" stroke="blue" points="589.4,-46.29 585.9,-36.29 582.4,-46.29 589.4,-46.29"/>
<text text-anchor="middle" x="813.36" y="-125.6" font-family="Times,serif" font-size="8.00">CFG </text>
</g>
<!-- LITERAL -->
<g id="node6" class="node">
<title>LITERAL</title>
<ellipse fill="none" stroke="black" cx="758.9" cy="-18" rx="51.99" ry="18"/>
<text text-anchor="middle" x="758.9" y="-14.3" font-family="Times,serif" font-size="14.00">LITERAL</text>
</g>
<!-- IDENTIFIER&#45;&gt;LITERAL -->
<g id="edge6" class="edge">
<title>IDENTIFIER&#45;&gt;LITERAL</title>
<path fill="none" stroke="blue" d="M1138.66,-110C996.02,-110 758.9,-110 758.9,-110 758.9,-110 758.9,-46.18 758.9,-46.18"/>
<polygon fill="blue" stroke="blue" points="762.4,-46.18 758.9,-36.18 755.4,-46.18 762.4,-46.18"/>
<text text-anchor="middle" x="906.37" y="-112.6" font-family="Times,serif" font-size="8.00">CFG </text>
</g>
<!-- METHOD_REF -->
<g id="node7" class="node">
<title>METHOD_REF</title>
<ellipse fill="none" stroke="black" cx="907.9" cy="-18" rx="79.09" ry="18"/>
<text text-anchor="middle" x="907.9" y="-14.3" font-family="Times,serif" font-size="14.00">METHOD_REF</text>
</g>
<!-- IDENTIFIER&#45;&gt;METHOD_REF -->
<g id="edge7" class="edge">
<title>IDENTIFIER&#45;&gt;METHOD_REF</title>
<path fill="none" stroke="blue" d="M1138.51,-97C1039.97,-97 907.9,-97 907.9,-97 907.9,-97 907.9,-46.32 907.9,-46.32"/>
<polygon fill="blue" stroke="blue" points="911.4,-46.32 907.9,-36.32 904.4,-46.32 911.4,-46.32"/>
<text text-anchor="middle" x="987.36" y="-99.6" font-family="Times,serif" font-size="8.00">CFG </text>
</g>
<!-- TYPE_REF -->
<g id="node8" class="node">
<title>TYPE_REF</title>
<ellipse fill="none" stroke="black" cx="1064.9" cy="-18" rx="59.59" ry="18"/>
<text text-anchor="middle" x="1064.9" y="-14.3" font-family="Times,serif" font-size="14.00">TYPE_REF</text>
</g>
<!-- IDENTIFIER&#45;&gt;TYPE_REF -->
<g id="edge8" class="edge">
<title>IDENTIFIER&#45;&gt;TYPE_REF</title>
<path fill="none" stroke="blue" d="M1138.74,-84C1099.77,-84 1064.9,-84 1064.9,-84 1064.9,-84 1064.9,-46.03 1064.9,-46.03"/>
<polygon fill="blue" stroke="blue" points="1068.4,-46.03 1064.9,-36.03 1061.4,-46.03 1068.4,-46.03"/>
<text text-anchor="middle" x="1072.33" y="-86.6" font-family="Times,serif" font-size="8.00">CFG </text>
</g>
<!-- METHOD_RETURN -->
<g id="node9" class="node">
<title>METHOD_RETURN</title>
<ellipse fill="none" stroke="black" cx="1243.9" cy="-18" rx="101.28" ry="18"/>
<text text-anchor="middle" x="1243.9" y="-14.3" font-family="Times,serif" font-size="14.00">METHOD_RETURN</text>
</g>
<!-- IDENTIFIER&#45;&gt;METHOD_RETURN -->
<g id="edge9" class="edge">
<title>IDENTIFIER&#45;&gt;METHOD_RETURN</title>
<path fill="none" stroke="blue" d="M1210.1,-72.3C1210.1,-72.3 1210.1,-45.07 1210.1,-45.07"/>
<polygon fill="blue" stroke="blue" points="1213.6,-45.07 1210.1,-35.07 1206.6,-45.07 1213.6,-45.07"/>
<text text-anchor="middle" x="1199.6" y="-61.28" font-family="Times,serif" font-size="8.00">CFG </text>
</g>
<!-- RETURN -->
<g id="node10" class="node">
<title>RETURN</title>
<ellipse fill="none" stroke="black" cx="1415.9" cy="-18" rx="52.79" ry="18"/>
<text text-anchor="middle" x="1415.9" y="-14.3" font-family="Times,serif" font-size="14.00">RETURN</text>
</g>
<!-- IDENTIFIER&#45;&gt;RETURN -->
<g id="edge10" class="edge">
<title>IDENTIFIER&#45;&gt;RETURN</title>
<path fill="none" stroke="blue" d="M1348.9,-84C1384.71,-84 1415.9,-84 1415.9,-84 1415.9,-84 1415.9,-46.03 1415.9,-46.03"/>
<polygon fill="blue" stroke="blue" points="1419.4,-46.03 1415.9,-36.03 1412.4,-46.03 1419.4,-46.03"/>
<text text-anchor="middle" x="1390.88" y="-86.6" font-family="Times,serif" font-size="8.00">CFG </text>
</g>
<!-- BLOCK -->
<g id="node11" class="node">
<title>BLOCK</title>
<ellipse fill="none" stroke="black" cx="1530.9" cy="-18" rx="44.39" ry="18"/>
<text text-anchor="middle" x="1530.9" y="-14.3" font-family="Times,serif" font-size="14.00">BLOCK</text>
</g>
<!-- IDENTIFIER&#45;&gt;BLOCK -->
<g id="edge11" class="edge">
<title>IDENTIFIER&#45;&gt;BLOCK</title>
<path fill="none" stroke="blue" d="M1349.13,-97C1431.04,-97 1530.9,-97 1530.9,-97 1530.9,-97 1530.9,-46.32 1530.9,-46.32"/>
<polygon fill="blue" stroke="blue" points="1534.4,-46.32 1530.9,-36.32 1527.4,-46.32 1534.4,-46.32"/>
<text text-anchor="middle" x="1454.85" y="-99.6" font-family="Times,serif" font-size="8.00">CFG </text>
</g>
<!-- JUMP_TARGET -->
<g id="node12" class="node">
<title>JUMP_TARGET</title>
<ellipse fill="none" stroke="black" cx="1673.9" cy="-18" rx="80.69" ry="18"/>
<text text-anchor="middle" x="1673.9" y="-14.3" font-family="Times,serif" font-size="14.00">JUMP_TARGET</text>
</g>
<!-- IDENTIFIER&#45;&gt;JUMP_TARGET -->
<g id="edge12" class="edge">
<title>IDENTIFIER&#45;&gt;JUMP_TARGET</title>
<path fill="none" stroke="blue" d="M1349.09,-110C1476.39,-110 1673.9,-110 1673.9,-110 1673.9,-110 1673.9,-46.18 1673.9,-46.18"/>
<polygon fill="blue" stroke="blue" points="1677.4,-46.18 1673.9,-36.18 1670.4,-46.18 1677.4,-46.18"/>
<text text-anchor="middle" x="1532.9" y="-112.6" font-family="Times,serif" font-size="8.00">CFG </text>
</g>
<!-- CONTROL_STRUCTURE -->
<g id="node13" class="node">
<title>CONTROL_STRUCTURE</title>
<ellipse fill="none" stroke="black" cx="1896.9" cy="-18" rx="124.28" ry="18"/>
<text text-anchor="middle" x="1896.9" y="-14.3" font-family="Times,serif" font-size="14.00">CONTROL_STRUCTURE</text>
</g>
<!-- IDENTIFIER&#45;&gt;CONTROL_STRUCTURE -->
<g id="edge13" class="edge">
<title>IDENTIFIER&#45;&gt;CONTROL_STRUCTURE</title>
<path fill="none" stroke="blue" d="M1349.17,-123C1533.88,-123 1896.9,-123 1896.9,-123 1896.9,-123 1896.9,-46.29 1896.9,-46.29"/>
<polygon fill="blue" stroke="blue" points="1900.4,-46.29 1896.9,-36.29 1893.4,-46.29 1900.4,-46.29"/>
<text text-anchor="middle" x="1650.89" y="-125.6" font-family="Times,serif" font-size="8.00">CFG </text>
</g>
<!-- UNKNOWN -->
<g id="node14" class="node">
<title>UNKNOWN</title>
<ellipse fill="none" stroke="black" cx="2104.9" cy="-18" rx="65.79" ry="18"/>
<text text-anchor="middle" x="2104.9" y="-14.3" font-family="Times,serif" font-size="14.00">UNKNOWN</text>
</g>
<!-- IDENTIFIER&#45;&gt;UNKNOWN -->
<g id="edge14" class="edge">
<title>IDENTIFIER&#45;&gt;UNKNOWN</title>
<path fill="none" stroke="blue" d="M1349.04,-136C1578.73,-136 2104.9,-136 2104.9,-136 2104.9,-136 2104.9,-46.18 2104.9,-46.18"/>
<polygon fill="blue" stroke="blue" points="2108.4,-46.18 2104.9,-36.18 2101.4,-46.18 2108.4,-46.18"/>
<text text-anchor="middle" x="1761.38" y="-138.6" font-family="Times,serif" font-size="8.00">CFG </text>
</g>
<!-- EXPRESSION -->
<g id="node15" class="node">
<title>EXPRESSION</title>
<ellipse fill="none" stroke="black" cx="2262.9" cy="-18" rx="74.99" ry="18"/>
<text text-anchor="middle" x="2262.9" y="-14.3" font-family="Times,serif" font-size="14.00">EXPRESSION</text>
</g>
<!-- IDENTIFIER&#45;&gt;EXPRESSION -->
<g id="edge15" class="edge">
<title>IDENTIFIER&#45;&gt;EXPRESSION</title>
<path fill="none" stroke="gray" d="M1349.11,-149C1609.46,-149 2262.9,-149 2262.9,-149 2262.9,-149 2262.9,-46.21 2262.9,-46.21"/>
<polygon fill="none" stroke="gray" points="2266.4,-46.21 2262.9,-36.21 2259.4,-46.22 2266.4,-46.21"/>
<text text-anchor="middle" x="1853.9" y="-151.6" font-family="Times,serif" font-size="8.00">is</text>
</g>
<!-- LOCAL_LIKE -->
<g id="node16" class="node">
<title>LOCAL_LIKE</title>
<ellipse fill="none" stroke="black" cx="2425.9" cy="-18" rx="70.39" ry="18"/>
<text text-anchor="middle" x="2425.9" y="-14.3" font-family="Times,serif" font-size="14.00">LOCAL_LIKE</text>
</g>
<!-- IDENTIFIER&#45;&gt;LOCAL_LIKE -->
<g id="edge16" class="edge">
<title>IDENTIFIER&#45;&gt;LOCAL_LIKE</title>
<path fill="none" stroke="gray" d="M1349.05,-162C1638.54,-162 2425.9,-162 2425.9,-162 2425.9,-162 2425.9,-46.24 2425.9,-46.24"/>
<polygon fill="none" stroke="gray" points="2429.4,-46.24 2425.9,-36.24 2422.4,-46.24 2429.4,-46.24"/>
<text text-anchor="middle" x="1941.85" y="-164.6" font-family="Times,serif" font-size="8.00">is</text>
</g>
</g>
</svg>
