<?xml version="1.0" encoding="UTF-8" standalone="no"?>
<!DOCTYPE svg PUBLIC "-//W3C//DTD SVG 1.1//EN"
 "http://www.w3.org/Graphics/SVG/1.1/DTD/svg11.dtd">
<!-- Generated by graphviz version 2.44.1 (20200629.0800)
 -->
<!-- Title: cpgschema Pages: 1 -->
<svg width="3173pt" height="308pt"
 viewBox="0.00 0.00 3172.50 308.00" xmlns="http://www.w3.org/2000/svg" xmlns:xlink="http://www.w3.org/1999/xlink">
<g id="graph0" class="graph" transform="scale(1 1) rotate(0) translate(4 304)">
<title>cpgschema</title>
<polygon fill="white" stroke="transparent" points="-4,4 -4,-304 3168.5,-304 3168.5,4 -4,4"/>
<!-- IDENTIFIER -->
<g id="node1" class="node">
<title>IDENTIFIER</title>
<polygon fill="none" stroke="black" points="1551,-179.5 1551,-281.5 1778,-281.5 1778,-179.5 1551,-179.5"/>
<text text-anchor="start" x="1621.5" y="-267.3" font-family="Times New Roman,serif" font-weight="bold" font-size="14.00">IDENTIFIER</text>
<text text-anchor="start" x="1631.5" y="-256.5" font-family="Times New Roman,serif" font-size="10.00">CODE: string (1)</text>
<text text-anchor="start" x="1629.5" y="-246.5" font-family="Times New Roman,serif" font-size="10.00">NAME: string (1)</text>
<text text-anchor="start" x="1635" y="-236.5" font-family="Times New Roman,serif" font-size="10.00">ORDER: int (1)</text>
<text text-anchor="start" x="1607" y="-226.5" font-family="Times New Roman,serif" font-size="10.00">ARGUMENT_INDEX: int (1)</text>
<text text-anchor="start" x="1602" y="-216.5" font-family="Times New Roman,serif" font-size="10.00">TYPE_FULL_NAME: string (1)</text>
<text text-anchor="start" x="1559" y="-206.5" font-family="Times New Roman,serif" font-size="10.00">DYNAMIC_TYPE_HINT_FULL_NAME: string (0:n)</text>
<text text-anchor="start" x="1614.5" y="-196.5" font-family="Times New Roman,serif" font-size="10.00">LINE_NUMBER: int (0:1)</text>
<text text-anchor="start" x="1604" y="-186.5" font-family="Times New Roman,serif" font-size="10.00">COLUMN_NUMBER: int (0:1)</text>
</g>
<!-- IDENTIFIER&#45;&gt;IDENTIFIER -->
<g id="edge4" class="edge">
<title>IDENTIFIER&#45;&gt;IDENTIFIER</title>
<path fill="none" stroke="blue" d="M1664.5,-281.74C1664.5,-292.16 1664.5,-300 1664.5,-300 1664.5,-300 1787,-300 1787,-300 1787,-300 1787,-161 1787,-161 1787,-161 1721.25,-161 1721.25,-161 1721.25,-161 1721.25,-169.26 1721.25,-169.26"/>
<polygon fill="blue" stroke="blue" points="1717.75,-169.26 1721.25,-179.26 1724.75,-169.26 1717.75,-169.26"/>
<text text-anchor="middle" x="1796" y="-266.48" font-family="Times New Roman,serif" font-size="8.00">CFG </text>
</g>
<!-- METHOD_PARAMETER_IN -->
<g id="node2" class="node">
<title>METHOD_PARAMETER_IN</title>
<polygon fill="none" stroke="black" points="0,-20.5 0,-122.5 227,-122.5 227,-20.5 0,-20.5"/>
<text text-anchor="start" x="19" y="-108.3" font-family="Times New Roman,serif" font-weight="bold" font-size="14.00">METHOD_PARAMETER_IN</text>
<text text-anchor="start" x="80.5" y="-97.5" font-family="Times New Roman,serif" font-size="10.00">CODE: string (1)</text>
<text text-anchor="start" x="84" y="-87.5" font-family="Times New Roman,serif" font-size="10.00">ORDER: int (1)</text>
<text text-anchor="start" x="78.5" y="-77.5" font-family="Times New Roman,serif" font-size="10.00">NAME: string (1)</text>
<text text-anchor="start" x="36" y="-67.5" font-family="Times New Roman,serif" font-size="10.00">EVALUATION_STRATEGY: string (1)</text>
<text text-anchor="start" x="51" y="-57.5" font-family="Times New Roman,serif" font-size="10.00">TYPE_FULL_NAME: string (1)</text>
<text text-anchor="start" x="8" y="-47.5" font-family="Times New Roman,serif" font-size="10.00">DYNAMIC_TYPE_HINT_FULL_NAME: string (0:n)</text>
<text text-anchor="start" x="63.5" y="-37.5" font-family="Times New Roman,serif" font-size="10.00">LINE_NUMBER: int (0:1)</text>
<text text-anchor="start" x="53" y="-27.5" font-family="Times New Roman,serif" font-size="10.00">COLUMN_NUMBER: int (0:1)</text>
</g>
<!-- IDENTIFIER&#45;&gt;METHOD_PARAMETER_IN -->
<g id="edge2" class="edge">
<title>IDENTIFIER&#45;&gt;METHOD_PARAMETER_IN</title>
<path fill="none" stroke="black" d="M1550.77,-267C1192.9,-267 113.5,-267 113.5,-267 113.5,-267 113.5,-132.61 113.5,-132.61"/>
<polygon fill="black" stroke="black" points="117,-132.61 113.5,-122.61 110,-132.61 117,-132.61"/>
<text text-anchor="middle" x="743.44" y="-269.6" font-family="Times New Roman,serif" font-size="8.00">REF (n:0&#45;1)</text>
</g>
<!-- METHOD_RETURN -->
<g id="node3" class="node">
<title>METHOD_RETURN</title>
<polygon fill="none" stroke="black" points="245,-25.5 245,-117.5 472,-117.5 472,-25.5 245,-25.5"/>
<text text-anchor="start" x="291.5" y="-103.3" font-family="Times New Roman,serif" font-weight="bold" font-size="14.00">METHOD_RETURN</text>
<text text-anchor="start" x="325.5" y="-92.5" font-family="Times New Roman,serif" font-size="10.00">CODE: string (1)</text>
<text text-anchor="start" x="281" y="-82.5" font-family="Times New Roman,serif" font-size="10.00">EVALUATION_STRATEGY: string (1)</text>
<text text-anchor="start" x="296" y="-72.5" font-family="Times New Roman,serif" font-size="10.00">TYPE_FULL_NAME: string (1)</text>
<text text-anchor="start" x="253" y="-62.5" font-family="Times New Roman,serif" font-size="10.00">DYNAMIC_TYPE_HINT_FULL_NAME: string (0:n)</text>
<text text-anchor="start" x="308.5" y="-52.5" font-family="Times New Roman,serif" font-size="10.00">LINE_NUMBER: int (0:1)</text>
<text text-anchor="start" x="298" y="-42.5" font-family="Times New Roman,serif" font-size="10.00">COLUMN_NUMBER: int (0:1)</text>
<text text-anchor="start" x="329" y="-32.5" font-family="Times New Roman,serif" font-size="10.00">ORDER: int (1)</text>
</g>
<!-- IDENTIFIER&#45;&gt;METHOD_RETURN -->
<g id="edge9" class="edge">
<title>IDENTIFIER&#45;&gt;METHOD_RETURN</title>
<path fill="none" stroke="blue" d="M1550.89,-252C1233.14,-252 358.5,-252 358.5,-252 358.5,-252 358.5,-127.51 358.5,-127.51"/>
<polygon fill="blue" stroke="blue" points="362,-127.51 358.5,-117.51 355,-127.51 362,-127.51"/>
<text text-anchor="middle" x="883.45" y="-254.6" font-family="Times New Roman,serif" font-size="8.00">CFG </text>
</g>
<!-- LITERAL -->
<g id="node4" class="node">
<title>LITERAL</title>
<polygon fill="none" stroke="black" points="490,-25.5 490,-117.5 717,-117.5 717,-25.5 490,-25.5"/>
<text text-anchor="start" x="571.5" y="-103.3" font-family="Times New Roman,serif" font-weight="bold" font-size="14.00">LITERAL</text>
<text text-anchor="start" x="570.5" y="-92.5" font-family="Times New Roman,serif" font-size="10.00">CODE: string (1)</text>
<text text-anchor="start" x="574" y="-82.5" font-family="Times New Roman,serif" font-size="10.00">ORDER: int (1)</text>
<text text-anchor="start" x="546" y="-72.5" font-family="Times New Roman,serif" font-size="10.00">ARGUMENT_INDEX: int (1)</text>
<text text-anchor="start" x="541" y="-62.5" font-family="Times New Roman,serif" font-size="10.00">TYPE_FULL_NAME: string (1)</text>
<text text-anchor="start" x="498" y="-52.5" font-family="Times New Roman,serif" font-size="10.00">DYNAMIC_TYPE_HINT_FULL_NAME: string (0:n)</text>
<text text-anchor="start" x="553.5" y="-42.5" font-family="Times New Roman,serif" font-size="10.00">LINE_NUMBER: int (0:1)</text>
<text text-anchor="start" x="543" y="-32.5" font-family="Times New Roman,serif" font-size="10.00">COLUMN_NUMBER: int (0:1)</text>
</g>
<!-- IDENTIFIER&#45;&gt;LITERAL -->
<g id="edge6" class="edge">
<title>IDENTIFIER&#45;&gt;LITERAL</title>
<path fill="none" stroke="blue" d="M1550.95,-237C1277.25,-237 603.5,-237 603.5,-237 603.5,-237 603.5,-127.6 603.5,-127.6"/>
<polygon fill="blue" stroke="blue" points="607,-127.6 603.5,-117.6 600,-127.6 607,-127.6"/>
<text text-anchor="middle" x="1013.53" y="-239.6" font-family="Times New Roman,serif" font-size="8.00">CFG </text>
</g>
<!-- CALL -->
<g id="node5" class="node">
<title>CALL</title>
<polygon fill="none" stroke="black" points="735,-0.5 735,-142.5 962,-142.5 962,-0.5 735,-0.5"/>
<text text-anchor="start" x="829" y="-128.3" font-family="Times New Roman,serif" font-weight="bold" font-size="14.00">CALL</text>
<text text-anchor="start" x="815.5" y="-117.5" font-family="Times New Roman,serif" font-size="10.00">CODE: string (1)</text>
<text text-anchor="start" x="813.5" y="-107.5" font-family="Times New Roman,serif" font-size="10.00">NAME: string (1)</text>
<text text-anchor="start" x="819" y="-97.5" font-family="Times New Roman,serif" font-size="10.00">ORDER: int (1)</text>
<text text-anchor="start" x="760.5" y="-87.5" font-family="Times New Roman,serif" font-size="10.00">METHOD_INST_FULL_NAME: string (0:1)</text>
<text text-anchor="start" x="777" y="-77.5" font-family="Times New Roman,serif" font-size="10.00">METHOD_FULL_NAME: string (1)</text>
<text text-anchor="start" x="791" y="-67.5" font-family="Times New Roman,serif" font-size="10.00">ARGUMENT_INDEX: int (1)</text>
<text text-anchor="start" x="791" y="-57.5" font-family="Times New Roman,serif" font-size="10.00">DISPATCH_TYPE: string (1)</text>
<text text-anchor="start" x="801.5" y="-47.5" font-family="Times New Roman,serif" font-size="10.00">SIGNATURE: string (1)</text>
<text text-anchor="start" x="786" y="-37.5" font-family="Times New Roman,serif" font-size="10.00">TYPE_FULL_NAME: string (1)</text>
<text text-anchor="start" x="743" y="-27.5" font-family="Times New Roman,serif" font-size="10.00">DYNAMIC_TYPE_HINT_FULL_NAME: string (0:n)</text>
<text text-anchor="start" x="798.5" y="-17.5" font-family="Times New Roman,serif" font-size="10.00">LINE_NUMBER: int (0:1)</text>
<text text-anchor="start" x="788" y="-7.5" font-family="Times New Roman,serif" font-size="10.00">COLUMN_NUMBER: int (0:1)</text>
</g>
<!-- IDENTIFIER&#45;&gt;CALL -->
<g id="edge3" class="edge">
<title>IDENTIFIER&#45;&gt;CALL</title>
<path fill="none" stroke="blue" d="M1607.75,-179.4C1607.75,-156.69 1607.75,-135 1607.75,-135 1607.75,-135 972.17,-135 972.17,-135"/>
<polygon fill="blue" stroke="blue" points="972.17,-131.5 962.17,-135 972.17,-138.5 972.17,-131.5"/>
<text text-anchor="middle" x="1303.16" y="-137.6" font-family="Times New Roman,serif" font-size="8.00">CFG </text>
</g>
<!-- LOCAL -->
<g id="node6" class="node">
<title>LOCAL</title>
<polygon fill="none" stroke="black" points="980,-20.5 980,-122.5 1207,-122.5 1207,-20.5 980,-20.5"/>
<text text-anchor="start" x="1068.5" y="-108.3" font-family="Times New Roman,serif" font-weight="bold" font-size="14.00">LOCAL</text>
<text text-anchor="start" x="1060.5" y="-97.5" font-family="Times New Roman,serif" font-size="10.00">CODE: string (1)</text>
<text text-anchor="start" x="1058.5" y="-87.5" font-family="Times New Roman,serif" font-size="10.00">NAME: string (1)</text>
<text text-anchor="start" x="1042" y="-77.5" font-family="Times New Roman,serif" font-size="10.00">CLOSURE_BINDING_ID </text>
<text text-anchor="start" x="1031" y="-67.5" font-family="Times New Roman,serif" font-size="10.00">TYPE_FULL_NAME: string (1)</text>
<text text-anchor="start" x="988" y="-57.5" font-family="Times New Roman,serif" font-size="10.00">DYNAMIC_TYPE_HINT_FULL_NAME: string (0:n)</text>
<text text-anchor="start" x="1043.5" y="-47.5" font-family="Times New Roman,serif" font-size="10.00">LINE_NUMBER: int (0:1)</text>
<text text-anchor="start" x="1033" y="-37.5" font-family="Times New Roman,serif" font-size="10.00">COLUMN_NUMBER: int (0:1)</text>
<text text-anchor="start" x="1064" y="-27.5" font-family="Times New Roman,serif" font-size="10.00">ORDER: int (1)</text>
</g>
<!-- IDENTIFIER&#45;&gt;LOCAL -->
<g id="edge1" class="edge">
<title>IDENTIFIER&#45;&gt;LOCAL</title>
<path fill="none" stroke="black" d="M1550.66,-223C1384.09,-223 1093.5,-223 1093.5,-223 1093.5,-223 1093.5,-132.79 1093.5,-132.79"/>
<polygon fill="black" stroke="black" points="1097,-132.79 1093.5,-122.79 1090,-132.79 1097,-132.79"/>
<text text-anchor="middle" x="1255.48" y="-225.6" font-family="Times New Roman,serif" font-size="8.00">REF (n:0&#45;1)</text>
</g>
<!-- FIELD_IDENTIFIER -->
<g id="node7" class="node">
<title>FIELD_IDENTIFIER</title>
<polygon fill="none" stroke="black" points="1225,-30.5 1225,-112.5 1378,-112.5 1378,-30.5 1225,-30.5"/>
<text text-anchor="start" x="1233" y="-98.3" font-family="Times New Roman,serif" font-weight="bold" font-size="14.00">FIELD_IDENTIFIER</text>
<text text-anchor="start" x="1268.5" y="-87.5" font-family="Times New Roman,serif" font-size="10.00">CODE: string (1)</text>
<text text-anchor="start" x="1236.5" y="-77.5" font-family="Times New Roman,serif" font-size="10.00">CANONICAL_NAME: string (1)</text>
<text text-anchor="start" x="1272" y="-67.5" font-family="Times New Roman,serif" font-size="10.00">ORDER: int (1)</text>
<text text-anchor="start" x="1244" y="-57.5" font-family="Times New Roman,serif" font-size="10.00">ARGUMENT_INDEX: int (1)</text>
<text text-anchor="start" x="1251.5" y="-47.5" font-family="Times New Roman,serif" font-size="10.00">LINE_NUMBER: int (0:1)</text>
<text text-anchor="start" x="1241" y="-37.5" font-family="Times New Roman,serif" font-size="10.00">COLUMN_NUMBER: int (0:1)</text>
</g>
<!-- IDENTIFIER&#45;&gt;FIELD_IDENTIFIER -->
<g id="edge5" class="edge">
<title>IDENTIFIER&#45;&gt;FIELD_IDENTIFIER</title>
<path fill="none" stroke="blue" d="M1550.64,-208C1444.18,-208 1301.5,-208 1301.5,-208 1301.5,-208 1301.5,-122.82 1301.5,-122.82"/>
<polygon fill="blue" stroke="blue" points="1305,-122.82 1301.5,-112.82 1298,-122.82 1305,-122.82"/>
<text text-anchor="middle" x="1374.48" y="-210.6" font-family="Times New Roman,serif" font-size="8.00">CFG </text>
</g>
<!-- RETURN -->
<g id="node8" class="node">
<title>RETURN</title>
<polygon fill="none" stroke="black" points="1396,-35.5 1396,-107.5 1533,-107.5 1533,-35.5 1396,-35.5"/>
<text text-anchor="start" x="1434" y="-93.3" font-family="Times New Roman,serif" font-weight="bold" font-size="14.00">RETURN</text>
<text text-anchor="start" x="1414.5" y="-82.5" font-family="Times New Roman,serif" font-size="10.00">LINE_NUMBER: int (0:1)</text>
<text text-anchor="start" x="1404" y="-72.5" font-family="Times New Roman,serif" font-size="10.00">COLUMN_NUMBER: int (0:1)</text>
<text text-anchor="start" x="1435" y="-62.5" font-family="Times New Roman,serif" font-size="10.00">ORDER: int (1)</text>
<text text-anchor="start" x="1407" y="-52.5" font-family="Times New Roman,serif" font-size="10.00">ARGUMENT_INDEX: int (1)</text>
<text text-anchor="start" x="1431.5" y="-42.5" font-family="Times New Roman,serif" font-size="10.00">CODE: string (1)</text>
</g>
<!-- IDENTIFIER&#45;&gt;RETURN -->
<g id="edge10" class="edge">
<title>IDENTIFIER&#45;&gt;RETURN</title>
<path fill="none" stroke="blue" d="M1550.77,-193C1505.74,-193 1464.5,-193 1464.5,-193 1464.5,-193 1464.5,-117.63 1464.5,-117.63"/>
<polygon fill="blue" stroke="blue" points="1468,-117.63 1464.5,-107.63 1461,-117.63 1468,-117.63"/>
<text text-anchor="middle" x="1460.95" y="-195.6" font-family="Times New Roman,serif" font-size="8.00">CFG </text>
</g>
<!-- BLOCK -->
<g id="node9" class="node">
<title>BLOCK</title>
<polygon fill="none" stroke="black" points="1551,-25.5 1551,-117.5 1778,-117.5 1778,-25.5 1551,-25.5"/>
<text text-anchor="start" x="1638.5" y="-103.3" font-family="Times New Roman,serif" font-weight="bold" font-size="14.00">BLOCK</text>
<text text-anchor="start" x="1631.5" y="-92.5" font-family="Times New Roman,serif" font-size="10.00">CODE: string (1)</text>
<text text-anchor="start" x="1635" y="-82.5" font-family="Times New Roman,serif" font-size="10.00">ORDER: int (1)</text>
<text text-anchor="start" x="1607" y="-72.5" font-family="Times New Roman,serif" font-size="10.00">ARGUMENT_INDEX: int (1)</text>
<text text-anchor="start" x="1602" y="-62.5" font-family="Times New Roman,serif" font-size="10.00">TYPE_FULL_NAME: string (1)</text>
<text text-anchor="start" x="1559" y="-52.5" font-family="Times New Roman,serif" font-size="10.00">DYNAMIC_TYPE_HINT_FULL_NAME: string (0:n)</text>
<text text-anchor="start" x="1614.5" y="-42.5" font-family="Times New Roman,serif" font-size="10.00">LINE_NUMBER: int (0:1)</text>
<text text-anchor="start" x="1604" y="-32.5" font-family="Times New Roman,serif" font-size="10.00">COLUMN_NUMBER: int (0:1)</text>
</g>
<!-- IDENTIFIER&#45;&gt;BLOCK -->
<g id="edge11" class="edge">
<title>IDENTIFIER&#45;&gt;BLOCK</title>
<path fill="none" stroke="blue" d="M1664.5,-179.32C1664.5,-179.32 1664.5,-127.75 1664.5,-127.75"/>
<polygon fill="blue" stroke="blue" points="1668,-127.75 1664.5,-117.75 1661,-127.75 1668,-127.75"/>
<text text-anchor="middle" x="1655.5" y="-156.13" font-family="Times New Roman,serif" font-size="8.00">CFG </text>
</g>
<!-- METHOD_REF -->
<g id="node10" class="node">
<title>METHOD_REF</title>
<polygon fill="none" stroke="black" points="1796,-15.5 1796,-127.5 2023,-127.5 2023,-15.5 1796,-15.5"/>
<text text-anchor="start" x="1858" y="-113.3" font-family="Times New Roman,serif" font-weight="bold" font-size="14.00">METHOD_REF</text>
<text text-anchor="start" x="1876.5" y="-102.5" font-family="Times New Roman,serif" font-size="10.00">CODE: string (1)</text>
<text text-anchor="start" x="1880" y="-92.5" font-family="Times New Roman,serif" font-size="10.00">ORDER: int (1)</text>
<text text-anchor="start" x="1852" y="-82.5" font-family="Times New Roman,serif" font-size="10.00">ARGUMENT_INDEX: int (1)</text>
<text text-anchor="start" x="1847" y="-72.5" font-family="Times New Roman,serif" font-size="10.00">TYPE_FULL_NAME: string (1)</text>
<text text-anchor="start" x="1804" y="-62.5" font-family="Times New Roman,serif" font-size="10.00">DYNAMIC_TYPE_HINT_FULL_NAME: string (0:n)</text>
<text text-anchor="start" x="1821.5" y="-52.5" font-family="Times New Roman,serif" font-size="10.00">METHOD_INST_FULL_NAME: string (0:1)</text>
<text text-anchor="start" x="1838" y="-42.5" font-family="Times New Roman,serif" font-size="10.00">METHOD_FULL_NAME: string (1)</text>
<text text-anchor="start" x="1859.5" y="-32.5" font-family="Times New Roman,serif" font-size="10.00">LINE_NUMBER: int (0:1)</text>
<text text-anchor="start" x="1849" y="-22.5" font-family="Times New Roman,serif" font-size="10.00">COLUMN_NUMBER: int (0:1)</text>
</g>
<!-- IDENTIFIER&#45;&gt;METHOD_REF -->
<g id="edge7" class="edge">
<title>IDENTIFIER&#45;&gt;METHOD_REF</title>
<path fill="none" stroke="blue" d="M1778.03,-191C1842.12,-191 1909.5,-191 1909.5,-191 1909.5,-191 1909.5,-137.75 1909.5,-137.75"/>
<polygon fill="blue" stroke="blue" points="1913,-137.75 1909.5,-127.75 1906,-137.75 1913,-137.75"/>
<text text-anchor="middle" x="1861.39" y="-193.6" font-family="Times New Roman,serif" font-size="8.00">CFG </text>
</g>
<!-- TYPE_REF -->
<g id="node11" class="node">
<title>TYPE_REF</title>
<polygon fill="none" stroke="black" points="2041,-25.5 2041,-117.5 2268,-117.5 2268,-25.5 2041,-25.5"/>
<text text-anchor="start" x="2116.5" y="-103.3" font-family="Times New Roman,serif" font-weight="bold" font-size="14.00">TYPE_REF</text>
<text text-anchor="start" x="2121.5" y="-92.5" font-family="Times New Roman,serif" font-size="10.00">CODE: string (1)</text>
<text text-anchor="start" x="2125" y="-82.5" font-family="Times New Roman,serif" font-size="10.00">ORDER: int (1)</text>
<text text-anchor="start" x="2097" y="-72.5" font-family="Times New Roman,serif" font-size="10.00">ARGUMENT_INDEX: int (1)</text>
<text text-anchor="start" x="2092" y="-62.5" font-family="Times New Roman,serif" font-size="10.00">TYPE_FULL_NAME: string (1)</text>
<text text-anchor="start" x="2049" y="-52.5" font-family="Times New Roman,serif" font-size="10.00">DYNAMIC_TYPE_HINT_FULL_NAME: string (0:n)</text>
<text text-anchor="start" x="2104.5" y="-42.5" font-family="Times New Roman,serif" font-size="10.00">LINE_NUMBER: int (0:1)</text>
<text text-anchor="start" x="2094" y="-32.5" font-family="Times New Roman,serif" font-size="10.00">COLUMN_NUMBER: int (0:1)</text>
</g>
<!-- IDENTIFIER&#45;&gt;TYPE_REF -->
<g id="edge8" class="edge">
<title>IDENTIFIER&#45;&gt;TYPE_REF</title>
<path fill="none" stroke="blue" d="M1778.15,-204C1922.9,-204 2154.5,-204 2154.5,-204 2154.5,-204 2154.5,-127.84 2154.5,-127.84"/>
<polygon fill="blue" stroke="blue" points="2158,-127.84 2154.5,-117.84 2151,-127.84 2158,-127.84"/>
<text text-anchor="middle" x="1995.4" y="-206.6" font-family="Times New Roman,serif" font-size="8.00">CFG </text>
</g>
<!-- CONTROL_STRUCTURE -->
<g id="node12" class="node">
<title>CONTROL_STRUCTURE</title>
<polygon fill="none" stroke="black" points="2286,-30.5 2286,-112.5 2471,-112.5 2471,-30.5 2286,-30.5"/>
<text text-anchor="start" x="2294" y="-98.3" font-family="Times New Roman,serif" font-weight="bold" font-size="14.00">CONTROL_STRUCTURE</text>
<text text-anchor="start" x="2345.5" y="-87.5" font-family="Times New Roman,serif" font-size="10.00">CODE: string (1)</text>
<text text-anchor="start" x="2318" y="-77.5" font-family="Times New Roman,serif" font-size="10.00">COLUMN_NUMBER: int (0:1)</text>
<text text-anchor="start" x="2328.5" y="-67.5" font-family="Times New Roman,serif" font-size="10.00">LINE_NUMBER: int (0:1)</text>
<text text-anchor="start" x="2349" y="-57.5" font-family="Times New Roman,serif" font-size="10.00">ORDER: int (1)</text>
<text text-anchor="start" x="2309.5" y="-47.5" font-family="Times New Roman,serif" font-size="10.00">PARSER_TYPE_NAME: string (1)</text>
<text text-anchor="start" x="2321" y="-37.5" font-family="Times New Roman,serif" font-size="10.00">ARGUMENT_INDEX: int (1)</text>
</g>
<!-- IDENTIFIER&#45;&gt;CONTROL_STRUCTURE -->
<g id="edge13" class="edge">
<title>IDENTIFIER&#45;&gt;CONTROL_STRUCTURE</title>
<path fill="none" stroke="blue" d="M1778.03,-217C1979.49,-217 2378.5,-217 2378.5,-217 2378.5,-217 2378.5,-122.81 2378.5,-122.81"/>
<polygon fill="blue" stroke="blue" points="2382,-122.81 2378.5,-112.81 2375,-122.81 2382,-122.81"/>
<text text-anchor="middle" x="2116.36" y="-219.6" font-family="Times New Roman,serif" font-size="8.00">CFG </text>
</g>
<!-- JUMP_TARGET -->
<g id="node13" class="node">
<title>JUMP_TARGET</title>
<polygon fill="none" stroke="black" points="2489.5,-20.5 2489.5,-122.5 2643.5,-122.5 2643.5,-20.5 2489.5,-20.5"/>
<text text-anchor="start" x="2512" y="-108.3" font-family="Times New Roman,serif" font-weight="bold" font-size="14.00">JUMP_TARGET</text>
<text text-anchor="start" x="2533.5" y="-97.5" font-family="Times New Roman,serif" font-size="10.00">CODE: string (1)</text>
<text text-anchor="start" x="2531.5" y="-87.5" font-family="Times New Roman,serif" font-size="10.00">NAME: string (1)</text>
<text text-anchor="start" x="2506" y="-77.5" font-family="Times New Roman,serif" font-size="10.00">COLUMN_NUMBER: int (0:1)</text>
<text text-anchor="start" x="2516.5" y="-67.5" font-family="Times New Roman,serif" font-size="10.00">LINE_NUMBER: int (0:1)</text>
<text text-anchor="start" x="2537" y="-57.5" font-family="Times New Roman,serif" font-size="10.00">ORDER: int (1)</text>
<text text-anchor="start" x="2497.5" y="-47.5" font-family="Times New Roman,serif" font-size="10.00">PARSER_TYPE_NAME: string (1)</text>
<text text-anchor="start" x="2509" y="-37.5" font-family="Times New Roman,serif" font-size="10.00">ARGUMENT_INDEX: int (1)</text>
<text text-anchor="start" x="2524.5" y="-27.5" font-family="Times New Roman,serif" font-size="10.00">INTERNAL_FLAGS </text>
</g>
<!-- IDENTIFIER&#45;&gt;JUMP_TARGET -->
<g id="edge12" class="edge">
<title>IDENTIFIER&#45;&gt;JUMP_TARGET</title>
<path fill="none" stroke="blue" d="M1778.28,-230C2020.77,-230 2566.5,-230 2566.5,-230 2566.5,-230 2566.5,-132.52 2566.5,-132.52"/>
<polygon fill="blue" stroke="blue" points="2570,-132.52 2566.5,-122.52 2563,-132.52 2570,-132.52"/>
<text text-anchor="middle" x="2212.13" y="-232.6" font-family="Times New Roman,serif" font-size="8.00">CFG </text>
</g>
<!-- UNKNOWN -->
<g id="node14" class="node">
<title>UNKNOWN</title>
<polygon fill="none" stroke="black" points="2662,-20.5 2662,-122.5 2889,-122.5 2889,-20.5 2662,-20.5"/>
<text text-anchor="start" x="2736.5" y="-108.3" font-family="Times New Roman,serif" font-weight="bold" font-size="14.00">UNKNOWN</text>
<text text-anchor="start" x="2742.5" y="-97.5" font-family="Times New Roman,serif" font-size="10.00">CODE: string (1)</text>
<text text-anchor="start" x="2706.5" y="-87.5" font-family="Times New Roman,serif" font-size="10.00">PARSER_TYPE_NAME: string (1)</text>
<text text-anchor="start" x="2746" y="-77.5" font-family="Times New Roman,serif" font-size="10.00">ORDER: int (1)</text>
<text text-anchor="start" x="2718" y="-67.5" font-family="Times New Roman,serif" font-size="10.00">ARGUMENT_INDEX: int (1)</text>
<text text-anchor="start" x="2713" y="-57.5" font-family="Times New Roman,serif" font-size="10.00">TYPE_FULL_NAME: string (1)</text>
<text text-anchor="start" x="2670" y="-47.5" font-family="Times New Roman,serif" font-size="10.00">DYNAMIC_TYPE_HINT_FULL_NAME: string (0:n)</text>
<text text-anchor="start" x="2725.5" y="-37.5" font-family="Times New Roman,serif" font-size="10.00">LINE_NUMBER: int (0:1)</text>
<text text-anchor="start" x="2715" y="-27.5" font-family="Times New Roman,serif" font-size="10.00">COLUMN_NUMBER: int (0:1)</text>
</g>
<!-- IDENTIFIER&#45;&gt;UNKNOWN -->
<g id="edge14" class="edge">
<title>IDENTIFIER&#45;&gt;UNKNOWN</title>
<path fill="none" stroke="blue" d="M1778.18,-243C2061.33,-243 2775.5,-243 2775.5,-243 2775.5,-243 2775.5,-132.96 2775.5,-132.96"/>
<polygon fill="blue" stroke="blue" points="2779,-132.96 2775.5,-122.96 2772,-132.96 2779,-132.96"/>
<text text-anchor="middle" x="2322.86" y="-245.6" font-family="Times New Roman,serif" font-size="8.00">CFG </text>
</g>
<!-- EXPRESSION -->
<g id="node15" class="node">
<title>EXPRESSION</title>
<polygon fill="none" stroke="black" points="2907,-45.5 2907,-97.5 3038,-97.5 3038,-45.5 2907,-45.5"/>
<text text-anchor="start" x="2926" y="-83.3" font-family="Times New Roman,serif" font-weight="bold" font-size="14.00">EXPRESSION</text>
<text text-anchor="start" x="2939.5" y="-72.5" font-family="Times New Roman,serif" font-size="10.00">CODE: string (1)</text>
<text text-anchor="start" x="2943" y="-62.5" font-family="Times New Roman,serif" font-size="10.00">ORDER: int (1)</text>
<text text-anchor="start" x="2915" y="-52.5" font-family="Times New Roman,serif" font-size="10.00">ARGUMENT_INDEX: int (1)</text>
</g>
<!-- IDENTIFIER&#45;&gt;EXPRESSION -->
<g id="edge15" class="edge">
<title>IDENTIFIER&#45;&gt;EXPRESSION</title>
<path fill="none" stroke="gray" d="M1778,-256C2095.99,-256 2972.5,-256 2972.5,-256 2972.5,-256 2972.5,-107.54 2972.5,-107.54"/>
<polygon fill="none" stroke="gray" points="2976,-107.54 2972.5,-97.54 2969,-107.54 2976,-107.54"/>
<text text-anchor="middle" x="2446.48" y="-258.6" font-family="Times New Roman,serif" font-size="8.00">is</text>
</g>
<!-- LOCAL_LIKE -->
<g id="node16" class="node">
<title>LOCAL_LIKE</title>
<polygon fill="none" stroke="black" points="3056.5,-53.5 3056.5,-89.5 3164.5,-89.5 3164.5,-53.5 3056.5,-53.5"/>
<text text-anchor="start" x="3064.5" y="-73.3" font-family="Times New Roman,serif" font-weight="bold" font-size="14.00">LOCAL_LIKE</text>
<text text-anchor="start" x="3075.5" y="-62.5" font-family="Times New Roman,serif" font-size="10.00">NAME: string (1)</text>
</g>
<!-- IDENTIFIER&#45;&gt;LOCAL_LIKE -->
<g id="edge16" class="edge">
<title>IDENTIFIER&#45;&gt;LOCAL_LIKE</title>
<path fill="none" stroke="gray" d="M1778.27,-269C2119.43,-269 3110.5,-269 3110.5,-269 3110.5,-269 3110.5,-99.73 3110.5,-99.73"/>
<polygon fill="none" stroke="gray" points="3114,-99.73 3110.5,-89.73 3107,-99.73 3114,-99.73"/>
<text text-anchor="middle" x="2526.02" y="-271.6" font-family="Times New Roman,serif" font-size="8.00">is</text>
</g>
</g>
</svg>
