<?xml version="1.0" encoding="UTF-8" standalone="no"?>
<!DOCTYPE svg PUBLIC "-//W3C//DTD SVG 1.1//EN"
 "http://www.w3.org/Graphics/SVG/1.1/DTD/svg11.dtd">
<!-- Generated by graphviz version 2.44.1 (0)
 -->
<!-- Title: cpgschema Pages: 1 -->
<svg width="2054pt" height="211pt"
 viewBox="0.00 0.00 2053.79 211.00" xmlns="http://www.w3.org/2000/svg" xmlns:xlink="http://www.w3.org/1999/xlink">
<g id="graph0" class="graph" transform="scale(1 1) rotate(0) translate(4 207)">
<title>cpgschema</title>
<polygon fill="white" stroke="transparent" points="-4,4 -4,-207 2049.79,-207 2049.79,4 -4,4"/>
<!-- JUMP_TARGET -->
<g id="node1" class="node">
<title>JUMP_TARGET</title>
<polygon fill="none" stroke="black" points="727.75,-72.5 727.75,-174.5 861.75,-174.5 861.75,-72.5 727.75,-72.5"/>
<text text-anchor="start" x="735.75" y="-160.3" font-family="Times,serif" font-weight="bold" font-size="14.00">JUMP_TARGET</text>
<text text-anchor="start" x="778.75" y="-149.5" font-family="Times,serif" font-size="10.00">CODE</text>
<text text-anchor="start" x="777.25" y="-139.5" font-family="Times,serif" font-size="10.00">NAME</text>
<text text-anchor="start" x="741.75" y="-129.5" font-family="Times,serif" font-size="10.00">COLUMN_NUMBER</text>
<text text-anchor="start" x="753.25" y="-119.5" font-family="Times,serif" font-size="10.00">LINE_NUMBER</text>
<text text-anchor="start" x="774.75" y="-109.5" font-family="Times,serif" font-size="10.00">ORDER</text>
<text text-anchor="start" x="736.75" y="-99.5" font-family="Times,serif" font-size="10.00">PARSER_TYPE_NAME</text>
<text text-anchor="start" x="741.75" y="-89.5" font-family="Times,serif" font-size="10.00">ARGUMENT_INDEX</text>
<text text-anchor="start" x="744.75" y="-79.5" font-family="Times,serif" font-size="10.00">INTERNAL_FLAGS</text>
</g>
<!-- JUMP_TARGET&#45;&gt;JUMP_TARGET -->
<g id="edge9" class="edge">
<title>JUMP_TARGET&#45;&gt;JUMP_TARGET</title>
<path fill="none" stroke="blue" d="M754.55,-174.83C754.55,-179.2 754.55,-182 754.55,-182 754.55,-182 725.29,-182 725.29,-182 725.29,-182 725.29,-64 725.29,-64 725.29,-64 742.64,-64 742.64,-64 742.64,-64 742.64,-64.83 742.64,-64.83"/>
<polygon fill="blue" stroke="blue" points="739.14,-62.27 742.64,-72.27 746.14,-62.27 739.14,-62.27"/>
<text text-anchor="middle" x="714.79" y="-125.73" font-family="Times,serif" font-size="8.00">CFG </text>
</g>
<!-- JUMP_TARGET&#45;&gt;JUMP_TARGET -->
<g id="edge20" class="edge">
<title>JUMP_TARGET&#45;&gt;JUMP_TARGET</title>
<path fill="none" stroke="black" d="M781.35,-174.79C781.35,-183.07 781.35,-189 781.35,-189 781.35,-189 722.83,-189 722.83,-189 722.83,-189 722.83,-57 722.83,-57 722.83,-57 757.52,-57 757.52,-57 757.52,-57 757.52,-62.42 757.52,-62.42"/>
<polygon fill="black" stroke="black" points="754.02,-62.42 757.52,-72.42 761.02,-62.42 754.02,-62.42"/>
<text text-anchor="middle" x="697.33" y="-141.91" font-family="Times,serif" font-size="8.00">DOMINATE </text>
</g>
<!-- JUMP_TARGET&#45;&gt;JUMP_TARGET -->
<g id="edge31" class="edge">
<title>JUMP_TARGET&#45;&gt;JUMP_TARGET</title>
<path fill="none" stroke="black" d="M808.15,-174.64C808.15,-186.64 808.15,-196 808.15,-196 808.15,-196 720.37,-196 720.37,-196 720.37,-196 720.37,-50 720.37,-50 720.37,-50 772.41,-50 772.41,-50 772.41,-50 772.41,-62.45 772.41,-62.45"/>
<polygon fill="black" stroke="black" points="768.91,-62.45 772.41,-72.45 775.91,-62.45 768.91,-62.45"/>
<text text-anchor="middle" x="681.87" y="-147.92" font-family="Times,serif" font-size="8.00">POST_DOMINATE </text>
</g>
<!-- JUMP_TARGET&#45;&gt;JUMP_TARGET -->
<g id="edge44" class="edge">
<title>JUMP_TARGET&#45;&gt;JUMP_TARGET</title>
<path fill="none" stroke="black" d="M834.95,-174.75C834.95,-190.13 834.95,-203 834.95,-203 834.95,-203 717.91,-203 717.91,-203 717.91,-203 717.91,-43 717.91,-43 717.91,-43 787.3,-43 787.3,-43 787.3,-43 787.3,-62.06 787.3,-62.06"/>
<polygon fill="black" stroke="black" points="783.8,-62.06 787.3,-72.06 790.8,-62.06 783.8,-62.06"/>
<text text-anchor="middle" x="706.91" y="-154.02" font-family="Times,serif" font-size="8.00">CDG </text>
</g>
<!-- CALL -->
<g id="node2" class="node">
<title>CALL</title>
<ellipse fill="none" stroke="black" cx="35.75" cy="-18" rx="36" ry="18"/>
<text text-anchor="middle" x="35.75" y="-14.3" font-family="Times,serif" font-size="14.00">CALL</text>
</g>
<!-- JUMP_TARGET&#45;&gt;CALL -->
<g id="edge1" class="edge">
<title>JUMP_TARGET&#45;&gt;CALL</title>
<path fill="none" stroke="blue" d="M727.53,-170C538.22,-170 14.3,-170 14.3,-170 14.3,-170 14.3,-42.57 14.3,-42.57"/>
<polygon fill="blue" stroke="blue" points="17.8,-42.57 14.3,-32.57 10.8,-42.57 17.8,-42.57"/>
<text text-anchor="middle" x="296.7" y="-172.6" font-family="Times,serif" font-size="8.00">CFG </text>
</g>
<!-- JUMP_TARGET&#45;&gt;CALL -->
<g id="edge12" class="edge">
<title>JUMP_TARGET&#45;&gt;CALL</title>
<path fill="none" stroke="black" d="M727.43,-165C540.47,-165 28.6,-165 28.6,-165 28.6,-165 28.6,-45.73 28.6,-45.73"/>
<polygon fill="black" stroke="black" points="32.1,-45.73 28.6,-35.73 25.1,-45.73 32.1,-45.73"/>
<text text-anchor="middle" x="292.88" y="-158.6" font-family="Times,serif" font-size="8.00">DOMINATE </text>
</g>
<!-- JUMP_TARGET&#45;&gt;CALL -->
<g id="edge23" class="edge">
<title>JUMP_TARGET&#45;&gt;CALL</title>
<path fill="none" stroke="black" d="M727.69,-160C543.42,-160 42.9,-160 42.9,-160 42.9,-160 42.9,-45.7 42.9,-45.7"/>
<polygon fill="black" stroke="black" points="46.4,-45.7 42.9,-35.7 39.4,-45.7 46.4,-45.7"/>
<text text-anchor="middle" x="366.64" y="-162.6" font-family="Times,serif" font-size="8.00">POST_DOMINATE </text>
</g>
<!-- JUMP_TARGET&#45;&gt;CALL -->
<g id="edge34" class="edge">
<title>JUMP_TARGET&#45;&gt;CALL</title>
<path fill="none" stroke="black" d="M727.67,-155C545.85,-155 57.19,-155 57.19,-155 57.19,-155 57.19,-42.4 57.19,-42.4"/>
<polygon fill="black" stroke="black" points="60.7,-42.4 57.19,-32.4 53.7,-42.4 60.7,-42.4"/>
<text text-anchor="middle" x="325.13" y="-148.6" font-family="Times,serif" font-size="8.00">CDG </text>
</g>
<!-- IDENTIFIER -->
<g id="node3" class="node">
<title>IDENTIFIER</title>
<ellipse fill="none" stroke="black" cx="158.75" cy="-18" rx="68.79" ry="18"/>
<text text-anchor="middle" x="158.75" y="-14.3" font-family="Times,serif" font-size="14.00">IDENTIFIER</text>
</g>
<!-- JUMP_TARGET&#45;&gt;IDENTIFIER -->
<g id="edge2" class="edge">
<title>JUMP_TARGET&#45;&gt;IDENTIFIER</title>
<path fill="none" stroke="blue" d="M727.64,-150C556.53,-150 117.41,-150 117.41,-150 117.41,-150 117.41,-42.63 117.41,-42.63"/>
<polygon fill="blue" stroke="blue" points="120.91,-42.63 117.41,-32.63 113.91,-42.63 120.91,-42.63"/>
<text text-anchor="middle" x="358.34" y="-152.6" font-family="Times,serif" font-size="8.00">CFG </text>
</g>
<!-- JUMP_TARGET&#45;&gt;IDENTIFIER -->
<g id="edge13" class="edge">
<title>JUMP_TARGET&#45;&gt;IDENTIFIER</title>
<path fill="none" stroke="black" d="M727.66,-145C561.64,-145 144.97,-145 144.97,-145 144.97,-145 144.97,-45.66 144.97,-45.66"/>
<polygon fill="black" stroke="black" points="148.47,-45.66 144.97,-35.66 141.47,-45.66 148.47,-45.66"/>
<text text-anchor="middle" x="361.14" y="-138.6" font-family="Times,serif" font-size="8.00">DOMINATE </text>
</g>
<!-- JUMP_TARGET&#45;&gt;IDENTIFIER -->
<g id="edge24" class="edge">
<title>JUMP_TARGET&#45;&gt;IDENTIFIER</title>
<path fill="none" stroke="black" d="M727.57,-140C566.67,-140 172.53,-140 172.53,-140 172.53,-140 172.53,-45.74 172.53,-45.74"/>
<polygon fill="black" stroke="black" points="176.03,-45.74 172.53,-35.74 169.03,-45.74 176.03,-45.74"/>
<text text-anchor="middle" x="441.42" y="-142.6" font-family="Times,serif" font-size="8.00">POST_DOMINATE </text>
</g>
<!-- JUMP_TARGET&#45;&gt;IDENTIFIER -->
<g id="edge35" class="edge">
<title>JUMP_TARGET&#45;&gt;IDENTIFIER</title>
<path fill="none" stroke="black" d="M727.69,-135C572.17,-135 200.08,-135 200.08,-135 200.08,-135 200.08,-42.82 200.08,-42.82"/>
<polygon fill="black" stroke="black" points="203.58,-42.82 200.08,-32.82 196.58,-42.82 203.58,-42.82"/>
<text text-anchor="middle" x="406.79" y="-128.6" font-family="Times,serif" font-size="8.00">CDG </text>
</g>
<!-- FIELD_IDENTIFIER -->
<g id="node4" class="node">
<title>FIELD_IDENTIFIER</title>
<ellipse fill="none" stroke="black" cx="348.75" cy="-18" rx="102.88" ry="18"/>
<text text-anchor="middle" x="348.75" y="-14.3" font-family="Times,serif" font-size="14.00">FIELD_IDENTIFIER</text>
</g>
<!-- JUMP_TARGET&#45;&gt;FIELD_IDENTIFIER -->
<g id="edge3" class="edge">
<title>JUMP_TARGET&#45;&gt;FIELD_IDENTIFIER</title>
<path fill="none" stroke="blue" d="M727.6,-130C589.64,-130 287.13,-130 287.13,-130 287.13,-130 287.13,-42.64 287.13,-42.64"/>
<polygon fill="blue" stroke="blue" points="290.63,-42.64 287.13,-32.64 283.63,-42.64 290.63,-42.64"/>
<text text-anchor="middle" x="453.19" y="-132.6" font-family="Times,serif" font-size="8.00">CFG </text>
</g>
<!-- JUMP_TARGET&#45;&gt;FIELD_IDENTIFIER -->
<g id="edge14" class="edge">
<title>JUMP_TARGET&#45;&gt;FIELD_IDENTIFIER</title>
<path fill="none" stroke="black" d="M727.41,-125C598.21,-125 328.21,-125 328.21,-125 328.21,-125 328.21,-45.67 328.21,-45.67"/>
<polygon fill="black" stroke="black" points="331.71,-45.67 328.21,-35.67 324.71,-45.67 331.71,-45.67"/>
<text text-anchor="middle" x="462.64" y="-118.6" font-family="Times,serif" font-size="8.00">DOMINATE </text>
</g>
<!-- JUMP_TARGET&#45;&gt;FIELD_IDENTIFIER -->
<g id="edge25" class="edge">
<title>JUMP_TARGET&#45;&gt;FIELD_IDENTIFIER</title>
<path fill="none" stroke="black" d="M727.33,-121C607.36,-121 369.29,-121 369.29,-121 369.29,-121 369.29,-45.94 369.29,-45.94"/>
<polygon fill="black" stroke="black" points="372.79,-45.94 369.29,-35.94 365.79,-45.94 372.79,-45.94"/>
<text text-anchor="middle" x="549.28" y="-123.6" font-family="Times,serif" font-size="8.00">POST_DOMINATE </text>
</g>
<!-- JUMP_TARGET&#45;&gt;FIELD_IDENTIFIER -->
<g id="edge36" class="edge">
<title>JUMP_TARGET&#45;&gt;FIELD_IDENTIFIER</title>
<path fill="none" stroke="black" d="M727.35,-116C617.11,-116 410.36,-116 410.36,-116 410.36,-116 410.36,-42.46 410.36,-42.46"/>
<polygon fill="black" stroke="black" points="413.86,-42.46 410.36,-32.46 406.86,-42.46 413.86,-42.46"/>
<text text-anchor="middle" x="521.09" y="-109.6" font-family="Times,serif" font-size="8.00">CDG </text>
</g>
<!-- LITERAL -->
<g id="node5" class="node">
<title>LITERAL</title>
<ellipse fill="none" stroke="black" cx="521.75" cy="-18" rx="51.99" ry="18"/>
<text text-anchor="middle" x="521.75" y="-14.3" font-family="Times,serif" font-size="14.00">LITERAL</text>
</g>
<!-- JUMP_TARGET&#45;&gt;LITERAL -->
<g id="edge4" class="edge">
<title>JUMP_TARGET&#45;&gt;LITERAL</title>
<path fill="none" stroke="blue" d="M727.61,-111C638.03,-111 490.55,-111 490.55,-111 490.55,-111 490.55,-42.53 490.55,-42.53"/>
<polygon fill="blue" stroke="blue" points="494.05,-42.53 490.55,-32.53 487.05,-42.53 494.05,-42.53"/>
<text text-anchor="middle" x="564.35" y="-113.6" font-family="Times,serif" font-size="8.00">CFG </text>
</g>
<!-- JUMP_TARGET&#45;&gt;LITERAL -->
<g id="edge15" class="edge">
<title>JUMP_TARGET&#45;&gt;LITERAL</title>
<path fill="none" stroke="black" d="M727.59,-106C643.78,-106 511.35,-106 511.35,-106 511.35,-106 511.35,-45.81 511.35,-45.81"/>
<polygon fill="black" stroke="black" points="514.85,-45.81 511.35,-35.81 507.85,-45.81 514.85,-45.81"/>
<text text-anchor="middle" x="563.87" y="-99.6" font-family="Times,serif" font-size="8.00">DOMINATE </text>
</g>
<!-- JUMP_TARGET&#45;&gt;LITERAL -->
<g id="edge26" class="edge">
<title>JUMP_TARGET&#45;&gt;LITERAL</title>
<path fill="none" stroke="black" d="M727.46,-101C649.66,-101 532.15,-101 532.15,-101 532.15,-101 532.15,-46.01 532.15,-46.01"/>
<polygon fill="black" stroke="black" points="535.65,-46.01 532.15,-36.01 528.65,-46.01 535.65,-46.01"/>
<text text-anchor="middle" x="640.81" y="-103.6" font-family="Times,serif" font-size="8.00">POST_DOMINATE </text>
</g>
<!-- JUMP_TARGET&#45;&gt;LITERAL -->
<g id="edge37" class="edge">
<title>JUMP_TARGET&#45;&gt;LITERAL</title>
<path fill="none" stroke="black" d="M727.71,-96C656.15,-96 552.94,-96 552.94,-96 552.94,-96 552.94,-42.67 552.94,-42.67"/>
<polygon fill="black" stroke="black" points="556.44,-42.67 552.94,-32.67 549.44,-42.67 556.44,-42.67"/>
<text text-anchor="middle" x="602.66" y="-89.6" font-family="Times,serif" font-size="8.00">CDG </text>
</g>
<!-- RETURN -->
<g id="node6" class="node">
<title>RETURN</title>
<ellipse fill="none" stroke="black" cx="644.75" cy="-18" rx="52.79" ry="18"/>
<text text-anchor="middle" x="644.75" y="-14.3" font-family="Times,serif" font-size="14.00">RETURN</text>
</g>
<!-- JUMP_TARGET&#45;&gt;RETURN -->
<g id="edge5" class="edge">
<title>JUMP_TARGET&#45;&gt;RETURN</title>
<path fill="none" stroke="blue" d="M727.65,-91C675.92,-91 613.16,-91 613.16,-91 613.16,-91 613.16,-42.42 613.16,-42.42"/>
<polygon fill="blue" stroke="blue" points="616.66,-42.42 613.16,-32.42 609.66,-42.42 616.66,-42.42"/>
<text text-anchor="middle" x="635.61" y="-93.6" font-family="Times,serif" font-size="8.00">CFG </text>
</g>
<!-- JUMP_TARGET&#45;&gt;RETURN -->
<g id="edge16" class="edge">
<title>JUMP_TARGET&#45;&gt;RETURN</title>
<path fill="none" stroke="black" d="M727.6,-86C683.61,-86 634.22,-86 634.22,-86 634.22,-86 634.22,-45.87 634.22,-45.87"/>
<polygon fill="black" stroke="black" points="637.72,-45.87 634.22,-35.87 630.72,-45.87 637.72,-45.87"/>
<text text-anchor="middle" x="635.34" y="-79.6" font-family="Times,serif" font-size="8.00">DOMINATE </text>
</g>
<!-- JUMP_TARGET&#45;&gt;RETURN -->
<g id="edge27" class="edge">
<title>JUMP_TARGET&#45;&gt;RETURN</title>
<path fill="none" stroke="black" d="M727.46,-81C691.8,-81 655.28,-81 655.28,-81 655.28,-81 655.28,-45.88 655.28,-45.88"/>
<polygon fill="black" stroke="black" points="658.78,-45.88 655.28,-35.88 651.78,-45.88 658.78,-45.88"/>
<text text-anchor="middle" x="693.06" y="-74.6" font-family="Times,serif" font-size="8.00">POST_DOMINATE </text>
</g>
<!-- JUMP_TARGET&#45;&gt;RETURN -->
<g id="edge40" class="edge">
<title>JUMP_TARGET&#45;&gt;RETURN</title>
<path fill="none" stroke="black" d="M727.58,-76C700.86,-76 676.33,-76 676.33,-76 676.33,-76 676.33,-42.64 676.33,-42.64"/>
<polygon fill="black" stroke="black" points="679.83,-42.64 676.33,-32.64 672.83,-42.64 679.83,-42.64"/>
<text text-anchor="middle" x="674.28" y="-78.6" font-family="Times,serif" font-size="8.00">CDG </text>
</g>
<!-- METHOD_REF -->
<g id="node7" class="node">
<title>METHOD_REF</title>
<ellipse fill="none" stroke="black" cx="794.75" cy="-18" rx="79.09" ry="18"/>
<text text-anchor="middle" x="794.75" y="-14.3" font-family="Times,serif" font-size="14.00">METHOD_REF</text>
</g>
<!-- JUMP_TARGET&#45;&gt;METHOD_REF -->
<g id="edge6" class="edge">
<title>JUMP_TARGET&#45;&gt;METHOD_REF</title>
<path fill="none" stroke="blue" d="M802.19,-72.3C802.19,-72.3 802.19,-46.03 802.19,-46.03"/>
<polygon fill="blue" stroke="blue" points="805.69,-46.03 802.19,-36.03 798.69,-46.03 805.69,-46.03"/>
<text text-anchor="middle" x="791.69" y="-61.77" font-family="Times,serif" font-size="8.00">CFG </text>
</g>
<!-- JUMP_TARGET&#45;&gt;METHOD_REF -->
<g id="edge17" class="edge">
<title>JUMP_TARGET&#45;&gt;METHOD_REF</title>
<path fill="none" stroke="black" d="M817.08,-72.3C817.08,-72.3 817.08,-45.55 817.08,-45.55"/>
<polygon fill="black" stroke="black" points="820.58,-45.55 817.08,-35.55 813.58,-45.55 820.58,-45.55"/>
<text text-anchor="middle" x="791.58" y="-52.52" font-family="Times,serif" font-size="8.00">DOMINATE </text>
</g>
<!-- JUMP_TARGET&#45;&gt;METHOD_REF -->
<g id="edge28" class="edge">
<title>JUMP_TARGET&#45;&gt;METHOD_REF</title>
<path fill="none" stroke="black" d="M831.97,-72.3C831.97,-72.3 831.97,-44.12 831.97,-44.12"/>
<polygon fill="black" stroke="black" points="835.47,-44.12 831.97,-34.12 828.47,-44.12 835.47,-44.12"/>
<text text-anchor="middle" x="870.47" y="-60.81" font-family="Times,serif" font-size="8.00">POST_DOMINATE </text>
</g>
<!-- JUMP_TARGET&#45;&gt;METHOD_REF -->
<g id="edge38" class="edge">
<title>JUMP_TARGET&#45;&gt;METHOD_REF</title>
<path fill="none" stroke="black" d="M846.86,-72.3C846.86,-72.3 846.86,-41.84 846.86,-41.84"/>
<polygon fill="black" stroke="black" points="850.36,-41.84 846.86,-31.84 843.36,-41.84 850.36,-41.84"/>
<text text-anchor="middle" x="835.86" y="-50.67" font-family="Times,serif" font-size="8.00">CDG </text>
</g>
<!-- TYPE_REF -->
<g id="node8" class="node">
<title>TYPE_REF</title>
<ellipse fill="none" stroke="black" cx="951.75" cy="-18" rx="59.59" ry="18"/>
<text text-anchor="middle" x="951.75" y="-14.3" font-family="Times,serif" font-size="14.00">TYPE_REF</text>
</g>
<!-- JUMP_TARGET&#45;&gt;TYPE_REF -->
<g id="edge7" class="edge">
<title>JUMP_TARGET&#45;&gt;TYPE_REF</title>
<path fill="none" stroke="blue" d="M861.94,-92C917.6,-92 987.62,-92 987.62,-92 987.62,-92 987.62,-42.62 987.62,-42.62"/>
<polygon fill="blue" stroke="blue" points="991.12,-42.62 987.62,-32.62 984.12,-42.62 991.12,-42.62"/>
<text text-anchor="middle" x="938.97" y="-94.6" font-family="Times,serif" font-size="8.00">CFG </text>
</g>
<!-- JUMP_TARGET&#45;&gt;TYPE_REF -->
<g id="edge18" class="edge">
<title>JUMP_TARGET&#45;&gt;TYPE_REF</title>
<path fill="none" stroke="black" d="M862.01,-87C909.13,-87 963.71,-87 963.71,-87 963.71,-87 963.71,-45.77 963.71,-45.77"/>
<polygon fill="black" stroke="black" points="967.21,-45.77 963.71,-35.77 960.21,-45.77 967.21,-45.77"/>
<text text-anchor="middle" x="958.97" y="-80.6" font-family="Times,serif" font-size="8.00">DOMINATE </text>
</g>
<!-- JUMP_TARGET&#45;&gt;TYPE_REF -->
<g id="edge29" class="edge">
<title>JUMP_TARGET&#45;&gt;TYPE_REF</title>
<path fill="none" stroke="black" d="M861.75,-82C899.75,-82 939.79,-82 939.79,-82 939.79,-82 939.79,-45.83 939.79,-45.83"/>
<polygon fill="black" stroke="black" points="943.29,-45.83 939.79,-35.83 936.29,-45.83 943.29,-45.83"/>
<text text-anchor="middle" x="899.6" y="-75.6" font-family="Times,serif" font-size="8.00">POST_DOMINATE </text>
</g>
<!-- JUMP_TARGET&#45;&gt;TYPE_REF -->
<g id="edge39" class="edge">
<title>JUMP_TARGET&#45;&gt;TYPE_REF</title>
<path fill="none" stroke="black" d="M862.04,-77C889.92,-77 915.87,-77 915.87,-77 915.87,-77 915.87,-42.58 915.87,-42.58"/>
<polygon fill="black" stroke="black" points="919.37,-42.58 915.87,-32.58 912.37,-42.58 919.37,-42.58"/>
<text text-anchor="middle" x="895.16" y="-79.6" font-family="Times,serif" font-size="8.00">CDG </text>
</g>
<!-- BLOCK -->
<g id="node9" class="node">
<title>BLOCK</title>
<ellipse fill="none" stroke="black" cx="1073.75" cy="-18" rx="44.39" ry="18"/>
<text text-anchor="middle" x="1073.75" y="-14.3" font-family="Times,serif" font-size="14.00">BLOCK</text>
</g>
<!-- JUMP_TARGET&#45;&gt;BLOCK -->
<g id="edge8" class="edge">
<title>JUMP_TARGET&#45;&gt;BLOCK</title>
<path fill="none" stroke="blue" d="M861.79,-113C951.73,-113 1100.26,-113 1100.26,-113 1100.26,-113 1100.26,-42.43 1100.26,-42.43"/>
<polygon fill="blue" stroke="blue" points="1103.76,-42.43 1100.26,-32.43 1096.76,-42.43 1103.76,-42.43"/>
<text text-anchor="middle" x="1005.81" y="-115.6" font-family="Times,serif" font-size="8.00">CFG </text>
</g>
<!-- JUMP_TARGET&#45;&gt;BLOCK -->
<g id="edge19" class="edge">
<title>JUMP_TARGET&#45;&gt;BLOCK</title>
<path fill="none" stroke="black" d="M861.87,-108C946.92,-108 1082.59,-108 1082.59,-108 1082.59,-108 1082.59,-45.78 1082.59,-45.78"/>
<polygon fill="black" stroke="black" points="1086.09,-45.78 1082.59,-35.78 1079.09,-45.78 1086.09,-45.78"/>
<text text-anchor="middle" x="1028.84" y="-101.6" font-family="Times,serif" font-size="8.00">DOMINATE </text>
</g>
<!-- JUMP_TARGET&#45;&gt;BLOCK -->
<g id="edge30" class="edge">
<title>JUMP_TARGET&#45;&gt;BLOCK</title>
<path fill="none" stroke="black" d="M861.88,-102C941.89,-102 1064.91,-102 1064.91,-102 1064.91,-102 1064.91,-45.81 1064.91,-45.81"/>
<polygon fill="black" stroke="black" points="1068.41,-45.81 1064.91,-35.81 1061.41,-45.81 1068.41,-45.81"/>
<text text-anchor="middle" x="952.98" y="-104.6" font-family="Times,serif" font-size="8.00">POST_DOMINATE </text>
</g>
<!-- JUMP_TARGET&#45;&gt;BLOCK -->
<g id="edge41" class="edge">
<title>JUMP_TARGET&#45;&gt;BLOCK</title>
<path fill="none" stroke="black" d="M862.08,-97C936.87,-97 1047.23,-97 1047.23,-97 1047.23,-97 1047.23,-42.49 1047.23,-42.49"/>
<polygon fill="black" stroke="black" points="1050.73,-42.49 1047.23,-32.49 1043.73,-42.49 1050.73,-42.49"/>
<text text-anchor="middle" x="970.91" y="-90.6" font-family="Times,serif" font-size="8.00">CDG </text>
</g>
<!-- CONTROL_STRUCTURE -->
<g id="node10" class="node">
<title>CONTROL_STRUCTURE</title>
<ellipse fill="none" stroke="black" cx="1259.75" cy="-18" rx="124.28" ry="18"/>
<text text-anchor="middle" x="1259.75" y="-14.3" font-family="Times,serif" font-size="14.00">CONTROL_STRUCTURE</text>
</g>
<!-- JUMP_TARGET&#45;&gt;CONTROL_STRUCTURE -->
<g id="edge10" class="edge">
<title>JUMP_TARGET&#45;&gt;CONTROL_STRUCTURE</title>
<path fill="none" stroke="blue" d="M861.98,-133C1006.6,-133 1334.23,-133 1334.23,-133 1334.23,-133 1334.23,-42.56 1334.23,-42.56"/>
<polygon fill="blue" stroke="blue" points="1337.73,-42.56 1334.23,-32.56 1330.73,-42.56 1337.73,-42.56"/>
<text text-anchor="middle" x="1132.82" y="-135.6" font-family="Times,serif" font-size="8.00">CFG </text>
</g>
<!-- JUMP_TARGET&#45;&gt;CONTROL_STRUCTURE -->
<g id="edge21" class="edge">
<title>JUMP_TARGET&#45;&gt;CONTROL_STRUCTURE</title>
<path fill="none" stroke="black" d="M861.83,-128C995.98,-128 1284.57,-128 1284.57,-128 1284.57,-128 1284.57,-45.67 1284.57,-45.67"/>
<polygon fill="black" stroke="black" points="1288.07,-45.67 1284.57,-35.67 1281.07,-45.67 1288.07,-45.67"/>
<text text-anchor="middle" x="1088.86" y="-130.6" font-family="Times,serif" font-size="8.00">DOMINATE </text>
</g>
<!-- JUMP_TARGET&#45;&gt;CONTROL_STRUCTURE -->
<g id="edge32" class="edge">
<title>JUMP_TARGET&#45;&gt;CONTROL_STRUCTURE</title>
<path fill="none" stroke="black" d="M862.08,-123C985.38,-123 1234.92,-123 1234.92,-123 1234.92,-123 1234.92,-45.81 1234.92,-45.81"/>
<polygon fill="black" stroke="black" points="1238.42,-45.81 1234.92,-35.81 1231.42,-45.81 1238.42,-45.81"/>
<text text-anchor="middle" x="1125.59" y="-116.6" font-family="Times,serif" font-size="8.00">POST_DOMINATE </text>
</g>
<!-- JUMP_TARGET&#45;&gt;CONTROL_STRUCTURE -->
<g id="edge43" class="edge">
<title>JUMP_TARGET&#45;&gt;CONTROL_STRUCTURE</title>
<path fill="none" stroke="black" d="M861.88,-118C973.53,-118 1185.26,-118 1185.26,-118 1185.26,-118 1185.26,-42.76 1185.26,-42.76"/>
<polygon fill="black" stroke="black" points="1188.76,-42.76 1185.26,-32.76 1181.76,-42.76 1188.76,-42.76"/>
<text text-anchor="middle" x="1050.19" y="-120.6" font-family="Times,serif" font-size="8.00">CDG </text>
</g>
<!-- UNKNOWN -->
<g id="node11" class="node">
<title>UNKNOWN</title>
<ellipse fill="none" stroke="black" cx="1467.75" cy="-18" rx="65.79" ry="18"/>
<text text-anchor="middle" x="1467.75" y="-14.3" font-family="Times,serif" font-size="14.00">UNKNOWN</text>
</g>
<!-- JUMP_TARGET&#45;&gt;UNKNOWN -->
<g id="edge11" class="edge">
<title>JUMP_TARGET&#45;&gt;UNKNOWN</title>
<path fill="none" stroke="blue" d="M861.77,-154C1039.11,-154 1507.13,-154 1507.13,-154 1507.13,-154 1507.13,-42.55 1507.13,-42.55"/>
<polygon fill="blue" stroke="blue" points="1510.63,-42.55 1507.13,-32.55 1503.63,-42.55 1510.63,-42.55"/>
<text text-anchor="middle" x="1229.67" y="-156.6" font-family="Times,serif" font-size="8.00">CFG </text>
</g>
<!-- JUMP_TARGET&#45;&gt;UNKNOWN -->
<g id="edge22" class="edge">
<title>JUMP_TARGET&#45;&gt;UNKNOWN</title>
<path fill="none" stroke="black" d="M861.79,-149C1034.43,-149 1480.88,-149 1480.88,-149 1480.88,-149 1480.88,-45.67 1480.88,-45.67"/>
<polygon fill="black" stroke="black" points="1484.38,-45.67 1480.88,-35.67 1477.38,-45.67 1484.38,-45.67"/>
<text text-anchor="middle" x="1248.5" y="-142.6" font-family="Times,serif" font-size="8.00">DOMINATE </text>
</g>
<!-- JUMP_TARGET&#45;&gt;UNKNOWN -->
<g id="edge33" class="edge">
<title>JUMP_TARGET&#45;&gt;UNKNOWN</title>
<path fill="none" stroke="black" d="M861.96,-144C1029.93,-144 1454.62,-144 1454.62,-144 1454.62,-144 1454.62,-45.79 1454.62,-45.79"/>
<polygon fill="black" stroke="black" points="1458.12,-45.79 1454.62,-35.79 1451.12,-45.79 1458.12,-45.79"/>
<text text-anchor="middle" x="1168.89" y="-146.6" font-family="Times,serif" font-size="8.00">POST_DOMINATE </text>
</g>
<!-- JUMP_TARGET&#45;&gt;UNKNOWN -->
<g id="edge45" class="edge">
<title>JUMP_TARGET&#45;&gt;UNKNOWN</title>
<path fill="none" stroke="black" d="M861.95,-138C1025.02,-138 1428.36,-138 1428.36,-138 1428.36,-138 1428.36,-42.71 1428.36,-42.71"/>
<polygon fill="black" stroke="black" points="1431.86,-42.71 1428.36,-32.71 1424.86,-42.71 1431.86,-42.71"/>
<text text-anchor="middle" x="1181.8" y="-131.6" font-family="Times,serif" font-size="8.00">CDG </text>
</g>
<!-- METHOD_RETURN -->
<g id="node12" class="node">
<title>METHOD_RETURN</title>
<ellipse fill="none" stroke="black" cx="1652.75" cy="-18" rx="101.28" ry="18"/>
<text text-anchor="middle" x="1652.75" y="-14.3" font-family="Times,serif" font-size="14.00">METHOD_RETURN</text>
</g>
<!-- JUMP_TARGET&#45;&gt;METHOD_RETURN -->
<g id="edge42" class="edge">
<title>JUMP_TARGET&#45;&gt;METHOD_RETURN</title>
<path fill="none" stroke="black" d="M862.07,-159C1064.34,-159 1652.75,-159 1652.75,-159 1652.75,-159 1652.75,-46.14 1652.75,-46.14"/>
<polygon fill="black" stroke="black" points="1656.25,-46.14 1652.75,-36.14 1649.25,-46.14 1656.25,-46.14"/>
<text text-anchor="middle" x="1302.84" y="-161.6" font-family="Times,serif" font-size="8.00">CDG </text>
</g>
<!-- CFG_NODE -->
<g id="node13" class="node">
<title>CFG_NODE</title>
<ellipse fill="none" stroke="black" cx="1836.75" cy="-18" rx="64.99" ry="18"/>
<text text-anchor="middle" x="1836.75" y="-14.3" font-family="Times,serif" font-size="14.00">CFG_NODE</text>
</g>
<!-- JUMP_TARGET&#45;&gt;CFG_NODE -->
<g id="edge46" class="edge">
<title>JUMP_TARGET&#45;&gt;CFG_NODE</title>
<path fill="none" stroke="gray" d="M861.91,-164C1092.35,-164 1836.75,-164 1836.75,-164 1836.75,-164 1836.75,-46.2 1836.75,-46.2"/>
<polygon fill="none" stroke="gray" points="1840.25,-46.2 1836.75,-36.2 1833.25,-46.2 1840.25,-46.2"/>
<text text-anchor="middle" x="1404.73" y="-166.6" font-family="Times,serif" font-size="8.00">is</text>
</g>
<!-- AST_NODE -->
<g id="node14" class="node">
<title>AST_NODE</title>
<ellipse fill="none" stroke="black" cx="1982.75" cy="-18" rx="63.09" ry="18"/>
<text text-anchor="middle" x="1982.75" y="-14.3" font-family="Times,serif" font-size="14.00">AST_NODE</text>
</g>
<!-- JUMP_TARGET&#45;&gt;AST_NODE -->
<g id="edge47" class="edge">
<title>JUMP_TARGET&#45;&gt;AST_NODE</title>
<path fill="none" stroke="gray" d="M862.02,-169C1113.34,-169 1982.75,-169 1982.75,-169 1982.75,-169 1982.75,-46.21 1982.75,-46.21"/>
<polygon fill="none" stroke="gray" points="1986.25,-46.21 1982.75,-36.21 1979.25,-46.21 1986.25,-46.21"/>
<text text-anchor="middle" x="1480.28" y="-171.6" font-family="Times,serif" font-size="8.00">is</text>
</g>
</g>
</svg>
