<?xml version="1.0" encoding="UTF-8" standalone="no"?>
<!DOCTYPE svg PUBLIC "-//W3C//DTD SVG 1.1//EN"
 "http://www.w3.org/Graphics/SVG/1.1/DTD/svg11.dtd">
<!-- Generated by graphviz version 2.44.1 (20200629.0800)
 -->
<!-- Title: cpgschema Pages: 1 -->
<svg width="2747pt" height="318pt"
 viewBox="0.00 0.00 2746.50 318.00" xmlns="http://www.w3.org/2000/svg" xmlns:xlink="http://www.w3.org/1999/xlink">
<g id="graph0" class="graph" transform="scale(1 1) rotate(0) translate(4 314)">
<title>cpgschema</title>
<polygon fill="white" stroke="transparent" points="-4,4 -4,-314 2742.5,-314 2742.5,4 -4,4"/>
<!-- JUMP_TARGET -->
<g id="node1" class="node">
<title>JUMP_TARGET</title>
<polygon fill="none" stroke="black" points="1342.5,-179.5 1342.5,-281.5 1496.5,-281.5 1496.5,-179.5 1342.5,-179.5"/>
<text text-anchor="start" x="1365" y="-267.3" font-family="Times New Roman,serif" font-weight="bold" font-size="14.00">JUMP_TARGET</text>
<text text-anchor="start" x="1386.5" y="-256.5" font-family="Times New Roman,serif" font-size="10.00">CODE: string (1)</text>
<text text-anchor="start" x="1384.5" y="-246.5" font-family="Times New Roman,serif" font-size="10.00">NAME: string (1)</text>
<text text-anchor="start" x="1359" y="-236.5" font-family="Times New Roman,serif" font-size="10.00">COLUMN_NUMBER: int (0:1)</text>
<text text-anchor="start" x="1369.5" y="-226.5" font-family="Times New Roman,serif" font-size="10.00">LINE_NUMBER: int (0:1)</text>
<text text-anchor="start" x="1390" y="-216.5" font-family="Times New Roman,serif" font-size="10.00">ORDER: int (1)</text>
<text text-anchor="start" x="1350.5" y="-206.5" font-family="Times New Roman,serif" font-size="10.00">PARSER_TYPE_NAME: string (1)</text>
<text text-anchor="start" x="1362" y="-196.5" font-family="Times New Roman,serif" font-size="10.00">ARGUMENT_INDEX: int (1)</text>
<text text-anchor="start" x="1377.5" y="-186.5" font-family="Times New Roman,serif" font-size="10.00">INTERNAL_FLAGS </text>
</g>
<!-- JUMP_TARGET&#45;&gt;JUMP_TARGET -->
<g id="edge9" class="edge">
<title>JUMP_TARGET&#45;&gt;JUMP_TARGET</title>
<path fill="none" stroke="blue" d="M1373.3,-281.75C1373.3,-297.13 1373.3,-310 1373.3,-310 1373.3,-310 1525.7,-310 1525.7,-310 1525.7,-310 1525.7,-150 1525.7,-150 1525.7,-150 1445.17,-150 1445.17,-150 1445.17,-150 1445.17,-169.06 1445.17,-169.06"/>
<polygon fill="blue" stroke="blue" points="1441.67,-169.06 1445.17,-179.06 1448.67,-169.06 1441.67,-169.06"/>
<text text-anchor="middle" x="1516.7" y="-273.13" font-family="Times New Roman,serif" font-size="8.00">CFG </text>
</g>
<!-- JUMP_TARGET&#45;&gt;JUMP_TARGET -->
<g id="edge20" class="edge">
<title>JUMP_TARGET&#45;&gt;JUMP_TARGET</title>
<path fill="none" stroke="black" d="M1465.7,-281.83C1465.7,-286.2 1465.7,-289 1465.7,-289 1465.7,-289 1503.8,-289 1503.8,-289 1503.8,-289 1503.8,-171 1503.8,-171 1503.8,-171 1483.67,-171 1483.67,-171 1483.67,-171 1483.67,-171.83 1483.67,-171.83"/>
<polygon fill="black" stroke="black" points="1480.17,-169.27 1483.67,-179.27 1487.17,-169.27 1480.17,-169.27"/>
<text text-anchor="middle" x="1528.3" y="-244.76" font-family="Times New Roman,serif" font-size="8.00">DOMINATE </text>
</g>
<!-- JUMP_TARGET&#45;&gt;JUMP_TARGET -->
<g id="edge31" class="edge">
<title>JUMP_TARGET&#45;&gt;JUMP_TARGET</title>
<path fill="none" stroke="black" d="M1434.9,-281.79C1434.9,-290.07 1434.9,-296 1434.9,-296 1434.9,-296 1511.1,-296 1511.1,-296 1511.1,-296 1511.1,-164 1511.1,-164 1511.1,-164 1470.83,-164 1470.83,-164 1470.83,-164 1470.83,-169.42 1470.83,-169.42"/>
<polygon fill="black" stroke="black" points="1467.33,-169.42 1470.83,-179.42 1474.33,-169.42 1467.33,-169.42"/>
<text text-anchor="middle" x="1548.1" y="-254.96" font-family="Times New Roman,serif" font-size="8.00">POST_DOMINATE </text>
</g>
<!-- JUMP_TARGET&#45;&gt;JUMP_TARGET -->
<g id="edge44" class="edge">
<title>JUMP_TARGET&#45;&gt;JUMP_TARGET</title>
<path fill="none" stroke="black" d="M1404.1,-281.64C1404.1,-293.64 1404.1,-303 1404.1,-303 1404.1,-303 1518.4,-303 1518.4,-303 1518.4,-303 1518.4,-157 1518.4,-157 1518.4,-157 1458,-157 1458,-157 1458,-157 1458,-169.45 1458,-169.45"/>
<polygon fill="black" stroke="black" points="1454.5,-169.45 1458,-179.45 1461.5,-169.45 1454.5,-169.45"/>
<text text-anchor="middle" x="1508.9" y="-264" font-family="Times New Roman,serif" font-size="8.00">CDG </text>
</g>
<!-- METHOD_RETURN -->
<g id="node2" class="node">
<title>METHOD_RETURN</title>
<polygon fill="none" stroke="black" points="0,-25.5 0,-117.5 227,-117.5 227,-25.5 0,-25.5"/>
<text text-anchor="start" x="46.5" y="-103.3" font-family="Times New Roman,serif" font-weight="bold" font-size="14.00">METHOD_RETURN</text>
<text text-anchor="start" x="80.5" y="-92.5" font-family="Times New Roman,serif" font-size="10.00">CODE: string (1)</text>
<text text-anchor="start" x="36" y="-82.5" font-family="Times New Roman,serif" font-size="10.00">EVALUATION_STRATEGY: string (1)</text>
<text text-anchor="start" x="51" y="-72.5" font-family="Times New Roman,serif" font-size="10.00">TYPE_FULL_NAME: string (1)</text>
<text text-anchor="start" x="8" y="-62.5" font-family="Times New Roman,serif" font-size="10.00">DYNAMIC_TYPE_HINT_FULL_NAME: string (0:n)</text>
<text text-anchor="start" x="63.5" y="-52.5" font-family="Times New Roman,serif" font-size="10.00">LINE_NUMBER: int (0:1)</text>
<text text-anchor="start" x="53" y="-42.5" font-family="Times New Roman,serif" font-size="10.00">COLUMN_NUMBER: int (0:1)</text>
<text text-anchor="start" x="84" y="-32.5" font-family="Times New Roman,serif" font-size="10.00">ORDER: int (1)</text>
</g>
<!-- JUMP_TARGET&#45;&gt;METHOD_RETURN -->
<g id="edge42" class="edge">
<title>JUMP_TARGET&#45;&gt;METHOD_RETURN</title>
<path fill="none" stroke="black" d="M1342.2,-276C1061.64,-276 113.5,-276 113.5,-276 113.5,-276 113.5,-127.65 113.5,-127.65"/>
<polygon fill="black" stroke="black" points="117,-127.65 113.5,-117.65 110,-127.65 117,-127.65"/>
<text text-anchor="middle" x="644.17" y="-278.6" font-family="Times New Roman,serif" font-size="8.00">CDG </text>
</g>
<!-- LITERAL -->
<g id="node3" class="node">
<title>LITERAL</title>
<polygon fill="none" stroke="black" points="245,-25.5 245,-117.5 472,-117.5 472,-25.5 245,-25.5"/>
<text text-anchor="start" x="326.5" y="-103.3" font-family="Times New Roman,serif" font-weight="bold" font-size="14.00">LITERAL</text>
<text text-anchor="start" x="325.5" y="-92.5" font-family="Times New Roman,serif" font-size="10.00">CODE: string (1)</text>
<text text-anchor="start" x="329" y="-82.5" font-family="Times New Roman,serif" font-size="10.00">ORDER: int (1)</text>
<text text-anchor="start" x="301" y="-72.5" font-family="Times New Roman,serif" font-size="10.00">ARGUMENT_INDEX: int (1)</text>
<text text-anchor="start" x="296" y="-62.5" font-family="Times New Roman,serif" font-size="10.00">TYPE_FULL_NAME: string (1)</text>
<text text-anchor="start" x="253" y="-52.5" font-family="Times New Roman,serif" font-size="10.00">DYNAMIC_TYPE_HINT_FULL_NAME: string (0:n)</text>
<text text-anchor="start" x="308.5" y="-42.5" font-family="Times New Roman,serif" font-size="10.00">LINE_NUMBER: int (0:1)</text>
<text text-anchor="start" x="298" y="-32.5" font-family="Times New Roman,serif" font-size="10.00">COLUMN_NUMBER: int (0:1)</text>
</g>
<!-- JUMP_TARGET&#45;&gt;LITERAL -->
<g id="edge4" class="edge">
<title>JUMP_TARGET&#45;&gt;LITERAL</title>
<path fill="none" stroke="blue" d="M1342.31,-260C1101.68,-260 381.2,-260 381.2,-260 381.2,-260 381.2,-127.61 381.2,-127.61"/>
<polygon fill="blue" stroke="blue" points="384.7,-127.61 381.2,-117.61 377.7,-127.61 384.7,-127.61"/>
<text text-anchor="middle" x="786.56" y="-262.6" font-family="Times New Roman,serif" font-size="8.00">CFG </text>
</g>
<!-- JUMP_TARGET&#45;&gt;LITERAL -->
<g id="edge15" class="edge">
<title>JUMP_TARGET&#45;&gt;LITERAL</title>
<path fill="none" stroke="black" d="M1342.43,-265C1094.85,-265 335.8,-265 335.8,-265 335.8,-265 335.8,-127.85 335.8,-127.85"/>
<polygon fill="black" stroke="black" points="339.3,-127.85 335.8,-117.85 332.3,-127.85 339.3,-127.85"/>
<text text-anchor="middle" x="746.04" y="-258.6" font-family="Times New Roman,serif" font-size="8.00">DOMINATE </text>
</g>
<!-- JUMP_TARGET&#45;&gt;LITERAL -->
<g id="edge26" class="edge">
<title>JUMP_TARGET&#45;&gt;LITERAL</title>
<path fill="none" stroke="black" d="M1342.42,-254C1109.13,-254 426.6,-254 426.6,-254 426.6,-254 426.6,-127.55 426.6,-127.55"/>
<polygon fill="black" stroke="black" points="430.1,-127.55 426.6,-117.55 423.1,-127.55 430.1,-127.55"/>
<text text-anchor="middle" x="784.28" y="-247.6" font-family="Times New Roman,serif" font-size="8.00">POST_DOMINATE </text>
</g>
<!-- JUMP_TARGET&#45;&gt;LITERAL -->
<g id="edge37" class="edge">
<title>JUMP_TARGET&#45;&gt;LITERAL</title>
<path fill="none" stroke="black" d="M1342.34,-271C1087.72,-271 290.4,-271 290.4,-271 290.4,-271 290.4,-127.77 290.4,-127.77"/>
<polygon fill="black" stroke="black" points="293.9,-127.77 290.4,-117.77 286.9,-127.77 293.9,-127.77"/>
<text text-anchor="middle" x="735.25" y="-273.6" font-family="Times New Roman,serif" font-size="8.00">CDG </text>
</g>
<!-- CALL -->
<g id="node4" class="node">
<title>CALL</title>
<polygon fill="none" stroke="black" points="490,-0.5 490,-142.5 717,-142.5 717,-0.5 490,-0.5"/>
<text text-anchor="start" x="584" y="-128.3" font-family="Times New Roman,serif" font-weight="bold" font-size="14.00">CALL</text>
<text text-anchor="start" x="570.5" y="-117.5" font-family="Times New Roman,serif" font-size="10.00">CODE: string (1)</text>
<text text-anchor="start" x="568.5" y="-107.5" font-family="Times New Roman,serif" font-size="10.00">NAME: string (1)</text>
<text text-anchor="start" x="574" y="-97.5" font-family="Times New Roman,serif" font-size="10.00">ORDER: int (1)</text>
<text text-anchor="start" x="515.5" y="-87.5" font-family="Times New Roman,serif" font-size="10.00">METHOD_INST_FULL_NAME: string (0:1)</text>
<text text-anchor="start" x="532" y="-77.5" font-family="Times New Roman,serif" font-size="10.00">METHOD_FULL_NAME: string (1)</text>
<text text-anchor="start" x="546" y="-67.5" font-family="Times New Roman,serif" font-size="10.00">ARGUMENT_INDEX: int (1)</text>
<text text-anchor="start" x="546" y="-57.5" font-family="Times New Roman,serif" font-size="10.00">DISPATCH_TYPE: string (1)</text>
<text text-anchor="start" x="556.5" y="-47.5" font-family="Times New Roman,serif" font-size="10.00">SIGNATURE: string (1)</text>
<text text-anchor="start" x="541" y="-37.5" font-family="Times New Roman,serif" font-size="10.00">TYPE_FULL_NAME: string (1)</text>
<text text-anchor="start" x="498" y="-27.5" font-family="Times New Roman,serif" font-size="10.00">DYNAMIC_TYPE_HINT_FULL_NAME: string (0:n)</text>
<text text-anchor="start" x="553.5" y="-17.5" font-family="Times New Roman,serif" font-size="10.00">LINE_NUMBER: int (0:1)</text>
<text text-anchor="start" x="543" y="-7.5" font-family="Times New Roman,serif" font-size="10.00">COLUMN_NUMBER: int (0:1)</text>
</g>
<!-- JUMP_TARGET&#45;&gt;CALL -->
<g id="edge1" class="edge">
<title>JUMP_TARGET&#45;&gt;CALL</title>
<path fill="none" stroke="blue" d="M1342.37,-249C1138.96,-249 603.5,-249 603.5,-249 603.5,-249 603.5,-152.67 603.5,-152.67"/>
<polygon fill="blue" stroke="blue" points="607,-152.67 603.5,-142.67 600,-152.67 607,-152.67"/>
<text text-anchor="middle" x="915.77" y="-251.6" font-family="Times New Roman,serif" font-size="8.00">CFG </text>
</g>
<!-- JUMP_TARGET&#45;&gt;CALL -->
<g id="edge12" class="edge">
<title>JUMP_TARGET&#45;&gt;CALL</title>
<path fill="none" stroke="black" d="M1355.33,-179.4C1355.33,-158.44 1355.33,-139 1355.33,-139 1355.33,-139 727.28,-139 727.28,-139"/>
<polygon fill="black" stroke="black" points="727.28,-135.5 717.28,-139 727.28,-142.5 727.28,-135.5"/>
<text text-anchor="middle" x="1037.01" y="-141.6" font-family="Times New Roman,serif" font-size="8.00">DOMINATE </text>
</g>
<!-- JUMP_TARGET&#45;&gt;CALL -->
<g id="edge23" class="edge">
<title>JUMP_TARGET&#45;&gt;CALL</title>
<path fill="none" stroke="black" d="M1381,-179.29C1381,-154.91 1381,-131 1381,-131 1381,-131 727.39,-131 727.39,-131"/>
<polygon fill="black" stroke="black" points="727.39,-127.5 717.39,-131 727.39,-134.5 727.39,-127.5"/>
<text text-anchor="middle" x="1041.34" y="-124.6" font-family="Times New Roman,serif" font-size="8.00">POST_DOMINATE </text>
</g>
<!-- JUMP_TARGET&#45;&gt;CALL -->
<g id="edge34" class="edge">
<title>JUMP_TARGET&#45;&gt;CALL</title>
<path fill="none" stroke="black" d="M1368.17,-179.4C1368.17,-156.69 1368.17,-135 1368.17,-135 1368.17,-135 727.15,-135 727.15,-135"/>
<polygon fill="black" stroke="black" points="727.15,-131.5 717.15,-135 727.15,-138.5 727.15,-131.5"/>
<text text-anchor="middle" x="1079.36" y="-137.6" font-family="Times New Roman,serif" font-size="8.00">CDG </text>
</g>
<!-- IDENTIFIER -->
<g id="node5" class="node">
<title>IDENTIFIER</title>
<polygon fill="none" stroke="black" points="735,-20.5 735,-122.5 962,-122.5 962,-20.5 735,-20.5"/>
<text text-anchor="start" x="805.5" y="-108.3" font-family="Times New Roman,serif" font-weight="bold" font-size="14.00">IDENTIFIER</text>
<text text-anchor="start" x="815.5" y="-97.5" font-family="Times New Roman,serif" font-size="10.00">CODE: string (1)</text>
<text text-anchor="start" x="813.5" y="-87.5" font-family="Times New Roman,serif" font-size="10.00">NAME: string (1)</text>
<text text-anchor="start" x="819" y="-77.5" font-family="Times New Roman,serif" font-size="10.00">ORDER: int (1)</text>
<text text-anchor="start" x="791" y="-67.5" font-family="Times New Roman,serif" font-size="10.00">ARGUMENT_INDEX: int (1)</text>
<text text-anchor="start" x="786" y="-57.5" font-family="Times New Roman,serif" font-size="10.00">TYPE_FULL_NAME: string (1)</text>
<text text-anchor="start" x="743" y="-47.5" font-family="Times New Roman,serif" font-size="10.00">DYNAMIC_TYPE_HINT_FULL_NAME: string (0:n)</text>
<text text-anchor="start" x="798.5" y="-37.5" font-family="Times New Roman,serif" font-size="10.00">LINE_NUMBER: int (0:1)</text>
<text text-anchor="start" x="788" y="-27.5" font-family="Times New Roman,serif" font-size="10.00">COLUMN_NUMBER: int (0:1)</text>
</g>
<!-- JUMP_TARGET&#45;&gt;IDENTIFIER -->
<g id="edge2" class="edge">
<title>JUMP_TARGET&#45;&gt;IDENTIFIER</title>
<path fill="none" stroke="blue" d="M1342.3,-227C1201.33,-227 916.6,-227 916.6,-227 916.6,-227 916.6,-132.85 916.6,-132.85"/>
<polygon fill="blue" stroke="blue" points="920.1,-132.85 916.6,-122.85 913.1,-132.85 920.1,-132.85"/>
<text text-anchor="middle" x="1073.37" y="-229.6" font-family="Times New Roman,serif" font-size="8.00">CFG </text>
</g>
<!-- JUMP_TARGET&#45;&gt;IDENTIFIER -->
<g id="edge13" class="edge">
<title>JUMP_TARGET&#45;&gt;IDENTIFIER</title>
<path fill="none" stroke="black" d="M1342.39,-233C1191.37,-233 871.2,-233 871.2,-233 871.2,-233 871.2,-132.6 871.2,-132.6"/>
<polygon fill="black" stroke="black" points="874.7,-132.6 871.2,-122.6 867.7,-132.6 874.7,-132.6"/>
<text text-anchor="middle" x="1032.1" y="-226.6" font-family="Times New Roman,serif" font-size="8.00">DOMINATE </text>
</g>
<!-- JUMP_TARGET&#45;&gt;IDENTIFIER -->
<g id="edge24" class="edge">
<title>JUMP_TARGET&#45;&gt;IDENTIFIER</title>
<path fill="none" stroke="black" d="M1342.49,-238C1181.85,-238 825.8,-238 825.8,-238 825.8,-238 825.8,-132.81 825.8,-132.81"/>
<polygon fill="black" stroke="black" points="829.3,-132.81 825.8,-122.81 822.3,-132.81 829.3,-132.81"/>
<text text-anchor="middle" x="1068.55" y="-240.6" font-family="Times New Roman,serif" font-size="8.00">POST_DOMINATE </text>
</g>
<!-- JUMP_TARGET&#45;&gt;IDENTIFIER -->
<g id="edge35" class="edge">
<title>JUMP_TARGET&#45;&gt;IDENTIFIER</title>
<path fill="none" stroke="black" d="M1342.41,-244C1172.43,-244 780.4,-244 780.4,-244 780.4,-244 780.4,-132.79 780.4,-132.79"/>
<polygon fill="black" stroke="black" points="783.9,-132.79 780.4,-122.79 776.9,-132.79 783.9,-132.79"/>
<text text-anchor="middle" x="996.3" y="-246.6" font-family="Times New Roman,serif" font-size="8.00">CDG </text>
</g>
<!-- FIELD_IDENTIFIER -->
<g id="node6" class="node">
<title>FIELD_IDENTIFIER</title>
<polygon fill="none" stroke="black" points="980,-30.5 980,-112.5 1133,-112.5 1133,-30.5 980,-30.5"/>
<text text-anchor="start" x="988" y="-98.3" font-family="Times New Roman,serif" font-weight="bold" font-size="14.00">FIELD_IDENTIFIER</text>
<text text-anchor="start" x="1023.5" y="-87.5" font-family="Times New Roman,serif" font-size="10.00">CODE: string (1)</text>
<text text-anchor="start" x="991.5" y="-77.5" font-family="Times New Roman,serif" font-size="10.00">CANONICAL_NAME: string (1)</text>
<text text-anchor="start" x="1027" y="-67.5" font-family="Times New Roman,serif" font-size="10.00">ORDER: int (1)</text>
<text text-anchor="start" x="999" y="-57.5" font-family="Times New Roman,serif" font-size="10.00">ARGUMENT_INDEX: int (1)</text>
<text text-anchor="start" x="1006.5" y="-47.5" font-family="Times New Roman,serif" font-size="10.00">LINE_NUMBER: int (0:1)</text>
<text text-anchor="start" x="996" y="-37.5" font-family="Times New Roman,serif" font-size="10.00">COLUMN_NUMBER: int (0:1)</text>
</g>
<!-- JUMP_TARGET&#45;&gt;FIELD_IDENTIFIER -->
<g id="edge3" class="edge">
<title>JUMP_TARGET&#45;&gt;FIELD_IDENTIFIER</title>
<path fill="none" stroke="blue" d="M1342.33,-206C1248.47,-206 1102.4,-206 1102.4,-206 1102.4,-206 1102.4,-122.59 1102.4,-122.59"/>
<polygon fill="blue" stroke="blue" points="1105.9,-122.59 1102.4,-112.59 1098.9,-122.59 1105.9,-122.59"/>
<text text-anchor="middle" x="1171.66" y="-199.6" font-family="Times New Roman,serif" font-size="8.00">CFG </text>
</g>
<!-- JUMP_TARGET&#45;&gt;FIELD_IDENTIFIER -->
<g id="edge14" class="edge">
<title>JUMP_TARGET&#45;&gt;FIELD_IDENTIFIER</title>
<path fill="none" stroke="black" d="M1342.49,-216C1231.88,-216 1041.2,-216 1041.2,-216 1041.2,-216 1041.2,-122.52 1041.2,-122.52"/>
<polygon fill="black" stroke="black" points="1044.7,-122.52 1041.2,-112.52 1037.7,-122.52 1044.7,-122.52"/>
<text text-anchor="middle" x="1120.61" y="-209.6" font-family="Times New Roman,serif" font-size="8.00">DOMINATE </text>
</g>
<!-- JUMP_TARGET&#45;&gt;FIELD_IDENTIFIER -->
<g id="edge25" class="edge">
<title>JUMP_TARGET&#45;&gt;FIELD_IDENTIFIER</title>
<path fill="none" stroke="black" d="M1342.33,-211C1239.9,-211 1071.8,-211 1071.8,-211 1071.8,-211 1071.8,-122.6 1071.8,-122.6"/>
<polygon fill="black" stroke="black" points="1075.3,-122.6 1071.8,-112.6 1068.3,-122.6 1075.3,-122.6"/>
<text text-anchor="middle" x="1199.87" y="-213.6" font-family="Times New Roman,serif" font-size="8.00">POST_DOMINATE </text>
</g>
<!-- JUMP_TARGET&#45;&gt;FIELD_IDENTIFIER -->
<g id="edge36" class="edge">
<title>JUMP_TARGET&#45;&gt;FIELD_IDENTIFIER</title>
<path fill="none" stroke="black" d="M1342.11,-222C1223.56,-222 1010.6,-222 1010.6,-222 1010.6,-222 1010.6,-122.62 1010.6,-122.62"/>
<polygon fill="black" stroke="black" points="1014.1,-122.62 1010.6,-112.62 1007.1,-122.62 1014.1,-122.62"/>
<text text-anchor="middle" x="1117.17" y="-224.6" font-family="Times New Roman,serif" font-size="8.00">CDG </text>
</g>
<!-- RETURN -->
<g id="node7" class="node">
<title>RETURN</title>
<polygon fill="none" stroke="black" points="1151,-35.5 1151,-107.5 1288,-107.5 1288,-35.5 1151,-35.5"/>
<text text-anchor="start" x="1189" y="-93.3" font-family="Times New Roman,serif" font-weight="bold" font-size="14.00">RETURN</text>
<text text-anchor="start" x="1169.5" y="-82.5" font-family="Times New Roman,serif" font-size="10.00">LINE_NUMBER: int (0:1)</text>
<text text-anchor="start" x="1159" y="-72.5" font-family="Times New Roman,serif" font-size="10.00">COLUMN_NUMBER: int (0:1)</text>
<text text-anchor="start" x="1190" y="-62.5" font-family="Times New Roman,serif" font-size="10.00">ORDER: int (1)</text>
<text text-anchor="start" x="1162" y="-52.5" font-family="Times New Roman,serif" font-size="10.00">ARGUMENT_INDEX: int (1)</text>
<text text-anchor="start" x="1186.5" y="-42.5" font-family="Times New Roman,serif" font-size="10.00">CODE: string (1)</text>
</g>
<!-- JUMP_TARGET&#45;&gt;RETURN -->
<g id="edge5" class="edge">
<title>JUMP_TARGET&#45;&gt;RETURN</title>
<path fill="none" stroke="blue" d="M1342.38,-184C1301.89,-184 1260.6,-184 1260.6,-184 1260.6,-184 1260.6,-117.71 1260.6,-117.71"/>
<polygon fill="blue" stroke="blue" points="1264.1,-117.71 1260.6,-107.71 1257.1,-117.71 1264.1,-117.71"/>
<text text-anchor="middle" x="1259.35" y="-177.6" font-family="Times New Roman,serif" font-size="8.00">CFG </text>
</g>
<!-- JUMP_TARGET&#45;&gt;RETURN -->
<g id="edge16" class="edge">
<title>JUMP_TARGET&#45;&gt;RETURN</title>
<path fill="none" stroke="black" d="M1342.38,-189C1291.13,-189 1233.2,-189 1233.2,-189 1233.2,-189 1233.2,-117.71 1233.2,-117.71"/>
<polygon fill="black" stroke="black" points="1236.7,-117.71 1233.2,-107.71 1229.7,-117.71 1236.7,-117.71"/>
<text text-anchor="middle" x="1276.65" y="-191.6" font-family="Times New Roman,serif" font-size="8.00">DOMINATE </text>
</g>
<!-- JUMP_TARGET&#45;&gt;RETURN -->
<g id="edge27" class="edge">
<title>JUMP_TARGET&#45;&gt;RETURN</title>
<path fill="none" stroke="black" d="M1342.35,-195C1281.14,-195 1205.8,-195 1205.8,-195 1205.8,-195 1205.8,-117.55 1205.8,-117.55"/>
<polygon fill="black" stroke="black" points="1209.3,-117.55 1205.8,-107.55 1202.3,-117.55 1209.3,-117.55"/>
<text text-anchor="middle" x="1198.35" y="-188.6" font-family="Times New Roman,serif" font-size="8.00">POST_DOMINATE </text>
</g>
<!-- JUMP_TARGET&#45;&gt;RETURN -->
<g id="edge40" class="edge">
<title>JUMP_TARGET&#45;&gt;RETURN</title>
<path fill="none" stroke="black" d="M1342.22,-200C1271.7,-200 1178.4,-200 1178.4,-200 1178.4,-200 1178.4,-117.64 1178.4,-117.64"/>
<polygon fill="black" stroke="black" points="1181.9,-117.64 1178.4,-107.64 1174.9,-117.64 1181.9,-117.64"/>
<text text-anchor="middle" x="1209.63" y="-202.6" font-family="Times New Roman,serif" font-size="8.00">CDG </text>
</g>
<!-- BLOCK -->
<g id="node8" class="node">
<title>BLOCK</title>
<polygon fill="none" stroke="black" points="1306,-25.5 1306,-117.5 1533,-117.5 1533,-25.5 1306,-25.5"/>
<text text-anchor="start" x="1393.5" y="-103.3" font-family="Times New Roman,serif" font-weight="bold" font-size="14.00">BLOCK</text>
<text text-anchor="start" x="1386.5" y="-92.5" font-family="Times New Roman,serif" font-size="10.00">CODE: string (1)</text>
<text text-anchor="start" x="1390" y="-82.5" font-family="Times New Roman,serif" font-size="10.00">ORDER: int (1)</text>
<text text-anchor="start" x="1362" y="-72.5" font-family="Times New Roman,serif" font-size="10.00">ARGUMENT_INDEX: int (1)</text>
<text text-anchor="start" x="1357" y="-62.5" font-family="Times New Roman,serif" font-size="10.00">TYPE_FULL_NAME: string (1)</text>
<text text-anchor="start" x="1314" y="-52.5" font-family="Times New Roman,serif" font-size="10.00">DYNAMIC_TYPE_HINT_FULL_NAME: string (0:n)</text>
<text text-anchor="start" x="1369.5" y="-42.5" font-family="Times New Roman,serif" font-size="10.00">LINE_NUMBER: int (0:1)</text>
<text text-anchor="start" x="1359" y="-32.5" font-family="Times New Roman,serif" font-size="10.00">COLUMN_NUMBER: int (0:1)</text>
</g>
<!-- JUMP_TARGET&#45;&gt;BLOCK -->
<g id="edge8" class="edge">
<title>JUMP_TARGET&#45;&gt;BLOCK</title>
<path fill="none" stroke="blue" d="M1419.5,-179.32C1419.5,-179.32 1419.5,-127.75 1419.5,-127.75"/>
<polygon fill="blue" stroke="blue" points="1423,-127.75 1419.5,-117.75 1416,-127.75 1423,-127.75"/>
<text text-anchor="middle" x="1410.5" y="-156.13" font-family="Times New Roman,serif" font-size="8.00">CFG </text>
</g>
<!-- JUMP_TARGET&#45;&gt;BLOCK -->
<g id="edge19" class="edge">
<title>JUMP_TARGET&#45;&gt;BLOCK</title>
<path fill="none" stroke="black" d="M1406.67,-179.32C1406.67,-179.32 1406.67,-127.75 1406.67,-127.75"/>
<polygon fill="black" stroke="black" points="1410.17,-127.75 1406.67,-117.75 1403.17,-127.75 1410.17,-127.75"/>
<text text-anchor="middle" x="1382.17" y="-147.13" font-family="Times New Roman,serif" font-size="8.00">DOMINATE </text>
</g>
<!-- JUMP_TARGET&#45;&gt;BLOCK -->
<g id="edge30" class="edge">
<title>JUMP_TARGET&#45;&gt;BLOCK</title>
<path fill="none" stroke="black" d="M1393.83,-179.32C1393.83,-179.32 1393.83,-127.75 1393.83,-127.75"/>
<polygon fill="black" stroke="black" points="1397.33,-127.75 1393.83,-117.75 1390.33,-127.75 1397.33,-127.75"/>
<text text-anchor="middle" x="1356.83" y="-156.13" font-family="Times New Roman,serif" font-size="8.00">POST_DOMINATE </text>
</g>
<!-- JUMP_TARGET&#45;&gt;BLOCK -->
<g id="edge41" class="edge">
<title>JUMP_TARGET&#45;&gt;BLOCK</title>
<path fill="none" stroke="black" d="M1432.33,-179.32C1432.33,-179.32 1432.33,-127.75 1432.33,-127.75"/>
<polygon fill="black" stroke="black" points="1435.83,-127.75 1432.33,-117.75 1428.83,-127.75 1435.83,-127.75"/>
<text text-anchor="middle" x="1422.83" y="-147.13" font-family="Times New Roman,serif" font-size="8.00">CDG </text>
</g>
<!-- METHOD_REF -->
<g id="node9" class="node">
<title>METHOD_REF</title>
<polygon fill="none" stroke="black" points="1551,-15.5 1551,-127.5 1778,-127.5 1778,-15.5 1551,-15.5"/>
<text text-anchor="start" x="1613" y="-113.3" font-family="Times New Roman,serif" font-weight="bold" font-size="14.00">METHOD_REF</text>
<text text-anchor="start" x="1631.5" y="-102.5" font-family="Times New Roman,serif" font-size="10.00">CODE: string (1)</text>
<text text-anchor="start" x="1635" y="-92.5" font-family="Times New Roman,serif" font-size="10.00">ORDER: int (1)</text>
<text text-anchor="start" x="1607" y="-82.5" font-family="Times New Roman,serif" font-size="10.00">ARGUMENT_INDEX: int (1)</text>
<text text-anchor="start" x="1602" y="-72.5" font-family="Times New Roman,serif" font-size="10.00">TYPE_FULL_NAME: string (1)</text>
<text text-anchor="start" x="1559" y="-62.5" font-family="Times New Roman,serif" font-size="10.00">DYNAMIC_TYPE_HINT_FULL_NAME: string (0:n)</text>
<text text-anchor="start" x="1576.5" y="-52.5" font-family="Times New Roman,serif" font-size="10.00">METHOD_INST_FULL_NAME: string (0:1)</text>
<text text-anchor="start" x="1593" y="-42.5" font-family="Times New Roman,serif" font-size="10.00">METHOD_FULL_NAME: string (1)</text>
<text text-anchor="start" x="1614.5" y="-32.5" font-family="Times New Roman,serif" font-size="10.00">LINE_NUMBER: int (0:1)</text>
<text text-anchor="start" x="1604" y="-22.5" font-family="Times New Roman,serif" font-size="10.00">COLUMN_NUMBER: int (0:1)</text>
</g>
<!-- JUMP_TARGET&#45;&gt;METHOD_REF -->
<g id="edge6" class="edge">
<title>JUMP_TARGET&#45;&gt;METHOD_REF</title>
<path fill="none" stroke="blue" d="M1496.9,-200C1589.61,-200 1732.6,-200 1732.6,-200 1732.6,-200 1732.6,-137.86 1732.6,-137.86"/>
<polygon fill="blue" stroke="blue" points="1736.1,-137.86 1732.6,-127.86 1729.1,-137.86 1736.1,-137.86"/>
<text text-anchor="middle" x="1636.82" y="-202.6" font-family="Times New Roman,serif" font-size="8.00">CFG </text>
</g>
<!-- JUMP_TARGET&#45;&gt;METHOD_REF -->
<g id="edge17" class="edge">
<title>JUMP_TARGET&#45;&gt;METHOD_REF</title>
<path fill="none" stroke="black" d="M1496.57,-195C1575.65,-195 1687.2,-195 1687.2,-195 1687.2,-195 1687.2,-137.83 1687.2,-137.83"/>
<polygon fill="black" stroke="black" points="1690.7,-137.83 1687.2,-127.83 1683.7,-137.83 1690.7,-137.83"/>
<text text-anchor="middle" x="1595.97" y="-197.6" font-family="Times New Roman,serif" font-size="8.00">DOMINATE </text>
</g>
<!-- JUMP_TARGET&#45;&gt;METHOD_REF -->
<g id="edge28" class="edge">
<title>JUMP_TARGET&#45;&gt;METHOD_REF</title>
<path fill="none" stroke="black" d="M1496.63,-189C1560.83,-189 1641.8,-189 1641.8,-189 1641.8,-189 1641.8,-137.84 1641.8,-137.84"/>
<polygon fill="black" stroke="black" points="1645.3,-137.84 1641.8,-127.84 1638.3,-137.84 1645.3,-137.84"/>
<text text-anchor="middle" x="1631.79" y="-182.6" font-family="Times New Roman,serif" font-size="8.00">POST_DOMINATE </text>
</g>
<!-- JUMP_TARGET&#45;&gt;METHOD_REF -->
<g id="edge38" class="edge">
<title>JUMP_TARGET&#45;&gt;METHOD_REF</title>
<path fill="none" stroke="black" d="M1496.58,-184C1544.25,-184 1596.4,-184 1596.4,-184 1596.4,-184 1596.4,-137.75 1596.4,-137.75"/>
<polygon fill="black" stroke="black" points="1599.9,-137.75 1596.4,-127.75 1592.9,-137.75 1599.9,-137.75"/>
<text text-anchor="middle" x="1560.11" y="-186.6" font-family="Times New Roman,serif" font-size="8.00">CDG </text>
</g>
<!-- TYPE_REF -->
<g id="node10" class="node">
<title>TYPE_REF</title>
<polygon fill="none" stroke="black" points="1796,-25.5 1796,-117.5 2023,-117.5 2023,-25.5 1796,-25.5"/>
<text text-anchor="start" x="1871.5" y="-103.3" font-family="Times New Roman,serif" font-weight="bold" font-size="14.00">TYPE_REF</text>
<text text-anchor="start" x="1876.5" y="-92.5" font-family="Times New Roman,serif" font-size="10.00">CODE: string (1)</text>
<text text-anchor="start" x="1880" y="-82.5" font-family="Times New Roman,serif" font-size="10.00">ORDER: int (1)</text>
<text text-anchor="start" x="1852" y="-72.5" font-family="Times New Roman,serif" font-size="10.00">ARGUMENT_INDEX: int (1)</text>
<text text-anchor="start" x="1847" y="-62.5" font-family="Times New Roman,serif" font-size="10.00">TYPE_FULL_NAME: string (1)</text>
<text text-anchor="start" x="1804" y="-52.5" font-family="Times New Roman,serif" font-size="10.00">DYNAMIC_TYPE_HINT_FULL_NAME: string (0:n)</text>
<text text-anchor="start" x="1859.5" y="-42.5" font-family="Times New Roman,serif" font-size="10.00">LINE_NUMBER: int (0:1)</text>
<text text-anchor="start" x="1849" y="-32.5" font-family="Times New Roman,serif" font-size="10.00">COLUMN_NUMBER: int (0:1)</text>
</g>
<!-- JUMP_TARGET&#45;&gt;TYPE_REF -->
<g id="edge7" class="edge">
<title>JUMP_TARGET&#45;&gt;TYPE_REF</title>
<path fill="none" stroke="blue" d="M1496.53,-216C1639.66,-216 1932.2,-216 1932.2,-216 1932.2,-216 1932.2,-127.62 1932.2,-127.62"/>
<polygon fill="blue" stroke="blue" points="1935.7,-127.62 1932.2,-117.62 1928.7,-127.62 1935.7,-127.62"/>
<text text-anchor="middle" x="1749.56" y="-218.6" font-family="Times New Roman,serif" font-size="8.00">CFG </text>
</g>
<!-- JUMP_TARGET&#45;&gt;TYPE_REF -->
<g id="edge18" class="edge">
<title>JUMP_TARGET&#45;&gt;TYPE_REF</title>
<path fill="none" stroke="black" d="M1496.52,-222C1649.62,-222 1977.6,-222 1977.6,-222 1977.6,-222 1977.6,-127.88 1977.6,-127.88"/>
<polygon fill="black" stroke="black" points="1981.1,-127.88 1977.6,-117.88 1974.1,-127.88 1981.1,-127.88"/>
<text text-anchor="middle" x="1808.62" y="-224.6" font-family="Times New Roman,serif" font-size="8.00">DOMINATE </text>
</g>
<!-- JUMP_TARGET&#45;&gt;TYPE_REF -->
<g id="edge29" class="edge">
<title>JUMP_TARGET&#45;&gt;TYPE_REF</title>
<path fill="none" stroke="black" d="M1496.88,-206C1618.68,-206 1841.4,-206 1841.4,-206 1841.4,-206 1841.4,-127.79 1841.4,-127.79"/>
<polygon fill="black" stroke="black" points="1844.9,-127.79 1841.4,-117.79 1837.9,-127.79 1844.9,-127.79"/>
<text text-anchor="middle" x="1745.25" y="-199.6" font-family="Times New Roman,serif" font-size="8.00">POST_DOMINATE </text>
</g>
<!-- JUMP_TARGET&#45;&gt;TYPE_REF -->
<g id="edge39" class="edge">
<title>JUMP_TARGET&#45;&gt;TYPE_REF</title>
<path fill="none" stroke="black" d="M1496.67,-211C1629.39,-211 1886.8,-211 1886.8,-211 1886.8,-211 1886.8,-127.56 1886.8,-127.56"/>
<polygon fill="black" stroke="black" points="1890.3,-127.56 1886.8,-117.56 1883.3,-127.56 1890.3,-127.56"/>
<text text-anchor="middle" x="1723.95" y="-213.6" font-family="Times New Roman,serif" font-size="8.00">CDG </text>
</g>
<!-- CONTROL_STRUCTURE -->
<g id="node11" class="node">
<title>CONTROL_STRUCTURE</title>
<polygon fill="none" stroke="black" points="2041,-30.5 2041,-112.5 2226,-112.5 2226,-30.5 2041,-30.5"/>
<text text-anchor="start" x="2049" y="-98.3" font-family="Times New Roman,serif" font-weight="bold" font-size="14.00">CONTROL_STRUCTURE</text>
<text text-anchor="start" x="2100.5" y="-87.5" font-family="Times New Roman,serif" font-size="10.00">CODE: string (1)</text>
<text text-anchor="start" x="2073" y="-77.5" font-family="Times New Roman,serif" font-size="10.00">COLUMN_NUMBER: int (0:1)</text>
<text text-anchor="start" x="2083.5" y="-67.5" font-family="Times New Roman,serif" font-size="10.00">LINE_NUMBER: int (0:1)</text>
<text text-anchor="start" x="2104" y="-57.5" font-family="Times New Roman,serif" font-size="10.00">ORDER: int (1)</text>
<text text-anchor="start" x="2064.5" y="-47.5" font-family="Times New Roman,serif" font-size="10.00">PARSER_TYPE_NAME: string (1)</text>
<text text-anchor="start" x="2076" y="-37.5" font-family="Times New Roman,serif" font-size="10.00">ARGUMENT_INDEX: int (1)</text>
</g>
<!-- JUMP_TARGET&#45;&gt;CONTROL_STRUCTURE -->
<g id="edge10" class="edge">
<title>JUMP_TARGET&#45;&gt;CONTROL_STRUCTURE</title>
<path fill="none" stroke="blue" d="M1496.51,-238C1684.57,-238 2152,-238 2152,-238 2152,-238 2152,-122.66 2152,-122.66"/>
<polygon fill="blue" stroke="blue" points="2155.5,-122.66 2152,-112.66 2148.5,-122.66 2155.5,-122.66"/>
<text text-anchor="middle" x="1872.92" y="-240.6" font-family="Times New Roman,serif" font-size="8.00">CFG </text>
</g>
<!-- JUMP_TARGET&#45;&gt;CONTROL_STRUCTURE -->
<g id="edge21" class="edge">
<title>JUMP_TARGET&#45;&gt;CONTROL_STRUCTURE</title>
<path fill="none" stroke="black" d="M1496.59,-233C1677.67,-233 2115,-233 2115,-233 2115,-233 2115,-122.67 2115,-122.67"/>
<polygon fill="black" stroke="black" points="2118.5,-122.67 2115,-112.67 2111.5,-122.67 2118.5,-122.67"/>
<text text-anchor="middle" x="1836.46" y="-235.6" font-family="Times New Roman,serif" font-size="8.00">DOMINATE </text>
</g>
<!-- JUMP_TARGET&#45;&gt;CONTROL_STRUCTURE -->
<g id="edge32" class="edge">
<title>JUMP_TARGET&#45;&gt;CONTROL_STRUCTURE</title>
<path fill="none" stroke="black" d="M1496.65,-227C1670.54,-227 2078,-227 2078,-227 2078,-227 2078,-122.76 2078,-122.76"/>
<polygon fill="black" stroke="black" points="2081.5,-122.76 2078,-112.76 2074.5,-122.76 2081.5,-122.76"/>
<text text-anchor="middle" x="1876.44" y="-220.6" font-family="Times New Roman,serif" font-size="8.00">POST_DOMINATE </text>
</g>
<!-- JUMP_TARGET&#45;&gt;CONTROL_STRUCTURE -->
<g id="edge43" class="edge">
<title>JUMP_TARGET&#45;&gt;CONTROL_STRUCTURE</title>
<path fill="none" stroke="black" d="M1496.81,-244C1691.94,-244 2189,-244 2189,-244 2189,-244 2189,-122.82 2189,-122.82"/>
<polygon fill="black" stroke="black" points="2192.5,-122.82 2189,-112.82 2185.5,-122.82 2192.5,-122.82"/>
<text text-anchor="middle" x="1893.99" y="-246.6" font-family="Times New Roman,serif" font-size="8.00">CDG </text>
</g>
<!-- UNKNOWN -->
<g id="node12" class="node">
<title>UNKNOWN</title>
<polygon fill="none" stroke="black" points="2244,-20.5 2244,-122.5 2471,-122.5 2471,-20.5 2244,-20.5"/>
<text text-anchor="start" x="2318.5" y="-108.3" font-family="Times New Roman,serif" font-weight="bold" font-size="14.00">UNKNOWN</text>
<text text-anchor="start" x="2324.5" y="-97.5" font-family="Times New Roman,serif" font-size="10.00">CODE: string (1)</text>
<text text-anchor="start" x="2288.5" y="-87.5" font-family="Times New Roman,serif" font-size="10.00">PARSER_TYPE_NAME: string (1)</text>
<text text-anchor="start" x="2328" y="-77.5" font-family="Times New Roman,serif" font-size="10.00">ORDER: int (1)</text>
<text text-anchor="start" x="2300" y="-67.5" font-family="Times New Roman,serif" font-size="10.00">ARGUMENT_INDEX: int (1)</text>
<text text-anchor="start" x="2295" y="-57.5" font-family="Times New Roman,serif" font-size="10.00">TYPE_FULL_NAME: string (1)</text>
<text text-anchor="start" x="2252" y="-47.5" font-family="Times New Roman,serif" font-size="10.00">DYNAMIC_TYPE_HINT_FULL_NAME: string (0:n)</text>
<text text-anchor="start" x="2307.5" y="-37.5" font-family="Times New Roman,serif" font-size="10.00">LINE_NUMBER: int (0:1)</text>
<text text-anchor="start" x="2297" y="-27.5" font-family="Times New Roman,serif" font-size="10.00">COLUMN_NUMBER: int (0:1)</text>
</g>
<!-- JUMP_TARGET&#45;&gt;UNKNOWN -->
<g id="edge11" class="edge">
<title>JUMP_TARGET&#45;&gt;UNKNOWN</title>
<path fill="none" stroke="blue" d="M1496.78,-265C1732.37,-265 2425.6,-265 2425.6,-265 2425.6,-265 2425.6,-132.59 2425.6,-132.59"/>
<polygon fill="blue" stroke="blue" points="2429.1,-132.59 2425.6,-122.59 2422.1,-132.59 2429.1,-132.59"/>
<text text-anchor="middle" x="2018.39" y="-267.6" font-family="Times New Roman,serif" font-size="8.00">CFG </text>
</g>
<!-- JUMP_TARGET&#45;&gt;UNKNOWN -->
<g id="edge22" class="edge">
<title>JUMP_TARGET&#45;&gt;UNKNOWN</title>
<path fill="none" stroke="black" d="M1496.75,-254C1717.42,-254 2334.8,-254 2334.8,-254 2334.8,-254 2334.8,-132.82 2334.8,-132.82"/>
<polygon fill="black" stroke="black" points="2338.3,-132.82 2334.8,-122.82 2331.3,-132.82 2338.3,-132.82"/>
<text text-anchor="middle" x="1951.86" y="-256.6" font-family="Times New Roman,serif" font-size="8.00">DOMINATE </text>
</g>
<!-- JUMP_TARGET&#45;&gt;UNKNOWN -->
<g id="edge33" class="edge">
<title>JUMP_TARGET&#45;&gt;UNKNOWN</title>
<path fill="none" stroke="black" d="M1496.9,-260C1725.24,-260 2380.2,-260 2380.2,-260 2380.2,-260 2380.2,-132.51 2380.2,-132.51"/>
<polygon fill="black" stroke="black" points="2383.7,-132.51 2380.2,-122.51 2376.7,-132.51 2383.7,-132.51"/>
<text text-anchor="middle" x="2039.29" y="-253.6" font-family="Times New Roman,serif" font-size="8.00">POST_DOMINATE </text>
</g>
<!-- JUMP_TARGET&#45;&gt;UNKNOWN -->
<g id="edge45" class="edge">
<title>JUMP_TARGET&#45;&gt;UNKNOWN</title>
<path fill="none" stroke="black" d="M1496.7,-249C1709.59,-249 2289.4,-249 2289.4,-249 2289.4,-249 2289.4,-132.84 2289.4,-132.84"/>
<polygon fill="black" stroke="black" points="2292.9,-132.84 2289.4,-122.84 2285.9,-132.84 2292.9,-132.84"/>
<text text-anchor="middle" x="1941.63" y="-242.6" font-family="Times New Roman,serif" font-size="8.00">CDG </text>
</g>
<!-- CFG_NODE -->
<g id="node13" class="node">
<title>CFG_NODE</title>
<polygon fill="none" stroke="black" points="2489,-40.5 2489,-102.5 2626,-102.5 2626,-40.5 2489,-40.5"/>
<text text-anchor="start" x="2517" y="-88.3" font-family="Times New Roman,serif" font-weight="bold" font-size="14.00">CFG_NODE</text>
<text text-anchor="start" x="2507.5" y="-77.5" font-family="Times New Roman,serif" font-size="10.00">LINE_NUMBER: int (0:1)</text>
<text text-anchor="start" x="2497" y="-67.5" font-family="Times New Roman,serif" font-size="10.00">COLUMN_NUMBER: int (0:1)</text>
<text text-anchor="start" x="2515.5" y="-57.5" font-family="Times New Roman,serif" font-size="10.00">INTERNAL_FLAGS </text>
<text text-anchor="start" x="2524.5" y="-47.5" font-family="Times New Roman,serif" font-size="10.00">CODE: string (1)</text>
</g>
<!-- JUMP_TARGET&#45;&gt;CFG_NODE -->
<g id="edge46" class="edge">
<title>JUMP_TARGET&#45;&gt;CFG_NODE</title>
<path fill="none" stroke="gray" d="M1496.82,-271C1752.96,-271 2557.5,-271 2557.5,-271 2557.5,-271 2557.5,-112.67 2557.5,-112.67"/>
<polygon fill="none" stroke="gray" points="2561,-112.67 2557.5,-102.67 2554,-112.67 2561,-112.67"/>
<text text-anchor="middle" x="2103.33" y="-273.6" font-family="Times New Roman,serif" font-size="8.00">is</text>
</g>
<!-- AST_NODE -->
<g id="node14" class="node">
<title>AST_NODE</title>
<polygon fill="none" stroke="black" points="2644.5,-53.5 2644.5,-89.5 2738.5,-89.5 2738.5,-53.5 2644.5,-53.5"/>
<text text-anchor="start" x="2652.5" y="-73.3" font-family="Times New Roman,serif" font-weight="bold" font-size="14.00">AST_NODE</text>
<text text-anchor="start" x="2662" y="-62.5" font-family="Times New Roman,serif" font-size="10.00">ORDER: int (1)</text>
</g>
<!-- JUMP_TARGET&#45;&gt;AST_NODE -->
<g id="edge47" class="edge">
<title>JUMP_TARGET&#45;&gt;AST_NODE</title>
<path fill="none" stroke="gray" d="M1496.68,-276C1772.27,-276 2691.5,-276 2691.5,-276 2691.5,-276 2691.5,-99.65 2691.5,-99.65"/>
<polygon fill="none" stroke="gray" points="2695,-99.65 2691.5,-89.65 2688,-99.65 2695,-99.65"/>
<text text-anchor="middle" x="2179.27" y="-278.6" font-family="Times New Roman,serif" font-size="8.00">is</text>
</g>
</g>
</svg>
