<?xml version="1.0" encoding="UTF-8" standalone="no"?>
<!DOCTYPE svg PUBLIC "-//W3C//DTD SVG 1.1//EN"
 "http://www.w3.org/Graphics/SVG/1.1/DTD/svg11.dtd">
<!-- Generated by graphviz version 2.44.1 (20200629.0800)
 -->
<!-- Title: cpgschema Pages: 1 -->
<svg width="2311pt" height="298pt"
 viewBox="0.00 0.00 2311.00 298.00" xmlns="http://www.w3.org/2000/svg" xmlns:xlink="http://www.w3.org/1999/xlink">
<g id="graph0" class="graph" transform="scale(1 1) rotate(0) translate(4 294)">
<title>cpgschema</title>
<polygon fill="white" stroke="transparent" points="-4,4 -4,-294 2307,-294 2307,4 -4,4"/>
<!-- LITERAL -->
<g id="node1" class="node">
<title>LITERAL</title>
<polygon fill="none" stroke="black" points="1061,-179.5 1061,-271.5 1288,-271.5 1288,-179.5 1061,-179.5"/>
<text text-anchor="start" x="1142.5" y="-257.3" font-family="Times New Roman,serif" font-weight="bold" font-size="14.00">LITERAL</text>
<text text-anchor="start" x="1141.5" y="-246.5" font-family="Times New Roman,serif" font-size="10.00">CODE: string (1)</text>
<text text-anchor="start" x="1145" y="-236.5" font-family="Times New Roman,serif" font-size="10.00">ORDER: int (1)</text>
<text text-anchor="start" x="1117" y="-226.5" font-family="Times New Roman,serif" font-size="10.00">ARGUMENT_INDEX: int (1)</text>
<text text-anchor="start" x="1112" y="-216.5" font-family="Times New Roman,serif" font-size="10.00">TYPE_FULL_NAME: string (1)</text>
<text text-anchor="start" x="1069" y="-206.5" font-family="Times New Roman,serif" font-size="10.00">DYNAMIC_TYPE_HINT_FULL_NAME: string (0:n)</text>
<text text-anchor="start" x="1124.5" y="-196.5" font-family="Times New Roman,serif" font-size="10.00">LINE_NUMBER: int (0:1)</text>
<text text-anchor="start" x="1114" y="-186.5" font-family="Times New Roman,serif" font-size="10.00">COLUMN_NUMBER: int (0:1)</text>
</g>
<!-- LITERAL&#45;&gt;LITERAL -->
<g id="edge4" class="edge">
<title>LITERAL&#45;&gt;LITERAL</title>
<path fill="none" stroke="blue" d="M1174.5,-271.69C1174.5,-282.03 1174.5,-290 1174.5,-290 1174.5,-290 1052,-290 1052,-290 1052,-290 1052,-161 1052,-161 1052,-161 1231.25,-161 1231.25,-161 1231.25,-161 1231.25,-169.31 1231.25,-169.31"/>
<polygon fill="blue" stroke="blue" points="1227.75,-169.31 1231.25,-179.31 1234.75,-169.31 1227.75,-169.31"/>
<text text-anchor="middle" x="1043" y="-204.72" font-family="Times New Roman,serif" font-size="8.00">CFG </text>
</g>
<!-- CALL -->
<g id="node2" class="node">
<title>CALL</title>
<polygon fill="none" stroke="black" points="0,-0.5 0,-142.5 227,-142.5 227,-0.5 0,-0.5"/>
<text text-anchor="start" x="94" y="-128.3" font-family="Times New Roman,serif" font-weight="bold" font-size="14.00">CALL</text>
<text text-anchor="start" x="80.5" y="-117.5" font-family="Times New Roman,serif" font-size="10.00">CODE: string (1)</text>
<text text-anchor="start" x="78.5" y="-107.5" font-family="Times New Roman,serif" font-size="10.00">NAME: string (1)</text>
<text text-anchor="start" x="84" y="-97.5" font-family="Times New Roman,serif" font-size="10.00">ORDER: int (1)</text>
<text text-anchor="start" x="25.5" y="-87.5" font-family="Times New Roman,serif" font-size="10.00">METHOD_INST_FULL_NAME: string (0:1)</text>
<text text-anchor="start" x="42" y="-77.5" font-family="Times New Roman,serif" font-size="10.00">METHOD_FULL_NAME: string (1)</text>
<text text-anchor="start" x="56" y="-67.5" font-family="Times New Roman,serif" font-size="10.00">ARGUMENT_INDEX: int (1)</text>
<text text-anchor="start" x="56" y="-57.5" font-family="Times New Roman,serif" font-size="10.00">DISPATCH_TYPE: string (1)</text>
<text text-anchor="start" x="66.5" y="-47.5" font-family="Times New Roman,serif" font-size="10.00">SIGNATURE: string (1)</text>
<text text-anchor="start" x="51" y="-37.5" font-family="Times New Roman,serif" font-size="10.00">TYPE_FULL_NAME: string (1)</text>
<text text-anchor="start" x="8" y="-27.5" font-family="Times New Roman,serif" font-size="10.00">DYNAMIC_TYPE_HINT_FULL_NAME: string (0:n)</text>
<text text-anchor="start" x="63.5" y="-17.5" font-family="Times New Roman,serif" font-size="10.00">LINE_NUMBER: int (0:1)</text>
<text text-anchor="start" x="53" y="-7.5" font-family="Times New Roman,serif" font-size="10.00">COLUMN_NUMBER: int (0:1)</text>
</g>
<!-- LITERAL&#45;&gt;CALL -->
<g id="edge1" class="edge">
<title>LITERAL&#45;&gt;CALL</title>
<path fill="none" stroke="blue" d="M1117.75,-179.45C1117.75,-157.1 1117.75,-135 1117.75,-135 1117.75,-135 237.23,-135 237.23,-135"/>
<polygon fill="blue" stroke="blue" points="237.23,-131.5 227.23,-135 237.23,-138.5 237.23,-131.5"/>
<text text-anchor="middle" x="690.72" y="-137.6" font-family="Times New Roman,serif" font-size="8.00">CFG </text>
</g>
<!-- IDENTIFIER -->
<g id="node3" class="node">
<title>IDENTIFIER</title>
<polygon fill="none" stroke="black" points="245,-20.5 245,-122.5 472,-122.5 472,-20.5 245,-20.5"/>
<text text-anchor="start" x="315.5" y="-108.3" font-family="Times New Roman,serif" font-weight="bold" font-size="14.00">IDENTIFIER</text>
<text text-anchor="start" x="325.5" y="-97.5" font-family="Times New Roman,serif" font-size="10.00">CODE: string (1)</text>
<text text-anchor="start" x="323.5" y="-87.5" font-family="Times New Roman,serif" font-size="10.00">NAME: string (1)</text>
<text text-anchor="start" x="329" y="-77.5" font-family="Times New Roman,serif" font-size="10.00">ORDER: int (1)</text>
<text text-anchor="start" x="301" y="-67.5" font-family="Times New Roman,serif" font-size="10.00">ARGUMENT_INDEX: int (1)</text>
<text text-anchor="start" x="296" y="-57.5" font-family="Times New Roman,serif" font-size="10.00">TYPE_FULL_NAME: string (1)</text>
<text text-anchor="start" x="253" y="-47.5" font-family="Times New Roman,serif" font-size="10.00">DYNAMIC_TYPE_HINT_FULL_NAME: string (0:n)</text>
<text text-anchor="start" x="308.5" y="-37.5" font-family="Times New Roman,serif" font-size="10.00">LINE_NUMBER: int (0:1)</text>
<text text-anchor="start" x="298" y="-27.5" font-family="Times New Roman,serif" font-size="10.00">COLUMN_NUMBER: int (0:1)</text>
</g>
<!-- LITERAL&#45;&gt;IDENTIFIER -->
<g id="edge2" class="edge">
<title>LITERAL&#45;&gt;IDENTIFIER</title>
<path fill="none" stroke="blue" d="M1060.61,-253C836.21,-253 358.5,-253 358.5,-253 358.5,-253 358.5,-132.54 358.5,-132.54"/>
<polygon fill="blue" stroke="blue" points="362,-132.54 358.5,-122.54 355,-132.54 362,-132.54"/>
<text text-anchor="middle" x="640.33" y="-255.6" font-family="Times New Roman,serif" font-size="8.00">CFG </text>
</g>
<!-- FIELD_IDENTIFIER -->
<g id="node4" class="node">
<title>FIELD_IDENTIFIER</title>
<polygon fill="none" stroke="black" points="490,-30.5 490,-112.5 643,-112.5 643,-30.5 490,-30.5"/>
<text text-anchor="start" x="498" y="-98.3" font-family="Times New Roman,serif" font-weight="bold" font-size="14.00">FIELD_IDENTIFIER</text>
<text text-anchor="start" x="533.5" y="-87.5" font-family="Times New Roman,serif" font-size="10.00">CODE: string (1)</text>
<text text-anchor="start" x="501.5" y="-77.5" font-family="Times New Roman,serif" font-size="10.00">CANONICAL_NAME: string (1)</text>
<text text-anchor="start" x="537" y="-67.5" font-family="Times New Roman,serif" font-size="10.00">ORDER: int (1)</text>
<text text-anchor="start" x="509" y="-57.5" font-family="Times New Roman,serif" font-size="10.00">ARGUMENT_INDEX: int (1)</text>
<text text-anchor="start" x="516.5" y="-47.5" font-family="Times New Roman,serif" font-size="10.00">LINE_NUMBER: int (0:1)</text>
<text text-anchor="start" x="506" y="-37.5" font-family="Times New Roman,serif" font-size="10.00">COLUMN_NUMBER: int (0:1)</text>
</g>
<!-- LITERAL&#45;&gt;FIELD_IDENTIFIER -->
<g id="edge3" class="edge">
<title>LITERAL&#45;&gt;FIELD_IDENTIFIER</title>
<path fill="none" stroke="blue" d="M1060.85,-234C884.88,-234 566.5,-234 566.5,-234 566.5,-234 566.5,-122.51 566.5,-122.51"/>
<polygon fill="blue" stroke="blue" points="570,-122.51 566.5,-112.51 563,-122.51 570,-122.51"/>
<text text-anchor="middle" x="748.93" y="-236.6" font-family="Times New Roman,serif" font-size="8.00">CFG </text>
</g>
<!-- RETURN -->
<g id="node5" class="node">
<title>RETURN</title>
<polygon fill="none" stroke="black" points="661,-35.5 661,-107.5 798,-107.5 798,-35.5 661,-35.5"/>
<text text-anchor="start" x="699" y="-93.3" font-family="Times New Roman,serif" font-weight="bold" font-size="14.00">RETURN</text>
<text text-anchor="start" x="679.5" y="-82.5" font-family="Times New Roman,serif" font-size="10.00">LINE_NUMBER: int (0:1)</text>
<text text-anchor="start" x="669" y="-72.5" font-family="Times New Roman,serif" font-size="10.00">COLUMN_NUMBER: int (0:1)</text>
<text text-anchor="start" x="700" y="-62.5" font-family="Times New Roman,serif" font-size="10.00">ORDER: int (1)</text>
<text text-anchor="start" x="672" y="-52.5" font-family="Times New Roman,serif" font-size="10.00">ARGUMENT_INDEX: int (1)</text>
<text text-anchor="start" x="696.5" y="-42.5" font-family="Times New Roman,serif" font-size="10.00">CODE: string (1)</text>
</g>
<!-- LITERAL&#45;&gt;RETURN -->
<g id="edge7" class="edge">
<title>LITERAL&#45;&gt;RETURN</title>
<path fill="none" stroke="blue" d="M1060.77,-216C928.92,-216 729.5,-216 729.5,-216 729.5,-216 729.5,-117.59 729.5,-117.59"/>
<polygon fill="blue" stroke="blue" points="733,-117.59 729.5,-107.59 726,-117.59 733,-117.59"/>
<text text-anchor="middle" x="836.93" y="-218.6" font-family="Times New Roman,serif" font-size="8.00">CFG </text>
</g>
<!-- BLOCK -->
<g id="node6" class="node">
<title>BLOCK</title>
<polygon fill="none" stroke="black" points="816,-25.5 816,-117.5 1043,-117.5 1043,-25.5 816,-25.5"/>
<text text-anchor="start" x="903.5" y="-103.3" font-family="Times New Roman,serif" font-weight="bold" font-size="14.00">BLOCK</text>
<text text-anchor="start" x="896.5" y="-92.5" font-family="Times New Roman,serif" font-size="10.00">CODE: string (1)</text>
<text text-anchor="start" x="900" y="-82.5" font-family="Times New Roman,serif" font-size="10.00">ORDER: int (1)</text>
<text text-anchor="start" x="872" y="-72.5" font-family="Times New Roman,serif" font-size="10.00">ARGUMENT_INDEX: int (1)</text>
<text text-anchor="start" x="867" y="-62.5" font-family="Times New Roman,serif" font-size="10.00">TYPE_FULL_NAME: string (1)</text>
<text text-anchor="start" x="824" y="-52.5" font-family="Times New Roman,serif" font-size="10.00">DYNAMIC_TYPE_HINT_FULL_NAME: string (0:n)</text>
<text text-anchor="start" x="879.5" y="-42.5" font-family="Times New Roman,serif" font-size="10.00">LINE_NUMBER: int (0:1)</text>
<text text-anchor="start" x="869" y="-32.5" font-family="Times New Roman,serif" font-size="10.00">COLUMN_NUMBER: int (0:1)</text>
</g>
<!-- LITERAL&#45;&gt;BLOCK -->
<g id="edge8" class="edge">
<title>LITERAL&#45;&gt;BLOCK</title>
<path fill="none" stroke="blue" d="M1060.97,-197C996.88,-197 929.5,-197 929.5,-197 929.5,-197 929.5,-127.52 929.5,-127.52"/>
<polygon fill="blue" stroke="blue" points="933,-127.52 929.5,-117.52 926,-127.52 933,-127.52"/>
<text text-anchor="middle" x="951.49" y="-199.6" font-family="Times New Roman,serif" font-size="8.00">CFG </text>
</g>
<!-- METHOD_REF -->
<g id="node7" class="node">
<title>METHOD_REF</title>
<polygon fill="none" stroke="black" points="1061,-15.5 1061,-127.5 1288,-127.5 1288,-15.5 1061,-15.5"/>
<text text-anchor="start" x="1123" y="-113.3" font-family="Times New Roman,serif" font-weight="bold" font-size="14.00">METHOD_REF</text>
<text text-anchor="start" x="1141.5" y="-102.5" font-family="Times New Roman,serif" font-size="10.00">CODE: string (1)</text>
<text text-anchor="start" x="1145" y="-92.5" font-family="Times New Roman,serif" font-size="10.00">ORDER: int (1)</text>
<text text-anchor="start" x="1117" y="-82.5" font-family="Times New Roman,serif" font-size="10.00">ARGUMENT_INDEX: int (1)</text>
<text text-anchor="start" x="1112" y="-72.5" font-family="Times New Roman,serif" font-size="10.00">TYPE_FULL_NAME: string (1)</text>
<text text-anchor="start" x="1069" y="-62.5" font-family="Times New Roman,serif" font-size="10.00">DYNAMIC_TYPE_HINT_FULL_NAME: string (0:n)</text>
<text text-anchor="start" x="1086.5" y="-52.5" font-family="Times New Roman,serif" font-size="10.00">METHOD_INST_FULL_NAME: string (0:1)</text>
<text text-anchor="start" x="1103" y="-42.5" font-family="Times New Roman,serif" font-size="10.00">METHOD_FULL_NAME: string (1)</text>
<text text-anchor="start" x="1124.5" y="-32.5" font-family="Times New Roman,serif" font-size="10.00">LINE_NUMBER: int (0:1)</text>
<text text-anchor="start" x="1114" y="-22.5" font-family="Times New Roman,serif" font-size="10.00">COLUMN_NUMBER: int (0:1)</text>
</g>
<!-- LITERAL&#45;&gt;METHOD_REF -->
<g id="edge5" class="edge">
<title>LITERAL&#45;&gt;METHOD_REF</title>
<path fill="none" stroke="blue" d="M1174.5,-179.29C1174.5,-179.29 1174.5,-137.74 1174.5,-137.74"/>
<polygon fill="blue" stroke="blue" points="1178,-137.74 1174.5,-127.74 1171,-137.74 1178,-137.74"/>
<text text-anchor="middle" x="1165.5" y="-161.12" font-family="Times New Roman,serif" font-size="8.00">CFG </text>
</g>
<!-- TYPE_REF -->
<g id="node8" class="node">
<title>TYPE_REF</title>
<polygon fill="none" stroke="black" points="1306,-25.5 1306,-117.5 1533,-117.5 1533,-25.5 1306,-25.5"/>
<text text-anchor="start" x="1381.5" y="-103.3" font-family="Times New Roman,serif" font-weight="bold" font-size="14.00">TYPE_REF</text>
<text text-anchor="start" x="1386.5" y="-92.5" font-family="Times New Roman,serif" font-size="10.00">CODE: string (1)</text>
<text text-anchor="start" x="1390" y="-82.5" font-family="Times New Roman,serif" font-size="10.00">ORDER: int (1)</text>
<text text-anchor="start" x="1362" y="-72.5" font-family="Times New Roman,serif" font-size="10.00">ARGUMENT_INDEX: int (1)</text>
<text text-anchor="start" x="1357" y="-62.5" font-family="Times New Roman,serif" font-size="10.00">TYPE_FULL_NAME: string (1)</text>
<text text-anchor="start" x="1314" y="-52.5" font-family="Times New Roman,serif" font-size="10.00">DYNAMIC_TYPE_HINT_FULL_NAME: string (0:n)</text>
<text text-anchor="start" x="1369.5" y="-42.5" font-family="Times New Roman,serif" font-size="10.00">LINE_NUMBER: int (0:1)</text>
<text text-anchor="start" x="1359" y="-32.5" font-family="Times New Roman,serif" font-size="10.00">COLUMN_NUMBER: int (0:1)</text>
</g>
<!-- LITERAL&#45;&gt;TYPE_REF -->
<g id="edge6" class="edge">
<title>LITERAL&#45;&gt;TYPE_REF</title>
<path fill="none" stroke="blue" d="M1288.03,-194C1352.12,-194 1419.5,-194 1419.5,-194 1419.5,-194 1419.5,-127.81 1419.5,-127.81"/>
<polygon fill="blue" stroke="blue" points="1423,-127.81 1419.5,-117.81 1416,-127.81 1423,-127.81"/>
<text text-anchor="middle" x="1377.86" y="-196.6" font-family="Times New Roman,serif" font-size="8.00">CFG </text>
</g>
<!-- CONTROL_STRUCTURE -->
<g id="node9" class="node">
<title>CONTROL_STRUCTURE</title>
<polygon fill="none" stroke="black" points="1551,-30.5 1551,-112.5 1736,-112.5 1736,-30.5 1551,-30.5"/>
<text text-anchor="start" x="1559" y="-98.3" font-family="Times New Roman,serif" font-weight="bold" font-size="14.00">CONTROL_STRUCTURE</text>
<text text-anchor="start" x="1610.5" y="-87.5" font-family="Times New Roman,serif" font-size="10.00">CODE: string (1)</text>
<text text-anchor="start" x="1583" y="-77.5" font-family="Times New Roman,serif" font-size="10.00">COLUMN_NUMBER: int (0:1)</text>
<text text-anchor="start" x="1593.5" y="-67.5" font-family="Times New Roman,serif" font-size="10.00">LINE_NUMBER: int (0:1)</text>
<text text-anchor="start" x="1614" y="-57.5" font-family="Times New Roman,serif" font-size="10.00">ORDER: int (1)</text>
<text text-anchor="start" x="1574.5" y="-47.5" font-family="Times New Roman,serif" font-size="10.00">PARSER_TYPE_NAME: string (1)</text>
<text text-anchor="start" x="1586" y="-37.5" font-family="Times New Roman,serif" font-size="10.00">ARGUMENT_INDEX: int (1)</text>
</g>
<!-- LITERAL&#45;&gt;CONTROL_STRUCTURE -->
<g id="edge10" class="edge">
<title>LITERAL&#45;&gt;CONTROL_STRUCTURE</title>
<path fill="none" stroke="blue" d="M1288.03,-210C1426.83,-210 1643.5,-210 1643.5,-210 1643.5,-210 1643.5,-122.68 1643.5,-122.68"/>
<polygon fill="blue" stroke="blue" points="1647,-122.68 1643.5,-112.68 1640,-122.68 1647,-122.68"/>
<text text-anchor="middle" x="1500.43" y="-212.6" font-family="Times New Roman,serif" font-size="8.00">CFG </text>
</g>
<!-- JUMP_TARGET -->
<g id="node10" class="node">
<title>JUMP_TARGET</title>
<polygon fill="none" stroke="black" points="1754.5,-20.5 1754.5,-122.5 1908.5,-122.5 1908.5,-20.5 1754.5,-20.5"/>
<text text-anchor="start" x="1777" y="-108.3" font-family="Times New Roman,serif" font-weight="bold" font-size="14.00">JUMP_TARGET</text>
<text text-anchor="start" x="1798.5" y="-97.5" font-family="Times New Roman,serif" font-size="10.00">CODE: string (1)</text>
<text text-anchor="start" x="1796.5" y="-87.5" font-family="Times New Roman,serif" font-size="10.00">NAME: string (1)</text>
<text text-anchor="start" x="1771" y="-77.5" font-family="Times New Roman,serif" font-size="10.00">COLUMN_NUMBER: int (0:1)</text>
<text text-anchor="start" x="1781.5" y="-67.5" font-family="Times New Roman,serif" font-size="10.00">LINE_NUMBER: int (0:1)</text>
<text text-anchor="start" x="1802" y="-57.5" font-family="Times New Roman,serif" font-size="10.00">ORDER: int (1)</text>
<text text-anchor="start" x="1762.5" y="-47.5" font-family="Times New Roman,serif" font-size="10.00">PARSER_TYPE_NAME: string (1)</text>
<text text-anchor="start" x="1774" y="-37.5" font-family="Times New Roman,serif" font-size="10.00">ARGUMENT_INDEX: int (1)</text>
<text text-anchor="start" x="1789.5" y="-27.5" font-family="Times New Roman,serif" font-size="10.00">INTERNAL_FLAGS </text>
</g>
<!-- LITERAL&#45;&gt;JUMP_TARGET -->
<g id="edge9" class="edge">
<title>LITERAL&#45;&gt;JUMP_TARGET</title>
<path fill="none" stroke="blue" d="M1288.19,-225C1476.23,-225 1831.5,-225 1831.5,-225 1831.5,-225 1831.5,-132.61 1831.5,-132.61"/>
<polygon fill="blue" stroke="blue" points="1835,-132.61 1831.5,-122.61 1828,-132.61 1835,-132.61"/>
<text text-anchor="middle" x="1597.04" y="-227.6" font-family="Times New Roman,serif" font-size="8.00">CFG </text>
</g>
<!-- UNKNOWN -->
<g id="node11" class="node">
<title>UNKNOWN</title>
<polygon fill="none" stroke="black" points="1927,-20.5 1927,-122.5 2154,-122.5 2154,-20.5 1927,-20.5"/>
<text text-anchor="start" x="2001.5" y="-108.3" font-family="Times New Roman,serif" font-weight="bold" font-size="14.00">UNKNOWN</text>
<text text-anchor="start" x="2007.5" y="-97.5" font-family="Times New Roman,serif" font-size="10.00">CODE: string (1)</text>
<text text-anchor="start" x="1971.5" y="-87.5" font-family="Times New Roman,serif" font-size="10.00">PARSER_TYPE_NAME: string (1)</text>
<text text-anchor="start" x="2011" y="-77.5" font-family="Times New Roman,serif" font-size="10.00">ORDER: int (1)</text>
<text text-anchor="start" x="1983" y="-67.5" font-family="Times New Roman,serif" font-size="10.00">ARGUMENT_INDEX: int (1)</text>
<text text-anchor="start" x="1978" y="-57.5" font-family="Times New Roman,serif" font-size="10.00">TYPE_FULL_NAME: string (1)</text>
<text text-anchor="start" x="1935" y="-47.5" font-family="Times New Roman,serif" font-size="10.00">DYNAMIC_TYPE_HINT_FULL_NAME: string (0:n)</text>
<text text-anchor="start" x="1990.5" y="-37.5" font-family="Times New Roman,serif" font-size="10.00">LINE_NUMBER: int (0:1)</text>
<text text-anchor="start" x="1980" y="-27.5" font-family="Times New Roman,serif" font-size="10.00">COLUMN_NUMBER: int (0:1)</text>
</g>
<!-- LITERAL&#45;&gt;UNKNOWN -->
<g id="edge11" class="edge">
<title>LITERAL&#45;&gt;UNKNOWN</title>
<path fill="none" stroke="blue" d="M1288.16,-241C1523.11,-241 2040.5,-241 2040.5,-241 2040.5,-241 2040.5,-132.82 2040.5,-132.82"/>
<polygon fill="blue" stroke="blue" points="2044,-132.82 2040.5,-122.82 2037,-132.82 2044,-132.82"/>
<text text-anchor="middle" x="1709.42" y="-243.6" font-family="Times New Roman,serif" font-size="8.00">CFG </text>
</g>
<!-- EXPRESSION -->
<g id="node12" class="node">
<title>EXPRESSION</title>
<polygon fill="none" stroke="black" points="2172,-45.5 2172,-97.5 2303,-97.5 2303,-45.5 2172,-45.5"/>
<text text-anchor="start" x="2191" y="-83.3" font-family="Times New Roman,serif" font-weight="bold" font-size="14.00">EXPRESSION</text>
<text text-anchor="start" x="2204.5" y="-72.5" font-family="Times New Roman,serif" font-size="10.00">CODE: string (1)</text>
<text text-anchor="start" x="2208" y="-62.5" font-family="Times New Roman,serif" font-size="10.00">ORDER: int (1)</text>
<text text-anchor="start" x="2180" y="-52.5" font-family="Times New Roman,serif" font-size="10.00">ARGUMENT_INDEX: int (1)</text>
</g>
<!-- LITERAL&#45;&gt;EXPRESSION -->
<g id="edge12" class="edge">
<title>LITERAL&#45;&gt;EXPRESSION</title>
<path fill="none" stroke="gray" d="M1288.01,-256C1562.07,-256 2237.5,-256 2237.5,-256 2237.5,-256 2237.5,-107.54 2237.5,-107.54"/>
<polygon fill="none" stroke="gray" points="2241,-107.54 2237.5,-97.54 2234,-107.54 2241,-107.54"/>
<text text-anchor="middle" x="1833.98" y="-258.6" font-family="Times New Roman,serif" font-size="8.00">is</text>
</g>
</g>
</svg>
