<?xml version="1.0" encoding="UTF-8" standalone="no"?>
<!DOCTYPE svg PUBLIC "-//W3C//DTD SVG 1.1//EN"
 "http://www.w3.org/Graphics/SVG/1.1/DTD/svg11.dtd">
<!-- Generated by graphviz version 2.44.1 (0)
 -->
<!-- Title: cpgschema Pages: 1 -->
<svg width="1765pt" height="191pt"
 viewBox="0.00 0.00 1765.49 191.00" xmlns="http://www.w3.org/2000/svg" xmlns:xlink="http://www.w3.org/1999/xlink">
<g id="graph0" class="graph" transform="scale(1 1) rotate(0) translate(4 187)">
<title>cpgschema</title>
<polygon fill="white" stroke="transparent" points="-4,4 -4,-187 1761.49,-187 1761.49,4 -4,4"/>
<!-- LITERAL -->
<g id="node1" class="node">
<title>LITERAL</title>
<polygon fill="none" stroke="black" points="730.75,-72.5 730.75,-164.5 940.75,-164.5 940.75,-72.5 730.75,-72.5"/>
<text text-anchor="start" x="800.75" y="-150.3" font-family="Times,serif" font-weight="bold" font-size="14.00">LITERAL</text>
<text text-anchor="start" x="819.75" y="-139.5" font-family="Times,serif" font-size="10.00">CODE</text>
<text text-anchor="start" x="815.75" y="-129.5" font-family="Times,serif" font-size="10.00">ORDER</text>
<text text-anchor="start" x="782.75" y="-119.5" font-family="Times,serif" font-size="10.00">ARGUMENT_INDEX</text>
<text text-anchor="start" x="784.75" y="-109.5" font-family="Times,serif" font-size="10.00">TYPE_FULL_NAME</text>
<text text-anchor="start" x="738.75" y="-99.5" font-family="Times,serif" font-size="10.00">DYNAMIC_TYPE_HINT_FULL_NAME</text>
<text text-anchor="start" x="794.25" y="-89.5" font-family="Times,serif" font-size="10.00">LINE_NUMBER</text>
<text text-anchor="start" x="782.75" y="-79.5" font-family="Times,serif" font-size="10.00">COLUMN_NUMBER</text>
</g>
<!-- LITERAL&#45;&gt;LITERAL -->
<g id="edge4" class="edge">
<title>LITERAL&#45;&gt;LITERAL</title>
<path fill="none" stroke="blue" d="M835.75,-164.69C835.75,-175.03 835.75,-183 835.75,-183 835.75,-183 967.84,-183 967.84,-183 967.84,-183 967.84,-54 967.84,-54 967.84,-54 929.35,-54 929.35,-54 929.35,-54 929.35,-62.31 929.35,-62.31"/>
<polygon fill="blue" stroke="blue" points="925.85,-62.31 929.35,-72.31 932.85,-62.31 925.85,-62.31"/>
<text text-anchor="middle" x="957.34" y="-172.9" font-family="Times,serif" font-size="8.00">CFG </text>
</g>
<!-- CALL -->
<g id="node2" class="node">
<title>CALL</title>
<ellipse fill="none" stroke="black" cx="35.75" cy="-18" rx="36" ry="18"/>
<text text-anchor="middle" x="35.75" y="-14.3" font-family="Times,serif" font-size="14.00">CALL</text>
</g>
<!-- LITERAL&#45;&gt;CALL -->
<g id="edge1" class="edge">
<title>LITERAL&#45;&gt;CALL</title>
<path fill="none" stroke="blue" d="M730.34,-146C513.1,-146 35.75,-146 35.75,-146 35.75,-146 35.75,-46.07 35.75,-46.07"/>
<polygon fill="blue" stroke="blue" points="39.25,-46.07 35.75,-36.07 32.25,-46.07 39.25,-46.07"/>
<text text-anchor="middle" x="322.58" y="-148.6" font-family="Times,serif" font-size="8.00">CFG </text>
</g>
<!-- IDENTIFIER -->
<g id="node3" class="node">
<title>IDENTIFIER</title>
<ellipse fill="none" stroke="black" cx="158.75" cy="-18" rx="68.79" ry="18"/>
<text text-anchor="middle" x="158.75" y="-14.3" font-family="Times,serif" font-size="14.00">IDENTIFIER</text>
</g>
<!-- LITERAL&#45;&gt;IDENTIFIER -->
<g id="edge2" class="edge">
<title>LITERAL&#45;&gt;IDENTIFIER</title>
<path fill="none" stroke="blue" d="M730.71,-127C540.55,-127 158.75,-127 158.75,-127 158.75,-127 158.75,-46.49 158.75,-46.49"/>
<polygon fill="blue" stroke="blue" points="162.25,-46.49 158.75,-36.49 155.25,-46.49 162.25,-46.49"/>
<text text-anchor="middle" x="393.97" y="-129.6" font-family="Times,serif" font-size="8.00">CFG </text>
</g>
<!-- FIELD_IDENTIFIER -->
<g id="node4" class="node">
<title>FIELD_IDENTIFIER</title>
<ellipse fill="none" stroke="black" cx="348.75" cy="-18" rx="102.88" ry="18"/>
<text text-anchor="middle" x="348.75" y="-14.3" font-family="Times,serif" font-size="14.00">FIELD_IDENTIFIER</text>
</g>
<!-- LITERAL&#45;&gt;FIELD_IDENTIFIER -->
<g id="edge3" class="edge">
<title>LITERAL&#45;&gt;FIELD_IDENTIFIER</title>
<path fill="none" stroke="blue" d="M730.67,-109C587.51,-109 348.75,-109 348.75,-109 348.75,-109 348.75,-46.42 348.75,-46.42"/>
<polygon fill="blue" stroke="blue" points="352.25,-46.42 348.75,-36.42 345.25,-46.42 352.25,-46.42"/>
<text text-anchor="middle" x="497.92" y="-111.6" font-family="Times,serif" font-size="8.00">CFG </text>
</g>
<!-- METHOD_REF -->
<g id="node5" class="node">
<title>METHOD_REF</title>
<ellipse fill="none" stroke="black" cx="548.75" cy="-18" rx="79.09" ry="18"/>
<text text-anchor="middle" x="548.75" y="-14.3" font-family="Times,serif" font-size="14.00">METHOD_REF</text>
</g>
<!-- LITERAL&#45;&gt;METHOD_REF -->
<g id="edge5" class="edge">
<title>LITERAL&#45;&gt;METHOD_REF</title>
<path fill="none" stroke="blue" d="M730.51,-90C648.6,-90 548.75,-90 548.75,-90 548.75,-90 548.75,-46.17 548.75,-46.17"/>
<polygon fill="blue" stroke="blue" points="552.25,-46.17 548.75,-36.17 545.25,-46.17 552.25,-46.17"/>
<text text-anchor="middle" x="607.21" y="-92.6" font-family="Times,serif" font-size="8.00">CFG </text>
</g>
<!-- TYPE_REF -->
<g id="node6" class="node">
<title>TYPE_REF</title>
<ellipse fill="none" stroke="black" cx="705.75" cy="-18" rx="59.59" ry="18"/>
<text text-anchor="middle" x="705.75" y="-14.3" font-family="Times,serif" font-size="14.00">TYPE_REF</text>
</g>
<!-- LITERAL&#45;&gt;TYPE_REF -->
<g id="edge6" class="edge">
<title>LITERAL&#45;&gt;TYPE_REF</title>
<path fill="none" stroke="blue" d="M748.14,-72.37C748.14,-72.37 748.14,-40.71 748.14,-40.71"/>
<polygon fill="blue" stroke="blue" points="751.64,-40.71 748.14,-30.71 744.64,-40.71 751.64,-40.71"/>
<text text-anchor="middle" x="737.64" y="-59.14" font-family="Times,serif" font-size="8.00">CFG </text>
</g>
<!-- RETURN -->
<g id="node7" class="node">
<title>RETURN</title>
<ellipse fill="none" stroke="black" cx="835.75" cy="-18" rx="52.79" ry="18"/>
<text text-anchor="middle" x="835.75" y="-14.3" font-family="Times,serif" font-size="14.00">RETURN</text>
</g>
<!-- LITERAL&#45;&gt;RETURN -->
<g id="edge7" class="edge">
<title>LITERAL&#45;&gt;RETURN</title>
<path fill="none" stroke="blue" d="M835.75,-72.37C835.75,-72.37 835.75,-46.25 835.75,-46.25"/>
<polygon fill="blue" stroke="blue" points="839.25,-46.25 835.75,-36.25 832.25,-46.25 839.25,-46.25"/>
<text text-anchor="middle" x="825.25" y="-61.91" font-family="Times,serif" font-size="8.00">CFG </text>
</g>
<!-- BLOCK -->
<g id="node8" class="node">
<title>BLOCK</title>
<ellipse fill="none" stroke="black" cx="950.75" cy="-18" rx="44.39" ry="18"/>
<text text-anchor="middle" x="950.75" y="-14.3" font-family="Times,serif" font-size="14.00">BLOCK</text>
</g>
<!-- LITERAL&#45;&gt;BLOCK -->
<g id="edge8" class="edge">
<title>LITERAL&#45;&gt;BLOCK</title>
<path fill="none" stroke="blue" d="M917.95,-72.37C917.95,-72.37 917.95,-40.28 917.95,-40.28"/>
<polygon fill="blue" stroke="blue" points="921.45,-40.28 917.95,-30.28 914.45,-40.28 921.45,-40.28"/>
<text text-anchor="middle" x="907.45" y="-58.93" font-family="Times,serif" font-size="8.00">CFG </text>
</g>
<!-- JUMP_TARGET -->
<g id="node9" class="node">
<title>JUMP_TARGET</title>
<ellipse fill="none" stroke="black" cx="1093.75" cy="-18" rx="80.69" ry="18"/>
<text text-anchor="middle" x="1093.75" y="-14.3" font-family="Times,serif" font-size="14.00">JUMP_TARGET</text>
</g>
<!-- LITERAL&#45;&gt;JUMP_TARGET -->
<g id="edge9" class="edge">
<title>LITERAL&#45;&gt;JUMP_TARGET</title>
<path fill="none" stroke="blue" d="M941.06,-90C1012.4,-90 1093.75,-90 1093.75,-90 1093.75,-90 1093.75,-46.17 1093.75,-46.17"/>
<polygon fill="blue" stroke="blue" points="1097.25,-46.17 1093.75,-36.17 1090.25,-46.17 1097.25,-46.17"/>
<text text-anchor="middle" x="1028.82" y="-92.6" font-family="Times,serif" font-size="8.00">CFG </text>
</g>
<!-- CONTROL_STRUCTURE -->
<g id="node10" class="node">
<title>CONTROL_STRUCTURE</title>
<ellipse fill="none" stroke="black" cx="1316.75" cy="-18" rx="124.28" ry="18"/>
<text text-anchor="middle" x="1316.75" y="-14.3" font-family="Times,serif" font-size="14.00">CONTROL_STRUCTURE</text>
</g>
<!-- LITERAL&#45;&gt;CONTROL_STRUCTURE -->
<g id="edge10" class="edge">
<title>LITERAL&#45;&gt;CONTROL_STRUCTURE</title>
<path fill="none" stroke="blue" d="M941.01,-109C1082.57,-109 1316.75,-109 1316.75,-109 1316.75,-109 1316.75,-46.42 1316.75,-46.42"/>
<polygon fill="blue" stroke="blue" points="1320.25,-46.42 1316.75,-36.42 1313.25,-46.42 1320.25,-46.42"/>
<text text-anchor="middle" x="1149.67" y="-111.6" font-family="Times,serif" font-size="8.00">CFG </text>
</g>
<!-- UNKNOWN -->
<g id="node11" class="node">
<title>UNKNOWN</title>
<ellipse fill="none" stroke="black" cx="1524.75" cy="-18" rx="65.79" ry="18"/>
<text text-anchor="middle" x="1524.75" y="-14.3" font-family="Times,serif" font-size="14.00">UNKNOWN</text>
</g>
<!-- LITERAL&#45;&gt;UNKNOWN -->
<g id="edge11" class="edge">
<title>LITERAL&#45;&gt;UNKNOWN</title>
<path fill="none" stroke="blue" d="M940.77,-127C1133.64,-127 1524.75,-127 1524.75,-127 1524.75,-127 1524.75,-46.49 1524.75,-46.49"/>
<polygon fill="blue" stroke="blue" points="1528.25,-46.49 1524.75,-36.49 1521.25,-46.49 1528.25,-46.49"/>
<text text-anchor="middle" x="1262.51" y="-129.6" font-family="Times,serif" font-size="8.00">CFG </text>
</g>
<!-- EXPRESSION -->
<g id="node12" class="node">
<title>EXPRESSION</title>
<ellipse fill="none" stroke="black" cx="1682.75" cy="-18" rx="74.99" ry="18"/>
<text text-anchor="middle" x="1682.75" y="-14.3" font-family="Times,serif" font-size="14.00">EXPRESSION</text>
</g>
<!-- LITERAL&#45;&gt;EXPRESSION -->
<g id="edge12" class="edge">
<title>LITERAL&#45;&gt;EXPRESSION</title>
<path fill="none" stroke="gray" d="M940.88,-146C1167.72,-146 1682.75,-146 1682.75,-146 1682.75,-146 1682.75,-46.07 1682.75,-46.07"/>
<polygon fill="none" stroke="gray" points="1686.25,-46.07 1682.75,-36.07 1679.25,-46.07 1686.25,-46.07"/>
<text text-anchor="middle" x="1358.28" y="-148.6" font-family="Times,serif" font-size="8.00">is</text>
</g>
</g>
</svg>
