<?xml version="1.0" encoding="UTF-8" standalone="no"?>
<!DOCTYPE svg PUBLIC "-//W3C//DTD SVG 1.1//EN"
 "http://www.w3.org/Graphics/SVG/1.1/DTD/svg11.dtd">
<!-- Generated by graphviz version 2.44.1 (20200629.0800)
 -->
<!-- Title: cpgschema Pages: 1 -->
<svg width="370pt" height="184pt"
 viewBox="0.00 0.00 369.50 184.00" xmlns="http://www.w3.org/2000/svg" xmlns:xlink="http://www.w3.org/1999/xlink">
<g id="graph0" class="graph" transform="scale(1 1) rotate(0) translate(4 180)">
<title>cpgschema</title>
<polygon fill="white" stroke="transparent" points="-4,4 -4,-180 365.5,-180 365.5,4 -4,4"/>
<!-- LOCAL -->
<g id="node1" class="node">
<title>LOCAL</title>
<polygon fill="none" stroke="black" points="82,-73.5 82,-175.5 309,-175.5 309,-73.5 82,-73.5"/>
<text text-anchor="start" x="170.5" y="-161.3" font-family="Times New Roman,serif" font-weight="bold" font-size="14.00">LOCAL</text>
<text text-anchor="start" x="162.5" y="-150.5" font-family="Times New Roman,serif" font-size="10.00">CODE: string (1)</text>
<text text-anchor="start" x="160.5" y="-140.5" font-family="Times New Roman,serif" font-size="10.00">NAME: string (1)</text>
<text text-anchor="start" x="144" y="-130.5" font-family="Times New Roman,serif" font-size="10.00">CLOSURE_BINDING_ID </text>
<text text-anchor="start" x="133" y="-120.5" font-family="Times New Roman,serif" font-size="10.00">TYPE_FULL_NAME: string (1)</text>
<text text-anchor="start" x="90" y="-110.5" font-family="Times New Roman,serif" font-size="10.00">DYNAMIC_TYPE_HINT_FULL_NAME: string (0:n)</text>
<text text-anchor="start" x="145.5" y="-100.5" font-family="Times New Roman,serif" font-size="10.00">LINE_NUMBER: int (0:1)</text>
<text text-anchor="start" x="135" y="-90.5" font-family="Times New Roman,serif" font-size="10.00">COLUMN_NUMBER: int (0:1)</text>
<text text-anchor="start" x="166" y="-80.5" font-family="Times New Roman,serif" font-size="10.00">ORDER: int (1)</text>
</g>
<!-- DECLARATION -->
<g id="node2" class="node">
<title>DECLARATION</title>
<polygon fill="none" stroke="black" points="0,-0.5 0,-36.5 123,-36.5 123,-0.5 0,-0.5"/>
<text text-anchor="start" x="8" y="-20.3" font-family="Times New Roman,serif" font-weight="bold" font-size="14.00">DECLARATION</text>
<text text-anchor="start" x="26.5" y="-9.5" font-family="Times New Roman,serif" font-size="10.00">NAME: string (1)</text>
</g>
<!-- LOCAL&#45;&gt;DECLARATION -->
<g id="edge1" class="edge">
<title>LOCAL&#45;&gt;DECLARATION</title>
<path fill="none" stroke="gray" d="M102.5,-73.36C102.5,-73.36 102.5,-46.74 102.5,-46.74"/>
<polygon fill="none" stroke="gray" points="106,-46.74 102.5,-36.74 99,-46.74 106,-46.74"/>
<text text-anchor="middle" x="99.5" y="-62.65" font-family="Times New Roman,serif" font-size="8.00">is</text>
</g>
<!-- LOCAL_LIKE -->
<g id="node3" class="node">
<title>LOCAL_LIKE</title>
<polygon fill="none" stroke="black" points="141.5,-0.5 141.5,-36.5 249.5,-36.5 249.5,-0.5 141.5,-0.5"/>
<text text-anchor="start" x="149.5" y="-20.3" font-family="Times New Roman,serif" font-weight="bold" font-size="14.00">LOCAL_LIKE</text>
<text text-anchor="start" x="160.5" y="-9.5" font-family="Times New Roman,serif" font-size="10.00">NAME: string (1)</text>
</g>
<!-- LOCAL&#45;&gt;LOCAL_LIKE -->
<g id="edge2" class="edge">
<title>LOCAL&#45;&gt;LOCAL_LIKE</title>
<path fill="none" stroke="gray" d="M195.5,-73.36C195.5,-73.36 195.5,-46.74 195.5,-46.74"/>
<polygon fill="none" stroke="gray" points="199,-46.74 195.5,-36.74 192,-46.74 199,-46.74"/>
<text text-anchor="middle" x="192.5" y="-62.65" font-family="Times New Roman,serif" font-size="8.00">is</text>
</g>
<!-- AST_NODE -->
<g id="node4" class="node">
<title>AST_NODE</title>
<polygon fill="none" stroke="black" points="267.5,-0.5 267.5,-36.5 361.5,-36.5 361.5,-0.5 267.5,-0.5"/>
<text text-anchor="start" x="275.5" y="-20.3" font-family="Times New Roman,serif" font-weight="bold" font-size="14.00">AST_NODE</text>
<text text-anchor="start" x="285" y="-9.5" font-family="Times New Roman,serif" font-size="10.00">ORDER: int (1)</text>
</g>
<!-- LOCAL&#45;&gt;AST_NODE -->
<g id="edge3" class="edge">
<title>LOCAL&#45;&gt;AST_NODE</title>
<path fill="none" stroke="gray" d="M288.25,-73.36C288.25,-73.36 288.25,-46.74 288.25,-46.74"/>
<polygon fill="none" stroke="gray" points="291.75,-46.74 288.25,-36.74 284.75,-46.74 291.75,-46.74"/>
<text text-anchor="middle" x="285.25" y="-62.65" font-family="Times New Roman,serif" font-size="8.00">is</text>
</g>
</g>
</svg>
