<?xml version="1.0" encoding="UTF-8" standalone="no"?>
<!DOCTYPE svg PUBLIC "-//W3C//DTD SVG 1.1//EN"
 "http://www.w3.org/Graphics/SVG/1.1/DTD/svg11.dtd">
<!-- Generated by graphviz version 2.44.1 (0)
 -->
<!-- Title: cpgschema Pages: 1 -->
<svg width="472pt" height="183pt"
 viewBox="0.00 0.00 472.29 183.00" xmlns="http://www.w3.org/2000/svg" xmlns:xlink="http://www.w3.org/1999/xlink">
<g id="graph0" class="graph" transform="scale(1 1) rotate(0) translate(4 179)">
<title>cpgschema</title>
<polygon fill="white" stroke="transparent" points="-4,4 -4,-179 468.29,-179 468.29,4 -4,4"/>
<!-- LOCAL -->
<g id="node1" class="node">
<title>LOCAL</title>
<polygon fill="none" stroke="black" points="145.24,-72.5 145.24,-174.5 355.24,-174.5 355.24,-72.5 145.24,-72.5"/>
<text text-anchor="start" x="223.24" y="-160.3" font-family="Times,serif" font-weight="bold" font-size="14.00">LOCAL</text>
<text text-anchor="start" x="234.24" y="-149.5" font-family="Times,serif" font-size="10.00">CODE</text>
<text text-anchor="start" x="232.74" y="-139.5" font-family="Times,serif" font-size="10.00">NAME</text>
<text text-anchor="start" x="187.74" y="-129.5" font-family="Times,serif" font-size="10.00">CLOSURE_BINDING_ID</text>
<text text-anchor="start" x="199.24" y="-119.5" font-family="Times,serif" font-size="10.00">TYPE_FULL_NAME</text>
<text text-anchor="start" x="153.24" y="-109.5" font-family="Times,serif" font-size="10.00">DYNAMIC_TYPE_HINT_FULL_NAME</text>
<text text-anchor="start" x="208.74" y="-99.5" font-family="Times,serif" font-size="10.00">LINE_NUMBER</text>
<text text-anchor="start" x="197.24" y="-89.5" font-family="Times,serif" font-size="10.00">COLUMN_NUMBER</text>
<text text-anchor="start" x="230.24" y="-79.5" font-family="Times,serif" font-size="10.00">ORDER</text>
</g>
<!-- DECLARATION -->
<g id="node2" class="node">
<title>DECLARATION</title>
<ellipse fill="none" stroke="black" cx="81.24" cy="-18" rx="81.49" ry="18"/>
<text text-anchor="middle" x="81.24" y="-14.3" font-family="Times,serif" font-size="14.00">DECLARATION</text>
</g>
<!-- LOCAL&#45;&gt;DECLARATION -->
<g id="edge1" class="edge">
<title>LOCAL&#45;&gt;DECLARATION</title>
<path fill="none" stroke="gray" d="M153.86,-72.3C153.86,-72.3 153.86,-36.22 153.86,-36.22"/>
<polygon fill="none" stroke="gray" points="157.36,-36.22 153.86,-26.22 150.36,-36.22 157.36,-36.22"/>
<text text-anchor="middle" x="150.36" y="-56.86" font-family="Times,serif" font-size="8.00">is</text>
</g>
<!-- LOCAL_LIKE -->
<g id="node3" class="node">
<title>LOCAL_LIKE</title>
<ellipse fill="none" stroke="black" cx="250.24" cy="-18" rx="70.39" ry="18"/>
<text text-anchor="middle" x="250.24" y="-14.3" font-family="Times,serif" font-size="14.00">LOCAL_LIKE</text>
</g>
<!-- LOCAL&#45;&gt;LOCAL_LIKE -->
<g id="edge2" class="edge">
<title>LOCAL&#45;&gt;LOCAL_LIKE</title>
<path fill="none" stroke="gray" d="M250.24,-72.3C250.24,-72.3 250.24,-46.03 250.24,-46.03"/>
<polygon fill="none" stroke="gray" points="253.74,-46.03 250.24,-36.03 246.74,-46.03 253.74,-46.03"/>
<text text-anchor="middle" x="246.74" y="-61.77" font-family="Times,serif" font-size="8.00">is</text>
</g>
<!-- AST_NODE -->
<g id="node4" class="node">
<title>AST_NODE</title>
<ellipse fill="none" stroke="black" cx="401.24" cy="-18" rx="63.09" ry="18"/>
<text text-anchor="middle" x="401.24" y="-14.3" font-family="Times,serif" font-size="14.00">AST_NODE</text>
</g>
<!-- LOCAL&#45;&gt;AST_NODE -->
<g id="edge3" class="edge">
<title>LOCAL&#45;&gt;AST_NODE</title>
<path fill="none" stroke="gray" d="M346.72,-72.3C346.72,-72.3 346.72,-37.32 346.72,-37.32"/>
<polygon fill="none" stroke="gray" points="350.22,-37.32 346.72,-27.32 343.22,-37.32 350.22,-37.32"/>
<text text-anchor="middle" x="343.22" y="-57.41" font-family="Times,serif" font-size="8.00">is</text>
</g>
</g>
</svg>
