<?xml version="1.0" encoding="UTF-8" standalone="no"?>
<!DOCTYPE svg PUBLIC "-//W3C//DTD SVG 1.1//EN"
 "http://www.w3.org/Graphics/SVG/1.1/DTD/svg11.dtd">
<!-- Generated by graphviz version 2.44.1 (0)
 -->
<!-- Title: cpgschema Pages: 1 -->
<svg width="314pt" height="153pt"
 viewBox="0.00 0.00 314.29 153.00" xmlns="http://www.w3.org/2000/svg" xmlns:xlink="http://www.w3.org/1999/xlink">
<g id="graph0" class="graph" transform="scale(1 1) rotate(0) translate(4 149)">
<title>cpgschema</title>
<polygon fill="white" stroke="transparent" points="-4,4 -4,-149 310.29,-149 310.29,4 -4,4"/>
<!-- MEMBER -->
<g id="node1" class="node">
<title>MEMBER</title>
<polygon fill="none" stroke="black" points="57.24,-72.5 57.24,-144.5 267.24,-144.5 267.24,-72.5 57.24,-72.5"/>
<text text-anchor="start" x="123.74" y="-130.3" font-family="Times,serif" font-weight="bold" font-size="14.00">MEMBER</text>
<text text-anchor="start" x="146.24" y="-119.5" font-family="Times,serif" font-size="10.00">CODE</text>
<text text-anchor="start" x="144.74" y="-109.5" font-family="Times,serif" font-size="10.00">NAME</text>
<text text-anchor="start" x="111.24" y="-99.5" font-family="Times,serif" font-size="10.00">TYPE_FULL_NAME</text>
<text text-anchor="start" x="65.24" y="-89.5" font-family="Times,serif" font-size="10.00">DYNAMIC_TYPE_HINT_FULL_NAME</text>
<text text-anchor="start" x="142.24" y="-79.5" font-family="Times,serif" font-size="10.00">ORDER</text>
</g>
<!-- DECLARATION -->
<g id="node2" class="node">
<title>DECLARATION</title>
<ellipse fill="none" stroke="black" cx="81.24" cy="-18" rx="81.49" ry="18"/>
<text text-anchor="middle" x="81.24" y="-14.3" font-family="Times,serif" font-size="14.00">DECLARATION</text>
</g>
<!-- MEMBER&#45;&gt;DECLARATION -->
<g id="edge1" class="edge">
<title>MEMBER&#45;&gt;DECLARATION</title>
<path fill="none" stroke="gray" d="M109.86,-72.47C109.86,-72.47 109.86,-45.28 109.86,-45.28"/>
<polygon fill="none" stroke="gray" points="113.36,-45.28 109.86,-35.28 106.36,-45.28 113.36,-45.28"/>
<text text-anchor="middle" x="106.36" y="-61.48" font-family="Times,serif" font-size="8.00">is</text>
</g>
<!-- AST_NODE -->
<g id="node3" class="node">
<title>AST_NODE</title>
<ellipse fill="none" stroke="black" cx="243.24" cy="-18" rx="63.09" ry="18"/>
<text text-anchor="middle" x="243.24" y="-14.3" font-family="Times,serif" font-size="14.00">AST_NODE</text>
</g>
<!-- MEMBER&#45;&gt;AST_NODE -->
<g id="edge2" class="edge">
<title>MEMBER&#45;&gt;AST_NODE</title>
<path fill="none" stroke="gray" d="M223.72,-72.47C223.72,-72.47 223.72,-45.28 223.72,-45.28"/>
<polygon fill="none" stroke="gray" points="227.22,-45.28 223.72,-35.28 220.22,-45.28 227.22,-45.28"/>
<text text-anchor="middle" x="220.22" y="-61.48" font-family="Times,serif" font-size="8.00">is</text>
</g>
</g>
</svg>
