<?xml version="1.0" encoding="UTF-8" standalone="no"?>
<!DOCTYPE svg PUBLIC "-//W3C//DTD SVG 1.1//EN"
 "http://www.w3.org/Graphics/SVG/1.1/DTD/svg11.dtd">
<!-- Generated by graphviz version 2.44.1 (20200629.0800)
 -->
<!-- Title: cpgschema Pages: 1 -->
<svg width="246pt" height="154pt"
 viewBox="0.00 0.00 246.00 154.00" xmlns="http://www.w3.org/2000/svg" xmlns:xlink="http://www.w3.org/1999/xlink">
<g id="graph0" class="graph" transform="scale(1 1) rotate(0) translate(4 150)">
<title>cpgschema</title>
<polygon fill="white" stroke="transparent" points="-4,4 -4,-150 242,-150 242,4 -4,4"/>
<!-- MEMBER -->
<g id="node1" class="node">
<title>MEMBER</title>
<polygon fill="none" stroke="black" points="11,-73.5 11,-145.5 238,-145.5 238,-73.5 11,-73.5"/>
<text text-anchor="start" x="91" y="-131.3" font-family="Times New Roman,serif" font-weight="bold" font-size="14.00">MEMBER</text>
<text text-anchor="start" x="91.5" y="-120.5" font-family="Times New Roman,serif" font-size="10.00">CODE: string (1)</text>
<text text-anchor="start" x="89.5" y="-110.5" font-family="Times New Roman,serif" font-size="10.00">NAME: string (1)</text>
<text text-anchor="start" x="62" y="-100.5" font-family="Times New Roman,serif" font-size="10.00">TYPE_FULL_NAME: string (1)</text>
<text text-anchor="start" x="19" y="-90.5" font-family="Times New Roman,serif" font-size="10.00">DYNAMIC_TYPE_HINT_FULL_NAME: string (0:n)</text>
<text text-anchor="start" x="95" y="-80.5" font-family="Times New Roman,serif" font-size="10.00">ORDER: int (1)</text>
</g>
<!-- DECLARATION -->
<g id="node2" class="node">
<title>DECLARATION</title>
<polygon fill="none" stroke="black" points="0,-0.5 0,-36.5 123,-36.5 123,-0.5 0,-0.5"/>
<text text-anchor="start" x="8" y="-20.3" font-family="Times New Roman,serif" font-weight="bold" font-size="14.00">DECLARATION</text>
<text text-anchor="start" x="26.5" y="-9.5" font-family="Times New Roman,serif" font-size="10.00">NAME: string (1)</text>
</g>
<!-- MEMBER&#45;&gt;DECLARATION -->
<g id="edge1" class="edge">
<title>MEMBER&#45;&gt;DECLARATION</title>
<path fill="none" stroke="gray" d="M67,-73.27C67,-73.27 67,-46.62 67,-46.62"/>
<polygon fill="none" stroke="gray" points="70.5,-46.62 67,-36.62 63.5,-46.62 70.5,-46.62"/>
<text text-anchor="middle" x="64" y="-62.55" font-family="Times New Roman,serif" font-size="8.00">is</text>
</g>
<!-- AST_NODE -->
<g id="node3" class="node">
<title>AST_NODE</title>
<polygon fill="none" stroke="black" points="141.5,-0.5 141.5,-36.5 235.5,-36.5 235.5,-0.5 141.5,-0.5"/>
<text text-anchor="start" x="149.5" y="-20.3" font-family="Times New Roman,serif" font-weight="bold" font-size="14.00">AST_NODE</text>
<text text-anchor="start" x="159" y="-9.5" font-family="Times New Roman,serif" font-size="10.00">ORDER: int (1)</text>
</g>
<!-- MEMBER&#45;&gt;AST_NODE -->
<g id="edge2" class="edge">
<title>MEMBER&#45;&gt;AST_NODE</title>
<path fill="none" stroke="gray" d="M188.5,-73.27C188.5,-73.27 188.5,-46.62 188.5,-46.62"/>
<polygon fill="none" stroke="gray" points="192,-46.62 188.5,-36.62 185,-46.62 192,-46.62"/>
<text text-anchor="middle" x="185.5" y="-62.55" font-family="Times New Roman,serif" font-size="8.00">is</text>
</g>
</g>
</svg>
