<?xml version="1.0" encoding="UTF-8" standalone="no"?>
<!DOCTYPE svg PUBLIC "-//W3C//DTD SVG 1.1//EN"
 "http://www.w3.org/Graphics/SVG/1.1/DTD/svg11.dtd">
<!-- Generated by graphviz version 2.44.1 (20200629.0800)
 -->
<!-- Title: cpgschema Pages: 1 -->
<svg width="536pt" height="184pt"
 viewBox="0.00 0.00 535.50 184.00" xmlns="http://www.w3.org/2000/svg" xmlns:xlink="http://www.w3.org/1999/xlink">
<g id="graph0" class="graph" transform="scale(1 1) rotate(0) translate(4 180)">
<title>cpgschema</title>
<polygon fill="white" stroke="transparent" points="-4,4 -4,-180 531.5,-180 531.5,4 -4,4"/>
<!-- METHOD_PARAMETER_IN -->
<g id="node1" class="node">
<title>METHOD_PARAMETER_IN</title>
<polygon fill="none" stroke="black" points="155,-73.5 155,-175.5 382,-175.5 382,-73.5 155,-73.5"/>
<text text-anchor="start" x="174" y="-161.3" font-family="Times New Roman,serif" font-weight="bold" font-size="14.00">METHOD_PARAMETER_IN</text>
<text text-anchor="start" x="235.5" y="-150.5" font-family="Times New Roman,serif" font-size="10.00">CODE: string (1)</text>
<text text-anchor="start" x="239" y="-140.5" font-family="Times New Roman,serif" font-size="10.00">ORDER: int (1)</text>
<text text-anchor="start" x="233.5" y="-130.5" font-family="Times New Roman,serif" font-size="10.00">NAME: string (1)</text>
<text text-anchor="start" x="191" y="-120.5" font-family="Times New Roman,serif" font-size="10.00">EVALUATION_STRATEGY: string (1)</text>
<text text-anchor="start" x="206" y="-110.5" font-family="Times New Roman,serif" font-size="10.00">TYPE_FULL_NAME: string (1)</text>
<text text-anchor="start" x="163" y="-100.5" font-family="Times New Roman,serif" font-size="10.00">DYNAMIC_TYPE_HINT_FULL_NAME: string (0:n)</text>
<text text-anchor="start" x="218.5" y="-90.5" font-family="Times New Roman,serif" font-size="10.00">LINE_NUMBER: int (0:1)</text>
<text text-anchor="start" x="208" y="-80.5" font-family="Times New Roman,serif" font-size="10.00">COLUMN_NUMBER: int (0:1)</text>
</g>
<!-- DECLARATION -->
<g id="node2" class="node">
<title>DECLARATION</title>
<polygon fill="none" stroke="black" points="0,-0.5 0,-36.5 123,-36.5 123,-0.5 0,-0.5"/>
<text text-anchor="start" x="8" y="-20.3" font-family="Times New Roman,serif" font-weight="bold" font-size="14.00">DECLARATION</text>
<text text-anchor="start" x="26.5" y="-9.5" font-family="Times New Roman,serif" font-size="10.00">NAME: string (1)</text>
</g>
<!-- METHOD_PARAMETER_IN&#45;&gt;DECLARATION -->
<g id="edge1" class="edge">
<title>METHOD_PARAMETER_IN&#45;&gt;DECLARATION</title>
<path fill="none" stroke="gray" d="M154.71,-124C106.61,-124 61.5,-124 61.5,-124 61.5,-124 61.5,-46.88 61.5,-46.88"/>
<polygon fill="none" stroke="gray" points="65,-46.88 61.5,-36.88 58,-46.88 65,-46.88"/>
<text text-anchor="middle" x="66.54" y="-126.6" font-family="Times New Roman,serif" font-size="8.00">is</text>
</g>
<!-- LOCAL_LIKE -->
<g id="node3" class="node">
<title>LOCAL_LIKE</title>
<polygon fill="none" stroke="black" points="141.5,-0.5 141.5,-36.5 249.5,-36.5 249.5,-0.5 141.5,-0.5"/>
<text text-anchor="start" x="149.5" y="-20.3" font-family="Times New Roman,serif" font-weight="bold" font-size="14.00">LOCAL_LIKE</text>
<text text-anchor="start" x="160.5" y="-9.5" font-family="Times New Roman,serif" font-size="10.00">NAME: string (1)</text>
</g>
<!-- METHOD_PARAMETER_IN&#45;&gt;LOCAL_LIKE -->
<g id="edge2" class="edge">
<title>METHOD_PARAMETER_IN&#45;&gt;LOCAL_LIKE</title>
<path fill="none" stroke="gray" d="M202.25,-73.36C202.25,-73.36 202.25,-46.74 202.25,-46.74"/>
<polygon fill="none" stroke="gray" points="205.75,-46.74 202.25,-36.74 198.75,-46.74 205.75,-46.74"/>
<text text-anchor="middle" x="199.25" y="-62.65" font-family="Times New Roman,serif" font-size="8.00">is</text>
</g>
<!-- TRACKING_POINT -->
<g id="node4" class="node">
<title>TRACKING_POINT</title>
<polygon fill="none" stroke="black" points="267.5,-0.5 267.5,-36.5 415.5,-36.5 415.5,-0.5 267.5,-0.5"/>
<text text-anchor="start" x="275.5" y="-15.8" font-family="Times New Roman,serif" font-weight="bold" font-size="14.00">TRACKING_POINT</text>
</g>
<!-- METHOD_PARAMETER_IN&#45;&gt;TRACKING_POINT -->
<g id="edge3" class="edge">
<title>METHOD_PARAMETER_IN&#45;&gt;TRACKING_POINT</title>
<path fill="none" stroke="gray" d="M324.75,-73.36C324.75,-73.36 324.75,-46.74 324.75,-46.74"/>
<polygon fill="none" stroke="gray" points="328.25,-46.74 324.75,-36.74 321.25,-46.74 328.25,-46.74"/>
<text text-anchor="middle" x="321.75" y="-62.65" font-family="Times New Roman,serif" font-size="8.00">is</text>
</g>
<!-- AST_NODE -->
<g id="node5" class="node">
<title>AST_NODE</title>
<polygon fill="none" stroke="black" points="433.5,-0.5 433.5,-36.5 527.5,-36.5 527.5,-0.5 433.5,-0.5"/>
<text text-anchor="start" x="441.5" y="-20.3" font-family="Times New Roman,serif" font-weight="bold" font-size="14.00">AST_NODE</text>
<text text-anchor="start" x="451" y="-9.5" font-family="Times New Roman,serif" font-size="10.00">ORDER: int (1)</text>
</g>
<!-- METHOD_PARAMETER_IN&#45;&gt;AST_NODE -->
<g id="edge4" class="edge">
<title>METHOD_PARAMETER_IN&#45;&gt;AST_NODE</title>
<path fill="none" stroke="gray" d="M382.26,-124C432.55,-124 480.5,-124 480.5,-124 480.5,-124 480.5,-46.88 480.5,-46.88"/>
<polygon fill="none" stroke="gray" points="484,-46.88 480.5,-36.88 477,-46.88 484,-46.88"/>
<text text-anchor="middle" x="466.94" y="-126.6" font-family="Times New Roman,serif" font-size="8.00">is</text>
</g>
</g>
</svg>
