<?xml version="1.0" encoding="UTF-8" standalone="no"?>
<!DOCTYPE svg PUBLIC "-//W3C//DTD SVG 1.1//EN"
 "http://www.w3.org/Graphics/SVG/1.1/DTD/svg11.dtd">
<!-- Generated by graphviz version 2.44.1 (0)
 -->
<!-- Title: cpgschema Pages: 1 -->
<svg width="1932pt" height="211pt"
 viewBox="0.00 0.00 1932.49 211.00" xmlns="http://www.w3.org/2000/svg" xmlns:xlink="http://www.w3.org/1999/xlink">
<g id="graph0" class="graph" transform="scale(1 1) rotate(0) translate(4 207)">
<title>cpgschema</title>
<polygon fill="white" stroke="transparent" points="-4,4 -4,-207 1928.49,-207 1928.49,4 -4,4"/>
<!-- METHOD_REF -->
<g id="node1" class="node">
<title>METHOD_REF</title>
<polygon fill="none" stroke="black" points="811.75,-72.5 811.75,-184.5 1021.75,-184.5 1021.75,-72.5 811.75,-72.5"/>
<text text-anchor="start" x="859.75" y="-170.3" font-family="Times,serif" font-weight="bold" font-size="14.00">METHOD_REF</text>
<text text-anchor="start" x="900.75" y="-159.5" font-family="Times,serif" font-size="10.00">CODE</text>
<text text-anchor="start" x="896.75" y="-149.5" font-family="Times,serif" font-size="10.00">ORDER</text>
<text text-anchor="start" x="863.75" y="-139.5" font-family="Times,serif" font-size="10.00">ARGUMENT_INDEX</text>
<text text-anchor="start" x="865.75" y="-129.5" font-family="Times,serif" font-size="10.00">TYPE_FULL_NAME</text>
<text text-anchor="start" x="819.75" y="-119.5" font-family="Times,serif" font-size="10.00">DYNAMIC_TYPE_HINT_FULL_NAME</text>
<text text-anchor="start" x="838.75" y="-109.5" font-family="Times,serif" font-size="10.00">METHOD_INST_FULL_NAME</text>
<text text-anchor="start" x="854.75" y="-99.5" font-family="Times,serif" font-size="10.00">METHOD_FULL_NAME</text>
<text text-anchor="start" x="875.25" y="-89.5" font-family="Times,serif" font-size="10.00">LINE_NUMBER</text>
<text text-anchor="start" x="863.75" y="-79.5" font-family="Times,serif" font-size="10.00">COLUMN_NUMBER</text>
</g>
<!-- METHOD_REF&#45;&gt;METHOD_REF -->
<g id="edge5" class="edge">
<title>METHOD_REF&#45;&gt;METHOD_REF</title>
<path fill="none" stroke="blue" d="M916.75,-184.58C916.75,-195.17 916.75,-203 916.75,-203 916.75,-203 1038.57,-203 1038.57,-203 1038.57,-203 1038.57,-54 1038.57,-54 1038.57,-54 997.87,-54 997.87,-54 997.87,-54 997.87,-62.42 997.87,-62.42"/>
<polygon fill="blue" stroke="blue" points="994.37,-62.42 997.87,-72.42 1001.37,-62.42 994.37,-62.42"/>
<text text-anchor="middle" x="1049.07" y="-176.66" font-family="Times,serif" font-size="8.00">CFG </text>
</g>
<!-- CALL -->
<g id="node2" class="node">
<title>CALL</title>
<ellipse fill="none" stroke="black" cx="35.75" cy="-18" rx="36" ry="18"/>
<text text-anchor="middle" x="35.75" y="-14.3" font-family="Times,serif" font-size="14.00">CALL</text>
</g>
<!-- METHOD_REF&#45;&gt;CALL -->
<g id="edge1" class="edge">
<title>METHOD_REF&#45;&gt;CALL</title>
<path fill="none" stroke="blue" d="M811.35,-166C577.51,-166 35.75,-166 35.75,-166 35.75,-166 35.75,-46.15 35.75,-46.15"/>
<polygon fill="blue" stroke="blue" points="39.25,-46.15 35.75,-36.15 32.25,-46.15 39.25,-46.15"/>
<text text-anchor="middle" x="353.12" y="-168.6" font-family="Times,serif" font-size="8.00">CFG </text>
</g>
<!-- IDENTIFIER -->
<g id="node3" class="node">
<title>IDENTIFIER</title>
<ellipse fill="none" stroke="black" cx="158.75" cy="-18" rx="68.79" ry="18"/>
<text text-anchor="middle" x="158.75" y="-14.3" font-family="Times,serif" font-size="14.00">IDENTIFIER</text>
</g>
<!-- METHOD_REF&#45;&gt;IDENTIFIER -->
<g id="edge2" class="edge">
<title>METHOD_REF&#45;&gt;IDENTIFIER</title>
<path fill="none" stroke="blue" d="M811.35,-147C603.07,-147 158.75,-147 158.75,-147 158.75,-147 158.75,-46.21 158.75,-46.21"/>
<polygon fill="blue" stroke="blue" points="162.25,-46.21 158.75,-36.21 155.25,-46.21 162.25,-46.21"/>
<text text-anchor="middle" x="424.15" y="-149.6" font-family="Times,serif" font-size="8.00">CFG </text>
</g>
<!-- FIELD_IDENTIFIER -->
<g id="node4" class="node">
<title>FIELD_IDENTIFIER</title>
<ellipse fill="none" stroke="black" cx="348.75" cy="-18" rx="102.88" ry="18"/>
<text text-anchor="middle" x="348.75" y="-14.3" font-family="Times,serif" font-size="14.00">FIELD_IDENTIFIER</text>
</g>
<!-- METHOD_REF&#45;&gt;FIELD_IDENTIFIER -->
<g id="edge3" class="edge">
<title>METHOD_REF&#45;&gt;FIELD_IDENTIFIER</title>
<path fill="none" stroke="blue" d="M811.57,-128C647.38,-128 348.75,-128 348.75,-128 348.75,-128 348.75,-46.16 348.75,-46.16"/>
<polygon fill="blue" stroke="blue" points="352.25,-46.16 348.75,-36.16 345.25,-46.16 352.25,-46.16"/>
<text text-anchor="middle" x="528.74" y="-130.6" font-family="Times,serif" font-size="8.00">CFG </text>
</g>
<!-- LITERAL -->
<g id="node5" class="node">
<title>LITERAL</title>
<ellipse fill="none" stroke="black" cx="521.75" cy="-18" rx="51.99" ry="18"/>
<text text-anchor="middle" x="521.75" y="-14.3" font-family="Times,serif" font-size="14.00">LITERAL</text>
</g>
<!-- METHOD_REF&#45;&gt;LITERAL -->
<g id="edge4" class="edge">
<title>METHOD_REF&#45;&gt;LITERAL</title>
<path fill="none" stroke="blue" d="M811.67,-109C694.66,-109 521.75,-109 521.75,-109 521.75,-109 521.75,-46.42 521.75,-46.42"/>
<polygon fill="blue" stroke="blue" points="525.25,-46.42 521.75,-36.42 518.25,-46.42 525.25,-46.42"/>
<text text-anchor="middle" x="624.92" y="-111.6" font-family="Times,serif" font-size="8.00">CFG </text>
</g>
<!-- TYPE_REF -->
<g id="node6" class="node">
<title>TYPE_REF</title>
<ellipse fill="none" stroke="black" cx="651.75" cy="-18" rx="59.59" ry="18"/>
<text text-anchor="middle" x="651.75" y="-14.3" font-family="Times,serif" font-size="14.00">TYPE_REF</text>
</g>
<!-- METHOD_REF&#45;&gt;TYPE_REF -->
<g id="edge6" class="edge">
<title>METHOD_REF&#45;&gt;TYPE_REF</title>
<path fill="none" stroke="blue" d="M811.63,-90C737.64,-90 651.75,-90 651.75,-90 651.75,-90 651.75,-46.17 651.75,-46.17"/>
<polygon fill="blue" stroke="blue" points="655.25,-46.17 651.75,-36.17 648.25,-46.17 655.25,-46.17"/>
<text text-anchor="middle" x="699.27" y="-92.6" font-family="Times,serif" font-size="8.00">CFG </text>
</g>
<!-- METHOD_RETURN -->
<g id="node7" class="node">
<title>METHOD_RETURN</title>
<ellipse fill="none" stroke="black" cx="830.75" cy="-18" rx="101.28" ry="18"/>
<text text-anchor="middle" x="830.75" y="-14.3" font-family="Times,serif" font-size="14.00">METHOD_RETURN</text>
</g>
<!-- METHOD_REF&#45;&gt;METHOD_RETURN -->
<g id="edge7" class="edge">
<title>METHOD_REF&#45;&gt;METHOD_RETURN</title>
<path fill="none" stroke="blue" d="M871.94,-72.28C871.94,-72.28 871.94,-44.9 871.94,-44.9"/>
<polygon fill="blue" stroke="blue" points="875.44,-44.9 871.94,-34.9 868.44,-44.9 875.44,-44.9"/>
<text text-anchor="middle" x="861.44" y="-61.19" font-family="Times,serif" font-size="8.00">CFG </text>
</g>
<!-- RETURN -->
<g id="node8" class="node">
<title>RETURN</title>
<ellipse fill="none" stroke="black" cx="1002.75" cy="-18" rx="52.79" ry="18"/>
<text text-anchor="middle" x="1002.75" y="-14.3" font-family="Times,serif" font-size="14.00">RETURN</text>
</g>
<!-- METHOD_REF&#45;&gt;RETURN -->
<g id="edge8" class="edge">
<title>METHOD_REF&#45;&gt;RETURN</title>
<path fill="none" stroke="blue" d="M973.98,-72.28C973.98,-72.28 973.98,-43.5 973.98,-43.5"/>
<polygon fill="blue" stroke="blue" points="977.48,-43.5 973.98,-33.5 970.48,-43.5 977.48,-43.5"/>
<text text-anchor="middle" x="963.48" y="-60.49" font-family="Times,serif" font-size="8.00">CFG </text>
</g>
<!-- BLOCK -->
<g id="node9" class="node">
<title>BLOCK</title>
<ellipse fill="none" stroke="black" cx="1117.75" cy="-18" rx="44.39" ry="18"/>
<text text-anchor="middle" x="1117.75" y="-14.3" font-family="Times,serif" font-size="14.00">BLOCK</text>
</g>
<!-- METHOD_REF&#45;&gt;BLOCK -->
<g id="edge9" class="edge">
<title>METHOD_REF&#45;&gt;BLOCK</title>
<path fill="none" stroke="blue" d="M1021.96,-90C1070.59,-90 1117.75,-90 1117.75,-90 1117.75,-90 1117.75,-46.17 1117.75,-46.17"/>
<polygon fill="blue" stroke="blue" points="1121.25,-46.17 1117.75,-36.17 1114.25,-46.17 1121.25,-46.17"/>
<text text-anchor="middle" x="1081.27" y="-92.6" font-family="Times,serif" font-size="8.00">CFG </text>
</g>
<!-- JUMP_TARGET -->
<g id="node10" class="node">
<title>JUMP_TARGET</title>
<ellipse fill="none" stroke="black" cx="1260.75" cy="-18" rx="80.69" ry="18"/>
<text text-anchor="middle" x="1260.75" y="-14.3" font-family="Times,serif" font-size="14.00">JUMP_TARGET</text>
</g>
<!-- METHOD_REF&#45;&gt;JUMP_TARGET -->
<g id="edge10" class="edge">
<title>METHOD_REF&#45;&gt;JUMP_TARGET</title>
<path fill="none" stroke="blue" d="M1021.83,-109C1122.99,-109 1260.75,-109 1260.75,-109 1260.75,-109 1260.75,-46.42 1260.75,-46.42"/>
<polygon fill="blue" stroke="blue" points="1264.25,-46.42 1260.75,-36.42 1257.25,-46.42 1264.25,-46.42"/>
<text text-anchor="middle" x="1162.08" y="-111.6" font-family="Times,serif" font-size="8.00">CFG </text>
</g>
<!-- CONTROL_STRUCTURE -->
<g id="node11" class="node">
<title>CONTROL_STRUCTURE</title>
<ellipse fill="none" stroke="black" cx="1483.75" cy="-18" rx="124.28" ry="18"/>
<text text-anchor="middle" x="1483.75" y="-14.3" font-family="Times,serif" font-size="14.00">CONTROL_STRUCTURE</text>
</g>
<!-- METHOD_REF&#45;&gt;CONTROL_STRUCTURE -->
<g id="edge11" class="edge">
<title>METHOD_REF&#45;&gt;CONTROL_STRUCTURE</title>
<path fill="none" stroke="blue" d="M1022.07,-128C1186.04,-128 1483.75,-128 1483.75,-128 1483.75,-128 1483.75,-46.16 1483.75,-46.16"/>
<polygon fill="blue" stroke="blue" points="1487.25,-46.16 1483.75,-36.16 1480.25,-46.16 1487.25,-46.16"/>
<text text-anchor="middle" x="1283.32" y="-130.6" font-family="Times,serif" font-size="8.00">CFG </text>
</g>
<!-- UNKNOWN -->
<g id="node12" class="node">
<title>UNKNOWN</title>
<ellipse fill="none" stroke="black" cx="1691.75" cy="-18" rx="65.79" ry="18"/>
<text text-anchor="middle" x="1691.75" y="-14.3" font-family="Times,serif" font-size="14.00">UNKNOWN</text>
</g>
<!-- METHOD_REF&#45;&gt;UNKNOWN -->
<g id="edge12" class="edge">
<title>METHOD_REF&#45;&gt;UNKNOWN</title>
<path fill="none" stroke="blue" d="M1022.07,-147C1233.97,-147 1691.75,-147 1691.75,-147 1691.75,-147 1691.75,-46.21 1691.75,-46.21"/>
<polygon fill="blue" stroke="blue" points="1695.25,-46.21 1691.75,-36.21 1688.25,-46.21 1695.25,-46.21"/>
<text text-anchor="middle" x="1396.81" y="-149.6" font-family="Times,serif" font-size="8.00">CFG </text>
</g>
<!-- EXPRESSION -->
<g id="node13" class="node">
<title>EXPRESSION</title>
<ellipse fill="none" stroke="black" cx="1849.75" cy="-18" rx="74.99" ry="18"/>
<text text-anchor="middle" x="1849.75" y="-14.3" font-family="Times,serif" font-size="14.00">EXPRESSION</text>
</g>
<!-- METHOD_REF&#45;&gt;EXPRESSION -->
<g id="edge13" class="edge">
<title>METHOD_REF&#45;&gt;EXPRESSION</title>
<path fill="none" stroke="gray" d="M1021.96,-166C1265.96,-166 1849.75,-166 1849.75,-166 1849.75,-166 1849.75,-46.15 1849.75,-46.15"/>
<polygon fill="none" stroke="gray" points="1853.25,-46.15 1849.75,-36.15 1846.25,-46.15 1853.25,-46.15"/>
<text text-anchor="middle" x="1492.28" y="-168.6" font-family="Times,serif" font-size="8.00">is</text>
</g>
</g>
</svg>
