<?xml version="1.0" encoding="UTF-8" standalone="no"?>
<!DOCTYPE svg PUBLIC "-//W3C//DTD SVG 1.1//EN"
 "http://www.w3.org/Graphics/SVG/1.1/DTD/svg11.dtd">
<!-- Generated by graphviz version 2.44.1 (0)
 -->
<!-- Title: cpgschema Pages: 1 -->
<svg width="3063pt" height="233pt"
 viewBox="0.00 0.00 3063.44 233.00" xmlns="http://www.w3.org/2000/svg" xmlns:xlink="http://www.w3.org/1999/xlink">
<g id="graph0" class="graph" transform="scale(1 1) rotate(0) translate(4 229)">
<title>cpgschema</title>
<polygon fill="white" stroke="transparent" points="-4,4 -4,-229 3059.44,-229 3059.44,4 -4,4"/>
<!-- METHOD -->
<g id="node1" class="node">
<title>METHOD</title>
<polygon fill="none" stroke="black" points="1331.89,-72.5 1331.89,-224.5 1492.89,-224.5 1492.89,-72.5 1331.89,-72.5"/>
<text text-anchor="start" x="1374.89" y="-210.3" font-family="Times,serif" font-weight="bold" font-size="14.00">METHOD</text>
<text text-anchor="start" x="1396.39" y="-199.5" font-family="Times,serif" font-size="10.00">CODE</text>
<text text-anchor="start" x="1394.89" y="-189.5" font-family="Times,serif" font-size="10.00">NAME</text>
<text text-anchor="start" x="1377.89" y="-179.5" font-family="Times,serif" font-size="10.00">FULL_NAME</text>
<text text-anchor="start" x="1374.39" y="-169.5" font-family="Times,serif" font-size="10.00">IS_EXTERNAL</text>
<text text-anchor="start" x="1379.89" y="-159.5" font-family="Times,serif" font-size="10.00">SIGNATURE</text>
<text text-anchor="start" x="1360.39" y="-149.5" font-family="Times,serif" font-size="10.00">AST_PARENT_TYPE</text>
<text text-anchor="start" x="1339.89" y="-139.5" font-family="Times,serif" font-size="10.00">AST_PARENT_FULL_NAME</text>
<text text-anchor="start" x="1370.89" y="-129.5" font-family="Times,serif" font-size="10.00">LINE_NUMBER</text>
<text text-anchor="start" x="1359.39" y="-119.5" font-family="Times,serif" font-size="10.00">COLUMN_NUMBER</text>
<text text-anchor="start" x="1355.89" y="-109.5" font-family="Times,serif" font-size="10.00">LINE_NUMBER_END</text>
<text text-anchor="start" x="1344.39" y="-99.5" font-family="Times,serif" font-size="10.00">COLUMN_NUMBER_END</text>
<text text-anchor="start" x="1392.39" y="-89.5" font-family="Times,serif" font-size="10.00">ORDER</text>
<text text-anchor="start" x="1382.39" y="-79.5" font-family="Times,serif" font-size="10.00">FILENAME</text>
</g>
<!-- METHOD_RETURN -->
<g id="node2" class="node">
<title>METHOD_RETURN</title>
<ellipse fill="none" stroke="black" cx="101.39" cy="-18" rx="101.28" ry="18"/>
<text text-anchor="middle" x="101.39" y="-14.3" font-family="Times,serif" font-size="14.00">METHOD_RETURN</text>
</g>
<!-- METHOD&#45;&gt;METHOD_RETURN -->
<g id="edge1" class="edge">
<title>METHOD&#45;&gt;METHOD_RETURN</title>
<path fill="none" stroke="red" d="M1331.8,-209C1041.67,-209 67.59,-209 67.59,-209 67.59,-209 67.59,-45.29 67.59,-45.29"/>
<polygon fill="red" stroke="red" points="71.09,-45.29 67.59,-35.29 64.09,-45.29 71.09,-45.29"/>
<text text-anchor="middle" x="598.34" y="-211.6" font-family="Times,serif" font-size="8.00">AST (1:1)</text>
</g>
<!-- METHOD&#45;&gt;METHOD_RETURN -->
<g id="edge12" class="edge">
<title>METHOD&#45;&gt;METHOD_RETURN</title>
<path fill="none" stroke="blue" d="M1331.53,-194C1050.77,-194 135.19,-194 135.19,-194 135.19,-194 135.19,-45.2 135.19,-45.2"/>
<polygon fill="blue" stroke="blue" points="138.69,-45.2 135.19,-35.2 131.69,-45.2 138.69,-45.2"/>
<text text-anchor="middle" x="630.46" y="-196.6" font-family="Times,serif" font-size="8.00">CFG (0&#45;1:0&#45;1)</text>
</g>
<!-- METHOD_PARAMETER_IN -->
<g id="node3" class="node">
<title>METHOD_PARAMETER_IN</title>
<ellipse fill="none" stroke="black" cx="356.39" cy="-18" rx="135.68" ry="18"/>
<text text-anchor="middle" x="356.39" y="-14.3" font-family="Times,serif" font-size="14.00">METHOD_PARAMETER_IN</text>
</g>
<!-- METHOD&#45;&gt;METHOD_PARAMETER_IN -->
<g id="edge2" class="edge">
<title>METHOD&#45;&gt;METHOD_PARAMETER_IN</title>
<path fill="none" stroke="red" d="M1331.72,-179C1084.86,-179 356.39,-179 356.39,-179 356.39,-179 356.39,-46.16 356.39,-46.16"/>
<polygon fill="red" stroke="red" points="359.89,-46.16 356.39,-36.16 352.89,-46.16 359.89,-46.16"/>
<text text-anchor="middle" x="758.13" y="-181.6" font-family="Times,serif" font-size="8.00">AST (1:n)</text>
</g>
<!-- MODIFIER -->
<g id="node4" class="node">
<title>MODIFIER</title>
<ellipse fill="none" stroke="black" cx="572.39" cy="-18" rx="61.99" ry="18"/>
<text text-anchor="middle" x="572.39" y="-14.3" font-family="Times,serif" font-size="14.00">MODIFIER</text>
</g>
<!-- METHOD&#45;&gt;MODIFIER -->
<g id="edge3" class="edge">
<title>METHOD&#45;&gt;MODIFIER</title>
<path fill="none" stroke="red" d="M1331.85,-163C1121.6,-163 572.39,-163 572.39,-163 572.39,-163 572.39,-46.07 572.39,-46.07"/>
<polygon fill="red" stroke="red" points="575.89,-46.07 572.39,-36.07 568.89,-46.07 575.89,-46.07"/>
<text text-anchor="middle" x="874.16" y="-165.6" font-family="Times,serif" font-size="8.00">AST (1:n)</text>
</g>
<!-- BLOCK -->
<g id="node5" class="node">
<title>BLOCK</title>
<ellipse fill="none" stroke="black" cx="696.39" cy="-18" rx="44.39" ry="18"/>
<text text-anchor="middle" x="696.39" y="-14.3" font-family="Times,serif" font-size="14.00">BLOCK</text>
</g>
<!-- METHOD&#45;&gt;BLOCK -->
<g id="edge4" class="edge">
<title>METHOD&#45;&gt;BLOCK</title>
<path fill="none" stroke="red" d="M1331.75,-148C1141.71,-148 681.66,-148 681.66,-148 681.66,-148 681.66,-45 681.66,-45"/>
<polygon fill="red" stroke="red" points="685.16,-45 681.66,-35 678.16,-45 685.16,-45"/>
<text text-anchor="middle" x="935.7" y="-150.6" font-family="Times,serif" font-size="8.00">AST (1:1)</text>
</g>
<!-- METHOD&#45;&gt;BLOCK -->
<g id="edge14" class="edge">
<title>METHOD&#45;&gt;BLOCK</title>
<path fill="none" stroke="blue" d="M1331.6,-133C1147.21,-133 711.12,-133 711.12,-133 711.12,-133 711.12,-45.47 711.12,-45.47"/>
<polygon fill="blue" stroke="blue" points="714.62,-45.47 711.12,-35.47 707.62,-45.47 714.62,-45.47"/>
<text text-anchor="middle" x="967.1" y="-135.6" font-family="Times,serif" font-size="8.00">CFG </text>
</g>
<!-- TYPE_PARAMETER -->
<g id="node6" class="node">
<title>TYPE_PARAMETER</title>
<ellipse fill="none" stroke="black" cx="859.39" cy="-18" rx="100.98" ry="18"/>
<text text-anchor="middle" x="859.39" y="-14.3" font-family="Times,serif" font-size="14.00">TYPE_PARAMETER</text>
</g>
<!-- METHOD&#45;&gt;TYPE_PARAMETER -->
<g id="edge5" class="edge">
<title>METHOD&#45;&gt;TYPE_PARAMETER</title>
<path fill="none" stroke="red" d="M1331.68,-117C1178.2,-117 859.39,-117 859.39,-117 859.39,-117 859.39,-46.16 859.39,-46.16"/>
<polygon fill="red" stroke="red" points="862.89,-46.16 859.39,-36.16 855.89,-46.16 862.89,-46.16"/>
<text text-anchor="middle" x="1040.62" y="-119.6" font-family="Times,serif" font-size="8.00">AST (1:n)</text>
</g>
<!-- CALL -->
<g id="node7" class="node">
<title>CALL</title>
<ellipse fill="none" stroke="black" cx="1013.39" cy="-18" rx="36" ry="18"/>
<text text-anchor="middle" x="1013.39" y="-14.3" font-family="Times,serif" font-size="14.00">CALL</text>
</g>
<!-- METHOD&#45;&gt;CALL -->
<g id="edge6" class="edge">
<title>METHOD&#45;&gt;CALL</title>
<path fill="none" stroke="blue" d="M1331.65,-102C1215.06,-102 1013.39,-102 1013.39,-102 1013.39,-102 1013.39,-46.23 1013.39,-46.23"/>
<polygon fill="blue" stroke="blue" points="1016.89,-46.23 1013.39,-36.23 1009.89,-46.23 1016.89,-46.23"/>
<text text-anchor="middle" x="1134.13" y="-104.6" font-family="Times,serif" font-size="8.00">CFG </text>
</g>
<!-- IDENTIFIER -->
<g id="node8" class="node">
<title>IDENTIFIER</title>
<ellipse fill="none" stroke="black" cx="1136.39" cy="-18" rx="68.79" ry="18"/>
<text text-anchor="middle" x="1136.39" y="-14.3" font-family="Times,serif" font-size="14.00">IDENTIFIER</text>
</g>
<!-- METHOD&#45;&gt;IDENTIFIER -->
<g id="edge7" class="edge">
<title>METHOD&#45;&gt;IDENTIFIER</title>
<path fill="none" stroke="blue" d="M1331.82,-87C1250.35,-87 1136.39,-87 1136.39,-87 1136.39,-87 1136.39,-46.13 1136.39,-46.13"/>
<polygon fill="blue" stroke="blue" points="1139.89,-46.13 1136.39,-36.13 1132.89,-46.13 1139.89,-46.13"/>
<text text-anchor="middle" x="1203.17" y="-89.6" font-family="Times,serif" font-size="8.00">CFG </text>
</g>
<!-- FIELD_IDENTIFIER -->
<g id="node9" class="node">
<title>FIELD_IDENTIFIER</title>
<ellipse fill="none" stroke="black" cx="1326.39" cy="-18" rx="102.88" ry="18"/>
<text text-anchor="middle" x="1326.39" y="-14.3" font-family="Times,serif" font-size="14.00">FIELD_IDENTIFIER</text>
</g>
<!-- METHOD&#45;&gt;FIELD_IDENTIFIER -->
<g id="edge8" class="edge">
<title>METHOD&#45;&gt;FIELD_IDENTIFIER</title>
<path fill="none" stroke="blue" d="M1380.49,-72.21C1380.49,-72.21 1380.49,-43.47 1380.49,-43.47"/>
<polygon fill="blue" stroke="blue" points="1383.99,-43.47 1380.49,-33.47 1376.99,-43.47 1383.99,-43.47"/>
<text text-anchor="middle" x="1369.99" y="-60.44" font-family="Times,serif" font-size="8.00">CFG </text>
</g>
<!-- LITERAL -->
<g id="node10" class="node">
<title>LITERAL</title>
<ellipse fill="none" stroke="black" cx="1499.39" cy="-18" rx="51.99" ry="18"/>
<text text-anchor="middle" x="1499.39" y="-14.3" font-family="Times,serif" font-size="14.00">LITERAL</text>
</g>
<!-- METHOD&#45;&gt;LITERAL -->
<g id="edge9" class="edge">
<title>METHOD&#45;&gt;LITERAL</title>
<path fill="none" stroke="blue" d="M1470.14,-72.21C1470.14,-72.21 1470.14,-43.02 1470.14,-43.02"/>
<polygon fill="blue" stroke="blue" points="1473.64,-43.02 1470.14,-33.02 1466.64,-43.02 1473.64,-43.02"/>
<text text-anchor="middle" x="1459.64" y="-60.21" font-family="Times,serif" font-size="8.00">CFG </text>
</g>
<!-- METHOD_REF -->
<g id="node11" class="node">
<title>METHOD_REF</title>
<ellipse fill="none" stroke="black" cx="1648.39" cy="-18" rx="79.09" ry="18"/>
<text text-anchor="middle" x="1648.39" y="-14.3" font-family="Times,serif" font-size="14.00">METHOD_REF</text>
</g>
<!-- METHOD&#45;&gt;METHOD_REF -->
<g id="edge10" class="edge">
<title>METHOD&#45;&gt;METHOD_REF</title>
<path fill="none" stroke="blue" d="M1492.95,-87C1561.32,-87 1648.39,-87 1648.39,-87 1648.39,-87 1648.39,-46.13 1648.39,-46.13"/>
<polygon fill="blue" stroke="blue" points="1651.89,-46.13 1648.39,-36.13 1644.89,-46.13 1651.89,-46.13"/>
<text text-anchor="middle" x="1580.61" y="-89.6" font-family="Times,serif" font-size="8.00">CFG </text>
</g>
<!-- TYPE_REF -->
<g id="node12" class="node">
<title>TYPE_REF</title>
<ellipse fill="none" stroke="black" cx="1805.39" cy="-18" rx="59.59" ry="18"/>
<text text-anchor="middle" x="1805.39" y="-14.3" font-family="Times,serif" font-size="14.00">TYPE_REF</text>
</g>
<!-- METHOD&#45;&gt;TYPE_REF -->
<g id="edge11" class="edge">
<title>METHOD&#45;&gt;TYPE_REF</title>
<path fill="none" stroke="blue" d="M1493.34,-102C1608.39,-102 1805.39,-102 1805.39,-102 1805.39,-102 1805.39,-46.23 1805.39,-46.23"/>
<polygon fill="blue" stroke="blue" points="1808.89,-46.23 1805.39,-36.23 1801.89,-46.23 1808.89,-46.23"/>
<text text-anchor="middle" x="1666.75" y="-104.6" font-family="Times,serif" font-size="8.00">CFG </text>
</g>
<!-- RETURN -->
<g id="node13" class="node">
<title>RETURN</title>
<ellipse fill="none" stroke="black" cx="1935.39" cy="-18" rx="52.79" ry="18"/>
<text text-anchor="middle" x="1935.39" y="-14.3" font-family="Times,serif" font-size="14.00">RETURN</text>
</g>
<!-- METHOD&#45;&gt;RETURN -->
<g id="edge13" class="edge">
<title>METHOD&#45;&gt;RETURN</title>
<path fill="none" stroke="blue" d="M1492.96,-117C1639.67,-117 1935.39,-117 1935.39,-117 1935.39,-117 1935.39,-46.16 1935.39,-46.16"/>
<polygon fill="blue" stroke="blue" points="1938.89,-46.16 1935.39,-36.16 1931.89,-46.16 1938.89,-46.16"/>
<text text-anchor="middle" x="1739.1" y="-119.6" font-family="Times,serif" font-size="8.00">CFG </text>
</g>
<!-- JUMP_TARGET -->
<g id="node14" class="node">
<title>JUMP_TARGET</title>
<ellipse fill="none" stroke="black" cx="2086.39" cy="-18" rx="80.69" ry="18"/>
<text text-anchor="middle" x="2086.39" y="-14.3" font-family="Times,serif" font-size="14.00">JUMP_TARGET</text>
</g>
<!-- METHOD&#45;&gt;JUMP_TARGET -->
<g id="edge15" class="edge">
<title>METHOD&#45;&gt;JUMP_TARGET</title>
<path fill="none" stroke="blue" d="M1493.02,-133C1671.92,-133 2086.39,-133 2086.39,-133 2086.39,-133 2086.39,-46.22 2086.39,-46.22"/>
<polygon fill="blue" stroke="blue" points="2089.89,-46.22 2086.39,-36.22 2082.89,-46.22 2089.89,-46.22"/>
<text text-anchor="middle" x="1822.6" y="-135.6" font-family="Times,serif" font-size="8.00">CFG </text>
</g>
<!-- CONTROL_STRUCTURE -->
<g id="node15" class="node">
<title>CONTROL_STRUCTURE</title>
<ellipse fill="none" stroke="black" cx="2309.39" cy="-18" rx="124.28" ry="18"/>
<text text-anchor="middle" x="2309.39" y="-14.3" font-family="Times,serif" font-size="14.00">CONTROL_STRUCTURE</text>
</g>
<!-- METHOD&#45;&gt;CONTROL_STRUCTURE -->
<g id="edge16" class="edge">
<title>METHOD&#45;&gt;CONTROL_STRUCTURE</title>
<path fill="none" stroke="blue" d="M1493.18,-148C1713.67,-148 2309.39,-148 2309.39,-148 2309.39,-148 2309.39,-46.08 2309.39,-46.08"/>
<polygon fill="blue" stroke="blue" points="2312.89,-46.08 2309.39,-36.08 2305.89,-46.08 2312.89,-46.08"/>
<text text-anchor="middle" x="1941.75" y="-150.6" font-family="Times,serif" font-size="8.00">CFG </text>
</g>
<!-- UNKNOWN -->
<g id="node16" class="node">
<title>UNKNOWN</title>
<ellipse fill="none" stroke="black" cx="2517.39" cy="-18" rx="65.79" ry="18"/>
<text text-anchor="middle" x="2517.39" y="-14.3" font-family="Times,serif" font-size="14.00">UNKNOWN</text>
</g>
<!-- METHOD&#45;&gt;UNKNOWN -->
<g id="edge17" class="edge">
<title>METHOD&#45;&gt;UNKNOWN</title>
<path fill="none" stroke="blue" d="M1493.2,-163C1747.93,-163 2517.39,-163 2517.39,-163 2517.39,-163 2517.39,-46.07 2517.39,-46.07"/>
<polygon fill="blue" stroke="blue" points="2520.89,-46.07 2517.39,-36.07 2513.89,-46.07 2520.89,-46.07"/>
<text text-anchor="middle" x="2053.26" y="-165.6" font-family="Times,serif" font-size="8.00">CFG </text>
</g>
<!-- DECLARATION -->
<g id="node17" class="node">
<title>DECLARATION</title>
<ellipse fill="none" stroke="black" cx="2682.39" cy="-18" rx="81.49" ry="18"/>
<text text-anchor="middle" x="2682.39" y="-14.3" font-family="Times,serif" font-size="14.00">DECLARATION</text>
</g>
<!-- METHOD&#45;&gt;DECLARATION -->
<g id="edge18" class="edge">
<title>METHOD&#45;&gt;DECLARATION</title>
<path fill="none" stroke="gray" d="M1493.28,-179C1773.02,-179 2682.39,-179 2682.39,-179 2682.39,-179 2682.39,-46.16 2682.39,-46.16"/>
<polygon fill="none" stroke="gray" points="2685.89,-46.16 2682.39,-36.16 2678.89,-46.16 2685.89,-46.16"/>
<text text-anchor="middle" x="2150.76" y="-181.6" font-family="Times,serif" font-size="8.00">is</text>
</g>
<!-- CFG_NODE -->
<g id="node18" class="node">
<title>CFG_NODE</title>
<ellipse fill="none" stroke="black" cx="2846.39" cy="-18" rx="64.99" ry="18"/>
<text text-anchor="middle" x="2846.39" y="-14.3" font-family="Times,serif" font-size="14.00">CFG_NODE</text>
</g>
<!-- METHOD&#45;&gt;CFG_NODE -->
<g id="edge19" class="edge">
<title>METHOD&#45;&gt;CFG_NODE</title>
<path fill="none" stroke="gray" d="M1493.08,-194C1795.75,-194 2846.39,-194 2846.39,-194 2846.39,-194 2846.39,-46.17 2846.39,-46.17"/>
<polygon fill="none" stroke="gray" points="2849.89,-46.17 2846.39,-36.17 2842.89,-46.17 2849.89,-46.17"/>
<text text-anchor="middle" x="2240.15" y="-196.6" font-family="Times,serif" font-size="8.00">is</text>
</g>
<!-- AST_NODE -->
<g id="node19" class="node">
<title>AST_NODE</title>
<ellipse fill="none" stroke="black" cx="2992.39" cy="-18" rx="63.09" ry="18"/>
<text text-anchor="middle" x="2992.39" y="-14.3" font-family="Times,serif" font-size="14.00">AST_NODE</text>
</g>
<!-- METHOD&#45;&gt;AST_NODE -->
<g id="edge20" class="edge">
<title>METHOD&#45;&gt;AST_NODE</title>
<path fill="none" stroke="gray" d="M1492.92,-209C1814.89,-209 2992.39,-209 2992.39,-209 2992.39,-209 2992.39,-46.31 2992.39,-46.31"/>
<polygon fill="none" stroke="gray" points="2995.89,-46.31 2992.39,-36.31 2988.89,-46.31 2995.89,-46.31"/>
<text text-anchor="middle" x="2320.5" y="-211.6" font-family="Times,serif" font-size="8.00">is</text>
</g>
</g>
</svg>
