<?xml version="1.0" encoding="UTF-8" standalone="no"?>
<!DOCTYPE svg PUBLIC "-//W3C//DTD SVG 1.1//EN"
 "http://www.w3.org/Graphics/SVG/1.1/DTD/svg11.dtd">
<!-- Generated by graphviz version 2.44.1 (20200629.0800)
 -->
<!-- Title: cpgschema Pages: 1 -->
<svg width="268pt" height="154pt"
 viewBox="0.00 0.00 267.50 154.00" xmlns="http://www.w3.org/2000/svg" xmlns:xlink="http://www.w3.org/1999/xlink">
<g id="graph0" class="graph" transform="scale(1 1) rotate(0) translate(4 150)">
<title>cpgschema</title>
<polygon fill="white" stroke="transparent" points="-4,4 -4,-150 263.5,-150 263.5,4 -4,4"/>
<!-- METHOD_INST -->
<g id="node1" class="node">
<title>METHOD_INST</title>
<polygon fill="none" stroke="black" points="63,-73.5 63,-145.5 222,-145.5 222,-73.5 63,-73.5"/>
<text text-anchor="start" x="89" y="-131.3" font-family="Times New Roman,serif" font-weight="bold" font-size="14.00">METHOD_INST</text>
<text text-anchor="start" x="107.5" y="-120.5" font-family="Times New Roman,serif" font-size="10.00">NAME: string (1)</text>
<text text-anchor="start" x="95.5" y="-110.5" font-family="Times New Roman,serif" font-size="10.00">SIGNATURE: string (1)</text>
<text text-anchor="start" x="94" y="-100.5" font-family="Times New Roman,serif" font-size="10.00">FULL_NAME: string (1)</text>
<text text-anchor="start" x="71" y="-90.5" font-family="Times New Roman,serif" font-size="10.00">METHOD_FULL_NAME: string (1)</text>
<text text-anchor="start" x="113" y="-80.5" font-family="Times New Roman,serif" font-size="10.00">ORDER: int (1)</text>
</g>
<!-- TYPE_ARGUMENT -->
<g id="node2" class="node">
<title>TYPE_ARGUMENT</title>
<polygon fill="none" stroke="black" points="0,-0.5 0,-36.5 147,-36.5 147,-0.5 0,-0.5"/>
<text text-anchor="start" x="8" y="-20.3" font-family="Times New Roman,serif" font-weight="bold" font-size="14.00">TYPE_ARGUMENT</text>
<text text-anchor="start" x="44" y="-9.5" font-family="Times New Roman,serif" font-size="10.00">ORDER: int (1)</text>
</g>
<!-- METHOD_INST&#45;&gt;TYPE_ARGUMENT -->
<g id="edge1" class="edge">
<title>METHOD_INST&#45;&gt;TYPE_ARGUMENT</title>
<path fill="none" stroke="red" d="M105,-73.27C105,-73.27 105,-46.62 105,-46.62"/>
<polygon fill="red" stroke="red" points="108.5,-46.62 105,-36.62 101.5,-46.62 108.5,-46.62"/>
<text text-anchor="middle" x="95.5" y="-62.55" font-family="Times New Roman,serif" font-size="8.00">AST </text>
</g>
<!-- AST_NODE -->
<g id="node3" class="node">
<title>AST_NODE</title>
<polygon fill="none" stroke="black" points="165.5,-0.5 165.5,-36.5 259.5,-36.5 259.5,-0.5 165.5,-0.5"/>
<text text-anchor="start" x="173.5" y="-20.3" font-family="Times New Roman,serif" font-weight="bold" font-size="14.00">AST_NODE</text>
<text text-anchor="start" x="183" y="-9.5" font-family="Times New Roman,serif" font-size="10.00">ORDER: int (1)</text>
</g>
<!-- METHOD_INST&#45;&gt;AST_NODE -->
<g id="edge2" class="edge">
<title>METHOD_INST&#45;&gt;AST_NODE</title>
<path fill="none" stroke="gray" d="M193.75,-73.27C193.75,-73.27 193.75,-46.62 193.75,-46.62"/>
<polygon fill="none" stroke="gray" points="197.25,-46.62 193.75,-36.62 190.25,-46.62 197.25,-46.62"/>
<text text-anchor="middle" x="190.75" y="-62.55" font-family="Times New Roman,serif" font-size="8.00">is</text>
</g>
</g>
</svg>
