<?xml version="1.0" encoding="UTF-8" standalone="no"?>
<!DOCTYPE svg PUBLIC "-//W3C//DTD SVG 1.1//EN"
 "http://www.w3.org/Graphics/SVG/1.1/DTD/svg11.dtd">
<!-- Generated by graphviz version 2.44.1 (0)
 -->
<!-- Title: cpgschema Pages: 1 -->
<svg width="350pt" height="173pt"
 viewBox="0.00 0.00 349.84 173.00" xmlns="http://www.w3.org/2000/svg" xmlns:xlink="http://www.w3.org/1999/xlink">
<g id="graph0" class="graph" transform="scale(1 1) rotate(0) translate(4 169)">
<title>cpgschema</title>
<polygon fill="white" stroke="transparent" points="-4,4 -4,-169 345.84,-169 345.84,4 -4,4"/>
<!-- METHOD_RETURN -->
<g id="node1" class="node">
<title>METHOD_RETURN</title>
<polygon fill="none" stroke="black" points="49.99,-72.5 49.99,-164.5 259.99,-164.5 259.99,-72.5 49.99,-72.5"/>
<text text-anchor="start" x="79.49" y="-150.3" font-family="Times,serif" font-weight="bold" font-size="14.00">METHOD_RETURN</text>
<text text-anchor="start" x="138.99" y="-139.5" font-family="Times,serif" font-size="10.00">CODE</text>
<text text-anchor="start" x="88.49" y="-129.5" font-family="Times,serif" font-size="10.00">EVALUATION_STRATEGY</text>
<text text-anchor="start" x="103.99" y="-119.5" font-family="Times,serif" font-size="10.00">TYPE_FULL_NAME</text>
<text text-anchor="start" x="57.99" y="-109.5" font-family="Times,serif" font-size="10.00">DYNAMIC_TYPE_HINT_FULL_NAME</text>
<text text-anchor="start" x="113.49" y="-99.5" font-family="Times,serif" font-size="10.00">LINE_NUMBER</text>
<text text-anchor="start" x="101.99" y="-89.5" font-family="Times,serif" font-size="10.00">COLUMN_NUMBER</text>
<text text-anchor="start" x="134.99" y="-79.5" font-family="Times,serif" font-size="10.00">ORDER</text>
</g>
<!-- CFG_NODE -->
<g id="node2" class="node">
<title>CFG_NODE</title>
<ellipse fill="none" stroke="black" cx="64.99" cy="-18" rx="64.99" ry="18"/>
<text text-anchor="middle" x="64.99" y="-14.3" font-family="Times,serif" font-size="14.00">CFG_NODE</text>
</g>
<!-- METHOD_RETURN&#45;&gt;CFG_NODE -->
<g id="edge1" class="edge">
<title>METHOD_RETURN&#45;&gt;CFG_NODE</title>
<path fill="none" stroke="gray" d="M89.99,-72.37C89.99,-72.37 89.99,-44.8 89.99,-44.8"/>
<polygon fill="none" stroke="gray" points="93.49,-44.8 89.99,-34.8 86.49,-44.8 93.49,-44.8"/>
<text text-anchor="middle" x="86.49" y="-61.18" font-family="Times,serif" font-size="8.00">is</text>
</g>
<!-- TRACKING_POINT -->
<g id="node3" class="node">
<title>TRACKING_POINT</title>
<ellipse fill="none" stroke="black" cx="244.99" cy="-18" rx="96.68" ry="18"/>
<text text-anchor="middle" x="244.99" y="-14.3" font-family="Times,serif" font-size="14.00">TRACKING_POINT</text>
</g>
<!-- METHOD_RETURN&#45;&gt;TRACKING_POINT -->
<g id="edge2" class="edge">
<title>METHOD_RETURN&#45;&gt;TRACKING_POINT</title>
<path fill="none" stroke="gray" d="M204.07,-72.37C204.07,-72.37 204.07,-44.32 204.07,-44.32"/>
<polygon fill="none" stroke="gray" points="207.57,-44.32 204.07,-34.32 200.57,-44.32 207.57,-44.32"/>
<text text-anchor="middle" x="200.57" y="-60.94" font-family="Times,serif" font-size="8.00">is</text>
</g>
</g>
</svg>
