<?xml version="1.0" encoding="UTF-8" standalone="no"?>
<!DOCTYPE svg PUBLIC "-//W3C//DTD SVG 1.1//EN"
 "http://www.w3.org/Graphics/SVG/1.1/DTD/svg11.dtd">
<!-- Generated by graphviz version 2.44.1 (20200629.0800)
 -->
<!-- Title: cpgschema Pages: 1 -->
<svg width="312pt" height="200pt"
 viewBox="0.00 0.00 311.50 200.00" xmlns="http://www.w3.org/2000/svg" xmlns:xlink="http://www.w3.org/1999/xlink">
<g id="graph0" class="graph" transform="scale(1 1) rotate(0) translate(4 196)">
<title>cpgschema</title>
<polygon fill="white" stroke="transparent" points="-4,4 -4,-196 307.5,-196 307.5,4 -4,4"/>
<!-- METHOD_RETURN -->
<g id="node1" class="node">
<title>METHOD_RETURN</title>
<polygon fill="none" stroke="black" points="35,-99.5 35,-191.5 262,-191.5 262,-99.5 35,-99.5"/>
<text text-anchor="start" x="81.5" y="-177.3" font-family="Times New Roman,serif" font-weight="bold" font-size="14.00">METHOD_RETURN</text>
<text text-anchor="start" x="115.5" y="-166.5" font-family="Times New Roman,serif" font-size="10.00">CODE: string (1)</text>
<text text-anchor="start" x="71" y="-156.5" font-family="Times New Roman,serif" font-size="10.00">EVALUATION_STRATEGY: string (1)</text>
<text text-anchor="start" x="86" y="-146.5" font-family="Times New Roman,serif" font-size="10.00">TYPE_FULL_NAME: string (1)</text>
<text text-anchor="start" x="43" y="-136.5" font-family="Times New Roman,serif" font-size="10.00">DYNAMIC_TYPE_HINT_FULL_NAME: string (0:n)</text>
<text text-anchor="start" x="98.5" y="-126.5" font-family="Times New Roman,serif" font-size="10.00">LINE_NUMBER: int (0:1)</text>
<text text-anchor="start" x="88" y="-116.5" font-family="Times New Roman,serif" font-size="10.00">COLUMN_NUMBER: int (0:1)</text>
<text text-anchor="start" x="119" y="-106.5" font-family="Times New Roman,serif" font-size="10.00">ORDER: int (1)</text>
</g>
<!-- CFG_NODE -->
<g id="node2" class="node">
<title>CFG_NODE</title>
<polygon fill="none" stroke="black" points="0,-0.5 0,-62.5 137,-62.5 137,-0.5 0,-0.5"/>
<text text-anchor="start" x="28" y="-48.3" font-family="Times New Roman,serif" font-weight="bold" font-size="14.00">CFG_NODE</text>
<text text-anchor="start" x="18.5" y="-37.5" font-family="Times New Roman,serif" font-size="10.00">LINE_NUMBER: int (0:1)</text>
<text text-anchor="start" x="8" y="-27.5" font-family="Times New Roman,serif" font-size="10.00">COLUMN_NUMBER: int (0:1)</text>
<text text-anchor="start" x="26.5" y="-17.5" font-family="Times New Roman,serif" font-size="10.00">INTERNAL_FLAGS </text>
<text text-anchor="start" x="35.5" y="-7.5" font-family="Times New Roman,serif" font-size="10.00">CODE: string (1)</text>
</g>
<!-- METHOD_RETURN&#45;&gt;CFG_NODE -->
<g id="edge1" class="edge">
<title>METHOD_RETURN&#45;&gt;CFG_NODE</title>
<path fill="none" stroke="gray" d="M86,-99.46C86,-99.46 86,-72.68 86,-72.68"/>
<polygon fill="none" stroke="gray" points="89.5,-72.68 86,-62.68 82.5,-72.68 89.5,-72.68"/>
<text text-anchor="middle" x="83" y="-88.67" font-family="Times New Roman,serif" font-size="8.00">is</text>
</g>
<!-- TRACKING_POINT -->
<g id="node3" class="node">
<title>TRACKING_POINT</title>
<polygon fill="none" stroke="black" points="155.5,-13.5 155.5,-49.5 303.5,-49.5 303.5,-13.5 155.5,-13.5"/>
<text text-anchor="start" x="163.5" y="-28.8" font-family="Times New Roman,serif" font-weight="bold" font-size="14.00">TRACKING_POINT</text>
</g>
<!-- METHOD_RETURN&#45;&gt;TRACKING_POINT -->
<g id="edge2" class="edge">
<title>METHOD_RETURN&#45;&gt;TRACKING_POINT</title>
<path fill="none" stroke="gray" d="M208.75,-99.46C208.75,-99.46 208.75,-59.77 208.75,-59.77"/>
<polygon fill="none" stroke="gray" points="212.25,-59.77 208.75,-49.77 205.25,-59.77 212.25,-59.77"/>
<text text-anchor="middle" x="205.75" y="-82.22" font-family="Times New Roman,serif" font-size="8.00">is</text>
</g>
</g>
</svg>
