<?xml version="1.0" encoding="UTF-8" standalone="no"?>
<!DOCTYPE svg PUBLIC "-//W3C//DTD SVG 1.1//EN"
 "http://www.w3.org/Graphics/SVG/1.1/DTD/svg11.dtd">
<!-- Generated by graphviz version 2.44.1 (20200629.0800)
 -->
<!-- Title: cpgschema Pages: 1 -->
<svg width="3628pt" height="340pt"
 viewBox="0.00 0.00 3627.50 340.00" xmlns="http://www.w3.org/2000/svg" xmlns:xlink="http://www.w3.org/1999/xlink">
<g id="graph0" class="graph" transform="scale(1 1) rotate(0) translate(4 336)">
<title>cpgschema</title>
<polygon fill="white" stroke="transparent" points="-4,4 -4,-336 3623.5,-336 3623.5,4 -4,4"/>
<!-- METHOD -->
<g id="node1" class="node">
<title>METHOD</title>
<polygon fill="none" stroke="black" points="1797,-179.5 1797,-331.5 1976,-331.5 1976,-179.5 1797,-179.5"/>
<text text-anchor="start" x="1853.5" y="-317.3" font-family="Times New Roman,serif" font-weight="bold" font-size="14.00">METHOD</text>
<text text-anchor="start" x="1853.5" y="-306.5" font-family="Times New Roman,serif" font-size="10.00">CODE: string (1)</text>
<text text-anchor="start" x="1851.5" y="-296.5" font-family="Times New Roman,serif" font-size="10.00">NAME: string (1)</text>
<text text-anchor="start" x="1838" y="-286.5" font-family="Times New Roman,serif" font-size="10.00">FULL_NAME: string (1)</text>
<text text-anchor="start" x="1830.5" y="-276.5" font-family="Times New Roman,serif" font-size="10.00">IS_EXTERNAL: boolean (1)</text>
<text text-anchor="start" x="1839.5" y="-266.5" font-family="Times New Roman,serif" font-size="10.00">SIGNATURE: string (1)</text>
<text text-anchor="start" x="1821.5" y="-256.5" font-family="Times New Roman,serif" font-size="10.00">AST_PARENT_TYPE: string (1)</text>
<text text-anchor="start" x="1805" y="-246.5" font-family="Times New Roman,serif" font-size="10.00">AST_PARENT_FULL_NAME: string (1)</text>
<text text-anchor="start" x="1836.5" y="-236.5" font-family="Times New Roman,serif" font-size="10.00">LINE_NUMBER: int (0:1)</text>
<text text-anchor="start" x="1826" y="-226.5" font-family="Times New Roman,serif" font-size="10.00">COLUMN_NUMBER: int (0:1)</text>
<text text-anchor="start" x="1824.5" y="-216.5" font-family="Times New Roman,serif" font-size="10.00">LINE_NUMBER_END: int (0:1)</text>
<text text-anchor="start" x="1814" y="-206.5" font-family="Times New Roman,serif" font-size="10.00">COLUMN_NUMBER_END: int (0:1)</text>
<text text-anchor="start" x="1857" y="-196.5" font-family="Times New Roman,serif" font-size="10.00">ORDER: int (1)</text>
<text text-anchor="start" x="1842.5" y="-186.5" font-family="Times New Roman,serif" font-size="10.00">FILENAME: string (1)</text>
</g>
<!-- METHOD_PARAMETER_IN -->
<g id="node2" class="node">
<title>METHOD_PARAMETER_IN</title>
<polygon fill="none" stroke="black" points="0,-20.5 0,-122.5 227,-122.5 227,-20.5 0,-20.5"/>
<text text-anchor="start" x="19" y="-108.3" font-family="Times New Roman,serif" font-weight="bold" font-size="14.00">METHOD_PARAMETER_IN</text>
<text text-anchor="start" x="80.5" y="-97.5" font-family="Times New Roman,serif" font-size="10.00">CODE: string (1)</text>
<text text-anchor="start" x="84" y="-87.5" font-family="Times New Roman,serif" font-size="10.00">ORDER: int (1)</text>
<text text-anchor="start" x="78.5" y="-77.5" font-family="Times New Roman,serif" font-size="10.00">NAME: string (1)</text>
<text text-anchor="start" x="36" y="-67.5" font-family="Times New Roman,serif" font-size="10.00">EVALUATION_STRATEGY: string (1)</text>
<text text-anchor="start" x="51" y="-57.5" font-family="Times New Roman,serif" font-size="10.00">TYPE_FULL_NAME: string (1)</text>
<text text-anchor="start" x="8" y="-47.5" font-family="Times New Roman,serif" font-size="10.00">DYNAMIC_TYPE_HINT_FULL_NAME: string (0:n)</text>
<text text-anchor="start" x="63.5" y="-37.5" font-family="Times New Roman,serif" font-size="10.00">LINE_NUMBER: int (0:1)</text>
<text text-anchor="start" x="53" y="-27.5" font-family="Times New Roman,serif" font-size="10.00">COLUMN_NUMBER: int (0:1)</text>
</g>
<!-- METHOD&#45;&gt;METHOD_PARAMETER_IN -->
<g id="edge2" class="edge">
<title>METHOD&#45;&gt;METHOD_PARAMETER_IN</title>
<path fill="none" stroke="red" d="M1796.75,-315C1436.33,-315 113.5,-315 113.5,-315 113.5,-315 113.5,-132.55 113.5,-132.55"/>
<polygon fill="red" stroke="red" points="117,-132.55 113.5,-122.55 110,-132.55 117,-132.55"/>
<text text-anchor="middle" x="845.9" y="-317.6" font-family="Times New Roman,serif" font-size="8.00">AST (1:n)</text>
</g>
<!-- METHOD_RETURN -->
<g id="node3" class="node">
<title>METHOD_RETURN</title>
<polygon fill="none" stroke="black" points="245,-25.5 245,-117.5 472,-117.5 472,-25.5 245,-25.5"/>
<text text-anchor="start" x="291.5" y="-103.3" font-family="Times New Roman,serif" font-weight="bold" font-size="14.00">METHOD_RETURN</text>
<text text-anchor="start" x="325.5" y="-92.5" font-family="Times New Roman,serif" font-size="10.00">CODE: string (1)</text>
<text text-anchor="start" x="281" y="-82.5" font-family="Times New Roman,serif" font-size="10.00">EVALUATION_STRATEGY: string (1)</text>
<text text-anchor="start" x="296" y="-72.5" font-family="Times New Roman,serif" font-size="10.00">TYPE_FULL_NAME: string (1)</text>
<text text-anchor="start" x="253" y="-62.5" font-family="Times New Roman,serif" font-size="10.00">DYNAMIC_TYPE_HINT_FULL_NAME: string (0:n)</text>
<text text-anchor="start" x="308.5" y="-52.5" font-family="Times New Roman,serif" font-size="10.00">LINE_NUMBER: int (0:1)</text>
<text text-anchor="start" x="298" y="-42.5" font-family="Times New Roman,serif" font-size="10.00">COLUMN_NUMBER: int (0:1)</text>
<text text-anchor="start" x="329" y="-32.5" font-family="Times New Roman,serif" font-size="10.00">ORDER: int (1)</text>
</g>
<!-- METHOD&#45;&gt;METHOD_RETURN -->
<g id="edge1" class="edge">
<title>METHOD&#45;&gt;METHOD_RETURN</title>
<path fill="none" stroke="red" d="M1796.92,-281C1475.08,-281 396.33,-281 396.33,-281 396.33,-281 396.33,-127.74 396.33,-127.74"/>
<polygon fill="red" stroke="red" points="399.83,-127.73 396.33,-117.74 392.83,-127.74 399.83,-127.73"/>
<text text-anchor="middle" x="1001.99" y="-283.6" font-family="Times New Roman,serif" font-size="8.00">AST (1:1)</text>
</g>
<!-- METHOD&#45;&gt;METHOD_RETURN -->
<g id="edge12" class="edge">
<title>METHOD&#45;&gt;METHOD_RETURN</title>
<path fill="none" stroke="blue" d="M1796.97,-298C1464.62,-298 320.67,-298 320.67,-298 320.67,-298 320.67,-127.61 320.67,-127.61"/>
<polygon fill="blue" stroke="blue" points="324.17,-127.61 320.67,-117.61 317.17,-127.61 324.17,-127.61"/>
<text text-anchor="middle" x="948.63" y="-300.6" font-family="Times New Roman,serif" font-size="8.00">CFG (0&#45;1:0&#45;1)</text>
</g>
<!-- MODIFIER -->
<g id="node4" class="node">
<title>MODIFIER</title>
<polygon fill="none" stroke="black" points="490.5,-50.5 490.5,-92.5 620.5,-92.5 620.5,-50.5 490.5,-50.5"/>
<text text-anchor="start" x="517.5" y="-78.3" font-family="Times New Roman,serif" font-weight="bold" font-size="14.00">MODIFIER</text>
<text text-anchor="start" x="498.5" y="-67.5" font-family="Times New Roman,serif" font-size="10.00">MODIFIER_TYPE: string (1)</text>
<text text-anchor="start" x="526" y="-57.5" font-family="Times New Roman,serif" font-size="10.00">ORDER: int (1)</text>
</g>
<!-- METHOD&#45;&gt;MODIFIER -->
<g id="edge3" class="edge">
<title>METHOD&#45;&gt;MODIFIER</title>
<path fill="none" stroke="red" d="M1796.84,-264C1498.13,-264 555.5,-264 555.5,-264 555.5,-264 555.5,-102.84 555.5,-102.84"/>
<polygon fill="red" stroke="red" points="559,-102.84 555.5,-92.84 552,-102.84 559,-102.84"/>
<text text-anchor="middle" x="1077.59" y="-266.6" font-family="Times New Roman,serif" font-size="8.00">AST (1:n)</text>
</g>
<!-- TYPE_PARAMETER -->
<g id="node5" class="node">
<title>TYPE_PARAMETER</title>
<polygon fill="none" stroke="black" points="639,-50.5 639,-92.5 794,-92.5 794,-50.5 639,-50.5"/>
<text text-anchor="start" x="647" y="-78.3" font-family="Times New Roman,serif" font-weight="bold" font-size="14.00">TYPE_PARAMETER</text>
<text text-anchor="start" x="681.5" y="-67.5" font-family="Times New Roman,serif" font-size="10.00">NAME: string (1)</text>
<text text-anchor="start" x="687" y="-57.5" font-family="Times New Roman,serif" font-size="10.00">ORDER: int (1)</text>
</g>
<!-- METHOD&#45;&gt;TYPE_PARAMETER -->
<g id="edge5" class="edge">
<title>METHOD&#45;&gt;TYPE_PARAMETER</title>
<path fill="none" stroke="red" d="M1796.63,-247C1522.66,-247 716.5,-247 716.5,-247 716.5,-247 716.5,-102.67 716.5,-102.67"/>
<polygon fill="red" stroke="red" points="720,-102.67 716.5,-92.67 713,-102.67 720,-102.67"/>
<text text-anchor="middle" x="1166.4" y="-249.6" font-family="Times New Roman,serif" font-size="8.00">AST (1:n)</text>
</g>
<!-- LITERAL -->
<g id="node6" class="node">
<title>LITERAL</title>
<polygon fill="none" stroke="black" points="812,-25.5 812,-117.5 1039,-117.5 1039,-25.5 812,-25.5"/>
<text text-anchor="start" x="893.5" y="-103.3" font-family="Times New Roman,serif" font-weight="bold" font-size="14.00">LITERAL</text>
<text text-anchor="start" x="892.5" y="-92.5" font-family="Times New Roman,serif" font-size="10.00">CODE: string (1)</text>
<text text-anchor="start" x="896" y="-82.5" font-family="Times New Roman,serif" font-size="10.00">ORDER: int (1)</text>
<text text-anchor="start" x="868" y="-72.5" font-family="Times New Roman,serif" font-size="10.00">ARGUMENT_INDEX: int (1)</text>
<text text-anchor="start" x="863" y="-62.5" font-family="Times New Roman,serif" font-size="10.00">TYPE_FULL_NAME: string (1)</text>
<text text-anchor="start" x="820" y="-52.5" font-family="Times New Roman,serif" font-size="10.00">DYNAMIC_TYPE_HINT_FULL_NAME: string (0:n)</text>
<text text-anchor="start" x="875.5" y="-42.5" font-family="Times New Roman,serif" font-size="10.00">LINE_NUMBER: int (0:1)</text>
<text text-anchor="start" x="865" y="-32.5" font-family="Times New Roman,serif" font-size="10.00">COLUMN_NUMBER: int (0:1)</text>
</g>
<!-- METHOD&#45;&gt;LITERAL -->
<g id="edge9" class="edge">
<title>METHOD&#45;&gt;LITERAL</title>
<path fill="none" stroke="blue" d="M1796.95,-230C1558.39,-230 925.5,-230 925.5,-230 925.5,-230 925.5,-127.77 925.5,-127.77"/>
<polygon fill="blue" stroke="blue" points="929,-127.77 925.5,-117.77 922,-127.77 929,-127.77"/>
<text text-anchor="middle" x="1301.11" y="-232.6" font-family="Times New Roman,serif" font-size="8.00">CFG </text>
</g>
<!-- CALL -->
<g id="node7" class="node">
<title>CALL</title>
<polygon fill="none" stroke="black" points="1057,-0.5 1057,-142.5 1284,-142.5 1284,-0.5 1057,-0.5"/>
<text text-anchor="start" x="1151" y="-128.3" font-family="Times New Roman,serif" font-weight="bold" font-size="14.00">CALL</text>
<text text-anchor="start" x="1137.5" y="-117.5" font-family="Times New Roman,serif" font-size="10.00">CODE: string (1)</text>
<text text-anchor="start" x="1135.5" y="-107.5" font-family="Times New Roman,serif" font-size="10.00">NAME: string (1)</text>
<text text-anchor="start" x="1141" y="-97.5" font-family="Times New Roman,serif" font-size="10.00">ORDER: int (1)</text>
<text text-anchor="start" x="1082.5" y="-87.5" font-family="Times New Roman,serif" font-size="10.00">METHOD_INST_FULL_NAME: string (0:1)</text>
<text text-anchor="start" x="1099" y="-77.5" font-family="Times New Roman,serif" font-size="10.00">METHOD_FULL_NAME: string (1)</text>
<text text-anchor="start" x="1113" y="-67.5" font-family="Times New Roman,serif" font-size="10.00">ARGUMENT_INDEX: int (1)</text>
<text text-anchor="start" x="1113" y="-57.5" font-family="Times New Roman,serif" font-size="10.00">DISPATCH_TYPE: string (1)</text>
<text text-anchor="start" x="1123.5" y="-47.5" font-family="Times New Roman,serif" font-size="10.00">SIGNATURE: string (1)</text>
<text text-anchor="start" x="1108" y="-37.5" font-family="Times New Roman,serif" font-size="10.00">TYPE_FULL_NAME: string (1)</text>
<text text-anchor="start" x="1065" y="-27.5" font-family="Times New Roman,serif" font-size="10.00">DYNAMIC_TYPE_HINT_FULL_NAME: string (0:n)</text>
<text text-anchor="start" x="1120.5" y="-17.5" font-family="Times New Roman,serif" font-size="10.00">LINE_NUMBER: int (0:1)</text>
<text text-anchor="start" x="1110" y="-7.5" font-family="Times New Roman,serif" font-size="10.00">COLUMN_NUMBER: int (0:1)</text>
</g>
<!-- METHOD&#45;&gt;CALL -->
<g id="edge6" class="edge">
<title>METHOD&#45;&gt;CALL</title>
<path fill="none" stroke="blue" d="M1816.33,-179.19C1816.33,-155.27 1816.33,-135 1816.33,-135 1816.33,-135 1294.1,-135 1294.1,-135"/>
<polygon fill="blue" stroke="blue" points="1294.1,-131.5 1284.1,-135 1294.1,-138.5 1294.1,-131.5"/>
<text text-anchor="middle" x="1568.31" y="-137.6" font-family="Times New Roman,serif" font-size="8.00">CFG </text>
</g>
<!-- IDENTIFIER -->
<g id="node8" class="node">
<title>IDENTIFIER</title>
<polygon fill="none" stroke="black" points="1302,-20.5 1302,-122.5 1529,-122.5 1529,-20.5 1302,-20.5"/>
<text text-anchor="start" x="1372.5" y="-108.3" font-family="Times New Roman,serif" font-weight="bold" font-size="14.00">IDENTIFIER</text>
<text text-anchor="start" x="1382.5" y="-97.5" font-family="Times New Roman,serif" font-size="10.00">CODE: string (1)</text>
<text text-anchor="start" x="1380.5" y="-87.5" font-family="Times New Roman,serif" font-size="10.00">NAME: string (1)</text>
<text text-anchor="start" x="1386" y="-77.5" font-family="Times New Roman,serif" font-size="10.00">ORDER: int (1)</text>
<text text-anchor="start" x="1358" y="-67.5" font-family="Times New Roman,serif" font-size="10.00">ARGUMENT_INDEX: int (1)</text>
<text text-anchor="start" x="1353" y="-57.5" font-family="Times New Roman,serif" font-size="10.00">TYPE_FULL_NAME: string (1)</text>
<text text-anchor="start" x="1310" y="-47.5" font-family="Times New Roman,serif" font-size="10.00">DYNAMIC_TYPE_HINT_FULL_NAME: string (0:n)</text>
<text text-anchor="start" x="1365.5" y="-37.5" font-family="Times New Roman,serif" font-size="10.00">LINE_NUMBER: int (0:1)</text>
<text text-anchor="start" x="1355" y="-27.5" font-family="Times New Roman,serif" font-size="10.00">COLUMN_NUMBER: int (0:1)</text>
</g>
<!-- METHOD&#45;&gt;IDENTIFIER -->
<g id="edge7" class="edge">
<title>METHOD&#45;&gt;IDENTIFIER</title>
<path fill="none" stroke="blue" d="M1796.8,-213C1660.14,-213 1415.5,-213 1415.5,-213 1415.5,-213 1415.5,-132.58 1415.5,-132.58"/>
<polygon fill="blue" stroke="blue" points="1419,-132.58 1415.5,-122.58 1412,-132.58 1419,-132.58"/>
<text text-anchor="middle" x="1556.94" y="-215.6" font-family="Times New Roman,serif" font-size="8.00">CFG </text>
</g>
<!-- FIELD_IDENTIFIER -->
<g id="node9" class="node">
<title>FIELD_IDENTIFIER</title>
<polygon fill="none" stroke="black" points="1547,-30.5 1547,-112.5 1700,-112.5 1700,-30.5 1547,-30.5"/>
<text text-anchor="start" x="1555" y="-98.3" font-family="Times New Roman,serif" font-weight="bold" font-size="14.00">FIELD_IDENTIFIER</text>
<text text-anchor="start" x="1590.5" y="-87.5" font-family="Times New Roman,serif" font-size="10.00">CODE: string (1)</text>
<text text-anchor="start" x="1558.5" y="-77.5" font-family="Times New Roman,serif" font-size="10.00">CANONICAL_NAME: string (1)</text>
<text text-anchor="start" x="1594" y="-67.5" font-family="Times New Roman,serif" font-size="10.00">ORDER: int (1)</text>
<text text-anchor="start" x="1566" y="-57.5" font-family="Times New Roman,serif" font-size="10.00">ARGUMENT_INDEX: int (1)</text>
<text text-anchor="start" x="1573.5" y="-47.5" font-family="Times New Roman,serif" font-size="10.00">LINE_NUMBER: int (0:1)</text>
<text text-anchor="start" x="1563" y="-37.5" font-family="Times New Roman,serif" font-size="10.00">COLUMN_NUMBER: int (0:1)</text>
</g>
<!-- METHOD&#45;&gt;FIELD_IDENTIFIER -->
<g id="edge8" class="edge">
<title>METHOD&#45;&gt;FIELD_IDENTIFIER</title>
<path fill="none" stroke="blue" d="M1796.73,-196C1720.54,-196 1623.5,-196 1623.5,-196 1623.5,-196 1623.5,-122.61 1623.5,-122.61"/>
<polygon fill="blue" stroke="blue" points="1627,-122.61 1623.5,-112.61 1620,-122.61 1627,-122.61"/>
<text text-anchor="middle" x="1664.42" y="-198.6" font-family="Times New Roman,serif" font-size="8.00">CFG </text>
</g>
<!-- RETURN -->
<g id="node10" class="node">
<title>RETURN</title>
<polygon fill="none" stroke="black" points="1718,-35.5 1718,-107.5 1855,-107.5 1855,-35.5 1718,-35.5"/>
<text text-anchor="start" x="1756" y="-93.3" font-family="Times New Roman,serif" font-weight="bold" font-size="14.00">RETURN</text>
<text text-anchor="start" x="1736.5" y="-82.5" font-family="Times New Roman,serif" font-size="10.00">LINE_NUMBER: int (0:1)</text>
<text text-anchor="start" x="1726" y="-72.5" font-family="Times New Roman,serif" font-size="10.00">COLUMN_NUMBER: int (0:1)</text>
<text text-anchor="start" x="1757" y="-62.5" font-family="Times New Roman,serif" font-size="10.00">ORDER: int (1)</text>
<text text-anchor="start" x="1729" y="-52.5" font-family="Times New Roman,serif" font-size="10.00">ARGUMENT_INDEX: int (1)</text>
<text text-anchor="start" x="1753.5" y="-42.5" font-family="Times New Roman,serif" font-size="10.00">CODE: string (1)</text>
</g>
<!-- METHOD&#45;&gt;RETURN -->
<g id="edge13" class="edge">
<title>METHOD&#45;&gt;RETURN</title>
<path fill="none" stroke="blue" d="M1835.67,-179.33C1835.67,-179.33 1835.67,-117.89 1835.67,-117.89"/>
<polygon fill="blue" stroke="blue" points="1839.17,-117.89 1835.67,-107.89 1832.17,-117.89 1839.17,-117.89"/>
<text text-anchor="middle" x="1826.67" y="-151.21" font-family="Times New Roman,serif" font-size="8.00">CFG </text>
</g>
<!-- BLOCK -->
<g id="node11" class="node">
<title>BLOCK</title>
<polygon fill="none" stroke="black" points="1873,-25.5 1873,-117.5 2100,-117.5 2100,-25.5 1873,-25.5"/>
<text text-anchor="start" x="1960.5" y="-103.3" font-family="Times New Roman,serif" font-weight="bold" font-size="14.00">BLOCK</text>
<text text-anchor="start" x="1953.5" y="-92.5" font-family="Times New Roman,serif" font-size="10.00">CODE: string (1)</text>
<text text-anchor="start" x="1957" y="-82.5" font-family="Times New Roman,serif" font-size="10.00">ORDER: int (1)</text>
<text text-anchor="start" x="1929" y="-72.5" font-family="Times New Roman,serif" font-size="10.00">ARGUMENT_INDEX: int (1)</text>
<text text-anchor="start" x="1924" y="-62.5" font-family="Times New Roman,serif" font-size="10.00">TYPE_FULL_NAME: string (1)</text>
<text text-anchor="start" x="1881" y="-52.5" font-family="Times New Roman,serif" font-size="10.00">DYNAMIC_TYPE_HINT_FULL_NAME: string (0:n)</text>
<text text-anchor="start" x="1936.5" y="-42.5" font-family="Times New Roman,serif" font-size="10.00">LINE_NUMBER: int (0:1)</text>
<text text-anchor="start" x="1926" y="-32.5" font-family="Times New Roman,serif" font-size="10.00">COLUMN_NUMBER: int (0:1)</text>
</g>
<!-- METHOD&#45;&gt;BLOCK -->
<g id="edge4" class="edge">
<title>METHOD&#45;&gt;BLOCK</title>
<path fill="none" stroke="red" d="M1907.33,-179.33C1907.33,-179.33 1907.33,-127.59 1907.33,-127.59"/>
<polygon fill="red" stroke="red" points="1910.83,-127.59 1907.33,-117.59 1903.83,-127.59 1910.83,-127.59"/>
<text text-anchor="middle" x="1889.33" y="-156.06" font-family="Times New Roman,serif" font-size="8.00">AST (1:1)</text>
</g>
<!-- METHOD&#45;&gt;BLOCK -->
<g id="edge14" class="edge">
<title>METHOD&#45;&gt;BLOCK</title>
<path fill="none" stroke="blue" d="M1941.67,-179.33C1941.67,-179.33 1941.67,-127.59 1941.67,-127.59"/>
<polygon fill="blue" stroke="blue" points="1945.17,-127.59 1941.67,-117.59 1938.17,-127.59 1945.17,-127.59"/>
<text text-anchor="middle" x="1932.67" y="-156.06" font-family="Times New Roman,serif" font-size="8.00">CFG </text>
</g>
<!-- METHOD_REF -->
<g id="node12" class="node">
<title>METHOD_REF</title>
<polygon fill="none" stroke="black" points="2118,-15.5 2118,-127.5 2345,-127.5 2345,-15.5 2118,-15.5"/>
<text text-anchor="start" x="2180" y="-113.3" font-family="Times New Roman,serif" font-weight="bold" font-size="14.00">METHOD_REF</text>
<text text-anchor="start" x="2198.5" y="-102.5" font-family="Times New Roman,serif" font-size="10.00">CODE: string (1)</text>
<text text-anchor="start" x="2202" y="-92.5" font-family="Times New Roman,serif" font-size="10.00">ORDER: int (1)</text>
<text text-anchor="start" x="2174" y="-82.5" font-family="Times New Roman,serif" font-size="10.00">ARGUMENT_INDEX: int (1)</text>
<text text-anchor="start" x="2169" y="-72.5" font-family="Times New Roman,serif" font-size="10.00">TYPE_FULL_NAME: string (1)</text>
<text text-anchor="start" x="2126" y="-62.5" font-family="Times New Roman,serif" font-size="10.00">DYNAMIC_TYPE_HINT_FULL_NAME: string (0:n)</text>
<text text-anchor="start" x="2143.5" y="-52.5" font-family="Times New Roman,serif" font-size="10.00">METHOD_INST_FULL_NAME: string (0:1)</text>
<text text-anchor="start" x="2160" y="-42.5" font-family="Times New Roman,serif" font-size="10.00">METHOD_FULL_NAME: string (1)</text>
<text text-anchor="start" x="2181.5" y="-32.5" font-family="Times New Roman,serif" font-size="10.00">LINE_NUMBER: int (0:1)</text>
<text text-anchor="start" x="2171" y="-22.5" font-family="Times New Roman,serif" font-size="10.00">COLUMN_NUMBER: int (0:1)</text>
</g>
<!-- METHOD&#45;&gt;METHOD_REF -->
<g id="edge10" class="edge">
<title>METHOD&#45;&gt;METHOD_REF</title>
<path fill="none" stroke="blue" d="M1976.24,-196C2078.47,-196 2231.5,-196 2231.5,-196 2231.5,-196 2231.5,-137.56 2231.5,-137.56"/>
<polygon fill="blue" stroke="blue" points="2235,-137.56 2231.5,-127.56 2228,-137.56 2235,-137.56"/>
<text text-anchor="middle" x="2124.09" y="-198.6" font-family="Times New Roman,serif" font-size="8.00">CFG </text>
</g>
<!-- TYPE_REF -->
<g id="node13" class="node">
<title>TYPE_REF</title>
<polygon fill="none" stroke="black" points="2363,-25.5 2363,-117.5 2590,-117.5 2590,-25.5 2363,-25.5"/>
<text text-anchor="start" x="2438.5" y="-103.3" font-family="Times New Roman,serif" font-weight="bold" font-size="14.00">TYPE_REF</text>
<text text-anchor="start" x="2443.5" y="-92.5" font-family="Times New Roman,serif" font-size="10.00">CODE: string (1)</text>
<text text-anchor="start" x="2447" y="-82.5" font-family="Times New Roman,serif" font-size="10.00">ORDER: int (1)</text>
<text text-anchor="start" x="2419" y="-72.5" font-family="Times New Roman,serif" font-size="10.00">ARGUMENT_INDEX: int (1)</text>
<text text-anchor="start" x="2414" y="-62.5" font-family="Times New Roman,serif" font-size="10.00">TYPE_FULL_NAME: string (1)</text>
<text text-anchor="start" x="2371" y="-52.5" font-family="Times New Roman,serif" font-size="10.00">DYNAMIC_TYPE_HINT_FULL_NAME: string (0:n)</text>
<text text-anchor="start" x="2426.5" y="-42.5" font-family="Times New Roman,serif" font-size="10.00">LINE_NUMBER: int (0:1)</text>
<text text-anchor="start" x="2416" y="-32.5" font-family="Times New Roman,serif" font-size="10.00">COLUMN_NUMBER: int (0:1)</text>
</g>
<!-- METHOD&#45;&gt;TYPE_REF -->
<g id="edge11" class="edge">
<title>METHOD&#45;&gt;TYPE_REF</title>
<path fill="none" stroke="blue" d="M1976.11,-213C2141.16,-213 2476.5,-213 2476.5,-213 2476.5,-213 2476.5,-127.83 2476.5,-127.83"/>
<polygon fill="blue" stroke="blue" points="2480,-127.83 2476.5,-117.83 2473,-127.83 2480,-127.83"/>
<text text-anchor="middle" x="2259.89" y="-215.6" font-family="Times New Roman,serif" font-size="8.00">CFG </text>
</g>
<!-- CONTROL_STRUCTURE -->
<g id="node14" class="node">
<title>CONTROL_STRUCTURE</title>
<polygon fill="none" stroke="black" points="2608,-30.5 2608,-112.5 2793,-112.5 2793,-30.5 2608,-30.5"/>
<text text-anchor="start" x="2616" y="-98.3" font-family="Times New Roman,serif" font-weight="bold" font-size="14.00">CONTROL_STRUCTURE</text>
<text text-anchor="start" x="2667.5" y="-87.5" font-family="Times New Roman,serif" font-size="10.00">CODE: string (1)</text>
<text text-anchor="start" x="2640" y="-77.5" font-family="Times New Roman,serif" font-size="10.00">COLUMN_NUMBER: int (0:1)</text>
<text text-anchor="start" x="2650.5" y="-67.5" font-family="Times New Roman,serif" font-size="10.00">LINE_NUMBER: int (0:1)</text>
<text text-anchor="start" x="2671" y="-57.5" font-family="Times New Roman,serif" font-size="10.00">ORDER: int (1)</text>
<text text-anchor="start" x="2631.5" y="-47.5" font-family="Times New Roman,serif" font-size="10.00">PARSER_TYPE_NAME: string (1)</text>
<text text-anchor="start" x="2643" y="-37.5" font-family="Times New Roman,serif" font-size="10.00">ARGUMENT_INDEX: int (1)</text>
</g>
<!-- METHOD&#45;&gt;CONTROL_STRUCTURE -->
<g id="edge16" class="edge">
<title>METHOD&#45;&gt;CONTROL_STRUCTURE</title>
<path fill="none" stroke="blue" d="M1976.33,-230C2188.03,-230 2700.5,-230 2700.5,-230 2700.5,-230 2700.5,-122.73 2700.5,-122.73"/>
<polygon fill="blue" stroke="blue" points="2704,-122.73 2700.5,-112.73 2697,-122.73 2704,-122.73"/>
<text text-anchor="middle" x="2383.05" y="-232.6" font-family="Times New Roman,serif" font-size="8.00">CFG </text>
</g>
<!-- JUMP_TARGET -->
<g id="node15" class="node">
<title>JUMP_TARGET</title>
<polygon fill="none" stroke="black" points="2811.5,-20.5 2811.5,-122.5 2965.5,-122.5 2965.5,-20.5 2811.5,-20.5"/>
<text text-anchor="start" x="2834" y="-108.3" font-family="Times New Roman,serif" font-weight="bold" font-size="14.00">JUMP_TARGET</text>
<text text-anchor="start" x="2855.5" y="-97.5" font-family="Times New Roman,serif" font-size="10.00">CODE: string (1)</text>
<text text-anchor="start" x="2853.5" y="-87.5" font-family="Times New Roman,serif" font-size="10.00">NAME: string (1)</text>
<text text-anchor="start" x="2828" y="-77.5" font-family="Times New Roman,serif" font-size="10.00">COLUMN_NUMBER: int (0:1)</text>
<text text-anchor="start" x="2838.5" y="-67.5" font-family="Times New Roman,serif" font-size="10.00">LINE_NUMBER: int (0:1)</text>
<text text-anchor="start" x="2859" y="-57.5" font-family="Times New Roman,serif" font-size="10.00">ORDER: int (1)</text>
<text text-anchor="start" x="2819.5" y="-47.5" font-family="Times New Roman,serif" font-size="10.00">PARSER_TYPE_NAME: string (1)</text>
<text text-anchor="start" x="2831" y="-37.5" font-family="Times New Roman,serif" font-size="10.00">ARGUMENT_INDEX: int (1)</text>
<text text-anchor="start" x="2846.5" y="-27.5" font-family="Times New Roman,serif" font-size="10.00">INTERNAL_FLAGS </text>
</g>
<!-- METHOD&#45;&gt;JUMP_TARGET -->
<g id="edge15" class="edge">
<title>METHOD&#45;&gt;JUMP_TARGET</title>
<path fill="none" stroke="blue" d="M1976.3,-247C2222.24,-247 2888.5,-247 2888.5,-247 2888.5,-247 2888.5,-132.73 2888.5,-132.73"/>
<polygon fill="blue" stroke="blue" points="2892,-132.73 2888.5,-122.73 2885,-132.73 2892,-132.73"/>
<text text-anchor="middle" x="2480.53" y="-249.6" font-family="Times New Roman,serif" font-size="8.00">CFG </text>
</g>
<!-- UNKNOWN -->
<g id="node16" class="node">
<title>UNKNOWN</title>
<polygon fill="none" stroke="black" points="2984,-20.5 2984,-122.5 3211,-122.5 3211,-20.5 2984,-20.5"/>
<text text-anchor="start" x="3058.5" y="-108.3" font-family="Times New Roman,serif" font-weight="bold" font-size="14.00">UNKNOWN</text>
<text text-anchor="start" x="3064.5" y="-97.5" font-family="Times New Roman,serif" font-size="10.00">CODE: string (1)</text>
<text text-anchor="start" x="3028.5" y="-87.5" font-family="Times New Roman,serif" font-size="10.00">PARSER_TYPE_NAME: string (1)</text>
<text text-anchor="start" x="3068" y="-77.5" font-family="Times New Roman,serif" font-size="10.00">ORDER: int (1)</text>
<text text-anchor="start" x="3040" y="-67.5" font-family="Times New Roman,serif" font-size="10.00">ARGUMENT_INDEX: int (1)</text>
<text text-anchor="start" x="3035" y="-57.5" font-family="Times New Roman,serif" font-size="10.00">TYPE_FULL_NAME: string (1)</text>
<text text-anchor="start" x="2992" y="-47.5" font-family="Times New Roman,serif" font-size="10.00">DYNAMIC_TYPE_HINT_FULL_NAME: string (0:n)</text>
<text text-anchor="start" x="3047.5" y="-37.5" font-family="Times New Roman,serif" font-size="10.00">LINE_NUMBER: int (0:1)</text>
<text text-anchor="start" x="3037" y="-27.5" font-family="Times New Roman,serif" font-size="10.00">COLUMN_NUMBER: int (0:1)</text>
</g>
<!-- METHOD&#45;&gt;UNKNOWN -->
<g id="edge17" class="edge">
<title>METHOD&#45;&gt;UNKNOWN</title>
<path fill="none" stroke="blue" d="M1976.04,-264C2256.2,-264 3097.5,-264 3097.5,-264 3097.5,-264 3097.5,-132.58 3097.5,-132.58"/>
<polygon fill="blue" stroke="blue" points="3101,-132.58 3097.5,-122.58 3094,-132.58 3101,-132.58"/>
<text text-anchor="middle" x="2593.48" y="-266.6" font-family="Times New Roman,serif" font-size="8.00">CFG </text>
</g>
<!-- DECLARATION -->
<g id="node17" class="node">
<title>DECLARATION</title>
<polygon fill="none" stroke="black" points="3229,-53.5 3229,-89.5 3352,-89.5 3352,-53.5 3229,-53.5"/>
<text text-anchor="start" x="3237" y="-73.3" font-family="Times New Roman,serif" font-weight="bold" font-size="14.00">DECLARATION</text>
<text text-anchor="start" x="3255.5" y="-62.5" font-family="Times New Roman,serif" font-size="10.00">NAME: string (1)</text>
</g>
<!-- METHOD&#45;&gt;DECLARATION -->
<g id="edge18" class="edge">
<title>METHOD&#45;&gt;DECLARATION</title>
<path fill="none" stroke="gray" d="M1976.19,-281C2285.76,-281 3290.5,-281 3290.5,-281 3290.5,-281 3290.5,-99.73 3290.5,-99.73"/>
<polygon fill="none" stroke="gray" points="3294,-99.73 3290.5,-89.73 3287,-99.73 3294,-99.73"/>
<text text-anchor="middle" x="2720.98" y="-283.6" font-family="Times New Roman,serif" font-size="8.00">is</text>
</g>
<!-- CFG_NODE -->
<g id="node18" class="node">
<title>CFG_NODE</title>
<polygon fill="none" stroke="black" points="3370,-40.5 3370,-102.5 3507,-102.5 3507,-40.5 3370,-40.5"/>
<text text-anchor="start" x="3398" y="-88.3" font-family="Times New Roman,serif" font-weight="bold" font-size="14.00">CFG_NODE</text>
<text text-anchor="start" x="3388.5" y="-77.5" font-family="Times New Roman,serif" font-size="10.00">LINE_NUMBER: int (0:1)</text>
<text text-anchor="start" x="3378" y="-67.5" font-family="Times New Roman,serif" font-size="10.00">COLUMN_NUMBER: int (0:1)</text>
<text text-anchor="start" x="3396.5" y="-57.5" font-family="Times New Roman,serif" font-size="10.00">INTERNAL_FLAGS </text>
<text text-anchor="start" x="3405.5" y="-47.5" font-family="Times New Roman,serif" font-size="10.00">CODE: string (1)</text>
</g>
<!-- METHOD&#45;&gt;CFG_NODE -->
<g id="edge19" class="edge">
<title>METHOD&#45;&gt;CFG_NODE</title>
<path fill="none" stroke="gray" d="M1976.08,-298C2306.59,-298 3438.5,-298 3438.5,-298 3438.5,-298 3438.5,-112.52 3438.5,-112.52"/>
<polygon fill="none" stroke="gray" points="3442,-112.52 3438.5,-102.52 3435,-112.52 3442,-112.52"/>
<text text-anchor="middle" x="2797.03" y="-300.6" font-family="Times New Roman,serif" font-size="8.00">is</text>
</g>
<!-- AST_NODE -->
<g id="node19" class="node">
<title>AST_NODE</title>
<polygon fill="none" stroke="black" points="3525.5,-53.5 3525.5,-89.5 3619.5,-89.5 3619.5,-53.5 3525.5,-53.5"/>
<text text-anchor="start" x="3533.5" y="-73.3" font-family="Times New Roman,serif" font-weight="bold" font-size="14.00">AST_NODE</text>
<text text-anchor="start" x="3543" y="-62.5" font-family="Times New Roman,serif" font-size="10.00">ORDER: int (1)</text>
</g>
<!-- METHOD&#45;&gt;AST_NODE -->
<g id="edge20" class="edge">
<title>METHOD&#45;&gt;AST_NODE</title>
<path fill="none" stroke="gray" d="M1976.25,-315C2325.22,-315 3572.5,-315 3572.5,-315 3572.5,-315 3572.5,-99.8 3572.5,-99.8"/>
<polygon fill="none" stroke="gray" points="3576,-99.8 3572.5,-89.8 3569,-99.8 3576,-99.8"/>
<text text-anchor="middle" x="2878.98" y="-317.6" font-family="Times New Roman,serif" font-size="8.00">is</text>
</g>
</g>
</svg>
