<?xml version="1.0" encoding="UTF-8" standalone="no"?>
<!DOCTYPE svg PUBLIC "-//W3C//DTD SVG 1.1//EN"
 "http://www.w3.org/Graphics/SVG/1.1/DTD/svg11.dtd">
<!-- Generated by graphviz version 2.44.1 (0)
 -->
<!-- Title: cpgschema Pages: 1 -->
<svg width="348pt" height="153pt"
 viewBox="0.00 0.00 348.19 153.00" xmlns="http://www.w3.org/2000/svg" xmlns:xlink="http://www.w3.org/1999/xlink">
<g id="graph0" class="graph" transform="scale(1 1) rotate(0) translate(4 149)">
<title>cpgschema</title>
<polygon fill="white" stroke="transparent" points="-4,4 -4,-149 344.19,-149 344.19,4 -4,4"/>
<!-- METHOD_INST -->
<g id="node1" class="node">
<title>METHOD_INST</title>
<polygon fill="none" stroke="black" points="117.14,-72.5 117.14,-144.5 257.14,-144.5 257.14,-72.5 117.14,-72.5"/>
<text text-anchor="start" x="126.64" y="-130.3" font-family="Times,serif" font-weight="bold" font-size="14.00">METHOD_INST</text>
<text text-anchor="start" x="169.64" y="-119.5" font-family="Times,serif" font-size="10.00">NAME</text>
<text text-anchor="start" x="154.64" y="-109.5" font-family="Times,serif" font-size="10.00">SIGNATURE</text>
<text text-anchor="start" x="152.64" y="-99.5" font-family="Times,serif" font-size="10.00">FULL_NAME</text>
<text text-anchor="start" x="125.14" y="-89.5" font-family="Times,serif" font-size="10.00">METHOD_FULL_NAME</text>
<text text-anchor="start" x="167.14" y="-79.5" font-family="Times,serif" font-size="10.00">ORDER</text>
</g>
<!-- TYPE_ARGUMENT -->
<g id="node2" class="node">
<title>TYPE_ARGUMENT</title>
<ellipse fill="none" stroke="black" cx="98.14" cy="-18" rx="98.28" ry="18"/>
<text text-anchor="middle" x="98.14" y="-14.3" font-family="Times,serif" font-size="14.00">TYPE_ARGUMENT</text>
</g>
<!-- METHOD_INST&#45;&gt;TYPE_ARGUMENT -->
<g id="edge1" class="edge">
<title>METHOD_INST&#45;&gt;TYPE_ARGUMENT</title>
<path fill="none" stroke="red" d="M156.71,-72.47C156.71,-72.47 156.71,-42.46 156.71,-42.46"/>
<polygon fill="red" stroke="red" points="160.21,-42.46 156.71,-32.46 153.21,-42.46 160.21,-42.46"/>
<text text-anchor="middle" x="147.21" y="-60.06" font-family="Times,serif" font-size="8.00">AST </text>
</g>
<!-- AST_NODE -->
<g id="node3" class="node">
<title>AST_NODE</title>
<ellipse fill="none" stroke="black" cx="277.14" cy="-18" rx="63.09" ry="18"/>
<text text-anchor="middle" x="277.14" y="-14.3" font-family="Times,serif" font-size="14.00">AST_NODE</text>
</g>
<!-- METHOD_INST&#45;&gt;AST_NODE -->
<g id="edge2" class="edge">
<title>METHOD_INST&#45;&gt;AST_NODE</title>
<path fill="none" stroke="gray" d="M235.62,-72.47C235.62,-72.47 235.62,-41.56 235.62,-41.56"/>
<polygon fill="none" stroke="gray" points="239.12,-41.56 235.62,-31.56 232.12,-41.56 239.12,-41.56"/>
<text text-anchor="middle" x="232.12" y="-59.61" font-family="Times,serif" font-size="8.00">is</text>
</g>
</g>
</svg>
