<?xml version="1.0" encoding="UTF-8" standalone="no"?>
<!DOCTYPE svg PUBLIC "-//W3C//DTD SVG 1.1//EN"
 "http://www.w3.org/Graphics/SVG/1.1/DTD/svg11.dtd">
<!-- Generated by graphviz version 2.44.1 (0)
 -->
<!-- Title: cpgschema Pages: 1 -->
<svg width="684pt" height="183pt"
 viewBox="0.00 0.00 684.29 183.00" xmlns="http://www.w3.org/2000/svg" xmlns:xlink="http://www.w3.org/1999/xlink">
<g id="graph0" class="graph" transform="scale(1 1) rotate(0) translate(4 179)">
<title>cpgschema</title>
<polygon fill="white" stroke="transparent" points="-4,4 -4,-179 680.29,-179 680.29,4 -4,4"/>
<!-- METHOD_PARAMETER_IN -->
<g id="node1" class="node">
<title>METHOD_PARAMETER_IN</title>
<polygon fill="none" stroke="black" points="229.24,-72.5 229.24,-174.5 455.24,-174.5 455.24,-72.5 229.24,-72.5"/>
<text text-anchor="start" x="237.24" y="-160.3" font-family="Times,serif" font-weight="bold" font-size="14.00">METHOD_PARAMETER_IN</text>
<text text-anchor="start" x="326.24" y="-149.5" font-family="Times,serif" font-size="10.00">CODE</text>
<text text-anchor="start" x="322.24" y="-139.5" font-family="Times,serif" font-size="10.00">ORDER</text>
<text text-anchor="start" x="324.74" y="-129.5" font-family="Times,serif" font-size="10.00">NAME</text>
<text text-anchor="start" x="275.74" y="-119.5" font-family="Times,serif" font-size="10.00">EVALUATION_STRATEGY</text>
<text text-anchor="start" x="291.24" y="-109.5" font-family="Times,serif" font-size="10.00">TYPE_FULL_NAME</text>
<text text-anchor="start" x="245.24" y="-99.5" font-family="Times,serif" font-size="10.00">DYNAMIC_TYPE_HINT_FULL_NAME</text>
<text text-anchor="start" x="300.74" y="-89.5" font-family="Times,serif" font-size="10.00">LINE_NUMBER</text>
<text text-anchor="start" x="289.24" y="-79.5" font-family="Times,serif" font-size="10.00">COLUMN_NUMBER</text>
</g>
<!-- DECLARATION -->
<g id="node2" class="node">
<title>DECLARATION</title>
<ellipse fill="none" stroke="black" cx="81.24" cy="-18" rx="81.49" ry="18"/>
<text text-anchor="middle" x="81.24" y="-14.3" font-family="Times,serif" font-size="14.00">DECLARATION</text>
</g>
<!-- METHOD_PARAMETER_IN&#45;&gt;DECLARATION -->
<g id="edge1" class="edge">
<title>METHOD_PARAMETER_IN&#45;&gt;DECLARATION</title>
<path fill="none" stroke="gray" d="M228.9,-123C158.47,-123 81.24,-123 81.24,-123 81.24,-123 81.24,-46.29 81.24,-46.29"/>
<polygon fill="none" stroke="gray" points="84.74,-46.29 81.24,-36.29 77.74,-46.29 84.74,-46.29"/>
<text text-anchor="middle" x="113.22" y="-125.6" font-family="Times,serif" font-size="8.00">is</text>
</g>
<!-- LOCAL_LIKE -->
<g id="node3" class="node">
<title>LOCAL_LIKE</title>
<ellipse fill="none" stroke="black" cx="250.24" cy="-18" rx="70.39" ry="18"/>
<text text-anchor="middle" x="250.24" y="-14.3" font-family="Times,serif" font-size="14.00">LOCAL_LIKE</text>
</g>
<!-- METHOD_PARAMETER_IN&#45;&gt;LOCAL_LIKE -->
<g id="edge2" class="edge">
<title>METHOD_PARAMETER_IN&#45;&gt;LOCAL_LIKE</title>
<path fill="none" stroke="gray" d="M274.84,-72.3C274.84,-72.3 274.84,-45.07 274.84,-45.07"/>
<polygon fill="none" stroke="gray" points="278.34,-45.07 274.84,-35.07 271.34,-45.07 278.34,-45.07"/>
<text text-anchor="middle" x="271.34" y="-61.28" font-family="Times,serif" font-size="8.00">is</text>
</g>
<!-- TRACKING_POINT -->
<g id="node4" class="node">
<title>TRACKING_POINT</title>
<ellipse fill="none" stroke="black" cx="435.24" cy="-18" rx="96.68" ry="18"/>
<text text-anchor="middle" x="435.24" y="-14.3" font-family="Times,serif" font-size="14.00">TRACKING_POINT</text>
</g>
<!-- METHOD_PARAMETER_IN&#45;&gt;TRACKING_POINT -->
<g id="edge3" class="edge">
<title>METHOD_PARAMETER_IN&#45;&gt;TRACKING_POINT</title>
<path fill="none" stroke="gray" d="M396.82,-72.3C396.82,-72.3 396.82,-44.59 396.82,-44.59"/>
<polygon fill="none" stroke="gray" points="400.32,-44.59 396.82,-34.59 393.32,-44.59 400.32,-44.59"/>
<text text-anchor="middle" x="393.32" y="-61.04" font-family="Times,serif" font-size="8.00">is</text>
</g>
<!-- AST_NODE -->
<g id="node5" class="node">
<title>AST_NODE</title>
<ellipse fill="none" stroke="black" cx="613.24" cy="-18" rx="63.09" ry="18"/>
<text text-anchor="middle" x="613.24" y="-14.3" font-family="Times,serif" font-size="14.00">AST_NODE</text>
</g>
<!-- METHOD_PARAMETER_IN&#45;&gt;AST_NODE -->
<g id="edge4" class="edge">
<title>METHOD_PARAMETER_IN&#45;&gt;AST_NODE</title>
<path fill="none" stroke="gray" d="M455.6,-123C529.86,-123 613.24,-123 613.24,-123 613.24,-123 613.24,-46.29 613.24,-46.29"/>
<polygon fill="none" stroke="gray" points="616.74,-46.29 613.24,-36.29 609.74,-46.29 616.74,-46.29"/>
<text text-anchor="middle" x="569.28" y="-125.6" font-family="Times,serif" font-size="8.00">is</text>
</g>
</g>
</svg>
