<?xml version="1.0" encoding="UTF-8" standalone="no"?>
<!DOCTYPE svg PUBLIC "-//W3C//DTD SVG 1.1//EN"
 "http://www.w3.org/Graphics/SVG/1.1/DTD/svg11.dtd">
<!-- Generated by graphviz version 2.44.1 (0)
 -->
<!-- Title: cpgschema Pages: 1 -->
<svg width="190pt" height="143pt"
 viewBox="0.00 0.00 190.00 143.00" xmlns="http://www.w3.org/2000/svg" xmlns:xlink="http://www.w3.org/1999/xlink">
<g id="graph0" class="graph" transform="scale(1 1) rotate(0) translate(4 139)">
<title>cpgschema</title>
<polygon fill="white" stroke="transparent" points="-4,4 -4,-139 186,-139 186,4 -4,4"/>
<!-- NAMESPACE_BLOCK -->
<g id="node1" class="node">
<title>NAMESPACE_BLOCK</title>
<polygon fill="none" stroke="black" points="0,-72.5 0,-134.5 182,-134.5 182,-72.5 0,-72.5"/>
<text text-anchor="start" x="8" y="-120.3" font-family="Times,serif" font-weight="bold" font-size="14.00">NAMESPACE_BLOCK</text>
<text text-anchor="start" x="73.5" y="-109.5" font-family="Times,serif" font-size="10.00">NAME</text>
<text text-anchor="start" x="56.5" y="-99.5" font-family="Times,serif" font-size="10.00">FULL_NAME</text>
<text text-anchor="start" x="71" y="-89.5" font-family="Times,serif" font-size="10.00">ORDER</text>
<text text-anchor="start" x="61" y="-79.5" font-family="Times,serif" font-size="10.00">FILENAME</text>
</g>
<!-- AST_NODE -->
<g id="node2" class="node">
<title>AST_NODE</title>
<ellipse fill="none" stroke="black" cx="91" cy="-18" rx="63.09" ry="18"/>
<text text-anchor="middle" x="91" y="-14.3" font-family="Times,serif" font-size="14.00">AST_NODE</text>
</g>
<!-- NAMESPACE_BLOCK&#45;&gt;AST_NODE -->
<g id="edge1" class="edge">
<title>NAMESPACE_BLOCK&#45;&gt;AST_NODE</title>
<path fill="none" stroke="gray" d="M91,-72.15C91,-72.15 91,-46.42 91,-46.42"/>
<polygon fill="none" stroke="gray" points="94.5,-46.42 91,-36.42 87.5,-46.42 94.5,-46.42"/>
<text text-anchor="middle" x="87.5" y="-61.88" font-family="Times,serif" font-size="8.00">is</text>
</g>
</g>
</svg>
