<?xml version="1.0" encoding="UTF-8" standalone="no"?>
<!DOCTYPE svg PUBLIC "-//W3C//DTD SVG 1.1//EN"
 "http://www.w3.org/Graphics/SVG/1.1/DTD/svg11.dtd">
<!-- Generated by graphviz version 2.44.1 (20200629.0800)
 -->
<!-- Title: cpgschema Pages: 1 -->
<svg width="174pt" height="144pt"
 viewBox="0.00 0.00 174.00 144.00" xmlns="http://www.w3.org/2000/svg" xmlns:xlink="http://www.w3.org/1999/xlink">
<g id="graph0" class="graph" transform="scale(1 1) rotate(0) translate(4 140)">
<title>cpgschema</title>
<polygon fill="white" stroke="transparent" points="-4,4 -4,-140 170,-140 170,4 -4,4"/>
<!-- NAMESPACE_BLOCK -->
<g id="node1" class="node">
<title>NAMESPACE_BLOCK</title>
<polygon fill="none" stroke="black" points="0,-73.5 0,-135.5 166,-135.5 166,-73.5 0,-73.5"/>
<text text-anchor="start" x="8" y="-121.3" font-family="Times New Roman,serif" font-weight="bold" font-size="14.00">NAMESPACE_BLOCK</text>
<text text-anchor="start" x="48" y="-110.5" font-family="Times New Roman,serif" font-size="10.00">NAME: string (1)</text>
<text text-anchor="start" x="34.5" y="-100.5" font-family="Times New Roman,serif" font-size="10.00">FULL_NAME: string (1)</text>
<text text-anchor="start" x="53.5" y="-90.5" font-family="Times New Roman,serif" font-size="10.00">ORDER: int (1)</text>
<text text-anchor="start" x="39" y="-80.5" font-family="Times New Roman,serif" font-size="10.00">FILENAME: string (1)</text>
</g>
<!-- AST_NODE -->
<g id="node2" class="node">
<title>AST_NODE</title>
<polygon fill="none" stroke="black" points="36,-0.5 36,-36.5 130,-36.5 130,-0.5 36,-0.5"/>
<text text-anchor="start" x="44" y="-20.3" font-family="Times New Roman,serif" font-weight="bold" font-size="14.00">AST_NODE</text>
<text text-anchor="start" x="53.5" y="-9.5" font-family="Times New Roman,serif" font-size="10.00">ORDER: int (1)</text>
</g>
<!-- NAMESPACE_BLOCK&#45;&gt;AST_NODE -->
<g id="edge1" class="edge">
<title>NAMESPACE_BLOCK&#45;&gt;AST_NODE</title>
<path fill="none" stroke="gray" d="M83,-73.45C83,-73.45 83,-46.74 83,-46.74"/>
<polygon fill="none" stroke="gray" points="86.5,-46.74 83,-36.74 79.5,-46.74 86.5,-46.74"/>
<text text-anchor="middle" x="80" y="-62.7" font-family="Times New Roman,serif" font-size="8.00">is</text>
</g>
</g>
</svg>
