<?xml version="1.0" encoding="UTF-8" standalone="no"?>
<!DOCTYPE svg PUBLIC "-//W3C//DTD SVG 1.1//EN"
 "http://www.w3.org/Graphics/SVG/1.1/DTD/svg11.dtd">
<!-- Generated by graphviz version 2.44.1 (0)
 -->
<!-- Title: cpgschema Pages: 1 -->
<svg width="1761pt" height="177pt"
 viewBox="0.00 0.00 1761.49 177.00" xmlns="http://www.w3.org/2000/svg" xmlns:xlink="http://www.w3.org/1999/xlink">
<g id="graph0" class="graph" transform="scale(1 1) rotate(0) translate(4 173)">
<title>cpgschema</title>
<polygon fill="white" stroke="transparent" points="-4,4 -4,-173 1757.49,-173 1757.49,4 -4,4"/>
<!-- RETURN -->
<g id="node1" class="node">
<title>RETURN</title>
<polygon fill="none" stroke="black" points="603.75,-72.5 603.75,-144.5 725.75,-144.5 725.75,-72.5 603.75,-72.5"/>
<text text-anchor="start" x="629.75" y="-130.3" font-family="Times,serif" font-weight="bold" font-size="14.00">RETURN</text>
<text text-anchor="start" x="623.25" y="-119.5" font-family="Times,serif" font-size="10.00">LINE_NUMBER</text>
<text text-anchor="start" x="611.75" y="-109.5" font-family="Times,serif" font-size="10.00">COLUMN_NUMBER</text>
<text text-anchor="start" x="644.75" y="-99.5" font-family="Times,serif" font-size="10.00">ORDER</text>
<text text-anchor="start" x="611.75" y="-89.5" font-family="Times,serif" font-size="10.00">ARGUMENT_INDEX</text>
<text text-anchor="start" x="648.75" y="-79.5" font-family="Times,serif" font-size="10.00">CODE</text>
</g>
<!-- RETURN&#45;&gt;RETURN -->
<g id="edge6" class="edge">
<title>RETURN&#45;&gt;RETURN</title>
<path fill="none" stroke="red" d="M685.08,-144.51C685.08,-151.65 685.08,-157 685.08,-157 685.08,-157 740.48,-157 740.48,-157 740.48,-157 740.48,-60 740.48,-60 740.48,-60 716.91,-60 716.91,-60 716.91,-60 716.91,-62.49 716.91,-62.49"/>
<polygon fill="red" stroke="red" points="713.41,-62.49 716.91,-72.49 720.41,-62.49 713.41,-62.49"/>
<text text-anchor="middle" x="749.98" y="-132.01" font-family="Times,serif" font-size="8.00">AST </text>
</g>
<!-- RETURN&#45;&gt;RETURN -->
<g id="edge17" class="edge">
<title>RETURN&#45;&gt;RETURN</title>
<path fill="none" stroke="black" d="M644.41,-144.74C644.41,-157.63 644.41,-169 644.41,-169 644.41,-169 755.21,-169 755.21,-169 755.21,-169 755.21,-48 755.21,-48 755.21,-48 708.07,-48 708.07,-48 708.07,-48 708.07,-62.26 708.07,-62.26"/>
<polygon fill="black" stroke="black" points="704.57,-62.26 708.07,-72.26 711.57,-62.26 704.57,-62.26"/>
<text text-anchor="middle" x="709.71" y="-147.93" font-family="Times,serif" font-size="8.00">ARGUMENT (0&#45;1:0&#45;1)</text>
</g>
<!-- CALL -->
<g id="node2" class="node">
<title>CALL</title>
<ellipse fill="none" stroke="black" cx="35.75" cy="-18" rx="36" ry="18"/>
<text text-anchor="middle" x="35.75" y="-14.3" font-family="Times,serif" font-size="14.00">CALL</text>
</g>
<!-- RETURN&#45;&gt;CALL -->
<g id="edge1" class="edge">
<title>RETURN&#45;&gt;CALL</title>
<path fill="none" stroke="red" d="M603.58,-136C443.38,-136 23.83,-136 23.83,-136 23.83,-136 23.83,-45.16 23.83,-45.16"/>
<polygon fill="red" stroke="red" points="27.33,-45.16 23.83,-35.16 20.33,-45.16 27.33,-45.16"/>
<text text-anchor="middle" x="258.79" y="-138.6" font-family="Times,serif" font-size="8.00">AST </text>
</g>
<!-- RETURN&#45;&gt;CALL -->
<g id="edge12" class="edge">
<title>RETURN&#45;&gt;CALL</title>
<path fill="none" stroke="black" d="M603.61,-128C447.72,-128 47.66,-128 47.66,-128 47.66,-128 47.66,-45.19 47.66,-45.19"/>
<polygon fill="black" stroke="black" points="51.16,-45.19 47.66,-35.19 44.16,-45.19 51.16,-45.19"/>
<text text-anchor="middle" x="238.73" y="-121.6" font-family="Times,serif" font-size="8.00">ARGUMENT (0&#45;1:0&#45;1)</text>
</g>
<!-- IDENTIFIER -->
<g id="node3" class="node">
<title>IDENTIFIER</title>
<ellipse fill="none" stroke="black" cx="158.75" cy="-18" rx="68.79" ry="18"/>
<text text-anchor="middle" x="158.75" y="-14.3" font-family="Times,serif" font-size="14.00">IDENTIFIER</text>
</g>
<!-- RETURN&#45;&gt;IDENTIFIER -->
<g id="edge2" class="edge">
<title>RETURN&#45;&gt;IDENTIFIER</title>
<path fill="none" stroke="red" d="M603.55,-120C464.31,-120 135.78,-120 135.78,-120 135.78,-120 135.78,-45.3 135.78,-45.3"/>
<polygon fill="red" stroke="red" points="139.28,-45.3 135.78,-35.3 132.28,-45.3 139.28,-45.3"/>
<text text-anchor="middle" x="322.82" y="-122.6" font-family="Times,serif" font-size="8.00">AST </text>
</g>
<!-- RETURN&#45;&gt;IDENTIFIER -->
<g id="edge13" class="edge">
<title>RETURN&#45;&gt;IDENTIFIER</title>
<path fill="none" stroke="black" d="M603.57,-112C473.59,-112 181.71,-112 181.71,-112 181.71,-112 181.71,-45.24 181.71,-45.24"/>
<polygon fill="black" stroke="black" points="185.21,-45.24 181.71,-35.24 178.21,-45.24 185.21,-45.24"/>
<text text-anchor="middle" x="313.76" y="-105.6" font-family="Times,serif" font-size="8.00">ARGUMENT (0&#45;1:0&#45;1)</text>
</g>
<!-- LITERAL -->
<g id="node4" class="node">
<title>LITERAL</title>
<ellipse fill="none" stroke="black" cx="297.75" cy="-18" rx="51.99" ry="18"/>
<text text-anchor="middle" x="297.75" y="-14.3" font-family="Times,serif" font-size="14.00">LITERAL</text>
</g>
<!-- RETURN&#45;&gt;LITERAL -->
<g id="edge3" class="edge">
<title>RETURN&#45;&gt;LITERAL</title>
<path fill="none" stroke="red" d="M603.42,-104C494.92,-104 280.42,-104 280.42,-104 280.42,-104 280.42,-44.99 280.42,-44.99"/>
<polygon fill="red" stroke="red" points="283.92,-44.99 280.42,-34.99 276.92,-44.99 283.92,-44.99"/>
<text text-anchor="middle" x="402.91" y="-106.6" font-family="Times,serif" font-size="8.00">AST </text>
</g>
<!-- RETURN&#45;&gt;LITERAL -->
<g id="edge14" class="edge">
<title>RETURN&#45;&gt;LITERAL</title>
<path fill="none" stroke="black" d="M603.44,-96C503.16,-96 315.08,-96 315.08,-96 315.08,-96 315.08,-45.31 315.08,-45.31"/>
<polygon fill="black" stroke="black" points="318.58,-45.31 315.08,-35.31 311.58,-45.31 318.58,-45.31"/>
<text text-anchor="middle" x="388.41" y="-89.6" font-family="Times,serif" font-size="8.00">ARGUMENT (0&#45;1:0&#45;1)</text>
</g>
<!-- METHOD_REF -->
<g id="node5" class="node">
<title>METHOD_REF</title>
<ellipse fill="none" stroke="black" cx="446.75" cy="-18" rx="79.09" ry="18"/>
<text text-anchor="middle" x="446.75" y="-14.3" font-family="Times,serif" font-size="14.00">METHOD_REF</text>
</g>
<!-- RETURN&#45;&gt;METHOD_REF -->
<g id="edge4" class="edge">
<title>RETURN&#45;&gt;METHOD_REF</title>
<path fill="none" stroke="red" d="M603.7,-88C531.3,-88 420.32,-88 420.32,-88 420.32,-88 420.32,-45.3 420.32,-45.3"/>
<polygon fill="red" stroke="red" points="423.82,-45.3 420.32,-35.3 416.82,-45.3 423.82,-45.3"/>
<text text-anchor="middle" x="481.16" y="-90.6" font-family="Times,serif" font-size="8.00">AST </text>
</g>
<!-- RETURN&#45;&gt;METHOD_REF -->
<g id="edge15" class="edge">
<title>RETURN&#45;&gt;METHOD_REF</title>
<path fill="none" stroke="black" d="M603.61,-80C547.54,-80 473.18,-80 473.18,-80 473.18,-80 473.18,-45.27 473.18,-45.27"/>
<polygon fill="black" stroke="black" points="476.68,-45.27 473.18,-35.27 469.68,-45.27 476.68,-45.27"/>
<text text-anchor="middle" x="475.53" y="-73.6" font-family="Times,serif" font-size="8.00">ARGUMENT (0&#45;1:0&#45;1)</text>
</g>
<!-- TYPE_REF -->
<g id="node6" class="node">
<title>TYPE_REF</title>
<ellipse fill="none" stroke="black" cx="603.75" cy="-18" rx="59.59" ry="18"/>
<text text-anchor="middle" x="603.75" y="-14.3" font-family="Times,serif" font-size="14.00">TYPE_REF</text>
</g>
<!-- RETURN&#45;&gt;TYPE_REF -->
<g id="edge5" class="edge">
<title>RETURN&#45;&gt;TYPE_REF</title>
<path fill="none" stroke="red" d="M623.68,-72.47C623.68,-72.47 623.68,-45.28 623.68,-45.28"/>
<polygon fill="red" stroke="red" points="627.18,-45.28 623.68,-35.28 620.18,-45.28 627.18,-45.28"/>
<text text-anchor="middle" x="614.18" y="-61.48" font-family="Times,serif" font-size="8.00">AST </text>
</g>
<!-- RETURN&#45;&gt;TYPE_REF -->
<g id="edge16" class="edge">
<title>RETURN&#45;&gt;TYPE_REF</title>
<path fill="none" stroke="black" d="M643.61,-72.47C643.61,-72.47 643.61,-41.56 643.61,-41.56"/>
<polygon fill="black" stroke="black" points="647.11,-41.56 643.61,-31.56 640.11,-41.56 647.11,-41.56"/>
<text text-anchor="middle" x="616.11" y="-50.61" font-family="Times,serif" font-size="8.00">ARGUMENT </text>
</g>
<!-- BLOCK -->
<g id="node7" class="node">
<title>BLOCK</title>
<ellipse fill="none" stroke="black" cx="725.75" cy="-18" rx="44.39" ry="18"/>
<text text-anchor="middle" x="725.75" y="-14.3" font-family="Times,serif" font-size="14.00">BLOCK</text>
</g>
<!-- RETURN&#45;&gt;BLOCK -->
<g id="edge7" class="edge">
<title>RETURN&#45;&gt;BLOCK</title>
<path fill="none" stroke="red" d="M690.39,-72.47C690.39,-72.47 690.39,-38.99 690.39,-38.99"/>
<polygon fill="red" stroke="red" points="693.89,-38.99 690.39,-28.99 686.89,-38.99 693.89,-38.99"/>
<text text-anchor="middle" x="680.89" y="-58.33" font-family="Times,serif" font-size="8.00">AST </text>
</g>
<!-- RETURN&#45;&gt;BLOCK -->
<g id="edge18" class="edge">
<title>RETURN&#45;&gt;BLOCK</title>
<path fill="none" stroke="black" d="M699.23,-72.47C699.23,-72.47 699.23,-42.46 699.23,-42.46"/>
<polygon fill="black" stroke="black" points="702.73,-42.46 699.23,-32.46 695.73,-42.46 702.73,-42.46"/>
<text text-anchor="middle" x="744.73" y="-60.06" font-family="Times,serif" font-size="8.00">ARGUMENT (0&#45;1:0&#45;1)</text>
</g>
<!-- UNKNOWN -->
<g id="node8" class="node">
<title>UNKNOWN</title>
<ellipse fill="none" stroke="black" cx="853.75" cy="-18" rx="65.79" ry="18"/>
<text text-anchor="middle" x="853.75" y="-14.3" font-family="Times,serif" font-size="14.00">UNKNOWN</text>
</g>
<!-- RETURN&#45;&gt;UNKNOWN -->
<g id="edge8" class="edge">
<title>RETURN&#45;&gt;UNKNOWN</title>
<path fill="none" stroke="red" d="M726.03,-88C788.29,-88 875.63,-88 875.63,-88 875.63,-88 875.63,-45.3 875.63,-45.3"/>
<polygon fill="red" stroke="red" points="879.13,-45.3 875.63,-35.3 872.13,-45.3 879.13,-45.3"/>
<text text-anchor="middle" x="812.68" y="-90.6" font-family="Times,serif" font-size="8.00">AST </text>
</g>
<!-- RETURN&#45;&gt;UNKNOWN -->
<g id="edge21" class="edge">
<title>RETURN&#45;&gt;UNKNOWN</title>
<path fill="none" stroke="black" d="M726.03,-80C773.72,-80 831.87,-80 831.87,-80 831.87,-80 831.87,-45.27 831.87,-45.27"/>
<polygon fill="black" stroke="black" points="835.37,-45.27 831.87,-35.27 828.37,-45.27 835.37,-45.27"/>
<text text-anchor="middle" x="768.81" y="-82.6" font-family="Times,serif" font-size="8.00">ARGUMENT </text>
</g>
<!-- JUMP_TARGET -->
<g id="node9" class="node">
<title>JUMP_TARGET</title>
<ellipse fill="none" stroke="black" cx="1017.75" cy="-18" rx="80.69" ry="18"/>
<text text-anchor="middle" x="1017.75" y="-14.3" font-family="Times,serif" font-size="14.00">JUMP_TARGET</text>
</g>
<!-- RETURN&#45;&gt;JUMP_TARGET -->
<g id="edge9" class="edge">
<title>RETURN&#45;&gt;JUMP_TARGET</title>
<path fill="none" stroke="red" d="M725.78,-104C833.16,-104 1044.61,-104 1044.61,-104 1044.61,-104 1044.61,-44.99 1044.61,-44.99"/>
<polygon fill="red" stroke="red" points="1048.11,-44.99 1044.61,-34.99 1041.11,-44.99 1048.11,-44.99"/>
<text text-anchor="middle" x="905.2" y="-106.6" font-family="Times,serif" font-size="8.00">AST </text>
</g>
<!-- RETURN&#45;&gt;JUMP_TARGET -->
<g id="edge19" class="edge">
<title>RETURN&#45;&gt;JUMP_TARGET</title>
<path fill="none" stroke="black" d="M726.09,-96C820.56,-96 990.88,-96 990.88,-96 990.88,-96 990.88,-45.31 990.88,-45.31"/>
<polygon fill="black" stroke="black" points="994.38,-45.31 990.88,-35.31 987.38,-45.31 994.38,-45.31"/>
<text text-anchor="middle" x="856.33" y="-98.6" font-family="Times,serif" font-size="8.00">ARGUMENT </text>
</g>
<!-- CONTROL_STRUCTURE -->
<g id="node10" class="node">
<title>CONTROL_STRUCTURE</title>
<ellipse fill="none" stroke="black" cx="1240.75" cy="-18" rx="124.28" ry="18"/>
<text text-anchor="middle" x="1240.75" y="-14.3" font-family="Times,serif" font-size="14.00">CONTROL_STRUCTURE</text>
</g>
<!-- RETURN&#45;&gt;CONTROL_STRUCTURE -->
<g id="edge10" class="edge">
<title>RETURN&#45;&gt;CONTROL_STRUCTURE</title>
<path fill="none" stroke="red" d="M725.92,-120C881.87,-120 1282.13,-120 1282.13,-120 1282.13,-120 1282.13,-45.3 1282.13,-45.3"/>
<polygon fill="red" stroke="red" points="1285.63,-45.3 1282.13,-35.3 1278.63,-45.3 1285.63,-45.3"/>
<text text-anchor="middle" x="1031.87" y="-122.6" font-family="Times,serif" font-size="8.00">AST </text>
</g>
<!-- RETURN&#45;&gt;CONTROL_STRUCTURE -->
<g id="edge20" class="edge">
<title>RETURN&#45;&gt;CONTROL_STRUCTURE</title>
<path fill="none" stroke="black" d="M725.81,-112C866.09,-112 1199.37,-112 1199.37,-112 1199.37,-112 1199.37,-45.24 1199.37,-45.24"/>
<polygon fill="black" stroke="black" points="1202.87,-45.24 1199.37,-35.24 1195.87,-45.24 1202.87,-45.24"/>
<text text-anchor="middle" x="968.47" y="-114.6" font-family="Times,serif" font-size="8.00">ARGUMENT </text>
</g>
<!-- METHOD_RETURN -->
<g id="node11" class="node">
<title>METHOD_RETURN</title>
<ellipse fill="none" stroke="black" cx="1484.75" cy="-18" rx="101.28" ry="18"/>
<text text-anchor="middle" x="1484.75" y="-14.3" font-family="Times,serif" font-size="14.00">METHOD_RETURN</text>
</g>
<!-- RETURN&#45;&gt;METHOD_RETURN -->
<g id="edge11" class="edge">
<title>RETURN&#45;&gt;METHOD_RETURN</title>
<path fill="none" stroke="blue" d="M726.04,-128C916.41,-128 1484.75,-128 1484.75,-128 1484.75,-128 1484.75,-46.16 1484.75,-46.16"/>
<polygon fill="blue" stroke="blue" points="1488.25,-46.16 1484.75,-36.16 1481.25,-46.16 1488.25,-46.16"/>
<text text-anchor="middle" x="1121.81" y="-130.6" font-family="Times,serif" font-size="8.00">CFG (0&#45;1:1)</text>
</g>
<!-- EXPRESSION -->
<g id="node12" class="node">
<title>EXPRESSION</title>
<ellipse fill="none" stroke="black" cx="1678.75" cy="-18" rx="74.99" ry="18"/>
<text text-anchor="middle" x="1678.75" y="-14.3" font-family="Times,serif" font-size="14.00">EXPRESSION</text>
</g>
<!-- RETURN&#45;&gt;EXPRESSION -->
<g id="edge22" class="edge">
<title>RETURN&#45;&gt;EXPRESSION</title>
<path fill="none" stroke="gray" d="M725.89,-136C945.12,-136 1678.75,-136 1678.75,-136 1678.75,-136 1678.75,-46.18 1678.75,-46.18"/>
<polygon fill="none" stroke="gray" points="1682.25,-46.18 1678.75,-36.18 1675.25,-46.18 1682.25,-46.18"/>
<text text-anchor="middle" x="1243.73" y="-138.6" font-family="Times,serif" font-size="8.00">is</text>
</g>
</g>
</svg>
