<?xml version="1.0" encoding="UTF-8" standalone="no"?>
<!DOCTYPE svg PUBLIC "-//W3C//DTD SVG 1.1//EN"
 "http://www.w3.org/Graphics/SVG/1.1/DTD/svg11.dtd">
<!-- Generated by graphviz version 2.44.1 (20200629.0800)
 -->
<!-- Title: cpgschema Pages: 1 -->
<svg width="2475pt" height="284pt"
 viewBox="0.00 0.00 2475.00 284.00" xmlns="http://www.w3.org/2000/svg" xmlns:xlink="http://www.w3.org/1999/xlink">
<g id="graph0" class="graph" transform="scale(1 1) rotate(0) translate(4 280)">
<title>cpgschema</title>
<polygon fill="white" stroke="transparent" points="-4,4 -4,-280 2471,-280 2471,4 -4,4"/>
<!-- RETURN -->
<g id="node1" class="node">
<title>RETURN</title>
<polygon fill="none" stroke="black" points="1270,-179.5 1270,-251.5 1407,-251.5 1407,-179.5 1270,-179.5"/>
<text text-anchor="start" x="1308" y="-237.3" font-family="Times New Roman,serif" font-weight="bold" font-size="14.00">RETURN</text>
<text text-anchor="start" x="1288.5" y="-226.5" font-family="Times New Roman,serif" font-size="10.00">LINE_NUMBER: int (0:1)</text>
<text text-anchor="start" x="1278" y="-216.5" font-family="Times New Roman,serif" font-size="10.00">COLUMN_NUMBER: int (0:1)</text>
<text text-anchor="start" x="1309" y="-206.5" font-family="Times New Roman,serif" font-size="10.00">ORDER: int (1)</text>
<text text-anchor="start" x="1281" y="-196.5" font-family="Times New Roman,serif" font-size="10.00">ARGUMENT_INDEX: int (1)</text>
<text text-anchor="start" x="1305.5" y="-186.5" font-family="Times New Roman,serif" font-size="10.00">CODE: string (1)</text>
</g>
<!-- RETURN&#45;&gt;RETURN -->
<g id="edge6" class="edge">
<title>RETURN&#45;&gt;RETURN</title>
<path fill="none" stroke="red" d="M1361.33,-251.74C1361.33,-264.63 1361.33,-276 1361.33,-276 1361.33,-276 1240,-276 1240,-276 1240,-276 1240,-155 1240,-155 1240,-155 1387.43,-155 1387.43,-155 1387.43,-155 1387.43,-169.26 1387.43,-169.26"/>
<polygon fill="red" stroke="red" points="1383.93,-169.26 1387.43,-179.26 1390.93,-169.26 1383.93,-169.26"/>
<text text-anchor="middle" x="1230.5" y="-210.05" font-family="Times New Roman,serif" font-size="8.00">AST </text>
</g>
<!-- RETURN&#45;&gt;RETURN -->
<g id="edge17" class="edge">
<title>RETURN&#45;&gt;RETURN</title>
<path fill="none" stroke="black" d="M1315.67,-251.51C1315.67,-258.65 1315.67,-264 1315.67,-264 1315.67,-264 1255,-264 1255,-264 1255,-264 1255,-167 1255,-167 1255,-167 1367.86,-167 1367.86,-167 1367.86,-167 1367.86,-169.49 1367.86,-169.49"/>
<polygon fill="black" stroke="black" points="1364.36,-169.49 1367.86,-179.49 1371.36,-169.49 1364.36,-169.49"/>
<text text-anchor="middle" x="1214" y="-197" font-family="Times New Roman,serif" font-size="8.00">ARGUMENT (0&#45;1:0&#45;1)</text>
</g>
<!-- METHOD_RETURN -->
<g id="node2" class="node">
<title>METHOD_RETURN</title>
<polygon fill="none" stroke="black" points="0,-25.5 0,-117.5 227,-117.5 227,-25.5 0,-25.5"/>
<text text-anchor="start" x="46.5" y="-103.3" font-family="Times New Roman,serif" font-weight="bold" font-size="14.00">METHOD_RETURN</text>
<text text-anchor="start" x="80.5" y="-92.5" font-family="Times New Roman,serif" font-size="10.00">CODE: string (1)</text>
<text text-anchor="start" x="36" y="-82.5" font-family="Times New Roman,serif" font-size="10.00">EVALUATION_STRATEGY: string (1)</text>
<text text-anchor="start" x="51" y="-72.5" font-family="Times New Roman,serif" font-size="10.00">TYPE_FULL_NAME: string (1)</text>
<text text-anchor="start" x="8" y="-62.5" font-family="Times New Roman,serif" font-size="10.00">DYNAMIC_TYPE_HINT_FULL_NAME: string (0:n)</text>
<text text-anchor="start" x="63.5" y="-52.5" font-family="Times New Roman,serif" font-size="10.00">LINE_NUMBER: int (0:1)</text>
<text text-anchor="start" x="53" y="-42.5" font-family="Times New Roman,serif" font-size="10.00">COLUMN_NUMBER: int (0:1)</text>
<text text-anchor="start" x="84" y="-32.5" font-family="Times New Roman,serif" font-size="10.00">ORDER: int (1)</text>
</g>
<!-- RETURN&#45;&gt;METHOD_RETURN -->
<g id="edge11" class="edge">
<title>RETURN&#45;&gt;METHOD_RETURN</title>
<path fill="none" stroke="blue" d="M1269.57,-242C1011.01,-242 113.5,-242 113.5,-242 113.5,-242 113.5,-127.64 113.5,-127.64"/>
<polygon fill="blue" stroke="blue" points="117,-127.64 113.5,-117.64 110,-127.64 117,-127.64"/>
<text text-anchor="middle" x="612.86" y="-244.6" font-family="Times New Roman,serif" font-size="8.00">CFG (0&#45;1:1)</text>
</g>
<!-- LITERAL -->
<g id="node3" class="node">
<title>LITERAL</title>
<polygon fill="none" stroke="black" points="245,-25.5 245,-117.5 472,-117.5 472,-25.5 245,-25.5"/>
<text text-anchor="start" x="326.5" y="-103.3" font-family="Times New Roman,serif" font-weight="bold" font-size="14.00">LITERAL</text>
<text text-anchor="start" x="325.5" y="-92.5" font-family="Times New Roman,serif" font-size="10.00">CODE: string (1)</text>
<text text-anchor="start" x="329" y="-82.5" font-family="Times New Roman,serif" font-size="10.00">ORDER: int (1)</text>
<text text-anchor="start" x="301" y="-72.5" font-family="Times New Roman,serif" font-size="10.00">ARGUMENT_INDEX: int (1)</text>
<text text-anchor="start" x="296" y="-62.5" font-family="Times New Roman,serif" font-size="10.00">TYPE_FULL_NAME: string (1)</text>
<text text-anchor="start" x="253" y="-52.5" font-family="Times New Roman,serif" font-size="10.00">DYNAMIC_TYPE_HINT_FULL_NAME: string (0:n)</text>
<text text-anchor="start" x="308.5" y="-42.5" font-family="Times New Roman,serif" font-size="10.00">LINE_NUMBER: int (0:1)</text>
<text text-anchor="start" x="298" y="-32.5" font-family="Times New Roman,serif" font-size="10.00">COLUMN_NUMBER: int (0:1)</text>
</g>
<!-- RETURN&#45;&gt;LITERAL -->
<g id="edge3" class="edge">
<title>RETURN&#45;&gt;LITERAL</title>
<path fill="none" stroke="red" d="M1269.74,-233C1041.09,-233 320.67,-233 320.67,-233 320.67,-233 320.67,-127.78 320.67,-127.78"/>
<polygon fill="red" stroke="red" points="324.17,-127.78 320.67,-117.78 317.17,-127.78 324.17,-127.78"/>
<text text-anchor="middle" x="733.09" y="-235.6" font-family="Times New Roman,serif" font-size="8.00">AST </text>
</g>
<!-- RETURN&#45;&gt;LITERAL -->
<g id="edge14" class="edge">
<title>RETURN&#45;&gt;LITERAL</title>
<path fill="none" stroke="black" d="M1269.98,-224C1053.17,-224 396.33,-224 396.33,-224 396.33,-224 396.33,-127.67 396.33,-127.67"/>
<polygon fill="black" stroke="black" points="399.83,-127.67 396.33,-117.67 392.83,-127.67 399.83,-127.67"/>
<text text-anchor="middle" x="743.99" y="-226.6" font-family="Times New Roman,serif" font-size="8.00">ARGUMENT (0&#45;1:0&#45;1)</text>
</g>
<!-- CALL -->
<g id="node4" class="node">
<title>CALL</title>
<polygon fill="none" stroke="black" points="490,-0.5 490,-142.5 717,-142.5 717,-0.5 490,-0.5"/>
<text text-anchor="start" x="584" y="-128.3" font-family="Times New Roman,serif" font-weight="bold" font-size="14.00">CALL</text>
<text text-anchor="start" x="570.5" y="-117.5" font-family="Times New Roman,serif" font-size="10.00">CODE: string (1)</text>
<text text-anchor="start" x="568.5" y="-107.5" font-family="Times New Roman,serif" font-size="10.00">NAME: string (1)</text>
<text text-anchor="start" x="574" y="-97.5" font-family="Times New Roman,serif" font-size="10.00">ORDER: int (1)</text>
<text text-anchor="start" x="515.5" y="-87.5" font-family="Times New Roman,serif" font-size="10.00">METHOD_INST_FULL_NAME: string (0:1)</text>
<text text-anchor="start" x="532" y="-77.5" font-family="Times New Roman,serif" font-size="10.00">METHOD_FULL_NAME: string (1)</text>
<text text-anchor="start" x="546" y="-67.5" font-family="Times New Roman,serif" font-size="10.00">ARGUMENT_INDEX: int (1)</text>
<text text-anchor="start" x="546" y="-57.5" font-family="Times New Roman,serif" font-size="10.00">DISPATCH_TYPE: string (1)</text>
<text text-anchor="start" x="556.5" y="-47.5" font-family="Times New Roman,serif" font-size="10.00">SIGNATURE: string (1)</text>
<text text-anchor="start" x="541" y="-37.5" font-family="Times New Roman,serif" font-size="10.00">TYPE_FULL_NAME: string (1)</text>
<text text-anchor="start" x="498" y="-27.5" font-family="Times New Roman,serif" font-size="10.00">DYNAMIC_TYPE_HINT_FULL_NAME: string (0:n)</text>
<text text-anchor="start" x="553.5" y="-17.5" font-family="Times New Roman,serif" font-size="10.00">LINE_NUMBER: int (0:1)</text>
<text text-anchor="start" x="543" y="-7.5" font-family="Times New Roman,serif" font-size="10.00">COLUMN_NUMBER: int (0:1)</text>
</g>
<!-- RETURN&#45;&gt;CALL -->
<g id="edge1" class="edge">
<title>RETURN&#45;&gt;CALL</title>
<path fill="none" stroke="red" d="M1309.14,-179.07C1309.14,-156.97 1309.14,-133 1309.14,-133 1309.14,-133 727.27,-133 727.27,-133"/>
<polygon fill="red" stroke="red" points="727.27,-129.5 717.27,-133 727.27,-136.5 727.27,-129.5"/>
<text text-anchor="middle" x="1031.74" y="-126.6" font-family="Times New Roman,serif" font-size="8.00">AST </text>
</g>
<!-- RETURN&#45;&gt;CALL -->
<g id="edge12" class="edge">
<title>RETURN&#45;&gt;CALL</title>
<path fill="none" stroke="black" d="M1289.57,-179.47C1289.57,-159.23 1289.57,-138 1289.57,-138 1289.57,-138 727.18,-138 727.18,-138"/>
<polygon fill="black" stroke="black" points="727.18,-134.5 717.18,-138 727.18,-141.5 727.18,-134.5"/>
<text text-anchor="middle" x="988.11" y="-140.6" font-family="Times New Roman,serif" font-size="8.00">ARGUMENT (0&#45;1:0&#45;1)</text>
</g>
<!-- IDENTIFIER -->
<g id="node5" class="node">
<title>IDENTIFIER</title>
<polygon fill="none" stroke="black" points="735,-20.5 735,-122.5 962,-122.5 962,-20.5 735,-20.5"/>
<text text-anchor="start" x="805.5" y="-108.3" font-family="Times New Roman,serif" font-weight="bold" font-size="14.00">IDENTIFIER</text>
<text text-anchor="start" x="815.5" y="-97.5" font-family="Times New Roman,serif" font-size="10.00">CODE: string (1)</text>
<text text-anchor="start" x="813.5" y="-87.5" font-family="Times New Roman,serif" font-size="10.00">NAME: string (1)</text>
<text text-anchor="start" x="819" y="-77.5" font-family="Times New Roman,serif" font-size="10.00">ORDER: int (1)</text>
<text text-anchor="start" x="791" y="-67.5" font-family="Times New Roman,serif" font-size="10.00">ARGUMENT_INDEX: int (1)</text>
<text text-anchor="start" x="786" y="-57.5" font-family="Times New Roman,serif" font-size="10.00">TYPE_FULL_NAME: string (1)</text>
<text text-anchor="start" x="743" y="-47.5" font-family="Times New Roman,serif" font-size="10.00">DYNAMIC_TYPE_HINT_FULL_NAME: string (0:n)</text>
<text text-anchor="start" x="798.5" y="-37.5" font-family="Times New Roman,serif" font-size="10.00">LINE_NUMBER: int (0:1)</text>
<text text-anchor="start" x="788" y="-27.5" font-family="Times New Roman,serif" font-size="10.00">COLUMN_NUMBER: int (0:1)</text>
</g>
<!-- RETURN&#45;&gt;IDENTIFIER -->
<g id="edge2" class="edge">
<title>RETURN&#45;&gt;IDENTIFIER</title>
<path fill="none" stroke="red" d="M1269.77,-215C1126.82,-215 810.67,-215 810.67,-215 810.67,-215 810.67,-132.9 810.67,-132.9"/>
<polygon fill="red" stroke="red" points="814.17,-132.9 810.67,-122.9 807.17,-132.9 814.17,-132.9"/>
<text text-anchor="middle" x="989.67" y="-217.6" font-family="Times New Roman,serif" font-size="8.00">AST </text>
</g>
<!-- RETURN&#45;&gt;IDENTIFIER -->
<g id="edge13" class="edge">
<title>RETURN&#45;&gt;IDENTIFIER</title>
<path fill="none" stroke="black" d="M1269.83,-206C1143.33,-206 886.33,-206 886.33,-206 886.33,-206 886.33,-132.73 886.33,-132.73"/>
<polygon fill="black" stroke="black" points="889.83,-132.73 886.33,-122.73 882.83,-132.73 889.83,-132.73"/>
<text text-anchor="middle" x="1000.45" y="-199.6" font-family="Times New Roman,serif" font-size="8.00">ARGUMENT (0&#45;1:0&#45;1)</text>
</g>
<!-- BLOCK -->
<g id="node6" class="node">
<title>BLOCK</title>
<polygon fill="none" stroke="black" points="980,-25.5 980,-117.5 1207,-117.5 1207,-25.5 980,-25.5"/>
<text text-anchor="start" x="1067.5" y="-103.3" font-family="Times New Roman,serif" font-weight="bold" font-size="14.00">BLOCK</text>
<text text-anchor="start" x="1060.5" y="-92.5" font-family="Times New Roman,serif" font-size="10.00">CODE: string (1)</text>
<text text-anchor="start" x="1064" y="-82.5" font-family="Times New Roman,serif" font-size="10.00">ORDER: int (1)</text>
<text text-anchor="start" x="1036" y="-72.5" font-family="Times New Roman,serif" font-size="10.00">ARGUMENT_INDEX: int (1)</text>
<text text-anchor="start" x="1031" y="-62.5" font-family="Times New Roman,serif" font-size="10.00">TYPE_FULL_NAME: string (1)</text>
<text text-anchor="start" x="988" y="-52.5" font-family="Times New Roman,serif" font-size="10.00">DYNAMIC_TYPE_HINT_FULL_NAME: string (0:n)</text>
<text text-anchor="start" x="1043.5" y="-42.5" font-family="Times New Roman,serif" font-size="10.00">LINE_NUMBER: int (0:1)</text>
<text text-anchor="start" x="1033" y="-32.5" font-family="Times New Roman,serif" font-size="10.00">COLUMN_NUMBER: int (0:1)</text>
</g>
<!-- RETURN&#45;&gt;BLOCK -->
<g id="edge7" class="edge">
<title>RETURN&#45;&gt;BLOCK</title>
<path fill="none" stroke="red" d="M1269.8,-188C1209.5,-188 1131.33,-188 1131.33,-188 1131.33,-188 1131.33,-127.54 1131.33,-127.54"/>
<polygon fill="red" stroke="red" points="1134.83,-127.54 1131.33,-117.54 1127.83,-127.54 1134.83,-127.54"/>
<text text-anchor="middle" x="1160.84" y="-190.6" font-family="Times New Roman,serif" font-size="8.00">AST </text>
</g>
<!-- RETURN&#45;&gt;BLOCK -->
<g id="edge18" class="edge">
<title>RETURN&#45;&gt;BLOCK</title>
<path fill="none" stroke="black" d="M1269.67,-197C1185.95,-197 1055.67,-197 1055.67,-197 1055.67,-197 1055.67,-127.52 1055.67,-127.52"/>
<polygon fill="black" stroke="black" points="1059.17,-127.52 1055.67,-117.52 1052.17,-127.52 1059.17,-127.52"/>
<text text-anchor="middle" x="1086.93" y="-199.6" font-family="Times New Roman,serif" font-size="8.00">ARGUMENT (0&#45;1:0&#45;1)</text>
</g>
<!-- METHOD_REF -->
<g id="node7" class="node">
<title>METHOD_REF</title>
<polygon fill="none" stroke="black" points="1225,-15.5 1225,-127.5 1452,-127.5 1452,-15.5 1225,-15.5"/>
<text text-anchor="start" x="1287" y="-113.3" font-family="Times New Roman,serif" font-weight="bold" font-size="14.00">METHOD_REF</text>
<text text-anchor="start" x="1305.5" y="-102.5" font-family="Times New Roman,serif" font-size="10.00">CODE: string (1)</text>
<text text-anchor="start" x="1309" y="-92.5" font-family="Times New Roman,serif" font-size="10.00">ORDER: int (1)</text>
<text text-anchor="start" x="1281" y="-82.5" font-family="Times New Roman,serif" font-size="10.00">ARGUMENT_INDEX: int (1)</text>
<text text-anchor="start" x="1276" y="-72.5" font-family="Times New Roman,serif" font-size="10.00">TYPE_FULL_NAME: string (1)</text>
<text text-anchor="start" x="1233" y="-62.5" font-family="Times New Roman,serif" font-size="10.00">DYNAMIC_TYPE_HINT_FULL_NAME: string (0:n)</text>
<text text-anchor="start" x="1250.5" y="-52.5" font-family="Times New Roman,serif" font-size="10.00">METHOD_INST_FULL_NAME: string (0:1)</text>
<text text-anchor="start" x="1267" y="-42.5" font-family="Times New Roman,serif" font-size="10.00">METHOD_FULL_NAME: string (1)</text>
<text text-anchor="start" x="1288.5" y="-32.5" font-family="Times New Roman,serif" font-size="10.00">LINE_NUMBER: int (0:1)</text>
<text text-anchor="start" x="1278" y="-22.5" font-family="Times New Roman,serif" font-size="10.00">COLUMN_NUMBER: int (0:1)</text>
</g>
<!-- RETURN&#45;&gt;METHOD_REF -->
<g id="edge4" class="edge">
<title>RETURN&#45;&gt;METHOD_REF</title>
<path fill="none" stroke="red" d="M1348.29,-179.16C1348.29,-179.16 1348.29,-137.73 1348.29,-137.73"/>
<polygon fill="red" stroke="red" points="1351.79,-137.73 1348.29,-127.73 1344.79,-137.73 1351.79,-137.73"/>
<text text-anchor="middle" x="1338.79" y="-161.05" font-family="Times New Roman,serif" font-size="8.00">AST </text>
</g>
<!-- RETURN&#45;&gt;METHOD_REF -->
<g id="edge15" class="edge">
<title>RETURN&#45;&gt;METHOD_REF</title>
<path fill="none" stroke="black" d="M1328.71,-179.16C1328.71,-179.16 1328.71,-137.73 1328.71,-137.73"/>
<polygon fill="black" stroke="black" points="1332.21,-137.73 1328.71,-127.73 1325.21,-137.73 1332.21,-137.73"/>
<text text-anchor="middle" x="1287.71" y="-161.05" font-family="Times New Roman,serif" font-size="8.00">ARGUMENT (0&#45;1:0&#45;1)</text>
</g>
<!-- TYPE_REF -->
<g id="node8" class="node">
<title>TYPE_REF</title>
<polygon fill="none" stroke="black" points="1470,-25.5 1470,-117.5 1697,-117.5 1697,-25.5 1470,-25.5"/>
<text text-anchor="start" x="1545.5" y="-103.3" font-family="Times New Roman,serif" font-weight="bold" font-size="14.00">TYPE_REF</text>
<text text-anchor="start" x="1550.5" y="-92.5" font-family="Times New Roman,serif" font-size="10.00">CODE: string (1)</text>
<text text-anchor="start" x="1554" y="-82.5" font-family="Times New Roman,serif" font-size="10.00">ORDER: int (1)</text>
<text text-anchor="start" x="1526" y="-72.5" font-family="Times New Roman,serif" font-size="10.00">ARGUMENT_INDEX: int (1)</text>
<text text-anchor="start" x="1521" y="-62.5" font-family="Times New Roman,serif" font-size="10.00">TYPE_FULL_NAME: string (1)</text>
<text text-anchor="start" x="1478" y="-52.5" font-family="Times New Roman,serif" font-size="10.00">DYNAMIC_TYPE_HINT_FULL_NAME: string (0:n)</text>
<text text-anchor="start" x="1533.5" y="-42.5" font-family="Times New Roman,serif" font-size="10.00">LINE_NUMBER: int (0:1)</text>
<text text-anchor="start" x="1523" y="-32.5" font-family="Times New Roman,serif" font-size="10.00">COLUMN_NUMBER: int (0:1)</text>
</g>
<!-- RETURN&#45;&gt;TYPE_REF -->
<g id="edge5" class="edge">
<title>RETURN&#45;&gt;TYPE_REF</title>
<path fill="none" stroke="red" d="M1407.33,-193C1491.05,-193 1621.33,-193 1621.33,-193 1621.33,-193 1621.33,-127.78 1621.33,-127.78"/>
<polygon fill="red" stroke="red" points="1624.83,-127.78 1621.33,-117.78 1617.83,-127.78 1624.83,-127.78"/>
<text text-anchor="middle" x="1537.44" y="-195.6" font-family="Times New Roman,serif" font-size="8.00">AST </text>
</g>
<!-- RETURN&#45;&gt;TYPE_REF -->
<g id="edge16" class="edge">
<title>RETURN&#45;&gt;TYPE_REF</title>
<path fill="none" stroke="black" d="M1407.2,-186C1467.5,-186 1545.67,-186 1545.67,-186 1545.67,-186 1545.67,-127.74 1545.67,-127.74"/>
<polygon fill="black" stroke="black" points="1549.17,-127.74 1545.67,-117.74 1542.17,-127.74 1549.17,-127.74"/>
<text text-anchor="middle" x="1480.56" y="-188.6" font-family="Times New Roman,serif" font-size="8.00">ARGUMENT </text>
</g>
<!-- CONTROL_STRUCTURE -->
<g id="node9" class="node">
<title>CONTROL_STRUCTURE</title>
<polygon fill="none" stroke="black" points="1715,-30.5 1715,-112.5 1900,-112.5 1900,-30.5 1715,-30.5"/>
<text text-anchor="start" x="1723" y="-98.3" font-family="Times New Roman,serif" font-weight="bold" font-size="14.00">CONTROL_STRUCTURE</text>
<text text-anchor="start" x="1774.5" y="-87.5" font-family="Times New Roman,serif" font-size="10.00">CODE: string (1)</text>
<text text-anchor="start" x="1747" y="-77.5" font-family="Times New Roman,serif" font-size="10.00">COLUMN_NUMBER: int (0:1)</text>
<text text-anchor="start" x="1757.5" y="-67.5" font-family="Times New Roman,serif" font-size="10.00">LINE_NUMBER: int (0:1)</text>
<text text-anchor="start" x="1778" y="-57.5" font-family="Times New Roman,serif" font-size="10.00">ORDER: int (1)</text>
<text text-anchor="start" x="1738.5" y="-47.5" font-family="Times New Roman,serif" font-size="10.00">PARSER_TYPE_NAME: string (1)</text>
<text text-anchor="start" x="1750" y="-37.5" font-family="Times New Roman,serif" font-size="10.00">ARGUMENT_INDEX: int (1)</text>
</g>
<!-- RETURN&#45;&gt;CONTROL_STRUCTURE -->
<g id="edge10" class="edge">
<title>RETURN&#45;&gt;CONTROL_STRUCTURE</title>
<path fill="none" stroke="red" d="M1407.21,-208C1544.22,-208 1838.33,-208 1838.33,-208 1838.33,-208 1838.33,-122.82 1838.33,-122.82"/>
<polygon fill="red" stroke="red" points="1841.83,-122.82 1838.33,-112.82 1834.83,-122.82 1841.83,-122.82"/>
<text text-anchor="middle" x="1655.86" y="-210.6" font-family="Times New Roman,serif" font-size="8.00">AST </text>
</g>
<!-- RETURN&#45;&gt;CONTROL_STRUCTURE -->
<g id="edge20" class="edge">
<title>RETURN&#45;&gt;CONTROL_STRUCTURE</title>
<path fill="none" stroke="black" d="M1407.45,-200C1530.84,-200 1776.67,-200 1776.67,-200 1776.67,-200 1776.67,-122.51 1776.67,-122.51"/>
<polygon fill="black" stroke="black" points="1780.17,-122.51 1776.67,-112.51 1773.17,-122.51 1780.17,-122.51"/>
<text text-anchor="middle" x="1605.8" y="-202.6" font-family="Times New Roman,serif" font-size="8.00">ARGUMENT </text>
</g>
<!-- JUMP_TARGET -->
<g id="node10" class="node">
<title>JUMP_TARGET</title>
<polygon fill="none" stroke="black" points="1918.5,-20.5 1918.5,-122.5 2072.5,-122.5 2072.5,-20.5 1918.5,-20.5"/>
<text text-anchor="start" x="1941" y="-108.3" font-family="Times New Roman,serif" font-weight="bold" font-size="14.00">JUMP_TARGET</text>
<text text-anchor="start" x="1962.5" y="-97.5" font-family="Times New Roman,serif" font-size="10.00">CODE: string (1)</text>
<text text-anchor="start" x="1960.5" y="-87.5" font-family="Times New Roman,serif" font-size="10.00">NAME: string (1)</text>
<text text-anchor="start" x="1935" y="-77.5" font-family="Times New Roman,serif" font-size="10.00">COLUMN_NUMBER: int (0:1)</text>
<text text-anchor="start" x="1945.5" y="-67.5" font-family="Times New Roman,serif" font-size="10.00">LINE_NUMBER: int (0:1)</text>
<text text-anchor="start" x="1966" y="-57.5" font-family="Times New Roman,serif" font-size="10.00">ORDER: int (1)</text>
<text text-anchor="start" x="1926.5" y="-47.5" font-family="Times New Roman,serif" font-size="10.00">PARSER_TYPE_NAME: string (1)</text>
<text text-anchor="start" x="1938" y="-37.5" font-family="Times New Roman,serif" font-size="10.00">ARGUMENT_INDEX: int (1)</text>
<text text-anchor="start" x="1953.5" y="-27.5" font-family="Times New Roman,serif" font-size="10.00">INTERNAL_FLAGS </text>
</g>
<!-- RETURN&#45;&gt;JUMP_TARGET -->
<g id="edge9" class="edge">
<title>RETURN&#45;&gt;JUMP_TARGET</title>
<path fill="none" stroke="red" d="M1407.08,-222C1580.2,-222 2021.17,-222 2021.17,-222 2021.17,-222 2021.17,-132.87 2021.17,-132.87"/>
<polygon fill="red" stroke="red" points="2024.67,-132.87 2021.17,-122.87 2017.67,-132.87 2024.67,-132.87"/>
<text text-anchor="middle" x="1749.19" y="-224.6" font-family="Times New Roman,serif" font-size="8.00">AST </text>
</g>
<!-- RETURN&#45;&gt;JUMP_TARGET -->
<g id="edge19" class="edge">
<title>RETURN&#45;&gt;JUMP_TARGET</title>
<path fill="none" stroke="black" d="M1407.27,-215C1570.89,-215 1969.83,-215 1969.83,-215 1969.83,-215 1969.83,-132.9 1969.83,-132.9"/>
<polygon fill="black" stroke="black" points="1973.33,-132.9 1969.83,-122.9 1966.33,-132.9 1973.33,-132.9"/>
<text text-anchor="middle" x="1704.6" y="-217.6" font-family="Times New Roman,serif" font-size="8.00">ARGUMENT </text>
</g>
<!-- UNKNOWN -->
<g id="node11" class="node">
<title>UNKNOWN</title>
<polygon fill="none" stroke="black" points="2091,-20.5 2091,-122.5 2318,-122.5 2318,-20.5 2091,-20.5"/>
<text text-anchor="start" x="2165.5" y="-108.3" font-family="Times New Roman,serif" font-weight="bold" font-size="14.00">UNKNOWN</text>
<text text-anchor="start" x="2171.5" y="-97.5" font-family="Times New Roman,serif" font-size="10.00">CODE: string (1)</text>
<text text-anchor="start" x="2135.5" y="-87.5" font-family="Times New Roman,serif" font-size="10.00">PARSER_TYPE_NAME: string (1)</text>
<text text-anchor="start" x="2175" y="-77.5" font-family="Times New Roman,serif" font-size="10.00">ORDER: int (1)</text>
<text text-anchor="start" x="2147" y="-67.5" font-family="Times New Roman,serif" font-size="10.00">ARGUMENT_INDEX: int (1)</text>
<text text-anchor="start" x="2142" y="-57.5" font-family="Times New Roman,serif" font-size="10.00">TYPE_FULL_NAME: string (1)</text>
<text text-anchor="start" x="2099" y="-47.5" font-family="Times New Roman,serif" font-size="10.00">DYNAMIC_TYPE_HINT_FULL_NAME: string (0:n)</text>
<text text-anchor="start" x="2154.5" y="-37.5" font-family="Times New Roman,serif" font-size="10.00">LINE_NUMBER: int (0:1)</text>
<text text-anchor="start" x="2144" y="-27.5" font-family="Times New Roman,serif" font-size="10.00">COLUMN_NUMBER: int (0:1)</text>
</g>
<!-- RETURN&#45;&gt;UNKNOWN -->
<g id="edge8" class="edge">
<title>RETURN&#45;&gt;UNKNOWN</title>
<path fill="none" stroke="red" d="M1407.33,-230C1606.06,-230 2166.67,-230 2166.67,-230 2166.67,-230 2166.67,-132.52 2166.67,-132.52"/>
<polygon fill="red" stroke="red" points="2170.17,-132.52 2166.67,-122.52 2163.17,-132.52 2170.17,-132.52"/>
<text text-anchor="middle" x="1826.24" y="-232.6" font-family="Times New Roman,serif" font-size="8.00">AST </text>
</g>
<!-- RETURN&#45;&gt;UNKNOWN -->
<g id="edge21" class="edge">
<title>RETURN&#45;&gt;UNKNOWN</title>
<path fill="none" stroke="black" d="M1407.18,-237C1618.1,-237 2242.33,-237 2242.33,-237 2242.33,-237 2242.33,-132.51 2242.33,-132.51"/>
<polygon fill="black" stroke="black" points="2245.83,-132.51 2242.33,-122.51 2238.83,-132.51 2245.83,-132.51"/>
<text text-anchor="middle" x="1902" y="-239.6" font-family="Times New Roman,serif" font-size="8.00">ARGUMENT </text>
</g>
<!-- EXPRESSION -->
<g id="node12" class="node">
<title>EXPRESSION</title>
<polygon fill="none" stroke="black" points="2336,-45.5 2336,-97.5 2467,-97.5 2467,-45.5 2336,-45.5"/>
<text text-anchor="start" x="2355" y="-83.3" font-family="Times New Roman,serif" font-weight="bold" font-size="14.00">EXPRESSION</text>
<text text-anchor="start" x="2368.5" y="-72.5" font-family="Times New Roman,serif" font-size="10.00">CODE: string (1)</text>
<text text-anchor="start" x="2372" y="-62.5" font-family="Times New Roman,serif" font-size="10.00">ORDER: int (1)</text>
<text text-anchor="start" x="2344" y="-52.5" font-family="Times New Roman,serif" font-size="10.00">ARGUMENT_INDEX: int (1)</text>
</g>
<!-- RETURN&#45;&gt;EXPRESSION -->
<g id="edge22" class="edge">
<title>RETURN&#45;&gt;EXPRESSION</title>
<path fill="none" stroke="gray" d="M1407.02,-244C1642.11,-244 2401.5,-244 2401.5,-244 2401.5,-244 2401.5,-107.7 2401.5,-107.7"/>
<polygon fill="none" stroke="gray" points="2405,-107.7 2401.5,-97.7 2398,-107.7 2405,-107.7"/>
<text text-anchor="middle" x="1969.41" y="-246.6" font-family="Times New Roman,serif" font-size="8.00">is</text>
</g>
</g>
</svg>
