<?xml version="1.0" encoding="UTF-8" standalone="no"?>
<!DOCTYPE svg PUBLIC "-//W3C//DTD SVG 1.1//EN"
 "http://www.w3.org/Graphics/SVG/1.1/DTD/svg11.dtd">
<!-- Generated by graphviz version 2.44.1 (20200629.0800)
 -->
<!-- Title: cpgschema Pages: 1 -->
<svg width="995pt" height="310pt"
 viewBox="0.00 0.00 994.50 310.00" xmlns="http://www.w3.org/2000/svg" xmlns:xlink="http://www.w3.org/1999/xlink">
<g id="graph0" class="graph" transform="scale(1 1) rotate(0) translate(4 306)">
<title>cpgschema</title>
<polygon fill="white" stroke="transparent" points="-4,4 -4,-306 990.5,-306 990.5,4 -4,4"/>
<!-- TYPE_DECL -->
<g id="node1" class="node">
<title>TYPE_DECL</title>
<polygon fill="none" stroke="black" points="361.5,-189.5 361.5,-301.5 589.5,-301.5 589.5,-189.5 361.5,-189.5"/>
<text text-anchor="start" x="432.5" y="-287.3" font-family="Times New Roman,serif" font-weight="bold" font-size="14.00">TYPE_DECL</text>
<text text-anchor="start" x="440.5" y="-276.5" font-family="Times New Roman,serif" font-size="10.00">NAME: string (1)</text>
<text text-anchor="start" x="427" y="-266.5" font-family="Times New Roman,serif" font-size="10.00">FULL_NAME: string (1)</text>
<text text-anchor="start" x="419.5" y="-256.5" font-family="Times New Roman,serif" font-size="10.00">IS_EXTERNAL: boolean (1)</text>
<text text-anchor="start" x="369.5" y="-246.5" font-family="Times New Roman,serif" font-size="10.00">INHERITS_FROM_TYPE_FULL_NAME: string (0:n)</text>
<text text-anchor="start" x="410.5" y="-236.5" font-family="Times New Roman,serif" font-size="10.00">AST_PARENT_TYPE: string (1)</text>
<text text-anchor="start" x="394" y="-226.5" font-family="Times New Roman,serif" font-size="10.00">AST_PARENT_FULL_NAME: string (1)</text>
<text text-anchor="start" x="392.5" y="-216.5" font-family="Times New Roman,serif" font-size="10.00">ALIAS_TYPE_FULL_NAME: string (0:1)</text>
<text text-anchor="start" x="446" y="-206.5" font-family="Times New Roman,serif" font-size="10.00">ORDER: int (1)</text>
<text text-anchor="start" x="431.5" y="-196.5" font-family="Times New Roman,serif" font-size="10.00">FILENAME: string (1)</text>
</g>
<!-- METHOD -->
<g id="node2" class="node">
<title>METHOD</title>
<polygon fill="none" stroke="black" points="0,-0.5 0,-152.5 179,-152.5 179,-0.5 0,-0.5"/>
<text text-anchor="start" x="56.5" y="-138.3" font-family="Times New Roman,serif" font-weight="bold" font-size="14.00">METHOD</text>
<text text-anchor="start" x="56.5" y="-127.5" font-family="Times New Roman,serif" font-size="10.00">CODE: string (1)</text>
<text text-anchor="start" x="54.5" y="-117.5" font-family="Times New Roman,serif" font-size="10.00">NAME: string (1)</text>
<text text-anchor="start" x="41" y="-107.5" font-family="Times New Roman,serif" font-size="10.00">FULL_NAME: string (1)</text>
<text text-anchor="start" x="33.5" y="-97.5" font-family="Times New Roman,serif" font-size="10.00">IS_EXTERNAL: boolean (1)</text>
<text text-anchor="start" x="42.5" y="-87.5" font-family="Times New Roman,serif" font-size="10.00">SIGNATURE: string (1)</text>
<text text-anchor="start" x="24.5" y="-77.5" font-family="Times New Roman,serif" font-size="10.00">AST_PARENT_TYPE: string (1)</text>
<text text-anchor="start" x="8" y="-67.5" font-family="Times New Roman,serif" font-size="10.00">AST_PARENT_FULL_NAME: string (1)</text>
<text text-anchor="start" x="39.5" y="-57.5" font-family="Times New Roman,serif" font-size="10.00">LINE_NUMBER: int (0:1)</text>
<text text-anchor="start" x="29" y="-47.5" font-family="Times New Roman,serif" font-size="10.00">COLUMN_NUMBER: int (0:1)</text>
<text text-anchor="start" x="27.5" y="-37.5" font-family="Times New Roman,serif" font-size="10.00">LINE_NUMBER_END: int (0:1)</text>
<text text-anchor="start" x="17" y="-27.5" font-family="Times New Roman,serif" font-size="10.00">COLUMN_NUMBER_END: int (0:1)</text>
<text text-anchor="start" x="60" y="-17.5" font-family="Times New Roman,serif" font-size="10.00">ORDER: int (1)</text>
<text text-anchor="start" x="45.5" y="-7.5" font-family="Times New Roman,serif" font-size="10.00">FILENAME: string (1)</text>
</g>
<!-- TYPE_DECL&#45;&gt;METHOD -->
<g id="edge5" class="edge">
<title>TYPE_DECL&#45;&gt;METHOD</title>
<path fill="none" stroke="black" d="M392.83,-189.25C392.83,-161.12 392.83,-133 392.83,-133 392.83,-133 189.28,-133 189.28,-133"/>
<polygon fill="black" stroke="black" points="189.28,-129.5 179.28,-133 189.28,-136.5 189.28,-129.5"/>
<text text-anchor="middle" x="301.18" y="-135.6" font-family="Times New Roman,serif" font-size="8.00">VTABLE </text>
</g>
<!-- MODIFIER -->
<g id="node3" class="node">
<title>MODIFIER</title>
<polygon fill="none" stroke="black" points="197.5,-55.5 197.5,-97.5 327.5,-97.5 327.5,-55.5 197.5,-55.5"/>
<text text-anchor="start" x="224.5" y="-83.3" font-family="Times New Roman,serif" font-weight="bold" font-size="14.00">MODIFIER</text>
<text text-anchor="start" x="205.5" y="-72.5" font-family="Times New Roman,serif" font-size="10.00">MODIFIER_TYPE: string (1)</text>
<text text-anchor="start" x="233" y="-62.5" font-family="Times New Roman,serif" font-size="10.00">ORDER: int (1)</text>
</g>
<!-- TYPE_DECL&#45;&gt;MODIFIER -->
<g id="edge3" class="edge">
<title>TYPE_DECL&#45;&gt;MODIFIER</title>
<path fill="none" stroke="red" d="M361.21,-245C310.68,-245 262.5,-245 262.5,-245 262.5,-245 262.5,-107.84 262.5,-107.84"/>
<polygon fill="red" stroke="red" points="266,-107.84 262.5,-97.84 259,-107.84 266,-107.84"/>
<text text-anchor="middle" x="244.5" y="-228.37" font-family="Times New Roman,serif" font-size="8.00">AST (1:n)</text>
</g>
<!-- BINDING -->
<g id="node4" class="node">
<title>BINDING</title>
<polygon fill="none" stroke="black" points="345.5,-55.5 345.5,-97.5 455.5,-97.5 455.5,-55.5 345.5,-55.5"/>
<text text-anchor="start" x="368.5" y="-83.3" font-family="Times New Roman,serif" font-weight="bold" font-size="14.00">BINDING</text>
<text text-anchor="start" x="365.5" y="-72.5" font-family="Times New Roman,serif" font-size="10.00">NAME: string (1)</text>
<text text-anchor="start" x="353.5" y="-62.5" font-family="Times New Roman,serif" font-size="10.00">SIGNATURE: string (1)</text>
</g>
<!-- TYPE_DECL&#45;&gt;BINDING -->
<g id="edge4" class="edge">
<title>TYPE_DECL&#45;&gt;BINDING</title>
<path fill="none" stroke="black" d="M424.17,-189.23C424.17,-189.23 424.17,-107.51 424.17,-107.51"/>
<polygon fill="black" stroke="black" points="427.67,-107.51 424.17,-97.51 420.67,-107.51 427.67,-107.51"/>
<text text-anchor="middle" x="402.17" y="-150.97" font-family="Times New Roman,serif" font-size="8.00">BINDS (1:n)</text>
</g>
<!-- TYPE_PARAMETER -->
<g id="node5" class="node">
<title>TYPE_PARAMETER</title>
<polygon fill="none" stroke="black" points="474,-55.5 474,-97.5 629,-97.5 629,-55.5 474,-55.5"/>
<text text-anchor="start" x="482" y="-83.3" font-family="Times New Roman,serif" font-weight="bold" font-size="14.00">TYPE_PARAMETER</text>
<text text-anchor="start" x="516.5" y="-72.5" font-family="Times New Roman,serif" font-size="10.00">NAME: string (1)</text>
<text text-anchor="start" x="522" y="-62.5" font-family="Times New Roman,serif" font-size="10.00">ORDER: int (1)</text>
</g>
<!-- TYPE_DECL&#45;&gt;TYPE_PARAMETER -->
<g id="edge1" class="edge">
<title>TYPE_DECL&#45;&gt;TYPE_PARAMETER</title>
<path fill="none" stroke="red" d="M512.5,-189.23C512.5,-189.23 512.5,-107.51 512.5,-107.51"/>
<polygon fill="red" stroke="red" points="516,-107.51 512.5,-97.51 509,-107.51 516,-107.51"/>
<text text-anchor="middle" x="503" y="-150.97" font-family="Times New Roman,serif" font-size="8.00">AST </text>
</g>
<!-- MEMBER -->
<g id="node6" class="node">
<title>MEMBER</title>
<polygon fill="none" stroke="black" points="647,-40.5 647,-112.5 874,-112.5 874,-40.5 647,-40.5"/>
<text text-anchor="start" x="727" y="-98.3" font-family="Times New Roman,serif" font-weight="bold" font-size="14.00">MEMBER</text>
<text text-anchor="start" x="727.5" y="-87.5" font-family="Times New Roman,serif" font-size="10.00">CODE: string (1)</text>
<text text-anchor="start" x="725.5" y="-77.5" font-family="Times New Roman,serif" font-size="10.00">NAME: string (1)</text>
<text text-anchor="start" x="698" y="-67.5" font-family="Times New Roman,serif" font-size="10.00">TYPE_FULL_NAME: string (1)</text>
<text text-anchor="start" x="655" y="-57.5" font-family="Times New Roman,serif" font-size="10.00">DYNAMIC_TYPE_HINT_FULL_NAME: string (0:n)</text>
<text text-anchor="start" x="731" y="-47.5" font-family="Times New Roman,serif" font-size="10.00">ORDER: int (1)</text>
</g>
<!-- TYPE_DECL&#45;&gt;MEMBER -->
<g id="edge2" class="edge">
<title>TYPE_DECL&#45;&gt;MEMBER</title>
<path fill="none" stroke="red" d="M551,-189.16C551,-150.07 551,-105 551,-105 551,-105 636.86,-105 636.86,-105"/>
<polygon fill="red" stroke="red" points="636.86,-108.5 646.86,-105 636.86,-101.5 636.86,-108.5"/>
<text text-anchor="middle" x="533.85" y="-107.6" font-family="Times New Roman,serif" font-size="8.00">AST (1:n)</text>
</g>
<!-- AST_NODE -->
<g id="node7" class="node">
<title>AST_NODE</title>
<polygon fill="none" stroke="black" points="892.5,-58.5 892.5,-94.5 986.5,-94.5 986.5,-58.5 892.5,-58.5"/>
<text text-anchor="start" x="900.5" y="-78.3" font-family="Times New Roman,serif" font-weight="bold" font-size="14.00">AST_NODE</text>
<text text-anchor="start" x="910" y="-67.5" font-family="Times New Roman,serif" font-size="10.00">ORDER: int (1)</text>
</g>
<!-- TYPE_DECL&#45;&gt;AST_NODE -->
<g id="edge6" class="edge">
<title>TYPE_DECL&#45;&gt;AST_NODE</title>
<path fill="none" stroke="gray" d="M589.6,-245C726.99,-245 939.5,-245 939.5,-245 939.5,-245 939.5,-104.53 939.5,-104.53"/>
<polygon fill="none" stroke="gray" points="943,-104.53 939.5,-94.53 936,-104.53 943,-104.53"/>
<text text-anchor="middle" x="831.78" y="-247.6" font-family="Times New Roman,serif" font-size="8.00">is</text>
</g>
</g>
</svg>
