<?xml version="1.0" encoding="UTF-8" standalone="no"?>
<!DOCTYPE svg PUBLIC "-//W3C//DTD SVG 1.1//EN"
 "http://www.w3.org/Graphics/SVG/1.1/DTD/svg11.dtd">
<!-- Generated by graphviz version 2.44.1 (0)
 -->
<!-- Title: cpgschema Pages: 1 -->
<svg width="881pt" height="193pt"
 viewBox="0.00 0.00 880.79 193.00" xmlns="http://www.w3.org/2000/svg" xmlns:xlink="http://www.w3.org/1999/xlink">
<g id="graph0" class="graph" transform="scale(1 1) rotate(0) translate(4 189)">
<title>cpgschema</title>
<polygon fill="white" stroke="transparent" points="-4,4 -4,-189 876.79,-189 876.79,4 -4,4"/>
<!-- TYPE_DECL -->
<g id="node1" class="node">
<title>TYPE_DECL</title>
<polygon fill="none" stroke="black" points="371.24,-72.5 371.24,-184.5 586.24,-184.5 586.24,-72.5 371.24,-72.5"/>
<text text-anchor="start" x="432.74" y="-170.3" font-family="Times,serif" font-weight="bold" font-size="14.00">TYPE_DECL</text>
<text text-anchor="start" x="461.24" y="-159.5" font-family="Times,serif" font-size="10.00">NAME</text>
<text text-anchor="start" x="444.24" y="-149.5" font-family="Times,serif" font-size="10.00">FULL_NAME</text>
<text text-anchor="start" x="440.74" y="-139.5" font-family="Times,serif" font-size="10.00">IS_EXTERNAL</text>
<text text-anchor="start" x="379.24" y="-129.5" font-family="Times,serif" font-size="10.00">INHERITS_FROM_TYPE_FULL_NAME</text>
<text text-anchor="start" x="426.74" y="-119.5" font-family="Times,serif" font-size="10.00">AST_PARENT_TYPE</text>
<text text-anchor="start" x="406.24" y="-109.5" font-family="Times,serif" font-size="10.00">AST_PARENT_FULL_NAME</text>
<text text-anchor="start" x="409.24" y="-99.5" font-family="Times,serif" font-size="10.00">ALIAS_TYPE_FULL_NAME</text>
<text text-anchor="start" x="458.74" y="-89.5" font-family="Times,serif" font-size="10.00">ORDER</text>
<text text-anchor="start" x="448.74" y="-79.5" font-family="Times,serif" font-size="10.00">FILENAME</text>
</g>
<!-- TYPE_PARAMETER -->
<g id="node2" class="node">
<title>TYPE_PARAMETER</title>
<ellipse fill="none" stroke="black" cx="100.74" cy="-18" rx="100.98" ry="18"/>
<text text-anchor="middle" x="100.74" y="-14.3" font-family="Times,serif" font-size="14.00">TYPE_PARAMETER</text>
</g>
<!-- TYPE_DECL&#45;&gt;TYPE_PARAMETER -->
<g id="edge1" class="edge">
<title>TYPE_DECL&#45;&gt;TYPE_PARAMETER</title>
<path fill="none" stroke="red" d="M371.18,-147C259.44,-147 100.74,-147 100.74,-147 100.74,-147 100.74,-46.21 100.74,-46.21"/>
<polygon fill="red" stroke="red" points="104.24,-46.21 100.74,-36.21 97.24,-46.21 104.24,-46.21"/>
<text text-anchor="middle" x="176.07" y="-149.6" font-family="Times,serif" font-size="8.00">AST </text>
</g>
<!-- MEMBER -->
<g id="node3" class="node">
<title>MEMBER</title>
<ellipse fill="none" stroke="black" cx="275.74" cy="-18" rx="56.59" ry="18"/>
<text text-anchor="middle" x="275.74" y="-14.3" font-family="Times,serif" font-size="14.00">MEMBER</text>
</g>
<!-- TYPE_DECL&#45;&gt;MEMBER -->
<g id="edge2" class="edge">
<title>TYPE_DECL&#45;&gt;MEMBER</title>
<path fill="none" stroke="red" d="M371,-109C322.41,-109 275.74,-109 275.74,-109 275.74,-109 275.74,-46.42 275.74,-46.42"/>
<polygon fill="red" stroke="red" points="279.24,-46.42 275.74,-36.42 272.24,-46.42 279.24,-46.42"/>
<text text-anchor="middle" x="272.58" y="-111.6" font-family="Times,serif" font-size="8.00">AST (1:n)</text>
</g>
<!-- MODIFIER -->
<g id="node4" class="node">
<title>MODIFIER</title>
<ellipse fill="none" stroke="black" cx="411.74" cy="-18" rx="61.99" ry="18"/>
<text text-anchor="middle" x="411.74" y="-14.3" font-family="Times,serif" font-size="14.00">MODIFIER</text>
</g>
<!-- TYPE_DECL&#45;&gt;MODIFIER -->
<g id="edge3" class="edge">
<title>TYPE_DECL&#45;&gt;MODIFIER</title>
<path fill="none" stroke="red" d="M422.36,-72.28C422.36,-72.28 422.36,-45.87 422.36,-45.87"/>
<polygon fill="red" stroke="red" points="425.86,-45.86 422.36,-35.87 418.86,-45.87 425.86,-45.86"/>
<text text-anchor="middle" x="402.86" y="-61.67" font-family="Times,serif" font-size="8.00">AST (1:n)</text>
</g>
<!-- BINDING -->
<g id="node5" class="node">
<title>BINDING</title>
<ellipse fill="none" stroke="black" cx="545.74" cy="-18" rx="54.69" ry="18"/>
<text text-anchor="middle" x="545.74" y="-14.3" font-family="Times,serif" font-size="14.00">BINDING</text>
</g>
<!-- TYPE_DECL&#45;&gt;BINDING -->
<g id="edge4" class="edge">
<title>TYPE_DECL&#45;&gt;BINDING</title>
<path fill="none" stroke="black" d="M538.69,-72.28C538.69,-72.28 538.69,-45.87 538.69,-45.87"/>
<polygon fill="black" stroke="black" points="542.19,-45.86 538.69,-35.87 535.19,-45.87 542.19,-45.86"/>
<text text-anchor="middle" x="513.69" y="-61.67" font-family="Times,serif" font-size="8.00">BINDS (1:n)</text>
</g>
<!-- METHOD -->
<g id="node6" class="node">
<title>METHOD</title>
<ellipse fill="none" stroke="black" cx="673.74" cy="-18" rx="55.49" ry="18"/>
<text text-anchor="middle" x="673.74" y="-14.3" font-family="Times,serif" font-size="14.00">METHOD</text>
</g>
<!-- TYPE_DECL&#45;&gt;METHOD -->
<g id="edge5" class="edge">
<title>TYPE_DECL&#45;&gt;METHOD</title>
<path fill="none" stroke="black" d="M586.51,-109C631.61,-109 673.74,-109 673.74,-109 673.74,-109 673.74,-46.42 673.74,-46.42"/>
<polygon fill="black" stroke="black" points="677.24,-46.42 673.74,-36.42 670.24,-46.42 677.24,-46.42"/>
<text text-anchor="middle" x="642.92" y="-111.6" font-family="Times,serif" font-size="8.00">VTABLE </text>
</g>
<!-- AST_NODE -->
<g id="node7" class="node">
<title>AST_NODE</title>
<ellipse fill="none" stroke="black" cx="809.74" cy="-18" rx="63.09" ry="18"/>
<text text-anchor="middle" x="809.74" y="-14.3" font-family="Times,serif" font-size="14.00">AST_NODE</text>
</g>
<!-- TYPE_DECL&#45;&gt;AST_NODE -->
<g id="edge6" class="edge">
<title>TYPE_DECL&#45;&gt;AST_NODE</title>
<path fill="none" stroke="gray" d="M586.66,-147C683.26,-147 809.74,-147 809.74,-147 809.74,-147 809.74,-46.21 809.74,-46.21"/>
<polygon fill="none" stroke="gray" points="813.24,-46.21 809.74,-36.21 806.24,-46.21 813.24,-46.21"/>
<text text-anchor="middle" x="745.1" y="-149.6" font-family="Times,serif" font-size="8.00">is</text>
</g>
</g>
</svg>
