<?xml version="1.0" encoding="UTF-8" standalone="no"?>
<!DOCTYPE svg PUBLIC "-//W3C//DTD SVG 1.1//EN"
 "http://www.w3.org/Graphics/SVG/1.1/DTD/svg11.dtd">
<!-- Generated by graphviz version 2.44.1 (20200629.0800)
 -->
<!-- Title: cpgschema Pages: 1 -->
<svg width="2556pt" height="298pt"
 viewBox="0.00 0.00 2556.00 298.00" xmlns="http://www.w3.org/2000/svg" xmlns:xlink="http://www.w3.org/1999/xlink">
<g id="graph0" class="graph" transform="scale(1 1) rotate(0) translate(4 294)">
<title>cpgschema</title>
<polygon fill="white" stroke="transparent" points="-4,4 -4,-294 2552,-294 2552,4 -4,4"/>
<!-- TYPE_REF -->
<g id="node1" class="node">
<title>TYPE_REF</title>
<polygon fill="none" stroke="black" points="1206,-179.5 1206,-271.5 1433,-271.5 1433,-179.5 1206,-179.5"/>
<text text-anchor="start" x="1281.5" y="-257.3" font-family="Times New Roman,serif" font-weight="bold" font-size="14.00">TYPE_REF</text>
<text text-anchor="start" x="1286.5" y="-246.5" font-family="Times New Roman,serif" font-size="10.00">CODE: string (1)</text>
<text text-anchor="start" x="1290" y="-236.5" font-family="Times New Roman,serif" font-size="10.00">ORDER: int (1)</text>
<text text-anchor="start" x="1262" y="-226.5" font-family="Times New Roman,serif" font-size="10.00">ARGUMENT_INDEX: int (1)</text>
<text text-anchor="start" x="1257" y="-216.5" font-family="Times New Roman,serif" font-size="10.00">TYPE_FULL_NAME: string (1)</text>
<text text-anchor="start" x="1214" y="-206.5" font-family="Times New Roman,serif" font-size="10.00">DYNAMIC_TYPE_HINT_FULL_NAME: string (0:n)</text>
<text text-anchor="start" x="1269.5" y="-196.5" font-family="Times New Roman,serif" font-size="10.00">LINE_NUMBER: int (0:1)</text>
<text text-anchor="start" x="1259" y="-186.5" font-family="Times New Roman,serif" font-size="10.00">COLUMN_NUMBER: int (0:1)</text>
</g>
<!-- TYPE_REF&#45;&gt;TYPE_REF -->
<g id="edge6" class="edge">
<title>TYPE_REF&#45;&gt;TYPE_REF</title>
<path fill="none" stroke="blue" d="M1319.5,-271.69C1319.5,-282.03 1319.5,-290 1319.5,-290 1319.5,-290 1178.5,-290 1178.5,-290 1178.5,-290 1178.5,-161 1178.5,-161 1178.5,-161 1267.5,-161 1267.5,-161 1267.5,-161 1267.5,-169.31 1267.5,-169.31"/>
<polygon fill="blue" stroke="blue" points="1264,-169.31 1267.5,-179.31 1271,-169.31 1264,-169.31"/>
<text text-anchor="middle" x="1169.5" y="-259.1" font-family="Times New Roman,serif" font-size="8.00">CFG </text>
</g>
<!-- METHOD_RETURN -->
<g id="node2" class="node">
<title>METHOD_RETURN</title>
<polygon fill="none" stroke="black" points="0,-25.5 0,-117.5 227,-117.5 227,-25.5 0,-25.5"/>
<text text-anchor="start" x="46.5" y="-103.3" font-family="Times New Roman,serif" font-weight="bold" font-size="14.00">METHOD_RETURN</text>
<text text-anchor="start" x="80.5" y="-92.5" font-family="Times New Roman,serif" font-size="10.00">CODE: string (1)</text>
<text text-anchor="start" x="36" y="-82.5" font-family="Times New Roman,serif" font-size="10.00">EVALUATION_STRATEGY: string (1)</text>
<text text-anchor="start" x="51" y="-72.5" font-family="Times New Roman,serif" font-size="10.00">TYPE_FULL_NAME: string (1)</text>
<text text-anchor="start" x="8" y="-62.5" font-family="Times New Roman,serif" font-size="10.00">DYNAMIC_TYPE_HINT_FULL_NAME: string (0:n)</text>
<text text-anchor="start" x="63.5" y="-52.5" font-family="Times New Roman,serif" font-size="10.00">LINE_NUMBER: int (0:1)</text>
<text text-anchor="start" x="53" y="-42.5" font-family="Times New Roman,serif" font-size="10.00">COLUMN_NUMBER: int (0:1)</text>
<text text-anchor="start" x="84" y="-32.5" font-family="Times New Roman,serif" font-size="10.00">ORDER: int (1)</text>
</g>
<!-- TYPE_REF&#45;&gt;METHOD_RETURN -->
<g id="edge7" class="edge">
<title>TYPE_REF&#45;&gt;METHOD_RETURN</title>
<path fill="none" stroke="blue" d="M1205.77,-253C905.35,-253 113.5,-253 113.5,-253 113.5,-253 113.5,-127.77 113.5,-127.77"/>
<polygon fill="blue" stroke="blue" points="117,-127.77 113.5,-117.77 110,-127.77 117,-127.77"/>
<text text-anchor="middle" x="588.02" y="-255.6" font-family="Times New Roman,serif" font-size="8.00">CFG </text>
</g>
<!-- LITERAL -->
<g id="node3" class="node">
<title>LITERAL</title>
<polygon fill="none" stroke="black" points="245,-25.5 245,-117.5 472,-117.5 472,-25.5 245,-25.5"/>
<text text-anchor="start" x="326.5" y="-103.3" font-family="Times New Roman,serif" font-weight="bold" font-size="14.00">LITERAL</text>
<text text-anchor="start" x="325.5" y="-92.5" font-family="Times New Roman,serif" font-size="10.00">CODE: string (1)</text>
<text text-anchor="start" x="329" y="-82.5" font-family="Times New Roman,serif" font-size="10.00">ORDER: int (1)</text>
<text text-anchor="start" x="301" y="-72.5" font-family="Times New Roman,serif" font-size="10.00">ARGUMENT_INDEX: int (1)</text>
<text text-anchor="start" x="296" y="-62.5" font-family="Times New Roman,serif" font-size="10.00">TYPE_FULL_NAME: string (1)</text>
<text text-anchor="start" x="253" y="-52.5" font-family="Times New Roman,serif" font-size="10.00">DYNAMIC_TYPE_HINT_FULL_NAME: string (0:n)</text>
<text text-anchor="start" x="308.5" y="-42.5" font-family="Times New Roman,serif" font-size="10.00">LINE_NUMBER: int (0:1)</text>
<text text-anchor="start" x="298" y="-32.5" font-family="Times New Roman,serif" font-size="10.00">COLUMN_NUMBER: int (0:1)</text>
</g>
<!-- TYPE_REF&#45;&gt;LITERAL -->
<g id="edge4" class="edge">
<title>TYPE_REF&#45;&gt;LITERAL</title>
<path fill="none" stroke="blue" d="M1205.96,-234C951.67,-234 358.5,-234 358.5,-234 358.5,-234 358.5,-127.63 358.5,-127.63"/>
<polygon fill="blue" stroke="blue" points="362,-127.63 358.5,-117.63 355,-127.63 362,-127.63"/>
<text text-anchor="middle" x="720.05" y="-236.6" font-family="Times New Roman,serif" font-size="8.00">CFG </text>
</g>
<!-- CALL -->
<g id="node4" class="node">
<title>CALL</title>
<polygon fill="none" stroke="black" points="490,-0.5 490,-142.5 717,-142.5 717,-0.5 490,-0.5"/>
<text text-anchor="start" x="584" y="-128.3" font-family="Times New Roman,serif" font-weight="bold" font-size="14.00">CALL</text>
<text text-anchor="start" x="570.5" y="-117.5" font-family="Times New Roman,serif" font-size="10.00">CODE: string (1)</text>
<text text-anchor="start" x="568.5" y="-107.5" font-family="Times New Roman,serif" font-size="10.00">NAME: string (1)</text>
<text text-anchor="start" x="574" y="-97.5" font-family="Times New Roman,serif" font-size="10.00">ORDER: int (1)</text>
<text text-anchor="start" x="515.5" y="-87.5" font-family="Times New Roman,serif" font-size="10.00">METHOD_INST_FULL_NAME: string (0:1)</text>
<text text-anchor="start" x="532" y="-77.5" font-family="Times New Roman,serif" font-size="10.00">METHOD_FULL_NAME: string (1)</text>
<text text-anchor="start" x="546" y="-67.5" font-family="Times New Roman,serif" font-size="10.00">ARGUMENT_INDEX: int (1)</text>
<text text-anchor="start" x="546" y="-57.5" font-family="Times New Roman,serif" font-size="10.00">DISPATCH_TYPE: string (1)</text>
<text text-anchor="start" x="556.5" y="-47.5" font-family="Times New Roman,serif" font-size="10.00">SIGNATURE: string (1)</text>
<text text-anchor="start" x="541" y="-37.5" font-family="Times New Roman,serif" font-size="10.00">TYPE_FULL_NAME: string (1)</text>
<text text-anchor="start" x="498" y="-27.5" font-family="Times New Roman,serif" font-size="10.00">DYNAMIC_TYPE_HINT_FULL_NAME: string (0:n)</text>
<text text-anchor="start" x="553.5" y="-17.5" font-family="Times New Roman,serif" font-size="10.00">LINE_NUMBER: int (0:1)</text>
<text text-anchor="start" x="543" y="-7.5" font-family="Times New Roman,serif" font-size="10.00">COLUMN_NUMBER: int (0:1)</text>
</g>
<!-- TYPE_REF&#45;&gt;CALL -->
<g id="edge1" class="edge">
<title>TYPE_REF&#45;&gt;CALL</title>
<path fill="none" stroke="blue" d="M1226.5,-179.45C1226.5,-157.1 1226.5,-135 1226.5,-135 1226.5,-135 727.04,-135 727.04,-135"/>
<polygon fill="blue" stroke="blue" points="727.04,-131.5 717.04,-135 727.04,-138.5 727.04,-131.5"/>
<text text-anchor="middle" x="990" y="-137.6" font-family="Times New Roman,serif" font-size="8.00">CFG </text>
</g>
<!-- IDENTIFIER -->
<g id="node5" class="node">
<title>IDENTIFIER</title>
<polygon fill="none" stroke="black" points="735,-20.5 735,-122.5 962,-122.5 962,-20.5 735,-20.5"/>
<text text-anchor="start" x="805.5" y="-108.3" font-family="Times New Roman,serif" font-weight="bold" font-size="14.00">IDENTIFIER</text>
<text text-anchor="start" x="815.5" y="-97.5" font-family="Times New Roman,serif" font-size="10.00">CODE: string (1)</text>
<text text-anchor="start" x="813.5" y="-87.5" font-family="Times New Roman,serif" font-size="10.00">NAME: string (1)</text>
<text text-anchor="start" x="819" y="-77.5" font-family="Times New Roman,serif" font-size="10.00">ORDER: int (1)</text>
<text text-anchor="start" x="791" y="-67.5" font-family="Times New Roman,serif" font-size="10.00">ARGUMENT_INDEX: int (1)</text>
<text text-anchor="start" x="786" y="-57.5" font-family="Times New Roman,serif" font-size="10.00">TYPE_FULL_NAME: string (1)</text>
<text text-anchor="start" x="743" y="-47.5" font-family="Times New Roman,serif" font-size="10.00">DYNAMIC_TYPE_HINT_FULL_NAME: string (0:n)</text>
<text text-anchor="start" x="798.5" y="-37.5" font-family="Times New Roman,serif" font-size="10.00">LINE_NUMBER: int (0:1)</text>
<text text-anchor="start" x="788" y="-27.5" font-family="Times New Roman,serif" font-size="10.00">COLUMN_NUMBER: int (0:1)</text>
</g>
<!-- TYPE_REF&#45;&gt;IDENTIFIER -->
<g id="edge2" class="edge">
<title>TYPE_REF&#45;&gt;IDENTIFIER</title>
<path fill="none" stroke="blue" d="M1205.78,-216C1066.4,-216 848.5,-216 848.5,-216 848.5,-216 848.5,-132.85 848.5,-132.85"/>
<polygon fill="blue" stroke="blue" points="852,-132.85 848.5,-122.85 845,-132.85 852,-132.85"/>
<text text-anchor="middle" x="976.57" y="-218.6" font-family="Times New Roman,serif" font-size="8.00">CFG </text>
</g>
<!-- FIELD_IDENTIFIER -->
<g id="node6" class="node">
<title>FIELD_IDENTIFIER</title>
<polygon fill="none" stroke="black" points="980,-30.5 980,-112.5 1133,-112.5 1133,-30.5 980,-30.5"/>
<text text-anchor="start" x="988" y="-98.3" font-family="Times New Roman,serif" font-weight="bold" font-size="14.00">FIELD_IDENTIFIER</text>
<text text-anchor="start" x="1023.5" y="-87.5" font-family="Times New Roman,serif" font-size="10.00">CODE: string (1)</text>
<text text-anchor="start" x="991.5" y="-77.5" font-family="Times New Roman,serif" font-size="10.00">CANONICAL_NAME: string (1)</text>
<text text-anchor="start" x="1027" y="-67.5" font-family="Times New Roman,serif" font-size="10.00">ORDER: int (1)</text>
<text text-anchor="start" x="999" y="-57.5" font-family="Times New Roman,serif" font-size="10.00">ARGUMENT_INDEX: int (1)</text>
<text text-anchor="start" x="1006.5" y="-47.5" font-family="Times New Roman,serif" font-size="10.00">LINE_NUMBER: int (0:1)</text>
<text text-anchor="start" x="996" y="-37.5" font-family="Times New Roman,serif" font-size="10.00">COLUMN_NUMBER: int (0:1)</text>
</g>
<!-- TYPE_REF&#45;&gt;FIELD_IDENTIFIER -->
<g id="edge3" class="edge">
<title>TYPE_REF&#45;&gt;FIELD_IDENTIFIER</title>
<path fill="none" stroke="blue" d="M1205.67,-197C1134.6,-197 1056.5,-197 1056.5,-197 1056.5,-197 1056.5,-122.59 1056.5,-122.59"/>
<polygon fill="blue" stroke="blue" points="1060,-122.59 1056.5,-112.59 1053,-122.59 1060,-122.59"/>
<text text-anchor="middle" x="1084.88" y="-199.6" font-family="Times New Roman,serif" font-size="8.00">CFG </text>
</g>
<!-- RETURN -->
<g id="node7" class="node">
<title>RETURN</title>
<polygon fill="none" stroke="black" points="1151,-35.5 1151,-107.5 1288,-107.5 1288,-35.5 1151,-35.5"/>
<text text-anchor="start" x="1189" y="-93.3" font-family="Times New Roman,serif" font-weight="bold" font-size="14.00">RETURN</text>
<text text-anchor="start" x="1169.5" y="-82.5" font-family="Times New Roman,serif" font-size="10.00">LINE_NUMBER: int (0:1)</text>
<text text-anchor="start" x="1159" y="-72.5" font-family="Times New Roman,serif" font-size="10.00">COLUMN_NUMBER: int (0:1)</text>
<text text-anchor="start" x="1190" y="-62.5" font-family="Times New Roman,serif" font-size="10.00">ORDER: int (1)</text>
<text text-anchor="start" x="1162" y="-52.5" font-family="Times New Roman,serif" font-size="10.00">ARGUMENT_INDEX: int (1)</text>
<text text-anchor="start" x="1186.5" y="-42.5" font-family="Times New Roman,serif" font-size="10.00">CODE: string (1)</text>
</g>
<!-- TYPE_REF&#45;&gt;RETURN -->
<g id="edge8" class="edge">
<title>TYPE_REF&#45;&gt;RETURN</title>
<path fill="none" stroke="blue" d="M1247,-179.29C1247,-179.29 1247,-117.89 1247,-117.89"/>
<polygon fill="blue" stroke="blue" points="1250.5,-117.89 1247,-107.89 1243.5,-117.89 1250.5,-117.89"/>
<text text-anchor="middle" x="1238" y="-151.19" font-family="Times New Roman,serif" font-size="8.00">CFG </text>
</g>
<!-- BLOCK -->
<g id="node8" class="node">
<title>BLOCK</title>
<polygon fill="none" stroke="black" points="1306,-25.5 1306,-117.5 1533,-117.5 1533,-25.5 1306,-25.5"/>
<text text-anchor="start" x="1393.5" y="-103.3" font-family="Times New Roman,serif" font-weight="bold" font-size="14.00">BLOCK</text>
<text text-anchor="start" x="1386.5" y="-92.5" font-family="Times New Roman,serif" font-size="10.00">CODE: string (1)</text>
<text text-anchor="start" x="1390" y="-82.5" font-family="Times New Roman,serif" font-size="10.00">ORDER: int (1)</text>
<text text-anchor="start" x="1362" y="-72.5" font-family="Times New Roman,serif" font-size="10.00">ARGUMENT_INDEX: int (1)</text>
<text text-anchor="start" x="1357" y="-62.5" font-family="Times New Roman,serif" font-size="10.00">TYPE_FULL_NAME: string (1)</text>
<text text-anchor="start" x="1314" y="-52.5" font-family="Times New Roman,serif" font-size="10.00">DYNAMIC_TYPE_HINT_FULL_NAME: string (0:n)</text>
<text text-anchor="start" x="1369.5" y="-42.5" font-family="Times New Roman,serif" font-size="10.00">LINE_NUMBER: int (0:1)</text>
<text text-anchor="start" x="1359" y="-32.5" font-family="Times New Roman,serif" font-size="10.00">COLUMN_NUMBER: int (0:1)</text>
</g>
<!-- TYPE_REF&#45;&gt;BLOCK -->
<g id="edge9" class="edge">
<title>TYPE_REF&#45;&gt;BLOCK</title>
<path fill="none" stroke="blue" d="M1369.5,-179.29C1369.5,-179.29 1369.5,-127.67 1369.5,-127.67"/>
<polygon fill="blue" stroke="blue" points="1373,-127.67 1369.5,-117.67 1366,-127.67 1373,-127.67"/>
<text text-anchor="middle" x="1360.5" y="-156.08" font-family="Times New Roman,serif" font-size="8.00">CFG </text>
</g>
<!-- METHOD_REF -->
<g id="node9" class="node">
<title>METHOD_REF</title>
<polygon fill="none" stroke="black" points="1551,-15.5 1551,-127.5 1778,-127.5 1778,-15.5 1551,-15.5"/>
<text text-anchor="start" x="1613" y="-113.3" font-family="Times New Roman,serif" font-weight="bold" font-size="14.00">METHOD_REF</text>
<text text-anchor="start" x="1631.5" y="-102.5" font-family="Times New Roman,serif" font-size="10.00">CODE: string (1)</text>
<text text-anchor="start" x="1635" y="-92.5" font-family="Times New Roman,serif" font-size="10.00">ORDER: int (1)</text>
<text text-anchor="start" x="1607" y="-82.5" font-family="Times New Roman,serif" font-size="10.00">ARGUMENT_INDEX: int (1)</text>
<text text-anchor="start" x="1602" y="-72.5" font-family="Times New Roman,serif" font-size="10.00">TYPE_FULL_NAME: string (1)</text>
<text text-anchor="start" x="1559" y="-62.5" font-family="Times New Roman,serif" font-size="10.00">DYNAMIC_TYPE_HINT_FULL_NAME: string (0:n)</text>
<text text-anchor="start" x="1576.5" y="-52.5" font-family="Times New Roman,serif" font-size="10.00">METHOD_INST_FULL_NAME: string (0:1)</text>
<text text-anchor="start" x="1593" y="-42.5" font-family="Times New Roman,serif" font-size="10.00">METHOD_FULL_NAME: string (1)</text>
<text text-anchor="start" x="1614.5" y="-32.5" font-family="Times New Roman,serif" font-size="10.00">LINE_NUMBER: int (0:1)</text>
<text text-anchor="start" x="1604" y="-22.5" font-family="Times New Roman,serif" font-size="10.00">COLUMN_NUMBER: int (0:1)</text>
</g>
<!-- TYPE_REF&#45;&gt;METHOD_REF -->
<g id="edge5" class="edge">
<title>TYPE_REF&#45;&gt;METHOD_REF</title>
<path fill="none" stroke="blue" d="M1433.42,-194C1533.91,-194 1664.5,-194 1664.5,-194 1664.5,-194 1664.5,-137.73 1664.5,-137.73"/>
<polygon fill="blue" stroke="blue" points="1668,-137.73 1664.5,-127.73 1661,-137.73 1668,-137.73"/>
<text text-anchor="middle" x="1568.1" y="-196.6" font-family="Times New Roman,serif" font-size="8.00">CFG </text>
</g>
<!-- CONTROL_STRUCTURE -->
<g id="node10" class="node">
<title>CONTROL_STRUCTURE</title>
<polygon fill="none" stroke="black" points="1796,-30.5 1796,-112.5 1981,-112.5 1981,-30.5 1796,-30.5"/>
<text text-anchor="start" x="1804" y="-98.3" font-family="Times New Roman,serif" font-weight="bold" font-size="14.00">CONTROL_STRUCTURE</text>
<text text-anchor="start" x="1855.5" y="-87.5" font-family="Times New Roman,serif" font-size="10.00">CODE: string (1)</text>
<text text-anchor="start" x="1828" y="-77.5" font-family="Times New Roman,serif" font-size="10.00">COLUMN_NUMBER: int (0:1)</text>
<text text-anchor="start" x="1838.5" y="-67.5" font-family="Times New Roman,serif" font-size="10.00">LINE_NUMBER: int (0:1)</text>
<text text-anchor="start" x="1859" y="-57.5" font-family="Times New Roman,serif" font-size="10.00">ORDER: int (1)</text>
<text text-anchor="start" x="1819.5" y="-47.5" font-family="Times New Roman,serif" font-size="10.00">PARSER_TYPE_NAME: string (1)</text>
<text text-anchor="start" x="1831" y="-37.5" font-family="Times New Roman,serif" font-size="10.00">ARGUMENT_INDEX: int (1)</text>
</g>
<!-- TYPE_REF&#45;&gt;CONTROL_STRUCTURE -->
<g id="edge11" class="edge">
<title>TYPE_REF&#45;&gt;CONTROL_STRUCTURE</title>
<path fill="none" stroke="blue" d="M1433.28,-210C1599.33,-210 1888.5,-210 1888.5,-210 1888.5,-210 1888.5,-122.68 1888.5,-122.68"/>
<polygon fill="blue" stroke="blue" points="1892,-122.68 1888.5,-112.68 1885,-122.68 1892,-122.68"/>
<text text-anchor="middle" x="1695.55" y="-212.6" font-family="Times New Roman,serif" font-size="8.00">CFG </text>
</g>
<!-- JUMP_TARGET -->
<g id="node11" class="node">
<title>JUMP_TARGET</title>
<polygon fill="none" stroke="black" points="1999.5,-20.5 1999.5,-122.5 2153.5,-122.5 2153.5,-20.5 1999.5,-20.5"/>
<text text-anchor="start" x="2022" y="-108.3" font-family="Times New Roman,serif" font-weight="bold" font-size="14.00">JUMP_TARGET</text>
<text text-anchor="start" x="2043.5" y="-97.5" font-family="Times New Roman,serif" font-size="10.00">CODE: string (1)</text>
<text text-anchor="start" x="2041.5" y="-87.5" font-family="Times New Roman,serif" font-size="10.00">NAME: string (1)</text>
<text text-anchor="start" x="2016" y="-77.5" font-family="Times New Roman,serif" font-size="10.00">COLUMN_NUMBER: int (0:1)</text>
<text text-anchor="start" x="2026.5" y="-67.5" font-family="Times New Roman,serif" font-size="10.00">LINE_NUMBER: int (0:1)</text>
<text text-anchor="start" x="2047" y="-57.5" font-family="Times New Roman,serif" font-size="10.00">ORDER: int (1)</text>
<text text-anchor="start" x="2007.5" y="-47.5" font-family="Times New Roman,serif" font-size="10.00">PARSER_TYPE_NAME: string (1)</text>
<text text-anchor="start" x="2019" y="-37.5" font-family="Times New Roman,serif" font-size="10.00">ARGUMENT_INDEX: int (1)</text>
<text text-anchor="start" x="2034.5" y="-27.5" font-family="Times New Roman,serif" font-size="10.00">INTERNAL_FLAGS </text>
</g>
<!-- TYPE_REF&#45;&gt;JUMP_TARGET -->
<g id="edge10" class="edge">
<title>TYPE_REF&#45;&gt;JUMP_TARGET</title>
<path fill="none" stroke="blue" d="M1433.24,-225C1644.57,-225 2076.5,-225 2076.5,-225 2076.5,-225 2076.5,-132.61 2076.5,-132.61"/>
<polygon fill="blue" stroke="blue" points="2080,-132.61 2076.5,-122.61 2073,-132.61 2080,-132.61"/>
<text text-anchor="middle" x="1792.06" y="-227.6" font-family="Times New Roman,serif" font-size="8.00">CFG </text>
</g>
<!-- UNKNOWN -->
<g id="node12" class="node">
<title>UNKNOWN</title>
<polygon fill="none" stroke="black" points="2172,-20.5 2172,-122.5 2399,-122.5 2399,-20.5 2172,-20.5"/>
<text text-anchor="start" x="2246.5" y="-108.3" font-family="Times New Roman,serif" font-weight="bold" font-size="14.00">UNKNOWN</text>
<text text-anchor="start" x="2252.5" y="-97.5" font-family="Times New Roman,serif" font-size="10.00">CODE: string (1)</text>
<text text-anchor="start" x="2216.5" y="-87.5" font-family="Times New Roman,serif" font-size="10.00">PARSER_TYPE_NAME: string (1)</text>
<text text-anchor="start" x="2256" y="-77.5" font-family="Times New Roman,serif" font-size="10.00">ORDER: int (1)</text>
<text text-anchor="start" x="2228" y="-67.5" font-family="Times New Roman,serif" font-size="10.00">ARGUMENT_INDEX: int (1)</text>
<text text-anchor="start" x="2223" y="-57.5" font-family="Times New Roman,serif" font-size="10.00">TYPE_FULL_NAME: string (1)</text>
<text text-anchor="start" x="2180" y="-47.5" font-family="Times New Roman,serif" font-size="10.00">DYNAMIC_TYPE_HINT_FULL_NAME: string (0:n)</text>
<text text-anchor="start" x="2235.5" y="-37.5" font-family="Times New Roman,serif" font-size="10.00">LINE_NUMBER: int (0:1)</text>
<text text-anchor="start" x="2225" y="-27.5" font-family="Times New Roman,serif" font-size="10.00">COLUMN_NUMBER: int (0:1)</text>
</g>
<!-- TYPE_REF&#45;&gt;UNKNOWN -->
<g id="edge12" class="edge">
<title>TYPE_REF&#45;&gt;UNKNOWN</title>
<path fill="none" stroke="blue" d="M1433.15,-241C1688.51,-241 2285.5,-241 2285.5,-241 2285.5,-241 2285.5,-132.82 2285.5,-132.82"/>
<polygon fill="blue" stroke="blue" points="2289,-132.82 2285.5,-122.82 2282,-132.82 2289,-132.82"/>
<text text-anchor="middle" x="1904.42" y="-243.6" font-family="Times New Roman,serif" font-size="8.00">CFG </text>
</g>
<!-- EXPRESSION -->
<g id="node13" class="node">
<title>EXPRESSION</title>
<polygon fill="none" stroke="black" points="2417,-45.5 2417,-97.5 2548,-97.5 2548,-45.5 2417,-45.5"/>
<text text-anchor="start" x="2436" y="-83.3" font-family="Times New Roman,serif" font-weight="bold" font-size="14.00">EXPRESSION</text>
<text text-anchor="start" x="2449.5" y="-72.5" font-family="Times New Roman,serif" font-size="10.00">CODE: string (1)</text>
<text text-anchor="start" x="2453" y="-62.5" font-family="Times New Roman,serif" font-size="10.00">ORDER: int (1)</text>
<text text-anchor="start" x="2425" y="-52.5" font-family="Times New Roman,serif" font-size="10.00">ARGUMENT_INDEX: int (1)</text>
</g>
<!-- TYPE_REF&#45;&gt;EXPRESSION -->
<g id="edge13" class="edge">
<title>TYPE_REF&#45;&gt;EXPRESSION</title>
<path fill="none" stroke="gray" d="M1433.13,-256C1725.77,-256 2482.5,-256 2482.5,-256 2482.5,-256 2482.5,-107.54 2482.5,-107.54"/>
<polygon fill="none" stroke="gray" points="2486,-107.54 2482.5,-97.54 2479,-107.54 2486,-107.54"/>
<text text-anchor="middle" x="2029.04" y="-258.6" font-family="Times New Roman,serif" font-size="8.00">is</text>
</g>
</g>
</svg>
