<?xml version="1.0" encoding="UTF-8" standalone="no"?>
<!DOCTYPE svg PUBLIC "-//W3C//DTD SVG 1.1//EN"
 "http://www.w3.org/Graphics/SVG/1.1/DTD/svg11.dtd">
<!-- Generated by graphviz version 2.44.1 (20200629.0800)
 -->
<!-- Title: cpgschema Pages: 1 -->
<svg width="163pt" height="124pt"
 viewBox="0.00 0.00 163.00 124.00" xmlns="http://www.w3.org/2000/svg" xmlns:xlink="http://www.w3.org/1999/xlink">
<g id="graph0" class="graph" transform="scale(1 1) rotate(0) translate(4 120)">
<title>cpgschema</title>
<polygon fill="white" stroke="transparent" points="-4,4 -4,-120 159,-120 159,4 -4,4"/>
<!-- TYPE_PARAMETER -->
<g id="node1" class="node">
<title>TYPE_PARAMETER</title>
<polygon fill="none" stroke="black" points="0,-73.5 0,-115.5 155,-115.5 155,-73.5 0,-73.5"/>
<text text-anchor="start" x="8" y="-101.3" font-family="Times New Roman,serif" font-weight="bold" font-size="14.00">TYPE_PARAMETER</text>
<text text-anchor="start" x="42.5" y="-90.5" font-family="Times New Roman,serif" font-size="10.00">NAME: string (1)</text>
<text text-anchor="start" x="48" y="-80.5" font-family="Times New Roman,serif" font-size="10.00">ORDER: int (1)</text>
</g>
<!-- AST_NODE -->
<g id="node2" class="node">
<title>AST_NODE</title>
<polygon fill="none" stroke="black" points="30.5,-0.5 30.5,-36.5 124.5,-36.5 124.5,-0.5 30.5,-0.5"/>
<text text-anchor="start" x="38.5" y="-20.3" font-family="Times New Roman,serif" font-weight="bold" font-size="14.00">AST_NODE</text>
<text text-anchor="start" x="48" y="-9.5" font-family="Times New Roman,serif" font-size="10.00">ORDER: int (1)</text>
</g>
<!-- TYPE_PARAMETER&#45;&gt;AST_NODE -->
<g id="edge1" class="edge">
<title>TYPE_PARAMETER&#45;&gt;AST_NODE</title>
<path fill="none" stroke="gray" d="M77.5,-73.33C77.5,-73.33 77.5,-46.72 77.5,-46.72"/>
<polygon fill="none" stroke="gray" points="81,-46.72 77.5,-36.72 74,-46.72 81,-46.72"/>
<text text-anchor="middle" x="74.5" y="-62.63" font-family="Times New Roman,serif" font-size="8.00">is</text>
</g>
</g>
</svg>
