<?xml version="1.0" encoding="UTF-8" standalone="no"?>
<!DOCTYPE svg PUBLIC "-//W3C//DTD SVG 1.1//EN"
 "http://www.w3.org/Graphics/SVG/1.1/DTD/svg11.dtd">
<!-- Generated by graphviz version 2.44.1 (0)
 -->
<!-- Title: cpgschema Pages: 1 -->
<svg width="443pt" height="117pt"
 viewBox="0.00 0.00 442.79 117.00" xmlns="http://www.w3.org/2000/svg" xmlns:xlink="http://www.w3.org/1999/xlink">
<g id="graph0" class="graph" transform="scale(1 1) rotate(0) translate(4 113)">
<title>cpgschema</title>
<polygon fill="white" stroke="transparent" points="-4,4 -4,-113 438.79,-113 438.79,4 -4,4"/>
<!-- TYPE_ARGUMENT -->
<g id="node1" class="node">
<title>TYPE_ARGUMENT</title>
<polygon fill="none" stroke="black" points="109.25,-72.5 109.25,-108.5 270.25,-108.5 270.25,-72.5 109.25,-72.5"/>
<text text-anchor="start" x="117.25" y="-92.3" font-family="Times,serif" font-weight="bold" font-size="14.00">TYPE_ARGUMENT</text>
<text text-anchor="start" x="169.75" y="-81.5" font-family="Times,serif" font-size="10.00">ORDER</text>
</g>
<!-- TYPE -->
<g id="node2" class="node">
<title>TYPE</title>
<ellipse fill="none" stroke="black" cx="35.75" cy="-18" rx="36" ry="18"/>
<text text-anchor="middle" x="35.75" y="-14.3" font-family="Times,serif" font-size="14.00">TYPE</text>
</g>
<!-- TYPE_ARGUMENT&#45;&gt;TYPE -->
<g id="edge1" class="edge">
<title>TYPE_ARGUMENT&#45;&gt;TYPE</title>
<path fill="none" stroke="black" d="M109.14,-90C71.88,-90 35.75,-90 35.75,-90 35.75,-90 35.75,-46.17 35.75,-46.17"/>
<polygon fill="black" stroke="black" points="39.25,-46.17 35.75,-36.17 32.25,-46.17 39.25,-46.17"/>
<text text-anchor="middle" x="40.53" y="-92.6" font-family="Times,serif" font-size="8.00">REF </text>
</g>
<!-- TYPE_PARAMETER -->
<g id="node3" class="node">
<title>TYPE_PARAMETER</title>
<ellipse fill="none" stroke="black" cx="189.75" cy="-18" rx="100.98" ry="18"/>
<text text-anchor="middle" x="189.75" y="-14.3" font-family="Times,serif" font-size="14.00">TYPE_PARAMETER</text>
</g>
<!-- TYPE_ARGUMENT&#45;&gt;TYPE_PARAMETER -->
<g id="edge2" class="edge">
<title>TYPE_ARGUMENT&#45;&gt;TYPE_PARAMETER</title>
<path fill="none" stroke="black" d="M189.75,-72.21C189.75,-72.21 189.75,-46.04 189.75,-46.04"/>
<polygon fill="black" stroke="black" points="193.25,-46.04 189.75,-36.04 186.25,-46.04 193.25,-46.04"/>
<text text-anchor="middle" x="166.75" y="-61.72" font-family="Times,serif" font-size="8.00">BINDS_TO </text>
</g>
<!-- AST_NODE -->
<g id="node4" class="node">
<title>AST_NODE</title>
<ellipse fill="none" stroke="black" cx="371.75" cy="-18" rx="63.09" ry="18"/>
<text text-anchor="middle" x="371.75" y="-14.3" font-family="Times,serif" font-size="14.00">AST_NODE</text>
</g>
<!-- TYPE_ARGUMENT&#45;&gt;AST_NODE -->
<g id="edge3" class="edge">
<title>TYPE_ARGUMENT&#45;&gt;AST_NODE</title>
<path fill="none" stroke="gray" d="M270.37,-90C319.05,-90 371.75,-90 371.75,-90 371.75,-90 371.75,-46.17 371.75,-46.17"/>
<polygon fill="none" stroke="gray" points="375.25,-46.17 371.75,-36.17 368.25,-46.17 375.25,-46.17"/>
<text text-anchor="middle" x="339.47" y="-92.6" font-family="Times,serif" font-size="8.00">is</text>
</g>
</g>
</svg>
