<?xml version="1.0" encoding="UTF-8" standalone="no"?>
<!DOCTYPE svg PUBLIC "-//W3C//DTD SVG 1.1//EN"
 "http://www.w3.org/Graphics/SVG/1.1/DTD/svg11.dtd">
<!-- Generated by graphviz version 2.44.1 (20200629.0800)
 -->
<!-- Title: cpgschema Pages: 1 -->
<svg width="464pt" height="134pt"
 viewBox="0.00 0.00 464.00 134.00" xmlns="http://www.w3.org/2000/svg" xmlns:xlink="http://www.w3.org/1999/xlink">
<g id="graph0" class="graph" transform="scale(1 1) rotate(0) translate(4 130)">
<title>cpgschema</title>
<polygon fill="white" stroke="transparent" points="-4,4 -4,-130 460,-130 460,4 -4,4"/>
<!-- TYPE_ARGUMENT -->
<g id="node1" class="node">
<title>TYPE_ARGUMENT</title>
<polygon fill="none" stroke="black" points="192.5,-89.5 192.5,-125.5 339.5,-125.5 339.5,-89.5 192.5,-89.5"/>
<text text-anchor="start" x="200.5" y="-109.3" font-family="Times New Roman,serif" font-weight="bold" font-size="14.00">TYPE_ARGUMENT</text>
<text text-anchor="start" x="236.5" y="-98.5" font-family="Times New Roman,serif" font-size="10.00">ORDER: int (1)</text>
</g>
<!-- TYPE -->
<g id="node2" class="node">
<title>TYPE</title>
<polygon fill="none" stroke="black" points="0,-0.5 0,-52.5 170,-52.5 170,-0.5 0,-0.5"/>
<text text-anchor="start" x="65.5" y="-38.3" font-family="Times New Roman,serif" font-weight="bold" font-size="14.00">TYPE</text>
<text text-anchor="start" x="50" y="-27.5" font-family="Times New Roman,serif" font-size="10.00">NAME: string (1)</text>
<text text-anchor="start" x="36.5" y="-17.5" font-family="Times New Roman,serif" font-size="10.00">FULL_NAME: string (1)</text>
<text text-anchor="start" x="8" y="-7.5" font-family="Times New Roman,serif" font-size="10.00">TYPE_DECL_FULL_NAME: string (1)</text>
</g>
<!-- TYPE_ARGUMENT&#45;&gt;TYPE -->
<g id="edge1" class="edge">
<title>TYPE_ARGUMENT&#45;&gt;TYPE</title>
<path fill="none" stroke="black" d="M192.38,-107C142.27,-107 85,-107 85,-107 85,-107 85,-62.86 85,-62.86"/>
<polygon fill="black" stroke="black" points="88.5,-62.86 85,-52.86 81.5,-62.86 88.5,-62.86"/>
<text text-anchor="middle" x="107.62" y="-109.6" font-family="Times New Roman,serif" font-size="8.00">REF </text>
</g>
<!-- TYPE_PARAMETER -->
<g id="node3" class="node">
<title>TYPE_PARAMETER</title>
<polygon fill="none" stroke="black" points="188.5,-5.5 188.5,-47.5 343.5,-47.5 343.5,-5.5 188.5,-5.5"/>
<text text-anchor="start" x="196.5" y="-33.3" font-family="Times New Roman,serif" font-weight="bold" font-size="14.00">TYPE_PARAMETER</text>
<text text-anchor="start" x="231" y="-22.5" font-family="Times New Roman,serif" font-size="10.00">NAME: string (1)</text>
<text text-anchor="start" x="236.5" y="-12.5" font-family="Times New Roman,serif" font-size="10.00">ORDER: int (1)</text>
</g>
<!-- TYPE_ARGUMENT&#45;&gt;TYPE_PARAMETER -->
<g id="edge2" class="edge">
<title>TYPE_ARGUMENT&#45;&gt;TYPE_PARAMETER</title>
<path fill="none" stroke="black" d="M266,-89.12C266,-89.12 266,-57.67 266,-57.67"/>
<polygon fill="black" stroke="black" points="269.5,-57.67 266,-47.67 262.5,-57.67 269.5,-57.67"/>
<text text-anchor="middle" x="244.5" y="-75.99" font-family="Times New Roman,serif" font-size="8.00">BINDS_TO </text>
</g>
<!-- AST_NODE -->
<g id="node4" class="node">
<title>AST_NODE</title>
<polygon fill="none" stroke="black" points="362,-8.5 362,-44.5 456,-44.5 456,-8.5 362,-8.5"/>
<text text-anchor="start" x="370" y="-28.3" font-family="Times New Roman,serif" font-weight="bold" font-size="14.00">AST_NODE</text>
<text text-anchor="start" x="379.5" y="-17.5" font-family="Times New Roman,serif" font-size="10.00">ORDER: int (1)</text>
</g>
<!-- TYPE_ARGUMENT&#45;&gt;AST_NODE -->
<g id="edge3" class="edge">
<title>TYPE_ARGUMENT&#45;&gt;AST_NODE</title>
<path fill="none" stroke="gray" d="M339.59,-107C374.63,-107 409,-107 409,-107 409,-107 409,-54.77 409,-54.77"/>
<polygon fill="none" stroke="gray" points="412.5,-54.77 409,-44.77 405.5,-54.77 412.5,-54.77"/>
<text text-anchor="middle" x="397.41" y="-109.6" font-family="Times New Roman,serif" font-size="8.00">is</text>
</g>
</g>
</svg>
