<?xml version="1.0" encoding="UTF-8" standalone="no"?>
<!DOCTYPE svg PUBLIC "-//W3C//DTD SVG 1.1//EN"
 "http://www.w3.org/Graphics/SVG/1.1/DTD/svg11.dtd">
<!-- Generated by graphviz version 2.44.1 (20200629.0800)
 -->
<!-- Title: cpgschema Pages: 1 -->
<svg width="178pt" height="134pt"
 viewBox="0.00 0.00 178.00 134.00" xmlns="http://www.w3.org/2000/svg" xmlns:xlink="http://www.w3.org/1999/xlink">
<g id="graph0" class="graph" transform="scale(1 1) rotate(0) translate(4 130)">
<title>cpgschema</title>
<polygon fill="white" stroke="transparent" points="-4,4 -4,-130 174,-130 174,4 -4,4"/>
<!-- TYPE -->
<g id="node1" class="node">
<title>TYPE</title>
<polygon fill="none" stroke="black" points="0,-73.5 0,-125.5 170,-125.5 170,-73.5 0,-73.5"/>
<text text-anchor="start" x="65.5" y="-111.3" font-family="Times New Roman,serif" font-weight="bold" font-size="14.00">TYPE</text>
<text text-anchor="start" x="50" y="-100.5" font-family="Times New Roman,serif" font-size="10.00">NAME: string (1)</text>
<text text-anchor="start" x="36.5" y="-90.5" font-family="Times New Roman,serif" font-size="10.00">FULL_NAME: string (1)</text>
<text text-anchor="start" x="8" y="-80.5" font-family="Times New Roman,serif" font-size="10.00">TYPE_DECL_FULL_NAME: string (1)</text>
</g>
<!-- TYPE_ARGUMENT -->
<g id="node2" class="node">
<title>TYPE_ARGUMENT</title>
<polygon fill="none" stroke="black" points="11.5,-0.5 11.5,-36.5 158.5,-36.5 158.5,-0.5 11.5,-0.5"/>
<text text-anchor="start" x="19.5" y="-20.3" font-family="Times New Roman,serif" font-weight="bold" font-size="14.00">TYPE_ARGUMENT</text>
<text text-anchor="start" x="55.5" y="-9.5" font-family="Times New Roman,serif" font-size="10.00">ORDER: int (1)</text>
</g>
<!-- TYPE&#45;&gt;TYPE_ARGUMENT -->
<g id="edge1" class="edge">
<title>TYPE&#45;&gt;TYPE_ARGUMENT</title>
<path fill="none" stroke="red" d="M85,-73.43C85,-73.43 85,-46.58 85,-46.58"/>
<polygon fill="red" stroke="red" points="88.5,-46.58 85,-36.58 81.5,-46.58 88.5,-46.58"/>
<text text-anchor="middle" x="75.5" y="-62.6" font-family="Times New Roman,serif" font-size="8.00">AST </text>
</g>
</g>
</svg>
