<?xml version="1.0" encoding="UTF-8" standalone="no"?>
<!DOCTYPE svg PUBLIC "-//W3C//DTD SVG 1.1//EN"
 "http://www.w3.org/Graphics/SVG/1.1/DTD/svg11.dtd">
<!-- Generated by graphviz version 2.44.1 (0)
 -->
<!-- Title: cpgschema Pages: 1 -->
<svg width="1971pt" height="191pt"
 viewBox="0.00 0.00 1971.49 191.00" xmlns="http://www.w3.org/2000/svg" xmlns:xlink="http://www.w3.org/1999/xlink">
<g id="graph0" class="graph" transform="scale(1 1) rotate(0) translate(4 187)">
<title>cpgschema</title>
<polygon fill="white" stroke="transparent" points="-4,4 -4,-187 1967.49,-187 1967.49,4 -4,4"/>
<!-- TYPE_REF -->
<g id="node1" class="node">
<title>TYPE_REF</title>
<polygon fill="none" stroke="black" points="850.75,-72.5 850.75,-164.5 1060.75,-164.5 1060.75,-72.5 850.75,-72.5"/>
<text text-anchor="start" x="915.25" y="-150.3" font-family="Times,serif" font-weight="bold" font-size="14.00">TYPE_REF</text>
<text text-anchor="start" x="939.75" y="-139.5" font-family="Times,serif" font-size="10.00">CODE</text>
<text text-anchor="start" x="935.75" y="-129.5" font-family="Times,serif" font-size="10.00">ORDER</text>
<text text-anchor="start" x="902.75" y="-119.5" font-family="Times,serif" font-size="10.00">ARGUMENT_INDEX</text>
<text text-anchor="start" x="904.75" y="-109.5" font-family="Times,serif" font-size="10.00">TYPE_FULL_NAME</text>
<text text-anchor="start" x="858.75" y="-99.5" font-family="Times,serif" font-size="10.00">DYNAMIC_TYPE_HINT_FULL_NAME</text>
<text text-anchor="start" x="914.25" y="-89.5" font-family="Times,serif" font-size="10.00">LINE_NUMBER</text>
<text text-anchor="start" x="902.75" y="-79.5" font-family="Times,serif" font-size="10.00">COLUMN_NUMBER</text>
</g>
<!-- TYPE_REF&#45;&gt;TYPE_REF -->
<g id="edge6" class="edge">
<title>TYPE_REF&#45;&gt;TYPE_REF</title>
<path fill="none" stroke="blue" d="M955.75,-164.69C955.75,-175.03 955.75,-183 955.75,-183 955.75,-183 1077.57,-183 1077.57,-183 1077.57,-183 1077.57,-54 1077.57,-54 1077.57,-54 1036.87,-54 1036.87,-54 1036.87,-54 1036.87,-62.31 1036.87,-62.31"/>
<polygon fill="blue" stroke="blue" points="1033.37,-62.31 1036.87,-72.31 1040.37,-62.31 1033.37,-62.31"/>
<text text-anchor="middle" x="1088.07" y="-166.66" font-family="Times,serif" font-size="8.00">CFG </text>
</g>
<!-- CALL -->
<g id="node2" class="node">
<title>CALL</title>
<ellipse fill="none" stroke="black" cx="35.75" cy="-18" rx="36" ry="18"/>
<text text-anchor="middle" x="35.75" y="-14.3" font-family="Times,serif" font-size="14.00">CALL</text>
</g>
<!-- TYPE_REF&#45;&gt;CALL -->
<g id="edge1" class="edge">
<title>TYPE_REF&#45;&gt;CALL</title>
<path fill="none" stroke="blue" d="M850.66,-149C609.27,-149 35.75,-149 35.75,-149 35.75,-149 35.75,-46.21 35.75,-46.21"/>
<polygon fill="blue" stroke="blue" points="39.25,-46.21 35.75,-36.21 32.25,-46.22 39.25,-46.21"/>
<text text-anchor="middle" x="381.31" y="-151.6" font-family="Times,serif" font-size="8.00">CFG </text>
</g>
<!-- IDENTIFIER -->
<g id="node3" class="node">
<title>IDENTIFIER</title>
<ellipse fill="none" stroke="black" cx="158.75" cy="-18" rx="68.79" ry="18"/>
<text text-anchor="middle" x="158.75" y="-14.3" font-family="Times,serif" font-size="14.00">IDENTIFIER</text>
</g>
<!-- TYPE_REF&#45;&gt;IDENTIFIER -->
<g id="edge2" class="edge">
<title>TYPE_REF&#45;&gt;IDENTIFIER</title>
<path fill="none" stroke="blue" d="M850.73,-134C634.31,-134 158.75,-134 158.75,-134 158.75,-134 158.75,-46.12 158.75,-46.12"/>
<polygon fill="blue" stroke="blue" points="162.25,-46.12 158.75,-36.12 155.25,-46.13 162.25,-46.12"/>
<text text-anchor="middle" x="450.3" y="-136.6" font-family="Times,serif" font-size="8.00">CFG </text>
</g>
<!-- FIELD_IDENTIFIER -->
<g id="node4" class="node">
<title>FIELD_IDENTIFIER</title>
<ellipse fill="none" stroke="black" cx="348.75" cy="-18" rx="102.88" ry="18"/>
<text text-anchor="middle" x="348.75" y="-14.3" font-family="Times,serif" font-size="14.00">FIELD_IDENTIFIER</text>
</g>
<!-- TYPE_REF&#45;&gt;FIELD_IDENTIFIER -->
<g id="edge3" class="edge">
<title>TYPE_REF&#45;&gt;FIELD_IDENTIFIER</title>
<path fill="none" stroke="blue" d="M850.71,-118C676.98,-118 348.75,-118 348.75,-118 348.75,-118 348.75,-46.34 348.75,-46.34"/>
<polygon fill="blue" stroke="blue" points="352.25,-46.34 348.75,-36.34 345.25,-46.34 352.25,-46.34"/>
<text text-anchor="middle" x="553.4" y="-120.6" font-family="Times,serif" font-size="8.00">CFG </text>
</g>
<!-- LITERAL -->
<g id="node5" class="node">
<title>LITERAL</title>
<ellipse fill="none" stroke="black" cx="521.75" cy="-18" rx="51.99" ry="18"/>
<text text-anchor="middle" x="521.75" y="-14.3" font-family="Times,serif" font-size="14.00">LITERAL</text>
</g>
<!-- TYPE_REF&#45;&gt;LITERAL -->
<g id="edge4" class="edge">
<title>TYPE_REF&#45;&gt;LITERAL</title>
<path fill="none" stroke="blue" d="M850.69,-103C722.24,-103 521.75,-103 521.75,-103 521.75,-103 521.75,-46.03 521.75,-46.03"/>
<polygon fill="blue" stroke="blue" points="525.25,-46.03 521.75,-36.03 518.25,-46.03 525.25,-46.03"/>
<text text-anchor="middle" x="647.23" y="-105.6" font-family="Times,serif" font-size="8.00">CFG </text>
</g>
<!-- METHOD_REF -->
<g id="node6" class="node">
<title>METHOD_REF</title>
<ellipse fill="none" stroke="black" cx="670.75" cy="-18" rx="79.09" ry="18"/>
<text text-anchor="middle" x="670.75" y="-14.3" font-family="Times,serif" font-size="14.00">METHOD_REF</text>
</g>
<!-- TYPE_REF&#45;&gt;METHOD_REF -->
<g id="edge5" class="edge">
<title>TYPE_REF&#45;&gt;METHOD_REF</title>
<path fill="none" stroke="blue" d="M850.43,-87C769.25,-87 670.75,-87 670.75,-87 670.75,-87 670.75,-46.13 670.75,-46.13"/>
<polygon fill="blue" stroke="blue" points="674.25,-46.13 670.75,-36.13 667.25,-46.13 674.25,-46.13"/>
<text text-anchor="middle" x="729.65" y="-89.6" font-family="Times,serif" font-size="8.00">CFG </text>
</g>
<!-- METHOD_RETURN -->
<g id="node7" class="node">
<title>METHOD_RETURN</title>
<ellipse fill="none" stroke="black" cx="869.75" cy="-18" rx="101.28" ry="18"/>
<text text-anchor="middle" x="869.75" y="-14.3" font-family="Times,serif" font-size="14.00">METHOD_RETURN</text>
</g>
<!-- TYPE_REF&#45;&gt;METHOD_RETURN -->
<g id="edge7" class="edge">
<title>TYPE_REF&#45;&gt;METHOD_RETURN</title>
<path fill="none" stroke="blue" d="M910.94,-72.37C910.94,-72.37 910.94,-44.8 910.94,-44.8"/>
<polygon fill="blue" stroke="blue" points="914.44,-44.8 910.94,-34.8 907.44,-44.8 914.44,-44.8"/>
<text text-anchor="middle" x="900.44" y="-61.18" font-family="Times,serif" font-size="8.00">CFG </text>
</g>
<!-- RETURN -->
<g id="node8" class="node">
<title>RETURN</title>
<ellipse fill="none" stroke="black" cx="1041.75" cy="-18" rx="52.79" ry="18"/>
<text text-anchor="middle" x="1041.75" y="-14.3" font-family="Times,serif" font-size="14.00">RETURN</text>
</g>
<!-- TYPE_REF&#45;&gt;RETURN -->
<g id="edge8" class="edge">
<title>TYPE_REF&#45;&gt;RETURN</title>
<path fill="none" stroke="blue" d="M1012.98,-72.37C1012.98,-72.37 1012.98,-43.39 1012.98,-43.39"/>
<polygon fill="blue" stroke="blue" points="1016.48,-43.39 1012.98,-33.39 1009.48,-43.39 1016.48,-43.39"/>
<text text-anchor="middle" x="1002.48" y="-60.48" font-family="Times,serif" font-size="8.00">CFG </text>
</g>
<!-- BLOCK -->
<g id="node9" class="node">
<title>BLOCK</title>
<ellipse fill="none" stroke="black" cx="1156.75" cy="-18" rx="44.39" ry="18"/>
<text text-anchor="middle" x="1156.75" y="-14.3" font-family="Times,serif" font-size="14.00">BLOCK</text>
</g>
<!-- TYPE_REF&#45;&gt;BLOCK -->
<g id="edge9" class="edge">
<title>TYPE_REF&#45;&gt;BLOCK</title>
<path fill="none" stroke="blue" d="M1060.96,-87C1109.59,-87 1156.75,-87 1156.75,-87 1156.75,-87 1156.75,-46.13 1156.75,-46.13"/>
<polygon fill="blue" stroke="blue" points="1160.25,-46.13 1156.75,-36.13 1153.25,-46.13 1160.25,-46.13"/>
<text text-anchor="middle" x="1118.79" y="-89.6" font-family="Times,serif" font-size="8.00">CFG </text>
</g>
<!-- JUMP_TARGET -->
<g id="node10" class="node">
<title>JUMP_TARGET</title>
<ellipse fill="none" stroke="black" cx="1299.75" cy="-18" rx="80.69" ry="18"/>
<text text-anchor="middle" x="1299.75" y="-14.3" font-family="Times,serif" font-size="14.00">JUMP_TARGET</text>
</g>
<!-- TYPE_REF&#45;&gt;JUMP_TARGET -->
<g id="edge10" class="edge">
<title>TYPE_REF&#45;&gt;JUMP_TARGET</title>
<path fill="none" stroke="blue" d="M1060.83,-103C1161.99,-103 1299.75,-103 1299.75,-103 1299.75,-103 1299.75,-46.03 1299.75,-46.03"/>
<polygon fill="blue" stroke="blue" points="1303.25,-46.03 1299.75,-36.03 1296.25,-46.03 1303.25,-46.03"/>
<text text-anchor="middle" x="1198.27" y="-105.6" font-family="Times,serif" font-size="8.00">CFG </text>
</g>
<!-- CONTROL_STRUCTURE -->
<g id="node11" class="node">
<title>CONTROL_STRUCTURE</title>
<ellipse fill="none" stroke="black" cx="1522.75" cy="-18" rx="124.28" ry="18"/>
<text text-anchor="middle" x="1522.75" y="-14.3" font-family="Times,serif" font-size="14.00">CONTROL_STRUCTURE</text>
</g>
<!-- TYPE_REF&#45;&gt;CONTROL_STRUCTURE -->
<g id="edge11" class="edge">
<title>TYPE_REF&#45;&gt;CONTROL_STRUCTURE</title>
<path fill="none" stroke="blue" d="M1061.07,-118C1225.04,-118 1522.75,-118 1522.75,-118 1522.75,-118 1522.75,-46.34 1522.75,-46.34"/>
<polygon fill="blue" stroke="blue" points="1526.25,-46.34 1522.75,-36.34 1519.25,-46.34 1526.25,-46.34"/>
<text text-anchor="middle" x="1317.24" y="-120.6" font-family="Times,serif" font-size="8.00">CFG </text>
</g>
<!-- UNKNOWN -->
<g id="node12" class="node">
<title>UNKNOWN</title>
<ellipse fill="none" stroke="black" cx="1730.75" cy="-18" rx="65.79" ry="18"/>
<text text-anchor="middle" x="1730.75" y="-14.3" font-family="Times,serif" font-size="14.00">UNKNOWN</text>
</g>
<!-- TYPE_REF&#45;&gt;UNKNOWN -->
<g id="edge12" class="edge">
<title>TYPE_REF&#45;&gt;UNKNOWN</title>
<path fill="none" stroke="blue" d="M1061.07,-134C1272.97,-134 1730.75,-134 1730.75,-134 1730.75,-134 1730.75,-46.12 1730.75,-46.12"/>
<polygon fill="blue" stroke="blue" points="1734.25,-46.12 1730.75,-36.12 1727.25,-46.13 1734.25,-46.12"/>
<text text-anchor="middle" x="1429.35" y="-136.6" font-family="Times,serif" font-size="8.00">CFG </text>
</g>
<!-- EXPRESSION -->
<g id="node13" class="node">
<title>EXPRESSION</title>
<ellipse fill="none" stroke="black" cx="1888.75" cy="-18" rx="74.99" ry="18"/>
<text text-anchor="middle" x="1888.75" y="-14.3" font-family="Times,serif" font-size="14.00">EXPRESSION</text>
</g>
<!-- TYPE_REF&#45;&gt;EXPRESSION -->
<g id="edge13" class="edge">
<title>TYPE_REF&#45;&gt;EXPRESSION</title>
<path fill="none" stroke="gray" d="M1060.96,-149C1304.96,-149 1888.75,-149 1888.75,-149 1888.75,-149 1888.75,-46.21 1888.75,-46.21"/>
<polygon fill="none" stroke="gray" points="1892.25,-46.21 1888.75,-36.21 1885.25,-46.22 1892.25,-46.21"/>
<text text-anchor="middle" x="1522.75" y="-151.6" font-family="Times,serif" font-size="8.00">is</text>
</g>
</g>
</svg>
