<?xml version="1.0" encoding="UTF-8" standalone="no"?>
<!DOCTYPE svg PUBLIC "-//W3C//DTD SVG 1.1//EN"
 "http://www.w3.org/Graphics/SVG/1.1/DTD/svg11.dtd">
<!-- Generated by graphviz version 2.44.1 (20200629.0800)
 -->
<!-- Title: cpgschema Pages: 1 -->
<svg width="3133pt" height="317pt"
 viewBox="0.00 0.00 3132.50 316.60" xmlns="http://www.w3.org/2000/svg" xmlns:xlink="http://www.w3.org/1999/xlink">
<g id="graph0" class="graph" transform="scale(1 1) rotate(0) translate(4 312.6)">
<title>cpgschema</title>
<polygon fill="white" stroke="transparent" points="-4,4 -4,-312.6 3128.5,-312.6 3128.5,4 -4,4"/>
<!-- UNKNOWN -->
<g id="node1" class="node">
<title>UNKNOWN</title>
<polygon fill="none" stroke="black" points="1499.5,-179.5 1499.5,-281.5 1726.5,-281.5 1726.5,-179.5 1499.5,-179.5"/>
<text text-anchor="start" x="1574" y="-267.3" font-family="Times New Roman,serif" font-weight="bold" font-size="14.00">UNKNOWN</text>
<text text-anchor="start" x="1580" y="-256.5" font-family="Times New Roman,serif" font-size="10.00">CODE: string (1)</text>
<text text-anchor="start" x="1544" y="-246.5" font-family="Times New Roman,serif" font-size="10.00">PARSER_TYPE_NAME: string (1)</text>
<text text-anchor="start" x="1583.5" y="-236.5" font-family="Times New Roman,serif" font-size="10.00">ORDER: int (1)</text>
<text text-anchor="start" x="1555.5" y="-226.5" font-family="Times New Roman,serif" font-size="10.00">ARGUMENT_INDEX: int (1)</text>
<text text-anchor="start" x="1550.5" y="-216.5" font-family="Times New Roman,serif" font-size="10.00">TYPE_FULL_NAME: string (1)</text>
<text text-anchor="start" x="1507.5" y="-206.5" font-family="Times New Roman,serif" font-size="10.00">DYNAMIC_TYPE_HINT_FULL_NAME: string (0:n)</text>
<text text-anchor="start" x="1563" y="-196.5" font-family="Times New Roman,serif" font-size="10.00">LINE_NUMBER: int (0:1)</text>
<text text-anchor="start" x="1552.5" y="-186.5" font-family="Times New Roman,serif" font-size="10.00">COLUMN_NUMBER: int (0:1)</text>
</g>
<!-- UNKNOWN&#45;&gt;UNKNOWN -->
<g id="edge11" class="edge">
<title>UNKNOWN&#45;&gt;UNKNOWN</title>
<path fill="none" stroke="blue" d="M1650.83,-281.7C1650.83,-295.16 1650.83,-306 1650.83,-306 1650.83,-306 1415.5,-306 1415.5,-306 1415.5,-306 1415.5,-155 1415.5,-155 1415.5,-155 1522.64,-155 1522.64,-155 1522.64,-155 1522.64,-169.3 1522.64,-169.3"/>
<polygon fill="blue" stroke="blue" points="1519.14,-169.3 1522.64,-179.3 1526.14,-169.3 1519.14,-169.3"/>
<text text-anchor="middle" x="1406.5" y="-302.2" font-family="Times New Roman,serif" font-size="8.00">CFG </text>
</g>
<!-- UNKNOWN&#45;&gt;UNKNOWN -->
<g id="edge23" class="edge">
<title>UNKNOWN&#45;&gt;UNKNOWN</title>
<path fill="none" stroke="red" d="M1575.17,-281.76C1575.17,-288.98 1575.17,-294 1575.17,-294 1575.17,-294 1457.5,-294 1457.5,-294 1457.5,-294 1457.5,-167 1457.5,-167 1457.5,-167 1518.79,-167 1518.79,-167 1518.79,-167 1518.79,-169.24 1518.79,-169.24"/>
<polygon fill="red" stroke="red" points="1515.29,-169.24 1518.79,-179.24 1522.29,-169.24 1515.29,-169.24"/>
<text text-anchor="middle" x="1448" y="-266.29" font-family="Times New Roman,serif" font-size="8.00">AST </text>
</g>
<!-- MODIFIER -->
<g id="node2" class="node">
<title>MODIFIER</title>
<polygon fill="none" stroke="black" points="0,-50.5 0,-92.5 130,-92.5 130,-50.5 0,-50.5"/>
<text text-anchor="start" x="27" y="-78.3" font-family="Times New Roman,serif" font-weight="bold" font-size="14.00">MODIFIER</text>
<text text-anchor="start" x="8" y="-67.5" font-family="Times New Roman,serif" font-size="10.00">MODIFIER_TYPE: string (1)</text>
<text text-anchor="start" x="35.5" y="-57.5" font-family="Times New Roman,serif" font-size="10.00">ORDER: int (1)</text>
</g>
<!-- UNKNOWN&#45;&gt;MODIFIER -->
<g id="edge14" class="edge">
<title>UNKNOWN&#45;&gt;MODIFIER</title>
<path fill="none" stroke="red" d="M1499.49,-269C1142.31,-269 65,-269 65,-269 65,-269 65,-102.64 65,-102.64"/>
<polygon fill="red" stroke="red" points="68.5,-102.64 65,-92.64 61.5,-102.64 68.5,-102.64"/>
<text text-anchor="middle" x="689.56" y="-271.6" font-family="Times New Roman,serif" font-size="8.00">AST </text>
</g>
<!-- MEMBER -->
<g id="node3" class="node">
<title>MEMBER</title>
<polygon fill="none" stroke="black" points="148.5,-35.5 148.5,-107.5 375.5,-107.5 375.5,-35.5 148.5,-35.5"/>
<text text-anchor="start" x="228.5" y="-93.3" font-family="Times New Roman,serif" font-weight="bold" font-size="14.00">MEMBER</text>
<text text-anchor="start" x="229" y="-82.5" font-family="Times New Roman,serif" font-size="10.00">CODE: string (1)</text>
<text text-anchor="start" x="227" y="-72.5" font-family="Times New Roman,serif" font-size="10.00">NAME: string (1)</text>
<text text-anchor="start" x="199.5" y="-62.5" font-family="Times New Roman,serif" font-size="10.00">TYPE_FULL_NAME: string (1)</text>
<text text-anchor="start" x="156.5" y="-52.5" font-family="Times New Roman,serif" font-size="10.00">DYNAMIC_TYPE_HINT_FULL_NAME: string (0:n)</text>
<text text-anchor="start" x="232.5" y="-42.5" font-family="Times New Roman,serif" font-size="10.00">ORDER: int (1)</text>
</g>
<!-- UNKNOWN&#45;&gt;MEMBER -->
<g id="edge13" class="edge">
<title>UNKNOWN&#45;&gt;MEMBER</title>
<path fill="none" stroke="red" d="M1499.27,-256C1173.81,-256 262,-256 262,-256 262,-256 262,-117.51 262,-117.51"/>
<polygon fill="red" stroke="red" points="265.5,-117.51 262,-107.51 258.5,-117.51 265.5,-117.51"/>
<text text-anchor="middle" x="801.89" y="-258.6" font-family="Times New Roman,serif" font-size="8.00">AST </text>
</g>
<!-- LITERAL -->
<g id="node4" class="node">
<title>LITERAL</title>
<polygon fill="none" stroke="black" points="393.5,-25.5 393.5,-117.5 620.5,-117.5 620.5,-25.5 393.5,-25.5"/>
<text text-anchor="start" x="475" y="-103.3" font-family="Times New Roman,serif" font-weight="bold" font-size="14.00">LITERAL</text>
<text text-anchor="start" x="474" y="-92.5" font-family="Times New Roman,serif" font-size="10.00">CODE: string (1)</text>
<text text-anchor="start" x="477.5" y="-82.5" font-family="Times New Roman,serif" font-size="10.00">ORDER: int (1)</text>
<text text-anchor="start" x="449.5" y="-72.5" font-family="Times New Roman,serif" font-size="10.00">ARGUMENT_INDEX: int (1)</text>
<text text-anchor="start" x="444.5" y="-62.5" font-family="Times New Roman,serif" font-size="10.00">TYPE_FULL_NAME: string (1)</text>
<text text-anchor="start" x="401.5" y="-52.5" font-family="Times New Roman,serif" font-size="10.00">DYNAMIC_TYPE_HINT_FULL_NAME: string (0:n)</text>
<text text-anchor="start" x="457" y="-42.5" font-family="Times New Roman,serif" font-size="10.00">LINE_NUMBER: int (0:1)</text>
<text text-anchor="start" x="446.5" y="-32.5" font-family="Times New Roman,serif" font-size="10.00">COLUMN_NUMBER: int (0:1)</text>
</g>
<!-- UNKNOWN&#45;&gt;LITERAL -->
<g id="edge4" class="edge">
<title>UNKNOWN&#45;&gt;LITERAL</title>
<path fill="none" stroke="blue" d="M1499.41,-243C1210.27,-243 469.17,-243 469.17,-243 469.17,-243 469.17,-127.91 469.17,-127.91"/>
<polygon fill="blue" stroke="blue" points="472.67,-127.91 469.17,-117.91 465.67,-127.91 472.67,-127.91"/>
<text text-anchor="middle" x="917.74" y="-245.6" font-family="Times New Roman,serif" font-size="8.00">CFG </text>
</g>
<!-- UNKNOWN&#45;&gt;LITERAL -->
<g id="edge12" class="edge">
<title>UNKNOWN&#45;&gt;LITERAL</title>
<path fill="none" stroke="red" d="M1499.45,-230C1224.38,-230 544.83,-230 544.83,-230 544.83,-230 544.83,-127.77 544.83,-127.77"/>
<polygon fill="red" stroke="red" points="548.33,-127.77 544.83,-117.77 541.33,-127.77 548.33,-127.77"/>
<text text-anchor="middle" x="961.53" y="-232.6" font-family="Times New Roman,serif" font-size="8.00">AST </text>
</g>
<!-- CALL -->
<g id="node5" class="node">
<title>CALL</title>
<polygon fill="none" stroke="black" points="638.5,-0.5 638.5,-142.5 865.5,-142.5 865.5,-0.5 638.5,-0.5"/>
<text text-anchor="start" x="732.5" y="-128.3" font-family="Times New Roman,serif" font-weight="bold" font-size="14.00">CALL</text>
<text text-anchor="start" x="719" y="-117.5" font-family="Times New Roman,serif" font-size="10.00">CODE: string (1)</text>
<text text-anchor="start" x="717" y="-107.5" font-family="Times New Roman,serif" font-size="10.00">NAME: string (1)</text>
<text text-anchor="start" x="722.5" y="-97.5" font-family="Times New Roman,serif" font-size="10.00">ORDER: int (1)</text>
<text text-anchor="start" x="664" y="-87.5" font-family="Times New Roman,serif" font-size="10.00">METHOD_INST_FULL_NAME: string (0:1)</text>
<text text-anchor="start" x="680.5" y="-77.5" font-family="Times New Roman,serif" font-size="10.00">METHOD_FULL_NAME: string (1)</text>
<text text-anchor="start" x="694.5" y="-67.5" font-family="Times New Roman,serif" font-size="10.00">ARGUMENT_INDEX: int (1)</text>
<text text-anchor="start" x="694.5" y="-57.5" font-family="Times New Roman,serif" font-size="10.00">DISPATCH_TYPE: string (1)</text>
<text text-anchor="start" x="705" y="-47.5" font-family="Times New Roman,serif" font-size="10.00">SIGNATURE: string (1)</text>
<text text-anchor="start" x="689.5" y="-37.5" font-family="Times New Roman,serif" font-size="10.00">TYPE_FULL_NAME: string (1)</text>
<text text-anchor="start" x="646.5" y="-27.5" font-family="Times New Roman,serif" font-size="10.00">DYNAMIC_TYPE_HINT_FULL_NAME: string (0:n)</text>
<text text-anchor="start" x="702" y="-17.5" font-family="Times New Roman,serif" font-size="10.00">LINE_NUMBER: int (0:1)</text>
<text text-anchor="start" x="691.5" y="-7.5" font-family="Times New Roman,serif" font-size="10.00">COLUMN_NUMBER: int (0:1)</text>
</g>
<!-- UNKNOWN&#45;&gt;CALL -->
<g id="edge1" class="edge">
<title>UNKNOWN&#45;&gt;CALL</title>
<path fill="none" stroke="blue" d="M1507.21,-179.47C1507.21,-155.88 1507.21,-133 1507.21,-133 1507.21,-133 875.88,-133 875.88,-133"/>
<polygon fill="blue" stroke="blue" points="875.88,-129.5 865.88,-133 875.88,-136.5 875.88,-129.5"/>
<text text-anchor="middle" x="1205.78" y="-126.6" font-family="Times New Roman,serif" font-size="8.00">CFG </text>
</g>
<!-- UNKNOWN&#45;&gt;CALL -->
<g id="edge16" class="edge">
<title>UNKNOWN&#45;&gt;CALL</title>
<path fill="none" stroke="red" d="M1503.36,-179.38C1503.36,-157.99 1503.36,-138 1503.36,-138 1503.36,-138 875.71,-138 875.71,-138"/>
<polygon fill="red" stroke="red" points="875.71,-134.5 865.71,-138 875.71,-141.5 875.71,-134.5"/>
<text text-anchor="middle" x="1200.72" y="-140.6" font-family="Times New Roman,serif" font-size="8.00">AST </text>
</g>
<!-- LOCAL -->
<g id="node6" class="node">
<title>LOCAL</title>
<polygon fill="none" stroke="black" points="883.5,-20.5 883.5,-122.5 1110.5,-122.5 1110.5,-20.5 883.5,-20.5"/>
<text text-anchor="start" x="972" y="-108.3" font-family="Times New Roman,serif" font-weight="bold" font-size="14.00">LOCAL</text>
<text text-anchor="start" x="964" y="-97.5" font-family="Times New Roman,serif" font-size="10.00">CODE: string (1)</text>
<text text-anchor="start" x="962" y="-87.5" font-family="Times New Roman,serif" font-size="10.00">NAME: string (1)</text>
<text text-anchor="start" x="945.5" y="-77.5" font-family="Times New Roman,serif" font-size="10.00">CLOSURE_BINDING_ID </text>
<text text-anchor="start" x="934.5" y="-67.5" font-family="Times New Roman,serif" font-size="10.00">TYPE_FULL_NAME: string (1)</text>
<text text-anchor="start" x="891.5" y="-57.5" font-family="Times New Roman,serif" font-size="10.00">DYNAMIC_TYPE_HINT_FULL_NAME: string (0:n)</text>
<text text-anchor="start" x="947" y="-47.5" font-family="Times New Roman,serif" font-size="10.00">LINE_NUMBER: int (0:1)</text>
<text text-anchor="start" x="936.5" y="-37.5" font-family="Times New Roman,serif" font-size="10.00">COLUMN_NUMBER: int (0:1)</text>
<text text-anchor="start" x="967.5" y="-27.5" font-family="Times New Roman,serif" font-size="10.00">ORDER: int (1)</text>
</g>
<!-- UNKNOWN&#45;&gt;LOCAL -->
<g id="edge17" class="edge">
<title>UNKNOWN&#45;&gt;LOCAL</title>
<path fill="none" stroke="red" d="M1499.3,-217C1321.31,-217 997,-217 997,-217 997,-217 997,-132.8 997,-132.8"/>
<polygon fill="red" stroke="red" points="1000.5,-132.8 997,-122.8 993.5,-132.8 1000.5,-132.8"/>
<text text-anchor="middle" x="1196.55" y="-219.6" font-family="Times New Roman,serif" font-size="8.00">AST </text>
</g>
<!-- IDENTIFIER -->
<g id="node7" class="node">
<title>IDENTIFIER</title>
<polygon fill="none" stroke="black" points="1128.5,-20.5 1128.5,-122.5 1355.5,-122.5 1355.5,-20.5 1128.5,-20.5"/>
<text text-anchor="start" x="1199" y="-108.3" font-family="Times New Roman,serif" font-weight="bold" font-size="14.00">IDENTIFIER</text>
<text text-anchor="start" x="1209" y="-97.5" font-family="Times New Roman,serif" font-size="10.00">CODE: string (1)</text>
<text text-anchor="start" x="1207" y="-87.5" font-family="Times New Roman,serif" font-size="10.00">NAME: string (1)</text>
<text text-anchor="start" x="1212.5" y="-77.5" font-family="Times New Roman,serif" font-size="10.00">ORDER: int (1)</text>
<text text-anchor="start" x="1184.5" y="-67.5" font-family="Times New Roman,serif" font-size="10.00">ARGUMENT_INDEX: int (1)</text>
<text text-anchor="start" x="1179.5" y="-57.5" font-family="Times New Roman,serif" font-size="10.00">TYPE_FULL_NAME: string (1)</text>
<text text-anchor="start" x="1136.5" y="-47.5" font-family="Times New Roman,serif" font-size="10.00">DYNAMIC_TYPE_HINT_FULL_NAME: string (0:n)</text>
<text text-anchor="start" x="1192" y="-37.5" font-family="Times New Roman,serif" font-size="10.00">LINE_NUMBER: int (0:1)</text>
<text text-anchor="start" x="1181.5" y="-27.5" font-family="Times New Roman,serif" font-size="10.00">COLUMN_NUMBER: int (0:1)</text>
</g>
<!-- UNKNOWN&#45;&gt;IDENTIFIER -->
<g id="edge2" class="edge">
<title>UNKNOWN&#45;&gt;IDENTIFIER</title>
<path fill="none" stroke="blue" d="M1499.39,-204C1378.41,-204 1204.17,-204 1204.17,-204 1204.17,-204 1204.17,-132.73 1204.17,-132.73"/>
<polygon fill="blue" stroke="blue" points="1207.67,-132.73 1204.17,-122.73 1200.67,-132.73 1207.67,-132.73"/>
<text text-anchor="middle" x="1307.14" y="-206.6" font-family="Times New Roman,serif" font-size="8.00">CFG </text>
</g>
<!-- UNKNOWN&#45;&gt;IDENTIFIER -->
<g id="edge18" class="edge">
<title>UNKNOWN&#45;&gt;IDENTIFIER</title>
<path fill="none" stroke="red" d="M1499.27,-191C1402.76,-191 1279.83,-191 1279.83,-191 1279.83,-191 1279.83,-132.53 1279.83,-132.53"/>
<polygon fill="red" stroke="red" points="1283.33,-132.53 1279.83,-122.53 1276.33,-132.53 1283.33,-132.53"/>
<text text-anchor="middle" x="1350.82" y="-193.6" font-family="Times New Roman,serif" font-size="8.00">AST </text>
</g>
<!-- FIELD_IDENTIFIER -->
<g id="node8" class="node">
<title>FIELD_IDENTIFIER</title>
<polygon fill="none" stroke="black" points="1373.5,-30.5 1373.5,-112.5 1526.5,-112.5 1526.5,-30.5 1373.5,-30.5"/>
<text text-anchor="start" x="1381.5" y="-98.3" font-family="Times New Roman,serif" font-weight="bold" font-size="14.00">FIELD_IDENTIFIER</text>
<text text-anchor="start" x="1417" y="-87.5" font-family="Times New Roman,serif" font-size="10.00">CODE: string (1)</text>
<text text-anchor="start" x="1385" y="-77.5" font-family="Times New Roman,serif" font-size="10.00">CANONICAL_NAME: string (1)</text>
<text text-anchor="start" x="1420.5" y="-67.5" font-family="Times New Roman,serif" font-size="10.00">ORDER: int (1)</text>
<text text-anchor="start" x="1392.5" y="-57.5" font-family="Times New Roman,serif" font-size="10.00">ARGUMENT_INDEX: int (1)</text>
<text text-anchor="start" x="1400" y="-47.5" font-family="Times New Roman,serif" font-size="10.00">LINE_NUMBER: int (0:1)</text>
<text text-anchor="start" x="1389.5" y="-37.5" font-family="Times New Roman,serif" font-size="10.00">COLUMN_NUMBER: int (0:1)</text>
</g>
<!-- UNKNOWN&#45;&gt;FIELD_IDENTIFIER -->
<g id="edge3" class="edge">
<title>UNKNOWN&#45;&gt;FIELD_IDENTIFIER</title>
<path fill="none" stroke="blue" d="M1514.93,-179.32C1514.93,-179.32 1514.93,-122.52 1514.93,-122.52"/>
<polygon fill="blue" stroke="blue" points="1518.43,-122.52 1514.93,-112.52 1511.43,-122.52 1518.43,-122.52"/>
<text text-anchor="middle" x="1505.93" y="-153.52" font-family="Times New Roman,serif" font-size="8.00">CFG </text>
</g>
<!-- UNKNOWN&#45;&gt;FIELD_IDENTIFIER -->
<g id="edge19" class="edge">
<title>UNKNOWN&#45;&gt;FIELD_IDENTIFIER</title>
<path fill="none" stroke="red" d="M1511.07,-179.32C1511.07,-179.32 1511.07,-122.52 1511.07,-122.52"/>
<polygon fill="red" stroke="red" points="1514.57,-122.52 1511.07,-112.52 1507.57,-122.52 1514.57,-122.52"/>
<text text-anchor="middle" x="1501.57" y="-144.52" font-family="Times New Roman,serif" font-size="8.00">AST </text>
</g>
<!-- RETURN -->
<g id="node9" class="node">
<title>RETURN</title>
<polygon fill="none" stroke="black" points="1544.5,-35.5 1544.5,-107.5 1681.5,-107.5 1681.5,-35.5 1544.5,-35.5"/>
<text text-anchor="start" x="1582.5" y="-93.3" font-family="Times New Roman,serif" font-weight="bold" font-size="14.00">RETURN</text>
<text text-anchor="start" x="1563" y="-82.5" font-family="Times New Roman,serif" font-size="10.00">LINE_NUMBER: int (0:1)</text>
<text text-anchor="start" x="1552.5" y="-72.5" font-family="Times New Roman,serif" font-size="10.00">COLUMN_NUMBER: int (0:1)</text>
<text text-anchor="start" x="1583.5" y="-62.5" font-family="Times New Roman,serif" font-size="10.00">ORDER: int (1)</text>
<text text-anchor="start" x="1555.5" y="-52.5" font-family="Times New Roman,serif" font-size="10.00">ARGUMENT_INDEX: int (1)</text>
<text text-anchor="start" x="1580" y="-42.5" font-family="Times New Roman,serif" font-size="10.00">CODE: string (1)</text>
</g>
<!-- UNKNOWN&#45;&gt;RETURN -->
<g id="edge5" class="edge">
<title>UNKNOWN&#45;&gt;RETURN</title>
<path fill="none" stroke="blue" d="M1590.17,-179.32C1590.17,-179.32 1590.17,-117.98 1590.17,-117.98"/>
<polygon fill="blue" stroke="blue" points="1593.67,-117.98 1590.17,-107.98 1586.67,-117.98 1593.67,-117.98"/>
<text text-anchor="middle" x="1581.17" y="-151.25" font-family="Times New Roman,serif" font-size="8.00">CFG </text>
</g>
<!-- UNKNOWN&#45;&gt;RETURN -->
<g id="edge20" class="edge">
<title>UNKNOWN&#45;&gt;RETURN</title>
<path fill="none" stroke="red" d="M1635.83,-179.32C1635.83,-179.32 1635.83,-117.98 1635.83,-117.98"/>
<polygon fill="red" stroke="red" points="1639.33,-117.98 1635.83,-107.98 1632.33,-117.98 1639.33,-117.98"/>
<text text-anchor="middle" x="1626.33" y="-151.25" font-family="Times New Roman,serif" font-size="8.00">AST </text>
</g>
<!-- BLOCK -->
<g id="node10" class="node">
<title>BLOCK</title>
<polygon fill="none" stroke="black" points="1699.5,-25.5 1699.5,-117.5 1926.5,-117.5 1926.5,-25.5 1699.5,-25.5"/>
<text text-anchor="start" x="1787" y="-103.3" font-family="Times New Roman,serif" font-weight="bold" font-size="14.00">BLOCK</text>
<text text-anchor="start" x="1780" y="-92.5" font-family="Times New Roman,serif" font-size="10.00">CODE: string (1)</text>
<text text-anchor="start" x="1783.5" y="-82.5" font-family="Times New Roman,serif" font-size="10.00">ORDER: int (1)</text>
<text text-anchor="start" x="1755.5" y="-72.5" font-family="Times New Roman,serif" font-size="10.00">ARGUMENT_INDEX: int (1)</text>
<text text-anchor="start" x="1750.5" y="-62.5" font-family="Times New Roman,serif" font-size="10.00">TYPE_FULL_NAME: string (1)</text>
<text text-anchor="start" x="1707.5" y="-52.5" font-family="Times New Roman,serif" font-size="10.00">DYNAMIC_TYPE_HINT_FULL_NAME: string (0:n)</text>
<text text-anchor="start" x="1763" y="-42.5" font-family="Times New Roman,serif" font-size="10.00">LINE_NUMBER: int (0:1)</text>
<text text-anchor="start" x="1752.5" y="-32.5" font-family="Times New Roman,serif" font-size="10.00">COLUMN_NUMBER: int (0:1)</text>
</g>
<!-- UNKNOWN&#45;&gt;BLOCK -->
<g id="edge8" class="edge">
<title>UNKNOWN&#45;&gt;BLOCK</title>
<path fill="none" stroke="blue" d="M1717.5,-179.32C1717.5,-179.32 1717.5,-127.75 1717.5,-127.75"/>
<polygon fill="blue" stroke="blue" points="1721,-127.75 1717.5,-117.75 1714,-127.75 1721,-127.75"/>
<text text-anchor="middle" x="1708.5" y="-156.13" font-family="Times New Roman,serif" font-size="8.00">CFG </text>
</g>
<!-- UNKNOWN&#45;&gt;BLOCK -->
<g id="edge21" class="edge">
<title>UNKNOWN&#45;&gt;BLOCK</title>
<path fill="none" stroke="red" d="M1708.5,-179.32C1708.5,-179.32 1708.5,-127.75 1708.5,-127.75"/>
<polygon fill="red" stroke="red" points="1712,-127.75 1708.5,-117.75 1705,-127.75 1712,-127.75"/>
<text text-anchor="middle" x="1699" y="-147.13" font-family="Times New Roman,serif" font-size="8.00">AST </text>
</g>
<!-- ARRAY_INITIALIZER -->
<g id="node11" class="node">
<title>ARRAY_INITIALIZER</title>
<polygon fill="none" stroke="black" points="1945,-53.5 1945,-89.5 2109,-89.5 2109,-53.5 1945,-53.5"/>
<text text-anchor="start" x="1953" y="-68.8" font-family="Times New Roman,serif" font-weight="bold" font-size="14.00">ARRAY_INITIALIZER</text>
</g>
<!-- UNKNOWN&#45;&gt;ARRAY_INITIALIZER -->
<g id="edge15" class="edge">
<title>UNKNOWN&#45;&gt;ARRAY_INITIALIZER</title>
<path fill="none" stroke="red" d="M1726.67,-190C1849.24,-190 2027,-190 2027,-190 2027,-190 2027,-99.76 2027,-99.76"/>
<polygon fill="red" stroke="red" points="2030.5,-99.76 2027,-89.76 2023.5,-99.76 2030.5,-99.76"/>
<text text-anchor="middle" x="1912.46" y="-192.6" font-family="Times New Roman,serif" font-size="8.00">AST </text>
</g>
<!-- METHOD_REF -->
<g id="node12" class="node">
<title>METHOD_REF</title>
<polygon fill="none" stroke="black" points="2127.5,-15.5 2127.5,-127.5 2354.5,-127.5 2354.5,-15.5 2127.5,-15.5"/>
<text text-anchor="start" x="2189.5" y="-113.3" font-family="Times New Roman,serif" font-weight="bold" font-size="14.00">METHOD_REF</text>
<text text-anchor="start" x="2208" y="-102.5" font-family="Times New Roman,serif" font-size="10.00">CODE: string (1)</text>
<text text-anchor="start" x="2211.5" y="-92.5" font-family="Times New Roman,serif" font-size="10.00">ORDER: int (1)</text>
<text text-anchor="start" x="2183.5" y="-82.5" font-family="Times New Roman,serif" font-size="10.00">ARGUMENT_INDEX: int (1)</text>
<text text-anchor="start" x="2178.5" y="-72.5" font-family="Times New Roman,serif" font-size="10.00">TYPE_FULL_NAME: string (1)</text>
<text text-anchor="start" x="2135.5" y="-62.5" font-family="Times New Roman,serif" font-size="10.00">DYNAMIC_TYPE_HINT_FULL_NAME: string (0:n)</text>
<text text-anchor="start" x="2153" y="-52.5" font-family="Times New Roman,serif" font-size="10.00">METHOD_INST_FULL_NAME: string (0:1)</text>
<text text-anchor="start" x="2169.5" y="-42.5" font-family="Times New Roman,serif" font-size="10.00">METHOD_FULL_NAME: string (1)</text>
<text text-anchor="start" x="2191" y="-32.5" font-family="Times New Roman,serif" font-size="10.00">LINE_NUMBER: int (0:1)</text>
<text text-anchor="start" x="2180.5" y="-22.5" font-family="Times New Roman,serif" font-size="10.00">COLUMN_NUMBER: int (0:1)</text>
</g>
<!-- UNKNOWN&#45;&gt;METHOD_REF -->
<g id="edge6" class="edge">
<title>UNKNOWN&#45;&gt;METHOD_REF</title>
<path fill="none" stroke="blue" d="M1726.73,-201C1907.7,-201 2241,-201 2241,-201 2241,-201 2241,-137.55 2241,-137.55"/>
<polygon fill="blue" stroke="blue" points="2244.5,-137.55 2241,-127.55 2237.5,-137.55 2244.5,-137.55"/>
<text text-anchor="middle" x="2006.59" y="-203.6" font-family="Times New Roman,serif" font-size="8.00">CFG </text>
</g>
<!-- TYPE_REF -->
<g id="node13" class="node">
<title>TYPE_REF</title>
<polygon fill="none" stroke="black" points="2372.5,-25.5 2372.5,-117.5 2599.5,-117.5 2599.5,-25.5 2372.5,-25.5"/>
<text text-anchor="start" x="2448" y="-103.3" font-family="Times New Roman,serif" font-weight="bold" font-size="14.00">TYPE_REF</text>
<text text-anchor="start" x="2453" y="-92.5" font-family="Times New Roman,serif" font-size="10.00">CODE: string (1)</text>
<text text-anchor="start" x="2456.5" y="-82.5" font-family="Times New Roman,serif" font-size="10.00">ORDER: int (1)</text>
<text text-anchor="start" x="2428.5" y="-72.5" font-family="Times New Roman,serif" font-size="10.00">ARGUMENT_INDEX: int (1)</text>
<text text-anchor="start" x="2423.5" y="-62.5" font-family="Times New Roman,serif" font-size="10.00">TYPE_FULL_NAME: string (1)</text>
<text text-anchor="start" x="2380.5" y="-52.5" font-family="Times New Roman,serif" font-size="10.00">DYNAMIC_TYPE_HINT_FULL_NAME: string (0:n)</text>
<text text-anchor="start" x="2436" y="-42.5" font-family="Times New Roman,serif" font-size="10.00">LINE_NUMBER: int (0:1)</text>
<text text-anchor="start" x="2425.5" y="-32.5" font-family="Times New Roman,serif" font-size="10.00">COLUMN_NUMBER: int (0:1)</text>
</g>
<!-- UNKNOWN&#45;&gt;TYPE_REF -->
<g id="edge7" class="edge">
<title>UNKNOWN&#45;&gt;TYPE_REF</title>
<path fill="none" stroke="blue" d="M1726.68,-213C1963.11,-213 2486,-213 2486,-213 2486,-213 2486,-127.83 2486,-127.83"/>
<polygon fill="blue" stroke="blue" points="2489.5,-127.83 2486,-117.83 2482.5,-127.83 2489.5,-127.83"/>
<text text-anchor="middle" x="2139.92" y="-215.6" font-family="Times New Roman,serif" font-size="8.00">CFG </text>
</g>
<!-- CONTROL_STRUCTURE -->
<g id="node14" class="node">
<title>CONTROL_STRUCTURE</title>
<polygon fill="none" stroke="black" points="2617.5,-30.5 2617.5,-112.5 2802.5,-112.5 2802.5,-30.5 2617.5,-30.5"/>
<text text-anchor="start" x="2625.5" y="-98.3" font-family="Times New Roman,serif" font-weight="bold" font-size="14.00">CONTROL_STRUCTURE</text>
<text text-anchor="start" x="2677" y="-87.5" font-family="Times New Roman,serif" font-size="10.00">CODE: string (1)</text>
<text text-anchor="start" x="2649.5" y="-77.5" font-family="Times New Roman,serif" font-size="10.00">COLUMN_NUMBER: int (0:1)</text>
<text text-anchor="start" x="2660" y="-67.5" font-family="Times New Roman,serif" font-size="10.00">LINE_NUMBER: int (0:1)</text>
<text text-anchor="start" x="2680.5" y="-57.5" font-family="Times New Roman,serif" font-size="10.00">ORDER: int (1)</text>
<text text-anchor="start" x="2641" y="-47.5" font-family="Times New Roman,serif" font-size="10.00">PARSER_TYPE_NAME: string (1)</text>
<text text-anchor="start" x="2652.5" y="-37.5" font-family="Times New Roman,serif" font-size="10.00">ARGUMENT_INDEX: int (1)</text>
</g>
<!-- UNKNOWN&#45;&gt;CONTROL_STRUCTURE -->
<g id="edge10" class="edge">
<title>UNKNOWN&#45;&gt;CONTROL_STRUCTURE</title>
<path fill="none" stroke="blue" d="M1726.59,-224C2001.31,-224 2679.17,-224 2679.17,-224 2679.17,-224 2679.17,-122.77 2679.17,-122.77"/>
<polygon fill="blue" stroke="blue" points="2682.67,-122.77 2679.17,-112.77 2675.67,-122.77 2682.67,-122.77"/>
<text text-anchor="middle" x="2244.5" y="-226.6" font-family="Times New Roman,serif" font-size="8.00">CFG </text>
</g>
<!-- UNKNOWN&#45;&gt;CONTROL_STRUCTURE -->
<g id="edge24" class="edge">
<title>UNKNOWN&#45;&gt;CONTROL_STRUCTURE</title>
<path fill="none" stroke="red" d="M1726.57,-236C2012.75,-236 2740.83,-236 2740.83,-236 2740.83,-236 2740.83,-122.59 2740.83,-122.59"/>
<polygon fill="red" stroke="red" points="2744.33,-122.59 2740.83,-112.59 2737.33,-122.59 2744.33,-122.59"/>
<text text-anchor="middle" x="2280.91" y="-238.6" font-family="Times New Roman,serif" font-size="8.00">AST </text>
</g>
<!-- JUMP_TARGET -->
<g id="node15" class="node">
<title>JUMP_TARGET</title>
<polygon fill="none" stroke="black" points="2821,-20.5 2821,-122.5 2975,-122.5 2975,-20.5 2821,-20.5"/>
<text text-anchor="start" x="2843.5" y="-108.3" font-family="Times New Roman,serif" font-weight="bold" font-size="14.00">JUMP_TARGET</text>
<text text-anchor="start" x="2865" y="-97.5" font-family="Times New Roman,serif" font-size="10.00">CODE: string (1)</text>
<text text-anchor="start" x="2863" y="-87.5" font-family="Times New Roman,serif" font-size="10.00">NAME: string (1)</text>
<text text-anchor="start" x="2837.5" y="-77.5" font-family="Times New Roman,serif" font-size="10.00">COLUMN_NUMBER: int (0:1)</text>
<text text-anchor="start" x="2848" y="-67.5" font-family="Times New Roman,serif" font-size="10.00">LINE_NUMBER: int (0:1)</text>
<text text-anchor="start" x="2868.5" y="-57.5" font-family="Times New Roman,serif" font-size="10.00">ORDER: int (1)</text>
<text text-anchor="start" x="2829" y="-47.5" font-family="Times New Roman,serif" font-size="10.00">PARSER_TYPE_NAME: string (1)</text>
<text text-anchor="start" x="2840.5" y="-37.5" font-family="Times New Roman,serif" font-size="10.00">ARGUMENT_INDEX: int (1)</text>
<text text-anchor="start" x="2856" y="-27.5" font-family="Times New Roman,serif" font-size="10.00">INTERNAL_FLAGS </text>
</g>
<!-- UNKNOWN&#45;&gt;JUMP_TARGET -->
<g id="edge9" class="edge">
<title>UNKNOWN&#45;&gt;JUMP_TARGET</title>
<path fill="none" stroke="blue" d="M1726.74,-259C2045.37,-259 2923.67,-259 2923.67,-259 2923.67,-259 2923.67,-132.74 2923.67,-132.74"/>
<polygon fill="blue" stroke="blue" points="2927.17,-132.74 2923.67,-122.74 2920.17,-132.74 2927.17,-132.74"/>
<text text-anchor="middle" x="2379.33" y="-261.6" font-family="Times New Roman,serif" font-size="8.00">CFG </text>
</g>
<!-- UNKNOWN&#45;&gt;JUMP_TARGET -->
<g id="edge22" class="edge">
<title>UNKNOWN&#45;&gt;JUMP_TARGET</title>
<path fill="none" stroke="red" d="M1726.7,-247C2036.47,-247 2872.33,-247 2872.33,-247 2872.33,-247 2872.33,-132.73 2872.33,-132.73"/>
<polygon fill="red" stroke="red" points="2875.83,-132.73 2872.33,-122.73 2868.83,-132.73 2875.83,-132.73"/>
<text text-anchor="middle" x="2347.15" y="-249.6" font-family="Times New Roman,serif" font-size="8.00">AST </text>
</g>
<!-- EXPRESSION -->
<g id="node16" class="node">
<title>EXPRESSION</title>
<polygon fill="none" stroke="black" points="2993.5,-45.5 2993.5,-97.5 3124.5,-97.5 3124.5,-45.5 2993.5,-45.5"/>
<text text-anchor="start" x="3012.5" y="-83.3" font-family="Times New Roman,serif" font-weight="bold" font-size="14.00">EXPRESSION</text>
<text text-anchor="start" x="3026" y="-72.5" font-family="Times New Roman,serif" font-size="10.00">CODE: string (1)</text>
<text text-anchor="start" x="3029.5" y="-62.5" font-family="Times New Roman,serif" font-size="10.00">ORDER: int (1)</text>
<text text-anchor="start" x="3001.5" y="-52.5" font-family="Times New Roman,serif" font-size="10.00">ARGUMENT_INDEX: int (1)</text>
</g>
<!-- UNKNOWN&#45;&gt;EXPRESSION -->
<g id="edge25" class="edge">
<title>UNKNOWN&#45;&gt;EXPRESSION</title>
<path fill="none" stroke="gray" d="M1726.77,-270C2067.93,-270 3059,-270 3059,-270 3059,-270 3059,-107.86 3059,-107.86"/>
<polygon fill="none" stroke="gray" points="3062.5,-107.86 3059,-97.86 3055.5,-107.86 3062.5,-107.86"/>
<text text-anchor="middle" x="2470.95" y="-272.6" font-family="Times New Roman,serif" font-size="8.00">is</text>
</g>
</g>
</svg>
