<?xml version="1.0" encoding="UTF-8" standalone="no"?>
<!DOCTYPE svg PUBLIC "-//W3C//DTD SVG 1.1//EN"
 "http://www.w3.org/Graphics/SVG/1.1/DTD/svg11.dtd">
<!-- Generated by graphviz version 2.44.1 (0)
 -->
<!-- Title: cpgschema Pages: 1 -->
<svg width="2346pt" height="210pt"
 viewBox="0.00 0.00 2346.49 210.06" xmlns="http://www.w3.org/2000/svg" xmlns:xlink="http://www.w3.org/1999/xlink">
<g id="graph0" class="graph" transform="scale(1 1) rotate(0) translate(4 206.06)">
<title>cpgschema</title>
<polygon fill="white" stroke="transparent" points="-4,4 -4,-206.06 2342.49,-206.06 2342.49,4 -4,4"/>
<!-- UNKNOWN -->
<g id="node1" class="node">
<title>UNKNOWN</title>
<polygon fill="none" stroke="black" points="846.75,-72.5 846.75,-174.5 1056.75,-174.5 1056.75,-72.5 846.75,-72.5"/>
<text text-anchor="start" x="906.25" y="-160.3" font-family="Times,serif" font-weight="bold" font-size="14.00">UNKNOWN</text>
<text text-anchor="start" x="935.75" y="-149.5" font-family="Times,serif" font-size="10.00">CODE</text>
<text text-anchor="start" x="893.75" y="-139.5" font-family="Times,serif" font-size="10.00">PARSER_TYPE_NAME</text>
<text text-anchor="start" x="931.75" y="-129.5" font-family="Times,serif" font-size="10.00">ORDER</text>
<text text-anchor="start" x="898.75" y="-119.5" font-family="Times,serif" font-size="10.00">ARGUMENT_INDEX</text>
<text text-anchor="start" x="900.75" y="-109.5" font-family="Times,serif" font-size="10.00">TYPE_FULL_NAME</text>
<text text-anchor="start" x="854.75" y="-99.5" font-family="Times,serif" font-size="10.00">DYNAMIC_TYPE_HINT_FULL_NAME</text>
<text text-anchor="start" x="910.25" y="-89.5" font-family="Times,serif" font-size="10.00">LINE_NUMBER</text>
<text text-anchor="start" x="898.75" y="-79.5" font-family="Times,serif" font-size="10.00">COLUMN_NUMBER</text>
</g>
<!-- UNKNOWN&#45;&gt;UNKNOWN -->
<g id="edge11" class="edge">
<title>UNKNOWN&#45;&gt;UNKNOWN</title>
<path fill="none" stroke="blue" d="M986.75,-174.76C986.75,-181.98 986.75,-187 986.75,-187 986.75,-187 1077.15,-187 1077.15,-187 1077.15,-187 1077.15,-60 1077.15,-60 1077.15,-60 1051.31,-60 1051.31,-60 1051.31,-60 1051.31,-62.24 1051.31,-62.24"/>
<polygon fill="blue" stroke="blue" points="1047.81,-62.24 1051.31,-72.24 1054.81,-62.24 1047.81,-62.24"/>
<text text-anchor="middle" x="1087.65" y="-163.38" font-family="Times,serif" font-size="8.00">CFG </text>
</g>
<!-- UNKNOWN&#45;&gt;UNKNOWN -->
<g id="edge23" class="edge">
<title>UNKNOWN&#45;&gt;UNKNOWN</title>
<path fill="none" stroke="red" d="M916.75,-174.7C916.75,-188.16 916.75,-199 916.75,-199 916.75,-199 1097.54,-199 1097.54,-199 1097.54,-199 1097.54,-48 1097.54,-48 1097.54,-48 1045.87,-48 1045.87,-48 1045.87,-48 1045.87,-62.3 1045.87,-62.3"/>
<polygon fill="red" stroke="red" points="1042.37,-62.3 1045.87,-72.3 1049.37,-62.3 1042.37,-62.3"/>
<text text-anchor="middle" x="1088.04" y="-195.66" font-family="Times,serif" font-size="8.00">AST </text>
</g>
<!-- CALL -->
<g id="node2" class="node">
<title>CALL</title>
<ellipse fill="none" stroke="black" cx="35.75" cy="-18" rx="36" ry="18"/>
<text text-anchor="middle" x="35.75" y="-14.3" font-family="Times,serif" font-size="14.00">CALL</text>
</g>
<!-- UNKNOWN&#45;&gt;CALL -->
<g id="edge1" class="edge">
<title>UNKNOWN&#45;&gt;CALL</title>
<path fill="none" stroke="blue" d="M846.66,-165C603.72,-165 23.83,-165 23.83,-165 23.83,-165 23.83,-45.15 23.83,-45.15"/>
<polygon fill="blue" stroke="blue" points="27.33,-45.15 23.83,-35.15 20.33,-45.15 27.33,-45.15"/>
<text text-anchor="middle" x="364.82" y="-167.6" font-family="Times,serif" font-size="8.00">CFG </text>
</g>
<!-- UNKNOWN&#45;&gt;CALL -->
<g id="edge16" class="edge">
<title>UNKNOWN&#45;&gt;CALL</title>
<path fill="none" stroke="red" d="M846.71,-156C608.48,-156 47.66,-156 47.66,-156 47.66,-156 47.66,-45.2 47.66,-45.2"/>
<polygon fill="red" stroke="red" points="51.16,-45.2 47.66,-35.2 44.16,-45.2 51.16,-45.2"/>
<text text-anchor="middle" x="382.29" y="-158.6" font-family="Times,serif" font-size="8.00">AST </text>
</g>
<!-- IDENTIFIER -->
<g id="node3" class="node">
<title>IDENTIFIER</title>
<ellipse fill="none" stroke="black" cx="158.75" cy="-18" rx="68.79" ry="18"/>
<text text-anchor="middle" x="158.75" y="-14.3" font-family="Times,serif" font-size="14.00">IDENTIFIER</text>
</g>
<!-- UNKNOWN&#45;&gt;IDENTIFIER -->
<g id="edge2" class="edge">
<title>UNKNOWN&#45;&gt;IDENTIFIER</title>
<path fill="none" stroke="blue" d="M846.74,-146C626.37,-146 135.78,-146 135.78,-146 135.78,-146 135.78,-45 135.78,-45"/>
<polygon fill="blue" stroke="blue" points="139.28,-45 135.78,-35 132.28,-45 139.28,-45"/>
<text text-anchor="middle" x="430.26" y="-148.6" font-family="Times,serif" font-size="8.00">CFG </text>
</g>
<!-- UNKNOWN&#45;&gt;IDENTIFIER -->
<g id="edge18" class="edge">
<title>UNKNOWN&#45;&gt;IDENTIFIER</title>
<path fill="none" stroke="red" d="M846.69,-137C635.98,-137 181.71,-137 181.71,-137 181.71,-137 181.71,-45.05 181.71,-45.05"/>
<polygon fill="red" stroke="red" points="185.21,-45.05 181.71,-35.05 178.21,-45.05 185.21,-45.05"/>
<text text-anchor="middle" x="458.73" y="-139.6" font-family="Times,serif" font-size="8.00">AST </text>
</g>
<!-- FIELD_IDENTIFIER -->
<g id="node4" class="node">
<title>FIELD_IDENTIFIER</title>
<ellipse fill="none" stroke="black" cx="348.75" cy="-18" rx="102.88" ry="18"/>
<text text-anchor="middle" x="348.75" y="-14.3" font-family="Times,serif" font-size="14.00">FIELD_IDENTIFIER</text>
</g>
<!-- UNKNOWN&#45;&gt;FIELD_IDENTIFIER -->
<g id="edge3" class="edge">
<title>UNKNOWN&#45;&gt;FIELD_IDENTIFIER</title>
<path fill="none" stroke="blue" d="M846.52,-128C665.53,-128 314.52,-128 314.52,-128 314.52,-128 314.52,-45.19 314.52,-45.19"/>
<polygon fill="blue" stroke="blue" points="318.02,-45.19 314.52,-35.19 311.02,-45.19 318.02,-45.19"/>
<text text-anchor="middle" x="528.61" y="-130.6" font-family="Times,serif" font-size="8.00">CFG </text>
</g>
<!-- UNKNOWN&#45;&gt;FIELD_IDENTIFIER -->
<g id="edge19" class="edge">
<title>UNKNOWN&#45;&gt;FIELD_IDENTIFIER</title>
<path fill="none" stroke="red" d="M846.43,-118C682.02,-118 382.98,-118 382.98,-118 382.98,-118 382.98,-45.42 382.98,-45.42"/>
<polygon fill="red" stroke="red" points="386.48,-45.42 382.98,-35.42 379.48,-45.42 386.48,-45.42"/>
<text text-anchor="middle" x="568.91" y="-120.6" font-family="Times,serif" font-size="8.00">AST </text>
</g>
<!-- LITERAL -->
<g id="node5" class="node">
<title>LITERAL</title>
<ellipse fill="none" stroke="black" cx="521.75" cy="-18" rx="51.99" ry="18"/>
<text text-anchor="middle" x="521.75" y="-14.3" font-family="Times,serif" font-size="14.00">LITERAL</text>
</g>
<!-- UNKNOWN&#45;&gt;LITERAL -->
<g id="edge4" class="edge">
<title>UNKNOWN&#45;&gt;LITERAL</title>
<path fill="none" stroke="blue" d="M846.58,-109C714.35,-109 504.42,-109 504.42,-109 504.42,-109 504.42,-45.12 504.42,-45.12"/>
<polygon fill="blue" stroke="blue" points="507.92,-45.12 504.42,-35.12 500.92,-45.12 507.92,-45.12"/>
<text text-anchor="middle" x="633.06" y="-111.6" font-family="Times,serif" font-size="8.00">CFG </text>
</g>
<!-- UNKNOWN&#45;&gt;LITERAL -->
<g id="edge12" class="edge">
<title>UNKNOWN&#45;&gt;LITERAL</title>
<path fill="none" stroke="red" d="M846.55,-100C724.28,-100 539.08,-100 539.08,-100 539.08,-100 539.08,-44.99 539.08,-44.99"/>
<polygon fill="red" stroke="red" points="542.58,-44.99 539.08,-34.99 535.58,-44.99 542.58,-44.99"/>
<text text-anchor="middle" x="655.81" y="-102.6" font-family="Times,serif" font-size="8.00">AST </text>
</g>
<!-- RETURN -->
<g id="node6" class="node">
<title>RETURN</title>
<ellipse fill="none" stroke="black" cx="644.75" cy="-18" rx="52.79" ry="18"/>
<text text-anchor="middle" x="644.75" y="-14.3" font-family="Times,serif" font-size="14.00">RETURN</text>
</g>
<!-- UNKNOWN&#45;&gt;RETURN -->
<g id="edge5" class="edge">
<title>UNKNOWN&#45;&gt;RETURN</title>
<path fill="none" stroke="blue" d="M846.38,-90C751.61,-90 627.2,-90 627.2,-90 627.2,-90 627.2,-45.06 627.2,-45.06"/>
<polygon fill="blue" stroke="blue" points="630.7,-45.06 627.2,-35.06 623.7,-45.06 630.7,-45.06"/>
<text text-anchor="middle" x="703.82" y="-92.6" font-family="Times,serif" font-size="8.00">CFG </text>
</g>
<!-- UNKNOWN&#45;&gt;RETURN -->
<g id="edge20" class="edge">
<title>UNKNOWN&#45;&gt;RETURN</title>
<path fill="none" stroke="red" d="M846.43,-81C763.67,-81 662.3,-81 662.3,-81 662.3,-81 662.3,-45.22 662.3,-45.22"/>
<polygon fill="red" stroke="red" points="665.8,-45.21 662.3,-35.22 658.8,-45.22 665.8,-45.21"/>
<text text-anchor="middle" x="726.97" y="-83.6" font-family="Times,serif" font-size="8.00">AST </text>
</g>
<!-- METHOD_REF -->
<g id="node7" class="node">
<title>METHOD_REF</title>
<ellipse fill="none" stroke="black" cx="794.75" cy="-18" rx="79.09" ry="18"/>
<text text-anchor="middle" x="794.75" y="-14.3" font-family="Times,serif" font-size="14.00">METHOD_REF</text>
</g>
<!-- UNKNOWN&#45;&gt;METHOD_REF -->
<g id="edge6" class="edge">
<title>UNKNOWN&#45;&gt;METHOD_REF</title>
<path fill="none" stroke="blue" d="M860.39,-72.3C860.39,-72.3 860.39,-38.48 860.39,-38.48"/>
<polygon fill="blue" stroke="blue" points="863.89,-38.48 860.39,-28.48 856.89,-38.48 863.89,-38.48"/>
<text text-anchor="middle" x="849.89" y="-57.99" font-family="Times,serif" font-size="8.00">CFG </text>
</g>
<!-- TYPE_REF -->
<g id="node8" class="node">
<title>TYPE_REF</title>
<ellipse fill="none" stroke="black" cx="951.75" cy="-18" rx="59.59" ry="18"/>
<text text-anchor="middle" x="951.75" y="-14.3" font-family="Times,serif" font-size="14.00">TYPE_REF</text>
</g>
<!-- UNKNOWN&#45;&gt;TYPE_REF -->
<g id="edge7" class="edge">
<title>UNKNOWN&#45;&gt;TYPE_REF</title>
<path fill="none" stroke="blue" d="M951.75,-72.3C951.75,-72.3 951.75,-46.03 951.75,-46.03"/>
<polygon fill="blue" stroke="blue" points="955.25,-46.03 951.75,-36.03 948.25,-46.03 955.25,-46.03"/>
<text text-anchor="middle" x="941.25" y="-61.77" font-family="Times,serif" font-size="8.00">CFG </text>
</g>
<!-- BLOCK -->
<g id="node9" class="node">
<title>BLOCK</title>
<ellipse fill="none" stroke="black" cx="1073.75" cy="-18" rx="44.39" ry="18"/>
<text text-anchor="middle" x="1073.75" y="-14.3" font-family="Times,serif" font-size="14.00">BLOCK</text>
</g>
<!-- UNKNOWN&#45;&gt;BLOCK -->
<g id="edge8" class="edge">
<title>UNKNOWN&#45;&gt;BLOCK</title>
<path fill="none" stroke="blue" d="M1034.99,-72.3C1034.99,-72.3 1034.99,-36.95 1034.99,-36.95"/>
<polygon fill="blue" stroke="blue" points="1038.49,-36.95 1034.99,-26.95 1031.49,-36.95 1038.49,-36.95"/>
<text text-anchor="middle" x="1024.49" y="-57.22" font-family="Times,serif" font-size="8.00">CFG </text>
</g>
<!-- UNKNOWN&#45;&gt;BLOCK -->
<g id="edge21" class="edge">
<title>UNKNOWN&#45;&gt;BLOCK</title>
<path fill="none" stroke="red" d="M1040.43,-72.3C1040.43,-72.3 1040.43,-40.12 1040.43,-40.12"/>
<polygon fill="red" stroke="red" points="1043.93,-40.12 1040.43,-30.12 1036.93,-40.12 1043.93,-40.12"/>
<text text-anchor="middle" x="1049.93" y="-58.81" font-family="Times,serif" font-size="8.00">AST </text>
</g>
<!-- JUMP_TARGET -->
<g id="node10" class="node">
<title>JUMP_TARGET</title>
<ellipse fill="none" stroke="black" cx="1216.75" cy="-18" rx="80.69" ry="18"/>
<text text-anchor="middle" x="1216.75" y="-14.3" font-family="Times,serif" font-size="14.00">JUMP_TARGET</text>
</g>
<!-- UNKNOWN&#45;&gt;JUMP_TARGET -->
<g id="edge9" class="edge">
<title>UNKNOWN&#45;&gt;JUMP_TARGET</title>
<path fill="none" stroke="blue" d="M1057.12,-92C1140.72,-92 1243.61,-92 1243.61,-92 1243.61,-92 1243.61,-45.16 1243.61,-45.16"/>
<polygon fill="blue" stroke="blue" points="1247.11,-45.16 1243.61,-35.16 1240.11,-45.16 1247.11,-45.16"/>
<text text-anchor="middle" x="1163.28" y="-94.6" font-family="Times,serif" font-size="8.00">CFG </text>
</g>
<!-- UNKNOWN&#45;&gt;JUMP_TARGET -->
<g id="edge22" class="edge">
<title>UNKNOWN&#45;&gt;JUMP_TARGET</title>
<path fill="none" stroke="red" d="M1056.89,-82C1120.68,-82 1189.88,-82 1189.88,-82 1189.88,-82 1189.88,-45.15 1189.88,-45.15"/>
<polygon fill="red" stroke="red" points="1193.38,-45.15 1189.88,-35.15 1186.38,-45.15 1193.38,-45.15"/>
<text text-anchor="middle" x="1132.31" y="-84.6" font-family="Times,serif" font-size="8.00">AST </text>
</g>
<!-- CONTROL_STRUCTURE -->
<g id="node11" class="node">
<title>CONTROL_STRUCTURE</title>
<ellipse fill="none" stroke="black" cx="1439.75" cy="-18" rx="124.28" ry="18"/>
<text text-anchor="middle" x="1439.75" y="-14.3" font-family="Times,serif" font-size="14.00">CONTROL_STRUCTURE</text>
</g>
<!-- UNKNOWN&#45;&gt;CONTROL_STRUCTURE -->
<g id="edge10" class="edge">
<title>UNKNOWN&#45;&gt;CONTROL_STRUCTURE</title>
<path fill="none" stroke="blue" d="M1056.97,-113C1211.35,-113 1481.13,-113 1481.13,-113 1481.13,-113 1481.13,-44.98 1481.13,-44.98"/>
<polygon fill="blue" stroke="blue" points="1484.63,-44.98 1481.13,-34.98 1477.63,-44.98 1484.63,-44.98"/>
<text text-anchor="middle" x="1292.56" y="-115.6" font-family="Times,serif" font-size="8.00">CFG </text>
</g>
<!-- UNKNOWN&#45;&gt;CONTROL_STRUCTURE -->
<g id="edge24" class="edge">
<title>UNKNOWN&#45;&gt;CONTROL_STRUCTURE</title>
<path fill="none" stroke="red" d="M1057.02,-102C1189.06,-102 1398.37,-102 1398.37,-102 1398.37,-102 1398.37,-45 1398.37,-45"/>
<polygon fill="red" stroke="red" points="1401.87,-45 1398.37,-35 1394.87,-45 1401.87,-45"/>
<text text-anchor="middle" x="1246.7" y="-104.6" font-family="Times,serif" font-size="8.00">AST </text>
</g>
<!-- MEMBER -->
<g id="node12" class="node">
<title>MEMBER</title>
<ellipse fill="none" stroke="black" cx="1638.75" cy="-18" rx="56.59" ry="18"/>
<text text-anchor="middle" x="1638.75" y="-14.3" font-family="Times,serif" font-size="14.00">MEMBER</text>
</g>
<!-- UNKNOWN&#45;&gt;MEMBER -->
<g id="edge13" class="edge">
<title>UNKNOWN&#45;&gt;MEMBER</title>
<path fill="none" stroke="red" d="M1056.84,-123C1249.28,-123 1638.75,-123 1638.75,-123 1638.75,-123 1638.75,-46.29 1638.75,-46.29"/>
<polygon fill="red" stroke="red" points="1642.25,-46.29 1638.75,-36.29 1635.25,-46.29 1642.25,-46.29"/>
<text text-anchor="middle" x="1376.65" y="-125.6" font-family="Times,serif" font-size="8.00">AST </text>
</g>
<!-- MODIFIER -->
<g id="node13" class="node">
<title>MODIFIER</title>
<ellipse fill="none" stroke="black" cx="1774.75" cy="-18" rx="61.99" ry="18"/>
<text text-anchor="middle" x="1774.75" y="-14.3" font-family="Times,serif" font-size="14.00">MODIFIER</text>
</g>
<!-- UNKNOWN&#45;&gt;MODIFIER -->
<g id="edge14" class="edge">
<title>UNKNOWN&#45;&gt;MODIFIER</title>
<path fill="none" stroke="red" d="M1056.82,-133C1278.69,-133 1774.75,-133 1774.75,-133 1774.75,-133 1774.75,-46.22 1774.75,-46.22"/>
<polygon fill="red" stroke="red" points="1778.25,-46.22 1774.75,-36.22 1771.25,-46.22 1778.25,-46.22"/>
<text text-anchor="middle" x="1449.67" y="-135.6" font-family="Times,serif" font-size="8.00">AST </text>
</g>
<!-- ARRAY_INITIALIZER -->
<g id="node14" class="node">
<title>ARRAY_INITIALIZER</title>
<ellipse fill="none" stroke="black" cx="1960.75" cy="-18" rx="106.68" ry="18"/>
<text text-anchor="middle" x="1960.75" y="-14.3" font-family="Times,serif" font-size="14.00">ARRAY_INITIALIZER</text>
</g>
<!-- UNKNOWN&#45;&gt;ARRAY_INITIALIZER -->
<g id="edge15" class="edge">
<title>UNKNOWN&#45;&gt;ARRAY_INITIALIZER</title>
<path fill="none" stroke="red" d="M1056.87,-144C1315.3,-144 1960.75,-144 1960.75,-144 1960.75,-144 1960.75,-46.05 1960.75,-46.05"/>
<polygon fill="red" stroke="red" points="1964.25,-46.05 1960.75,-36.05 1957.25,-46.05 1964.25,-46.05"/>
<text text-anchor="middle" x="1548.28" y="-146.6" font-family="Times,serif" font-size="8.00">AST </text>
</g>
<!-- LOCAL -->
<g id="node15" class="node">
<title>LOCAL</title>
<ellipse fill="none" stroke="black" cx="2127.75" cy="-18" rx="42.79" ry="18"/>
<text text-anchor="middle" x="2127.75" y="-14.3" font-family="Times,serif" font-size="14.00">LOCAL</text>
</g>
<!-- UNKNOWN&#45;&gt;LOCAL -->
<g id="edge17" class="edge">
<title>UNKNOWN&#45;&gt;LOCAL</title>
<path fill="none" stroke="red" d="M1056.88,-154C1345.33,-154 2127.75,-154 2127.75,-154 2127.75,-154 2127.75,-46.06 2127.75,-46.06"/>
<polygon fill="red" stroke="red" points="2131.25,-46.06 2127.75,-36.06 2124.25,-46.06 2131.25,-46.06"/>
<text text-anchor="middle" x="1636.79" y="-156.6" font-family="Times,serif" font-size="8.00">AST </text>
</g>
<!-- EXPRESSION -->
<g id="node16" class="node">
<title>EXPRESSION</title>
<ellipse fill="none" stroke="black" cx="2263.75" cy="-18" rx="74.99" ry="18"/>
<text text-anchor="middle" x="2263.75" y="-14.3" font-family="Times,serif" font-size="14.00">EXPRESSION</text>
</g>
<!-- UNKNOWN&#45;&gt;EXPRESSION -->
<g id="edge25" class="edge">
<title>UNKNOWN&#45;&gt;EXPRESSION</title>
<path fill="none" stroke="gray" d="M1056.9,-164C1368.23,-164 2263.75,-164 2263.75,-164 2263.75,-164 2263.75,-46.2 2263.75,-46.2"/>
<polygon fill="none" stroke="gray" points="2267.25,-46.2 2263.75,-36.2 2260.25,-46.2 2267.25,-46.2"/>
<text text-anchor="middle" x="1715.72" y="-166.6" font-family="Times,serif" font-size="8.00">is</text>
</g>
</g>
</svg>
